<svg id="Layer_1" data-name="Layer 1" xmlns="http://www.w3.org/2000/svg" viewBox="0 0 100 100"><defs><style>.cls-1{fill:#ffa879;}.cls-2{fill:#fff;}.cls-3{fill:none;}</style></defs><path class="cls-1" d="M50,93.91c-7.56,0-15.19-2.49-15.19-8s7.63-8,15.19-8,15.19,2.48,15.19,8S57.56,93.91,50,93.91Zm-6.88-8a20.06,20.06,0,0,0,6.88,1,20.06,20.06,0,0,0,6.88-1,20.12,20.12,0,0,0-6.88-1A20.12,20.12,0,0,0,43.12,85.86Z"/><path class="cls-1" d="M62.15,70.85h-7V65.14l.13-.47c1.46-5,3.89-8.8,6.25-12.44,3.64-5.63,6.79-10.5,6.28-19.75-.32-6-2.27-10.78-5.78-14.2-6.4-6.23-17-6.35-24-.29-4,3.43-6,8.22-5.86,14.24.21,11.76,4.17,17.26,7.65,22.11,2.46,3.4,4.77,6.62,5,11.12v4.86h-7V65.74c-.16-2.41-1.64-4.47-3.69-7.32-3.68-5.11-8.72-12.11-9-26.06-.15-8.09,2.72-14.9,8.3-19.68,9.8-8.4,24.5-8.14,33.47.58,4.82,4.69,7.47,11,7.89,18.84.63,11.52-3.63,18.11-7.4,23.93a40.67,40.67,0,0,0-5.25,10.12Z"/><path class="cls-1" d="M50,81.32c-7.56,0-15.19-2.49-15.19-8s7.63-8,15.19-8,15.19,2.48,15.19,8S57.56,81.32,50,81.32Zm-6.87-8a20,20,0,0,0,6.87,1,20,20,0,0,0,6.87-1,20,20,0,0,0-6.87-1A20,20,0,0,0,43.13,73.27Z"/><path class="cls-1" d="M50,87.1c-7.56,0-15.19-2.49-15.19-8S42.44,71,50,71s15.19,2.49,15.19,8S57.56,87.1,50,87.1Zm-6.88-8a19.82,19.82,0,0,0,6.88,1,19.82,19.82,0,0,0,6.88-1A20.12,20.12,0,0,0,50,78,20.12,20.12,0,0,0,43.12,79.05Z"/><path class="cls-2" d="M39.36,72.71c0-1.91,4.76-3.45,10.64-3.45s10.64,1.54,10.64,3.45"/><path class="cls-2" d="M39.36,79.6c0-1.91,4.76-3.46,10.64-3.46s10.64,1.55,10.64,3.46"/><path class="cls-2" d="M39.36,86.4C39.36,84.5,44.12,83,50,83S60.64,84.5,60.64,86.4"/><path class="cls-3" d="M50.5,31.5c-3,5-.52,8.07,1.52,8.5,3.38.72,6.66-4.23,6.82-9C59,25.81,55.43,21.73,52,21c-4.7-1-7.94,4.32-8.34,5a17.62,17.62,0,0,0-.76,15,11.44,11.44,0,0,0,7.58,7V65"/><path class="cls-1" d="M49.53,30.93c-1.39,2.42-2.31,5.57-.63,8.1a4.51,4.51,0,0,0,5.62,1.76c2.76-1.18,4.41-4.34,5.08-7.12a12.2,12.2,0,0,0-1.46-9.34,9.46,9.46,0,0,0-6.45-4.51A8.17,8.17,0,0,0,45,22.53c-3.81,3.8-5,9.47-4.25,14.68s4.1,10.56,9.49,11.87L49.38,48V65a1.12,1.12,0,0,0,2.24,0V48a1.13,1.13,0,0,0-.82-1.08c-8.38-2.05-10-14.17-6-20.56,1.72-2.78,4.9-5.51,8.29-3.8,4.76,2.4,5.73,8.77,3.38,13.17-.83,1.57-2.87,4.22-4.91,2.85-2.24-1.51-1.11-4.68-.06-6.51a1.13,1.13,0,0,0-1.94-1.14Z"/></svg>