<svg id="Layer_1" data-name="Layer 1" xmlns="http://www.w3.org/2000/svg" viewBox="0 0 100 100"><defs><style>.cls-1,.cls-2{fill:none;}.cls-1,.cls-2,.cls-3{stroke:#ffa879;stroke-miterlimit:10;}.cls-1{stroke-width:3px;}.cls-2,.cls-3{stroke-width:7px;}.cls-3{fill:#fff;}.cls-4{fill:#ffa879;}</style></defs><line class="cls-1" x1="10.5" y1="62.5" x2="89" y2="62.5"/><rect class="cls-2" x="14.8" y="35.5" width="70.39" height="16.51" rx="0.1"/><rect class="cls-2" x="8.02" y="54.29" width="83.96" height="33.21" rx="0.1"/><line class="cls-1" x1="16.5" y1="43.5" x2="82.5" y2="43.5"/><polyline class="cls-3" points="48.52 21.99 64.39 30.76 64.39 87.04 35.61 87.04 35.61 30.76 51.48 21.99"/><path class="cls-2" d="M50.09,64.5h0a5.07,5.07,0,0,1,5.07,5.07V84.73a0,0,0,0,1,0,0H45a0,0,0,0,1,0,0V69.57A5.07,5.07,0,0,1,50.09,64.5Z"/><circle class="cls-1" cx="50.09" cy="39.06" r="5.07"/><line class="cls-1" x1="50.55" y1="21.99" x2="50.55" y2="10"/><path class="cls-4" d="M50.55,10h5.58a5.49,5.49,0,0,1,5.49,5.49v0a0,0,0,0,1,0,0H50.55a0,0,0,0,1,0,0V10A0,0,0,0,1,50.55,10Z"/><circle class="cls-1" cx="49.84" cy="52.49" r="3.01"/><circle class="cls-1" cx="78.5" cy="73.58" r="5.07"/><circle class="cls-1" cx="21.5" cy="73.58" r="5.07"/></svg>