<svg id="Layer_1" data-name="Layer 1" xmlns="http://www.w3.org/2000/svg" viewBox="0 0 100 100"><defs><style>.cls-1{fill:none;}.cls-2{fill:#ffa879;}</style></defs><ellipse class="cls-1" cx="50.51" cy="32.97" rx="15.27" ry="15.65"/><path class="cls-2" d="M50.51,51.94A19.14,19.14,0,0,1,31.25,33a19.26,19.26,0,0,1,38.52,0A19.14,19.14,0,0,1,50.51,51.94Zm0-31.3c-6.21,0-11.27,5.53-11.27,12.33S44.3,45.3,50.51,45.3,61.79,39.77,61.79,33,56.73,20.64,50.51,20.64Z"/><path class="cls-1" d="M88.17,86.46s.86-35.26-22-32.89A21.89,21.89,0,0,1,50.4,61a22,22,0,0,1-16.34-7.38A17.85,17.85,0,0,0,24.93,55c-9.08,4.12-14.26,16.71-12.88,31.5"/><path class="cls-2" d="M8.06,86.72C6.55,70.46,12.42,56.85,23,52.05A22.52,22.52,0,0,1,34.5,50.27l1.76.16,1,1.2c.89,1,5.72,6.1,13,6a17.58,17.58,0,0,0,12.58-6l1-1.17,1.73-.18A20.38,20.38,0,0,1,80.48,54c12.11,9.07,11.71,31.55,11.68,32.5l-8-.13c.13-5.66-1.25-21.6-9.05-27.44a11.06,11.06,0,0,0-6.93-2.18,26,26,0,0,1-17.73,7.49H50.1A25.85,25.85,0,0,1,32,56.8a12.59,12.59,0,0,0-5.2,1.08C19.25,61.32,14.8,73,16,86.21Zm80.11-.26-4-.06h0Z"/></svg>