<svg id="Layer_1" data-name="Layer 1" xmlns="http://www.w3.org/2000/svg" viewBox="0 0 100 100"><defs><style>.cls-1{fill:none;}.cls-2{fill:#ffa879;}</style></defs><rect class="cls-1" x="10" y="28" width="80" height="51" rx="3.98"/><path class="cls-2" d="M86,82.5H14A7.49,7.49,0,0,1,6.5,75V32A7.49,7.49,0,0,1,14,24.5H86A7.49,7.49,0,0,1,93.5,32V75A7.49,7.49,0,0,1,86,82.5Zm-72-51a.49.49,0,0,0-.48.48V75a.49.49,0,0,0,.48.48H86A.49.49,0,0,0,86.5,75V32A.49.49,0,0,0,86,31.5Z"/><path class="cls-2" d="M49.06,59.48a15.68,15.68,0,0,1-10-3.7L8.77,30.7l4.46-5.4L43.52,50.39a8.3,8.3,0,0,0,10.89.15l32-25.29,4.35,5.5L58.75,56A15.62,15.62,0,0,1,49.06,59.48Z"/></svg>