<?xml version="1.0" encoding="UTF-8" standalone="no"?>
<!DOCTYPE svg PUBLIC "-//W3C//DTD SVG 1.1//EN" "http://www.w3.org/Graphics/SVG/1.1/DTD/svg11.dtd">
<svg width="100%" height="100%" viewBox="0 0 1140 437" version="1.1" xmlns="http://www.w3.org/2000/svg" xmlns:xlink="http://www.w3.org/1999/xlink" xml:space="preserve" xmlns:serif="http://www.serif.com/" style="fill-rule:evenodd;clip-rule:evenodd;stroke-miterlimit:10;">
    <g transform="matrix(1,0,0,1,-2760.37,-4092.21)">
        <g transform="matrix(0.981585,0,0,0.934526,71.0429,275.282)">
            <rect id="full-lc" x="2739.78" y="4084.35" width="1160.45" height="466.74" style="fill:none;"/>
            <g id="full-lc1" serif:id="full-lc">
                <g transform="matrix(1.01876,0,0,1.07006,3427.81,4266.32)">
                    <path d="M0,0.113C-0.174,-0.399 -0.627,-1.838 -1.373,-4.219C-2.531,-7.914 -4.042,-11.583 -5.89,-15.168C-11.694,-26.356 -20.617,-28.596 -25.055,-28.983C-27.061,-29.185 -29.128,-29.287 -31.203,-29.287C-35.436,-29.287 -39.854,-28.848 -44.405,-28.004C-41.776,-32.671 -39.983,-37.555 -39.076,-42.609C-37.434,-51.785 -41.041,-60.473 -48.755,-65.87C-53.787,-69.374 -59.192,-71.251 -64.811,-71.447C-65.206,-71.461 -65.594,-71.468 -65.979,-71.468C-79.104,-71.468 -89.082,-63.105 -91.398,-50.179C-92.282,-45.268 -91.496,-40.497 -89.269,-36.47C-89.842,-36.009 -90.406,-35.575 -90.958,-35.172C-95.38,-31.938 -100.068,-27.707 -101.3,-20.841C-101.543,-19.486 -101.605,-18.123 -101.525,-16.776C-105.248,-17.885 -109.199,-18.48 -113.323,-18.48C-120.317,-18.48 -125.69,-16.877 -127.171,-16.386C-127.324,-16.335 -127.479,-16.283 -127.633,-16.23C-128.294,-17.534 -129.097,-18.777 -130.038,-19.944C-133.014,-23.638 -138.698,-28.117 -148.874,-28.479C-149.366,-28.496 -149.863,-28.505 -150.364,-28.505C-154.994,-28.505 -160.004,-27.738 -165.253,-26.228C-171.253,-24.501 -173.9,-23.553 -176.146,-22.324L-179.548,-20.464L-186.552,-11.306C-188.242,-13.039 -190.346,-14.842 -192.915,-16.438C-201.225,-21.603 -210.976,-22.687 -217.69,-22.687C-221.211,-22.687 -223.781,-22.396 -224.533,-22.3C-246.793,-19.42 -265.157,-6.996 -276.445,2.674C-277.498,1.245 -278.7,-0.108 -280.089,-1.346C-284.072,-4.863 -288.888,-7.134 -294.189,-8.024C-294.421,-13.813 -296.356,-19.377 -299.901,-24.37C-303.931,-30.077 -310.311,-34.773 -319.407,-38.726L-337.374,-46.531L-343.876,-28.272C-344.092,-27.758 -345.071,-25.554 -348.892,-17.939C-349.677,-16.379 -350.518,-14.761 -351.414,-13.088C-352.345,-14.055 -353.295,-14.989 -354.278,-15.86C-359.656,-20.597 -366.136,-23.23 -373.02,-23.475C-373.337,-23.486 -373.652,-23.491 -373.969,-23.491C-381.837,-23.491 -389.308,-20.179 -396.176,-13.645C-396.935,-12.948 -397.721,-12.213 -398.537,-11.439C-400.157,-12.963 -401.942,-14.483 -403.919,-16.023C-410.083,-20.819 -416.086,-23.254 -422.244,-23.467L-422.674,-23.48L-423.002,-23.48C-431.969,-23.48 -439.875,-17.885 -448.994,-9.476C-450.785,-7.822 -452.609,-6.09 -454.46,-4.289C-454.602,-4.827 -454.733,-5.366 -454.911,-5.903C-455.547,-7.811 -456.241,-9.537 -456.975,-11.032L-457.247,-11.588L-457.556,-12.123C-467.046,-28.544 -479.079,-32.341 -487.49,-32.635C-488.146,-32.658 -488.807,-32.669 -489.474,-32.669C-491.153,-32.669 -492.868,-32.564 -494.598,-32.411C-489.327,-37.413 -485.003,-41.752 -481.537,-45.525L-481.426,-45.647C-470.476,-57.787 -463.675,-66.555 -460.025,-73.243C-458.022,-76.915 -454.292,-83.749 -453.273,-92.938C-452.547,-99.508 -453.303,-104.561 -453.853,-108.245C-454.955,-115.62 -456.696,-123.691 -461.941,-132.73C-463.572,-135.542 -467.391,-142.127 -474.803,-148.073C-478.041,-150.671 -484.07,-155.506 -492.548,-156.926C-494.127,-157.192 -495.74,-157.326 -497.341,-157.326C-509.744,-157.326 -518.567,-149.675 -525.009,-144.088L-526.041,-143.194C-534.543,-135.86 -543.792,-126.051 -553.532,-114.038C-563.047,-102.304 -572.629,-88.896 -582.011,-74.188C-588.512,-63.998 -597.821,-49.568 -608.068,-29.304C-619.278,-7.138 -626.137,11.037 -630.198,21.892C-633.298,30.177 -635.715,37.235 -637.435,42.435C-637.435,42.435 -643.135,46.143 -649.693,53.502C-652.074,56.173 -659.539,64.765 -662.123,78.191C-663.089,83.209 -664.864,96.654 -657.82,109.588C-655.212,114.379 -652.163,117.683 -650.756,119.116C-646.572,123.377 -641.503,126.75 -635.733,129.074C-628.224,132.104 -620.085,133.911 -611.547,134.446C-608.198,134.656 -605.722,134.7 -603.521,134.696C-590.501,134.676 -580.301,132.842 -576.635,132.165C-549.629,127.183 -536.127,124.688 -534.46,124.386C-515.101,120.874 -508.801,120.062 -500.975,119.557C-484.349,118.486 -479.636,124.307 -477.68,126.875C-474.153,131.506 -474.029,137.429 -473.982,140.432C-473.871,147.63 -476.365,153.118 -477.843,155.838C-473.375,156.494 -462.347,157.439 -452.414,150.908C-437.13,140.86 -435.374,120.299 -438.003,107.414C-438.292,105.993 -439.798,99.449 -444.317,92.196C-443.467,91.608 -442.608,90.995 -441.733,90.337C-440.239,89.214 -438.731,88.038 -437.214,86.813C-436.795,87.36 -436.356,87.897 -435.899,88.425C-429.53,95.785 -420.078,99.737 -407.808,100.167C-407.403,100.181 -407,100.189 -406.595,100.189C-398.186,100.189 -389.988,97.047 -382.88,91.096C-378.698,87.59 -374.278,83.685 -369.739,79.486C-369.416,79.196 -369.103,78.896 -368.783,78.604C-368.502,81.708 -367.858,84.796 -366.806,87.817C-364.875,93.342 -358.181,106.27 -337.728,106.992C-337.256,107.009 -336.782,107.017 -336.307,107.017C-326.155,107.017 -316.131,103.247 -306.505,95.804C-305.93,95.359 -305.36,94.898 -304.789,94.441C-302.691,96.924 -300.444,98.866 -298.314,100.359C-295.679,102.205 -293.032,103.71 -290.226,104.958C-282.076,108.585 -275.151,109.104 -272.874,109.273C-271.624,109.367 -270.352,109.414 -269.093,109.414C-256.853,109.414 -247.112,104.937 -242.432,102.787C-237.382,100.467 -233.485,98.041 -229.683,95.316C-229.166,95.945 -228.628,96.561 -228.048,97.152C-221.022,104.299 -213.411,106.019 -208.255,106.201C-207.854,106.216 -207.461,106.223 -207.076,106.223C-194.405,106.222 -187.227,98.857 -184.515,91.525C-184.427,91.323 -184.322,91.088 -184.195,90.82C-182.609,95.761 -180.069,99.415 -177.62,102.006C-173.242,106.644 -165.34,112.269 -152.544,112.727C-152.163,112.741 -151.782,112.748 -151.396,112.748C-141.792,112.747 -131.547,108.557 -119.835,99.607C-118.47,100.899 -116.965,102.094 -115.308,103.173C-108.148,107.845 -99.754,110.383 -90.365,110.714C-89.536,110.743 -88.716,110.757 -87.902,110.757C-78.994,110.757 -70.68,108.993 -63.193,105.511C-56.577,102.496 -50.53,98.355 -45.193,93.178C-38.589,86.747 -34.473,79.205 -32.959,70.765C-31.141,60.641 -33.585,50.404 -40.027,41.16L-40.168,40.959C-42.979,37.04 -45.8,33.758 -48.725,31.021C-48.299,30.841 -47.864,30.662 -47.418,30.484C-43.09,28.754 -38.738,27.429 -34.536,26.554C-30.905,25.81 -28.458,25.55 -26.891,25.479C-24.054,26.631 -21.425,26.957 -19.364,26.955C-15.594,26.955 -11.922,25.874 -8.746,23.827L-8.617,23.743C-3.708,20.519 -0.444,15.627 0.563,10.012L0.689,9.317L1.508,4.589L0,0.113Z" style="fill:rgb(2,58,81);fill-rule:nonzero;"/>
                </g>
                <g transform="matrix(1.01876,0,0,1.07006,2857.53,4257.76)">
                    <path d="M0,94.429C-3.868,94.294 -6.852,92.964 -8.952,90.435C-11.046,87.91 -12.416,85.009 -13.034,81.712C-13.66,78.424 -13.762,75.621 -13.347,73.298C-11.931,65.413 -7.9,57.154 -1.236,48.512C5.414,39.88 13.474,31.877 22.945,24.506C32.403,17.136 42.047,11.174 51.865,6.622C61.67,2.066 70.445,-0.079 78.173,0.198C83.733,0.392 88.641,4.189 92.91,11.575C93.26,12.288 93.643,13.234 94.037,14.419C94.428,15.6 94.525,16.768 94.318,17.926C93.944,20.015 92.846,21.376 91.038,22.014C90.749,22.236 90.341,21.464 89.811,19.696C89.274,17.924 86.834,16.963 82.49,16.809C78.378,16.666 72.61,18.331 65.181,21.801C57.749,25.274 49.808,29.892 41.36,35.665C32.907,41.441 25.095,47.695 17.934,54.443C10.763,61.192 5.263,67.777 1.447,74.173C0.665,75.782 -0.11,77.388 -0.878,78.991C-1.656,80.6 -2.145,81.984 -2.352,83.138C-2.726,85.228 -2.186,86.298 -0.738,86.349C0.71,86.4 2.783,85.662 5.495,84.12C11.191,80.818 17.283,76.658 23.777,71.635C30.268,66.611 36.622,61.355 42.841,55.852C49.056,50.353 54.433,45.114 58.973,40.141C63.51,35.166 66.555,31.074 68.105,27.855C68.92,26.022 71.863,25.187 76.941,25.368C81.046,25.511 84.396,26.506 86.979,28.349C89.568,30.192 89.944,32.131 88.123,34.166C82.648,40.275 77.246,46.682 71.911,53.378C66.572,60.075 62.319,66.871 59.138,73.761C58.724,74.684 58.396,75.484 58.151,76.178C57.9,76.867 57.745,77.448 57.66,77.909C57.242,80.231 57.993,81.425 59.931,81.492C62.106,81.571 64.706,80.611 67.747,78.617C73.65,74.157 80.097,68.374 87.081,61.269C94.071,54.16 101.232,47.12 108.566,40.139C111.148,37.905 112.814,36.792 113.534,36.816C114.261,36.843 114.52,37.438 114.313,38.596C114.146,39.523 113.735,40.446 113.086,41.351C111.703,43.642 109.941,45.97 107.817,48.345C105.689,50.72 103.737,52.813 101.956,54.617C100.447,56.199 97.878,59.026 94.232,63.098C90.585,67.17 86.402,71.456 81.709,75.96C77.008,80.467 72.31,84.329 67.6,87.542C62.883,90.761 58.721,92.307 55.098,92.177C50.027,91.999 46.255,90.288 43.804,87.05C41.344,83.811 40.347,80.922 40.806,78.365C41.387,75.121 41.904,72.921 42.356,71.765C43.249,69.468 44.536,66.711 46.208,63.5C47.876,60.292 49.462,57.194 50.977,54.213C48.581,56.701 45.033,60.191 40.34,64.692C35.64,69.199 30.631,73.749 25.309,78.341C19.987,82.94 14.981,86.788 10.294,89.892C5.601,92.993 2.175,94.508 0,94.429" style="fill:white;fill-rule:nonzero;"/>
                </g>
                <g transform="matrix(1.01876,0,0,1.07006,2960.65,4268.14)">
                    <path d="M0,86.418C-5.071,86.24 -9.046,85.049 -11.938,82.845C-14.82,80.641 -15.933,77.682 -15.267,73.97C-14.309,68.635 -11.484,62.377 -6.787,55.189C-2.094,47.998 2.22,41.559 6.166,35.862C6.047,35.156 5.877,34.396 5.666,33.565C5.448,32.743 5.921,31.77 7.103,30.644C14.678,22.274 21.82,14.999 28.518,8.814C35.224,2.632 39.776,-0.42 42.196,-0.333C44.371,-0.258 46.952,0.943 49.94,3.266C52.924,5.593 55.315,7.836 57.116,10.001C52.134,14.724 46.608,20.081 40.562,26.049C34.506,32.02 28.853,38.124 23.602,44.36C18.345,50.593 14.136,56.453 10.962,61.941C9.039,65.848 8.006,68.263 7.839,69.188C7.547,70.813 7.877,71.638 8.849,71.673C10.535,71.732 13.651,69.976 18.178,66.403C24.696,61.262 31.95,54.691 39.957,46.687C47.953,38.688 55.7,30.731 63.204,22.822C70.694,14.919 76.774,8.83 81.433,4.556C84.95,1.178 88.287,-0.452 91.428,-0.341C94.086,-0.246 96.514,0.774 98.72,2.718C100.919,4.667 102.977,7.068 104.894,9.939C100.761,13.994 95.586,19.475 89.363,26.371C83.141,33.277 77.312,40.364 71.872,47.643C66.427,54.922 62.611,61.318 60.402,66.841C59.991,67.764 59.626,68.801 59.296,69.955C58.963,71.116 58.72,72.157 58.557,73.081C57.932,76.562 58.578,78.337 60.515,78.405C62.201,78.464 64.729,77.274 68.084,74.817C72.291,71.7 76.787,67.66 81.565,62.692C86.344,57.724 91.533,52.535 97.127,47.131C99.431,45.116 101.541,43.147 103.468,41.232C105.395,39.317 107.386,37.345 109.453,35.312C113.871,31.033 116.559,28.908 117.531,28.944C118.252,28.968 117.842,30.242 116.296,32.752C114.753,35.272 112.716,38.117 110.204,41.29C107.683,44.476 105.232,47.307 102.844,49.783C100.09,52.961 97.037,56.408 93.693,60.142C90.349,63.877 86.789,67.429 83.031,70.796C78.66,74.841 74.467,78.547 70.456,81.909C66.446,85.267 62.276,86.87 57.933,86.716C50.918,86.47 45.958,84.663 43.038,81.29C40.115,77.917 39.039,74.141 39.786,69.966C40.497,66.025 42.493,61.309 45.786,55.825C49.079,50.335 51.952,45.533 54.396,41.417C52.452,42.749 49.162,45.847 44.526,50.7C39.881,55.56 34.698,60.743 28.965,66.258C23.235,71.78 17.696,76.537 12.36,80.55C7.021,84.563 2.902,86.521 0,86.418" style="fill:white;fill-rule:nonzero;"/>
                </g>
                <g transform="matrix(1.01876,0,0,1.07006,3091.06,4250.08)">
                    <path d="M0,110.413C-6.77,110.175 -10.913,107.87 -12.439,103.497C-13.962,99.128 -13.959,94.746 -12.45,90.368C-10.401,84.37 -7.307,78.992 -3.171,74.238C0.968,69.48 5.113,64.958 9.296,60.666C12.242,57.742 14.463,55.247 15.921,53.201C17.385,51.155 17.163,49.976 15.277,49.675C13.897,50.562 11.803,51.423 8.976,52.252C6.155,53.092 3.412,53.461 0.761,53.366C-1.414,53.291 -3.385,52.752 -5.152,51.754C-6.92,50.762 -7.953,49.089 -8.262,46.742C-11.348,50.37 -14.252,53.709 -16.988,56.765C-19.723,59.819 -22.311,62.701 -24.741,65.42C-29.241,70.163 -33.446,74.626 -37.358,78.806C-41.269,82.991 -46.26,87.77 -52.329,93.158C-54.348,94.958 -56.092,95.827 -57.546,95.775C-58.994,95.724 -59.568,94.887 -59.276,93.262C-59.11,92.338 -58.586,91.418 -57.689,90.515C-50.964,84.222 -45.365,78.758 -40.889,74.128C-36.413,69.501 -31.178,64.025 -25.18,57.698C-19.103,50.91 -13.476,43.29 -8.314,34.837C-3.149,26.383 1.138,18.772 4.543,12.004C7.938,5.24 9.891,1.161 10.383,-0.222C16.239,2.321 20.2,5.028 22.23,7.902C24.269,10.772 24.998,13.835 24.414,17.082C23.622,21.494 20.688,25.94 15.638,30.429C10.574,34.924 4.91,39.042 -1.35,42.782C0.282,45.881 2.542,47.475 5.444,47.578C8.578,47.688 12.015,46.532 15.734,44.09C19.451,41.655 22.304,39.659 24.289,38.09C28.982,33.589 33.632,31.416 38.22,31.579C40.877,31.673 43.093,32.512 44.881,34.09C46.659,35.675 47.345,37.623 46.931,39.943C46.72,41.104 46.149,42.25 45.215,43.384C40.759,47.899 35.625,53.431 29.837,59.997C24.033,66.562 18.67,73.083 13.742,79.565C8.808,86.04 5.08,91.572 2.562,96.148C2.147,97.071 1.828,97.818 1.613,98.394C1.383,98.972 1.23,99.49 1.145,99.954C0.812,101.812 1.492,102.765 3.184,102.824C4.387,102.867 5.92,102.455 7.779,101.587C9.638,100.722 11.133,99.838 12.265,98.942C17.281,95.392 23.755,89.782 31.701,82.123C39.633,74.47 47.024,67.143 53.875,60.146C58.086,55.63 60.798,53.386 62.008,53.426C63.218,53.47 63.002,54.988 61.378,57.959C59.746,60.94 57.25,64.352 53.886,68.202C49.387,72.944 44.17,78.658 38.226,85.328C32.293,92.005 26,97.916 19.373,103.047C12.736,108.178 6.274,110.635 0,110.413" style="fill:white;fill-rule:nonzero;"/>
                </g>
                <g transform="matrix(1.01876,0,0,1.07006,3208.12,4369.8)">
                    <path d="M0,-94.314C0,-94.314 11.892,-95.853 19.606,-91.059C23.096,-88.89 24.765,-85.818 24.765,-85.818C25.442,-84.567 25.706,-83.535 25.781,-83.224C26.118,-81.817 26.148,-80.334 25.868,-78.775C25.328,-75.759 23.65,-72.491 20.826,-68.975C18.006,-65.451 14.657,-62.365 10.779,-59.697C4.468,-55.724 -2.671,-51.827 -10.644,-48.028C-18.617,-44.221 -25.911,-40.515 -32.515,-36.896C-39.128,-33.276 -43.611,-29.635 -45.962,-25.987C-46.656,-24.845 -47.485,-24.293 -48.45,-24.329C-50.142,-24.388 -50.452,-25.328 -49.398,-27.163C-45.735,-34.035 -40.444,-39.8 -33.535,-44.458C-26.622,-49.114 -19.461,-53.473 -12.039,-57.532C-4.63,-61.585 1.568,-65.977 6.554,-70.706C10.272,-73.842 12.385,-76.804 12.885,-79.587C13.429,-82.597 12.004,-84.167 8.626,-84.285C5.73,-84.388 2.376,-83.338 -1.42,-81.141C-12.207,-75.22 -22.754,-67.244 -33.065,-57.221C-43.372,-47.198 -50.952,-36.786 -55.812,-25.99C-57.032,-23.227 -57.854,-20.686 -58.269,-18.37C-59.06,-13.961 -58.409,-10.849 -56.302,-9.021C-54.201,-7.194 -51.464,-6.226 -48.078,-6.104C-45.176,-6.001 -42.077,-6.355 -38.763,-7.175C-35.463,-7.989 -32.472,-9.051 -29.808,-10.363C-25.811,-12.318 -21.701,-14.916 -17.469,-18.154C-13.17,-21.445 -9.948,-24.191 -6.749,-27.055C-1.492,-31.762 3.874,-36.565 9.648,-42.358C29.495,-62.27 43.224,-81.573 45.591,-80.146C46.704,-79.475 43.91,-73.606 43.317,-72.03C41.884,-68.216 39.564,-65.578 38.195,-64.227C38,-64.034 37.726,-63.816 37.348,-63.429C35.424,-61.46 34.621,-59.483 34.424,-59.041C32.828,-55.462 22.499,-46.856 13.712,-38.232C6.244,-30.902 7.569,-32.022 3.904,-28.528C-2.245,-22.665 -6.27,-18.829 -11.802,-14.542C-17.863,-9.845 -21.75,-6.834 -27.891,-4.012C-32.611,-1.843 -40.17,1.539 -49.326,0.854C-51.204,0.714 -55.55,0.316 -60.599,-1.931C-62.275,-2.677 -63.933,-3.612 -65.629,-4.8C-70.707,-8.358 -73.195,-14.463 -73.104,-23.098C-73.182,-24.031 -73.029,-25.545 -72.655,-27.634C-71.018,-36.777 -66.625,-44.299 -62.579,-50.214C-59.543,-54.655 -56.005,-60.156 -49.782,-66.612C-45.665,-70.882 -25.547,-91.009 0,-94.314" style="fill:white;fill-rule:nonzero;"/>
                </g>
                <g transform="matrix(1.01876,0,0,1.07006,3327.86,4362.7)">
                    <path d="M0,-82.548C1.912,-81.888 2.645,-80.785 2.787,-80.562C3.427,-79.553 3.606,-78.25 3.319,-76.653C2.487,-72.011 -0.448,-66.863 -5.474,-61.208C-10.503,-55.547 -15.973,-49.788 -21.883,-43.931C-27.521,-38.29 -33.122,-31.483 -38.675,-23.513C-44.248,-15.533 -47.524,-8.768 -48.523,-3.202C-49.358,1.443 -48.206,3.815 -45.066,3.926C-43.611,3.977 -41.555,3.351 -38.894,2.042C-36.756,0.955 -32.482,-1.875 -26.07,-6.431C-19.66,-10.988 -12.545,-17.453 -4.715,-25.815C-2.289,-28.527 -0.107,-29.851 1.83,-29.784C2.788,-29.749 3.324,-29.32 3.422,-28.503C3.514,-27.676 3.217,-26.696 2.53,-25.558C-18.924,-0.866 -35.083,11.283 -45.952,10.899C-51.268,10.71 -55.405,9.04 -58.363,5.907C-61.327,2.771 -62.222,-2.048 -61.057,-8.549C-60.058,-14.115 -58.082,-19.702 -55.129,-25.323C-52.179,-30.931 -49.138,-36.019 -46.005,-40.578C-42.885,-45.138 -40.382,-48.549 -38.516,-50.821C-31.502,-60.139 -28.953,-64.84 -30.884,-64.907C-32.576,-64.97 -36.909,-62.142 -43.89,-56.436C-50.874,-50.731 -59.55,-42.692 -69.915,-32.32C-79.07,-23.305 -85.325,-16.231 -88.676,-11.1C-92.03,-5.966 -94.359,-1.788 -95.668,1.436C-96.289,3.513 -98.288,4.493 -101.666,4.374C-104.324,4.279 -106.783,3.089 -109.046,0.786C-111.307,-1.513 -112.077,-4.629 -111.37,-8.577C-111.163,-9.732 -109.535,-12.713 -106.487,-17.509C-103.435,-22.303 -99.824,-27.889 -95.637,-34.283C-91.448,-40.666 -87.391,-46.711 -83.446,-52.411C-79.511,-58.105 -76.544,-62.435 -74.553,-65.4C-77.159,-67.125 -77.391,-69.234 -75.239,-71.728L-61.418,-89.799C-60.613,-90.239 -58.224,-91.027 -54.244,-92.172C-50.275,-93.314 -46.716,-93.831 -43.576,-93.721C-39.226,-93.567 -37.305,-92.1 -37.808,-89.313C-38.056,-87.921 -39.439,-85.634 -41.951,-82.458C-42.889,-81.317 -45.089,-78.541 -48.552,-74.112C-52.028,-69.683 -55.921,-64.57 -60.241,-58.77C-64.563,-52.969 -68.59,-47.503 -72.298,-42.384C-76.019,-37.265 -78.707,-33.446 -80.376,-30.94C-80.417,-30.706 -80.508,-30.534 -80.648,-30.423C-80.794,-30.312 -80.886,-30.136 -80.926,-29.909C-81.093,-28.978 -80.041,-29.757 -77.764,-32.246C-76.08,-34.088 -74.209,-35.76 -72.6,-37.668C-67.182,-44.094 -36.345,-75.614 -15.458,-82.549C-15.458,-82.549 -7.581,-85.164 0,-82.548" style="fill:white;fill-rule:nonzero;"/>
                </g>
                <g transform="matrix(1.01876,0,0,1.07006,3348.05,4208.76)">
                    <path d="M0,41.573C-1.121,41.533 -1.636,41.245 -1.54,40.704C-1.379,39.807 0.007,38.407 2.611,36.503C5.212,34.604 7.881,32.344 10.621,29.724C13.352,27.101 14.996,24.263 15.547,21.201C16.03,18.5 15.659,16.634 14.426,15.594C13.199,14.553 11.961,13.558 10.717,12.606C9.475,11.657 9.013,10.285 9.338,8.484C10.369,2.724 13.884,-0.052 19.886,0.162C22.513,0.254 25.12,1.209 27.718,3.018C30.316,4.835 31.343,7.271 30.795,10.329C29.794,15.911 27.227,21.251 23.107,26.358C18.978,31.47 14.194,35.555 8.737,38.621C7.486,39.303 6.089,39.98 4.554,40.646C3.018,41.319 1.5,41.625 0,41.573" style="fill:white;fill-rule:nonzero;"/>
                </g>
                <g transform="matrix(1.01876,0,0,1.07006,3344.4,4261.33)">
                    <path d="M0,103.626C-6.043,103.412 -11.238,101.889 -15.591,99.048C-19.945,96.213 -21.599,91.895 -20.559,86.092C-20.182,84.003 -19.424,81.814 -18.286,79.515C-16.74,76.307 -14.959,74.208 -12.96,73.229C-10.962,72.246 -10.231,72.568 -10.762,74.182C-11.669,76.485 -11.553,78.59 -10.438,80.497C-9.323,82.404 -7.665,83.978 -5.452,85.223C-2.757,86.491 -0.456,87.153 1.481,87.22C6.314,87.391 11.048,85.751 15.677,82.294C20.312,78.844 22.997,75.024 23.748,70.849C24.247,68.066 23.819,65.719 22.459,63.8C20.27,59.756 17.616,56.567 14.516,54.237C11.406,51.913 9.262,48.628 8.082,44.38L7.593,45.065C4.99,48.709 2.264,52.057 -0.591,55.106C-3.452,58.155 -6.092,61.036 -8.522,63.755C-13.022,68.497 -17.287,72.959 -21.318,77.134C-25.348,81.316 -30.405,86.093 -36.474,91.481C-38.493,93.281 -40.237,94.149 -41.691,94.098C-43.139,94.046 -43.714,93.21 -43.421,91.585C-43.255,90.66 -42.731,89.741 -41.834,88.837C-35.109,82.544 -29.457,77.083 -24.856,72.456C-20.261,67.837 -15.085,62.356 -9.325,56.021C-6.328,52.86 -3.194,49.297 0.075,45.322C3.334,41.356 5.903,37.536 7.779,33.865C8.87,26.435 12.562,20.091 18.856,14.823C25.146,9.564 32.411,5.672 40.645,3.162C48.873,0.652 56.326,-0.249 63.008,0.452C64.694,0.515 66.221,1.853 67.578,4.466C68.927,7.085 70.027,9.75 70.877,12.462C71.726,15.178 72.233,16.77 72.396,17.245L72.27,17.939C72.144,18.636 71.728,19.202 71.052,19.646C70.359,20.093 69.497,19.826 68.457,18.852C67.774,18.601 66.584,18.439 64.892,18.379C61.269,18.249 56.811,18.74 51.503,19.828C46.205,20.93 40.862,22.549 35.503,24.691C30.126,26.836 25.622,29.242 21.989,31.914C18.342,34.59 16.473,37.559 16.378,40.819C16.32,43.859 17.231,46.226 19.114,47.923C20.997,49.627 23.327,51.518 26.121,53.6C28.898,55.681 31.754,58.761 34.671,62.829C38.341,68.097 39.698,73.401 38.74,78.734C37.907,83.376 35.571,87.551 31.751,91.27C27.924,94.982 23.63,97.927 18.866,100.089C13.292,102.694 7.001,103.875 0,103.626" style="fill:white;fill-rule:nonzero;"/>
                </g>
                <g transform="matrix(1.01876,0,0,1.07006,2814.56,4173.39)">
                    <path d="M0,180.72C-4.715,179.585 -7.577,176.272 -8.596,175.063C-13.636,169.081 -14.363,160.993 -14.062,153.191C-13.449,137.3 -8.669,125.08 -6.444,119.559C0.847,101.465 8.199,87.074 15.321,73.901C22.849,59.975 29.833,47.238 40.605,30.351C49.672,16.135 58.762,3.415 67.871,-7.819C76.976,-19.05 85.385,-27.988 93.1,-34.643C99.084,-39.804 104.92,-45.305 111.608,-44.184C115.388,-43.55 118.542,-41.019 120.937,-39.098C125.578,-35.374 127.988,-31.306 129.41,-28.856C133.054,-22.574 134.291,-17.126 135.229,-10.851C135.763,-7.275 136.163,-4.275 135.718,-0.26C135.137,4.991 133.119,8.966 131.092,12.679C128.217,17.948 121.91,25.983 112.168,36.783C107.658,41.694 101.3,47.91 93.089,55.432C84.875,62.96 75.912,71.025 66.203,79.62C56.487,88.224 47.117,96.585 38.097,104.706C29.073,112.833 21.373,120.195 14.987,126.797C8.604,133.4 -3.244,143.556 -4.553,146.841C-5.327,148.612 -6.159,149.464 -7.034,149.409C-8.14,149.34 -8.277,148.036 -7.455,145.492C-6.613,142.695 0.898,133.741 5.701,129.134C10.568,124.466 17.531,116.912 23.724,109.906C29.912,102.906 36.555,96.345 43.66,88.359C50.349,80.842 56.129,73.676 62.521,66.938C68.911,60.21 74.416,54.394 79.035,49.493C83.654,44.596 86.807,41.308 88.446,39.578C91.256,36.612 100.642,27.434 102.951,25.116C107.035,21.015 112.284,15.636 115.756,11.33C121.927,3.678 124.606,-2.903 124.897,-7.551C125.14,-11.426 123.72,-13.461 120.637,-13.654C118.435,-13.792 115.609,-12.803 112.159,-10.686C108.712,-8.566 104.621,-5.061 99.893,-0.171C91.095,9.655 80.705,21.066 68.728,34.059C56.744,47.062 44.973,61.171 33.406,76.397C21.836,91.626 12.2,107.818 4.49,124.972C3.176,128.264 1.436,133.086 -0.728,139.43C-2.9,145.782 -4.172,152.056 -4.56,158.256C-4.82,162.392 -4.446,166.111 -3.437,169.415C-3.05,170.682 -2.311,172.309 -0.887,174.03C2.941,178.654 8.264,178.792 8.124,179.889C8.003,180.834 3.926,181.665 0,180.72M145.408,226.025C145.668,223.843 145.825,220.121 144.516,215.817C144.261,214.976 143.016,211.045 139.698,206.984C139.698,206.984 133.496,199.404 122.233,196.143C99.294,189.501 41.228,211.299 -3.216,210.869C-10.243,210.802 -22.264,210.126 -30.915,201.74C-31.993,200.694 -39.133,193.562 -39.793,182.55C-39.977,179.479 -39.716,176.572 -39.098,173.848C-37.73,167.82 -34.59,163.039 -29.165,157.134C-24.378,151.925 -16.387,144.314 -4.268,136.901C-6.518,138.19 -7.961,138.829 -8.204,138.514C-8.413,138.243 -7.842,137.186 -7.227,136.997C-6.44,136.754 -7.458,143.28 -7.399,143.337C-6.837,143.878 -4.705,139.066 -4.781,140.265C-4.802,140.607 -6.75,146.621 -6.847,146.94C-6.991,147.414 -6.987,147.619 -6.969,147.727C-6.962,147.767 -6.961,147.85 -6.948,147.851C-6.908,147.853 -6.729,147.058 -6.847,146.94C-7.439,146.347 -24.003,154.292 -26.426,169.303C-26.749,171.302 -27.644,177.402 -24.313,183.474C-23.794,184.419 -21.521,188.368 -15.763,191.792C-8.205,196.287 -0.252,196.568 10.571,196.001C25.455,195.22 36.805,193.292 41.361,192.503C56.04,189.963 61.209,188.633 70.403,186.91C71.966,186.617 74.585,186.141 80.271,185.187C96.184,182.518 104.141,181.183 106.567,181.036C113.879,180.593 130.627,179.576 142.017,190.208C143.336,191.44 149.337,197.239 151.32,206.103C152.527,211.501 151.723,215.524 151.491,216.573C150.692,220.196 149.256,222.208 148.905,222.684C147.693,224.327 146.349,225.391 145.408,226.025" style="fill:white;fill-rule:nonzero;"/>
                </g>
                <g transform="matrix(1.01876,0,0,1.07006,3622.88,4523.42)">
                    <path d="M0,-334.194C-8.084,-339.54 -35.254,-325.093 -50.648,-304.799C-54.525,-299.688 -56.84,-295.301 -58.205,-292.535C-74.568,-259.388 -70.578,-230.431 -77.952,-194.617C-81.599,-176.902 -85.489,-153.543 -102.323,-133.033C-130.583,-98.602 -164.309,-108.464 -182.379,-75.97C-191.575,-59.434 -194.753,-35.459 -184.049,-19.48C-167.42,5.346 -203.624,-60.603 -150.143,-72.551C-132.841,-76.416 -67.803,-28.014 -62.558,-33.251C-42.325,-53.449 -45.042,-63.805 -32.483,-69.515C-8.684,-80.336 14.574,-50.15 33.484,-59.956C49.013,-68.009 52.776,-94.16 41.698,-110.755C31.885,-125.455 16.121,-124.125 -1.647,-137.233C-26.393,-155.486 -30.579,-183.692 -33.348,-202.444C-44.044,-274.881 13.044,-325.567 0,-334.194" style="fill:rgb(255,49,86);fill-rule:nonzero;"/>
                </g>
                <g transform="matrix(1.01876,0,0,1.07006,3623,4506.48)">
                    <path d="M0,-318.532C4.618,-315.212 0.277,-307.583 -1.409,-303.588C-3.714,-298.782 -6.316,-294.14 -8.79,-289.435C-26.812,-256.889 -38.756,-220.446 -31.393,-183.064C-28.02,-160.929 -21.114,-139.216 -2.883,-124.896C4.181,-119.006 12.432,-115.269 20.981,-111.83C31.769,-107.654 41.092,-102.373 46.13,-91.184C53.869,-74.668 50.728,-49.168 32.232,-41.363C23.343,-38.032 13.715,-42.043 5.776,-45.537C-3.608,-49.641 -13.277,-54.787 -23.632,-54.095C-31.353,-53.485 -37.833,-49.593 -41.597,-42.736C-45.58,-36.043 -50.096,-28.642 -55.33,-22.866C-56.635,-21.372 -59.43,-18.355 -60.852,-16.957L-61.38,-16.414C-61.465,-16.334 -61.438,-16.337 -61.616,-16.189C-62.168,-15.686 -62.831,-15.5 -63.457,-15.437C-65.916,-15.307 -67.882,-16.333 -69.974,-17.142C-89.25,-26.366 -106.67,-38.81 -125.78,-48.26C-130.512,-50.607 -135.316,-52.855 -140.287,-54.476C-143.36,-55.422 -146.491,-56.313 -149.634,-55.909C-177.623,-50.325 -183.378,-28.552 -179.154,-3.114C-179.034,-1.495 -178.471,0.213 -178.87,1.899C-178.93,2.035 -179.022,2.245 -179.306,2.398C-179.771,2.616 -180.083,2.425 -180.382,2.241C-181.127,1.689 -181.634,0.927 -182.176,0.251C-183.813,-1.909 -185.236,-4.16 -186.594,-6.499C-194.106,-21.058 -192.386,-38.71 -186.555,-53.535C-182.644,-63.593 -175.949,-72.709 -166.975,-78.832C-158.103,-84.958 -147.856,-88.505 -138.162,-92.895C-118.509,-101.183 -102.74,-115.512 -93.209,-134.639C-85.985,-148.672 -82.708,-164.404 -79.599,-179.847C-78.552,-185.016 -77.607,-190.212 -76.89,-195.456C-73.877,-216.452 -72.995,-238.069 -66.488,-258.47C-63.084,-268.599 -58.937,-278.614 -52.626,-287.307C-43.029,-300.12 -30.24,-310.636 -15.564,-317.038C-10.751,-318.843 -4.897,-321.148 0,-318.532M-0.221,-318.198C-4.893,-320.736 -10.785,-318.319 -15.388,-316.614C-25.145,-312.463 -33.869,-306.074 -41.482,-298.747C-53.254,-287.774 -60.266,-273.183 -64.799,-257.953C-70.843,-237.497 -71.027,-216.102 -73.744,-195.028C-74.389,-189.724 -75.265,-184.437 -76.252,-179.169C-79.307,-163.41 -82.521,-147.463 -90.034,-133.022C-100.014,-113.128 -116.468,-98.604 -137.035,-90.335C-146.845,-86.091 -157,-82.791 -165.722,-76.991C-174.5,-71.222 -181.053,-62.6 -185.034,-52.911C-191.942,-36.219 -192.961,-15.236 -181.206,-0.476C-180.734,0.149 -180.276,0.791 -179.7,1.248C-179.623,1.335 -179.528,1.239 -179.858,1.324C-180.092,1.522 -179.952,1.44 -179.965,1.335C-179.889,-0.039 -180.198,-1.497 -180.376,-2.943C-184.907,-29.279 -178.632,-51.482 -149.928,-57.694C-132.79,-59.748 -87.369,-27.804 -68.73,-20.063C-67.134,-19.405 -65.258,-18.603 -63.692,-18.677C-63.66,-18.672 -63.757,-18.662 -63.805,-18.594C-63.698,-18.69 -63.322,-19.095 -63.174,-19.248C-57.729,-24.839 -52.709,-31.05 -48.729,-37.764C-45.848,-42.388 -43.612,-47.4 -39.514,-51.316C-30.756,-59.32 -17.972,-59.174 -7.51,-55.333C4.079,-51.814 19.011,-40.94 30.768,-45.225C46.645,-52.155 48.999,-75.153 42.256,-89.371C35.129,-105.312 18.432,-106.772 4.716,-114.815C-14.98,-125.566 -26.867,-145.284 -31.552,-166.776C-36.297,-187.67 -37.828,-209.564 -33.17,-230.595C-28.849,-251.584 -19.603,-271.092 -9.311,-289.716C-6.768,-294.385 -4.174,-299.031 -1.845,-303.798C-0.015,-308.021 3.981,-315.067 -0.221,-318.198" style="fill:white;fill-rule:nonzero;"/>
                </g>
                <g transform="matrix(1.01876,0,0,1.07006,3753.88,4510.99)">
                    <path d="M0,-261.431C0,-261.431 33.033,-152.712 60.482,-115.119C87.932,-77.527 127.269,-51.846 131.775,-28.229C136.281,-4.612 126.797,2.628 126.797,2.628C126.797,2.628 102.441,14.571 68.114,14.384C33.786,14.198 -4.453,-50.162 -10.974,-53.781C-17.495,-57.4 -13.464,-263.026 -14.29,-269.514C-15.116,-276.002 0,-261.431 0,-261.431" style="fill:rgb(255,49,86);fill-rule:nonzero;"/>
                </g>
                <g transform="matrix(1.01876,0,0,1.07006,3753.7,4515.31)">
                    <path d="M0,-265.359C-3.04,-268.074 -6.299,-270.861 -9.733,-273.128C-10.598,-273.678 -11.5,-274.201 -12.402,-274.519C-12.835,-274.67 -13.328,-274.696 -13.435,-274.595C-13.305,-263.851 -13.01,-252.95 -13.04,-242.151C-12.545,-189.335 -13.202,-131.525 -11.352,-78.763C-10.994,-72.439 -10.899,-64.985 -9.456,-59.297C-6.588,-57.316 -1.733,-50.295 1.38,-46.378C15.941,-27.665 32.714,-5.222 54.226,5.474C58.841,7.655 63.739,9.06 68.82,9.117C70.601,9.076 73.286,9.144 75.058,9.073C84.408,8.733 93.773,7.668 102.919,5.614C110.871,3.944 119.638,1.11 126.553,-1.948C132.094,-7.496 132.782,-16.168 132.44,-23.638C132.218,-26.697 131.786,-29.956 131.133,-32.955C129.338,-40.623 124.595,-47.14 119.664,-53.2C115.646,-58.059 111.229,-62.595 106.778,-67.093C93.336,-80.533 79.211,-93.526 67.003,-108.21C46.236,-132.681 35.084,-163.48 23.606,-192.983C14.883,-216.76 6.851,-240.98 0,-265.359M0.341,-265.568C10.496,-235.697 21.318,-205.48 33.425,-176.404C42.135,-156.216 50.774,-135.571 63.847,-117.832C77.063,-100.012 92.935,-84.557 108.236,-68.507C112.595,-63.88 116.891,-59.173 120.872,-54.18C125.778,-47.966 130.547,-41.113 132.367,-33.23C133.022,-30.143 133.431,-26.857 133.648,-23.712C133.983,-15.738 133.397,-6.81 127.345,-0.825C119.616,2.735 111.528,5.215 103.298,7.256C90.997,10.168 78.219,11.849 65.557,11.448C38.493,8.316 14.254,-23.959 -1.699,-44.005C-5.098,-48.105 -8.023,-52.805 -11.978,-56.176C-12.246,-56.366 -12.51,-56.614 -12.681,-56.868C-12.796,-57.018 -12.858,-57.128 -12.911,-57.226L-13.078,-57.542C-14.195,-60.312 -14.31,-63.155 -14.672,-65.912C-16.796,-91.113 -16.498,-116.306 -16.62,-141.532C-16.55,-183.167 -15.587,-225.633 -14.705,-267.314C-14.609,-269.726 -14.731,-272.145 -14.676,-274.488C-14.632,-274.818 -14.438,-275.238 -14.063,-275.516C-11.096,-277.208 -1.985,-267.717 0.341,-265.568" style="fill:white;fill-rule:nonzero;"/>
                </g>
                <g transform="matrix(1.01876,0,0,1.07006,3610.01,4502.88)">
                    <path d="M0,-296.952C-7.594,-300.937 -30.223,-285.794 -41.963,-266.554C-44.92,-261.708 -46.566,-257.64 -47.521,-255.083C-58.968,-224.442 -52.871,-199.307 -56.165,-167.12C-57.794,-151.199 -59.134,-130.288 -72.122,-110.731C-93.927,-77.897 -124.498,-83.568 -137.505,-53.35C-144.125,-37.973 -150.88,-5.032 -133.933,-3.471C-85.691,0.971 -49.042,3.985 -26.75,-8.43C-13.045,-16.062 12.487,-16.753 16.637,-21.831C32.645,-41.418 -15.517,-54.9 -4.97,-61.047C15.015,-72.698 38.184,-48.201 53.956,-58.521C66.908,-66.996 67.886,-90.353 56.652,-103.974C46.701,-116.039 32.943,-113.461 16.13,-123.414C-7.283,-137.274 -13.486,-161.731 -17.597,-177.992C-33.479,-240.805 12.253,-290.522 0,-296.952" style="fill:rgb(255,49,86);fill-rule:nonzero;"/>
                </g>
                <g transform="matrix(1.01876,0,0,1.07006,3610.1,4503.75)">
                    <path d="M0,-297.951C4.419,-295.415 1.223,-288.197 0.089,-284.484C-1.531,-279.997 -3.401,-275.62 -5.186,-271.214C-8.79,-262.418 -12.17,-253.528 -14.767,-244.401C-21.407,-221.685 -22.282,-197.239 -15.323,-174.514C-9.313,-151.125 2.161,-130.613 25.703,-121.537C34.484,-117.934 44.749,-116.856 52.68,-111.146C60.995,-105.146 65.458,-95.105 66.256,-85.117C67.701,-69.374 58.282,-51.691 40.216,-55.029C25.736,-57.196 10.925,-67.91 -3.383,-60.529C-3.727,-60.339 -4.437,-60.018 -4.646,-59.724C-4.621,-59.722 -4.636,-59.788 -4.624,-59.793C-4.053,-58.342 -2.231,-57.062 -0.928,-55.987C2.739,-53.185 6.791,-50.559 10.586,-47.52C19.331,-40.799 26.544,-30.996 17.432,-21C13.327,-17.748 7.98,-17.308 3.143,-16.099C-1.539,-15.138 -6.19,-14.262 -10.763,-13.163C-15.323,-12.059 -19.846,-10.778 -23.988,-8.853L-30.418,-5.673C-32.123,-5.002 -33.831,-4.332 -35.553,-3.711C-38.275,-2.865 -41.547,-1.958 -44.356,-1.408C-46.422,-0.871 -49.396,-0.567 -51.498,-0.182C-75.288,2.616 -99.289,0.1 -123.017,-1.915C-124.966,-2.149 -131.69,-2.681 -133.676,-2.909C-141.058,-3.284 -144.788,-9.597 -145.593,-16.27C-147.182,-29.527 -142.836,-46.567 -136.855,-58.426C-134.576,-62.729 -131.584,-66.698 -128.044,-70.036C-121.018,-76.734 -112.181,-80.901 -103.814,-85.484C-86.735,-94.188 -73.068,-107.651 -65.777,-125.496C-60.163,-138.564 -58.379,-152.89 -56.995,-166.974C-55.396,-181.164 -55.679,-195.406 -55.455,-209.68C-55.216,-228.625 -52.706,-248.183 -43.625,-265.079C-36.54,-277.462 -26.125,-288.084 -13.714,-295.153C-9.602,-297.21 -4.606,-299.826 0,-297.951M-0.186,-297.597C-7.384,-300.567 -19.77,-291.154 -25.145,-286.64C-32.325,-280.46 -38.641,-273.17 -43.272,-264.884C-45.934,-260.245 -47.688,-255.17 -49.335,-250.102C-56.397,-227.76 -54.1,-204.19 -54.797,-181.118C-55.137,-171.584 -56.087,-162.112 -57.231,-152.634C-59.475,-133.677 -66.263,-114.652 -79.64,-100.628C-86.248,-93.562 -94.414,-88.163 -102.778,-83.6C-111.102,-78.986 -119.735,-74.845 -126.455,-68.373C-129.804,-65.18 -132.619,-61.409 -134.757,-57.312C-140.56,-45.951 -146.978,-21.992 -141.041,-10.328C-139.508,-7.386 -136.646,-5.751 -133.43,-5.591L-129.877,-5.276L-122.774,-4.655C-103.306,-3.011 -83.73,-1.376 -64.211,-2.171C-59.042,-2.489 -53.548,-2.925 -48.449,-3.847C-44.528,-4.461 -40.352,-5.558 -36.577,-6.756C-34.95,-7.356 -33.338,-8.003 -31.729,-8.644L-25.393,-11.834C-13.363,-17.508 0.063,-18.027 12.466,-22.189C13.566,-22.67 14.547,-23.093 15.136,-23.768C16.348,-25.25 17.396,-27.032 17.8,-28.89C19.108,-35.575 12.954,-40.696 8.245,-44.566C4.593,-47.454 0.628,-49.981 -3.286,-52.924C-4.818,-54.125 -6.401,-55.349 -7.588,-57.041C-9.574,-59.852 -8.274,-62.666 -5.243,-63.998C9.822,-72.268 25.935,-61.63 40.826,-59.112C56.047,-56.228 63.359,-71.685 62.19,-84.809C61.526,-93.625 57.583,-102.671 50.328,-107.91C42.632,-113.443 33.012,-114.41 24.347,-118.143C-0.25,-127.978 -11.93,-149.276 -17.684,-173.892C-24.268,-197.027 -22.823,-221.856 -15.734,-244.682C-13.024,-253.833 -9.536,-262.719 -5.836,-271.483C-4.003,-275.872 -2.087,-280.228 -0.43,-284.672C0.801,-288.554 3.813,-295.144 -0.186,-297.597" style="fill:white;fill-rule:nonzero;"/>
                </g>
                <g transform="matrix(1.01876,0,0,1.07006,3649.05,4524.44)">
                    <path d="M0,-162.14C0,-162.14 3.456,-108.911 -19.33,-109.705C-42.116,-110.498 -70.949,-106.287 -89.794,-95.713C-121.134,-78.129 -128.278,-40.44 -123.97,-20.523C-119.216,1.455 166.932,26.739 176.512,-6.345C186.092,-39.429 176.958,-85.863 116.391,-98.613C84.718,-105.281 46.879,-103.156 46.879,-103.156L60.999,-188.879L0,-162.14Z" style="fill:rgb(159,34,53);fill-rule:nonzero;"/>
                </g>
                <g transform="matrix(1.01876,0,0,1.07006,3647.06,4510.91)">
                    <path d="M0,-148.629L1.955,-149.491C2.248,-149.474 62.888,-176.472 63.148,-176.481C63.184,-176.479 49.168,-90.545 49.178,-90.45L48.814,-90.855C71.501,-91.752 94.392,-91.053 116.742,-86.785C135.29,-83.212 153.852,-75.404 166.469,-60.882C182.571,-42.746 185.878,-16.164 179.196,6.619C174.084,21.774 120.478,22.482 105.754,23.065C60.295,23.905 14.859,20.994 -30.295,15.94C-56.604,12.657 -83.17,9.474 -108.64,1.77C-113.253,0.068 -122.55,-2.562 -123.567,-8.017C-124.743,-13.726 -124.873,-19.607 -124.449,-25.388C-122.671,-48.416 -110.802,-71.254 -90.685,-83.338C-77.391,-91.287 -62.197,-95.032 -47.053,-97.25C-37.137,-98.679 -27.081,-99.168 -17.07,-98.928C-15.873,-98.945 -14.609,-99.062 -13.499,-99.472C0.307,-104.53 0.499,-136.028 0,-148.629M3.664,-148.452C3.916,-148.686 3.995,-149.435 3.962,-149.429L3.971,-149.246L3.989,-148.882L4.021,-148.158C4.422,-133.73 3.944,-99.312 -13.906,-95.511C-14.91,-95.272 -16.101,-95.219 -17.124,-95.206C-26.961,-95.487 -36.807,-95.057 -46.562,-93.696C-77.944,-89.449 -104.452,-78.214 -116.432,-46.76C-120.38,-36.4 -122.286,-25.136 -121.411,-14.065C-121.182,-11.973 -121.01,-9.656 -120.352,-7.702C-119.75,-6.733 -118.811,-6.023 -117.78,-5.361C-114.79,-3.496 -111.238,-2.192 -107.727,-1C-104.184,0.17 -100.565,1.174 -96.922,2.095C-60.193,10.801 -22.442,14.654 15.123,17.87C40.793,19.969 167.915,28.534 177.677,6.157C184.316,-16.141 181.221,-42.207 165.514,-60.052C153.126,-74.43 134.852,-82.178 116.544,-85.796C94.306,-90.149 71.458,-90.949 48.854,-90.158L48.419,-90.141L48.49,-90.564C48.604,-90.308 62.566,-177.163 63.014,-176.091C63.015,-176.091 1.955,-149.491 1.955,-149.491L3.664,-148.452Z" style="fill:white;fill-rule:nonzero;"/>
                </g>
                <g transform="matrix(1.01876,0,0,1.07006,3576.37,4332.08)">
                    <path d="M0,-125.286C0,-125.286 -7.728,-107.274 -6.14,-95.444C-4.552,-83.614 1.15,-58.121 -0.477,-53.255C-3.453,-44.355 -4.855,-32.339 -0.985,-16.22C4.424,6.314 26.925,48.184 41.791,50.447C67.607,54.377 102.661,36.877 120.127,10.64C141.599,-21.615 127.527,14.419 143.929,-16.181C148.75,-25.174 162.943,-52.585 157.617,-88.348C156.293,-97.24 148.041,-152.656 103.327,-167.88C68.719,-179.663 25.079,-163.009 0,-125.286Z" style="fill:rgb(249,239,237);fill-rule:nonzero;stroke:rgb(159,34,53);stroke-width:4px;"/>
                </g>
                <g transform="matrix(0.0459869,1.06897,1.01772,-0.0483026,3627.62,4320.3)">
                    <path d="M17.036,-30.169C26.851,-17.818 27.814,-1.037 20.559,12.723C19.541,14.691 18.331,16.567 17.036,18.48C18.955,17.202 20.645,15.585 22.189,13.818C33.007,1.136 31.597,-20.961 17.036,-30.169" style="fill:rgb(159,34,53);fill-rule:nonzero;"/>
                </g>
                <g transform="matrix(1.01876,0,0,1.07006,3644.61,4339.64)">
                    <path d="M0,-3.702C3.517,-4.329 6.878,-3.465 9.635,-1.185C6.382,0.627 1.959,-0.543 0,-3.702" style="fill:rgb(159,34,53);fill-rule:nonzero;"/>
                </g>
                <g transform="matrix(0.0354624,-1.06941,-1.01814,-0.0372481,3675.33,4291.08)">
                    <path d="M-4.364,-4.215C-5.94,-4.215 -7.219,-2.26 -7.219,0.152C-7.219,2.564 -5.94,4.518 -4.364,4.518C-2.787,4.519 -1.509,2.563 -1.508,0.152C-1.508,-2.261 -2.787,-4.215 -4.364,-4.215" style="fill:rgb(159,34,53);fill-rule:nonzero;"/>
                </g>
                <g transform="matrix(0.0354583,-1.06941,-1.01814,-0.0372439,3685.58,4301.97)">
                    <path d="M-4.365,-4.214C-5.941,-4.214 -7.219,-2.259 -7.219,0.153C-7.219,2.565 -5.941,4.519 -4.365,4.52C-2.788,4.52 -1.509,2.564 -1.509,0.153C-1.509,-2.259 -2.788,-4.214 -4.365,-4.214" style="fill:rgb(159,34,53);fill-rule:nonzero;"/>
                </g>
                <g transform="matrix(0.0354583,-1.06941,-1.01814,-0.0372439,3690.57,4285.79)">
                    <path d="M-4.365,-4.214C-5.941,-4.214 -7.219,-2.259 -7.219,0.153C-7.219,2.565 -5.941,4.519 -4.365,4.52C-2.788,4.52 -1.509,2.564 -1.509,0.153C-1.509,-2.259 -2.788,-4.214 -4.365,-4.214" style="fill:rgb(159,34,53);fill-rule:nonzero;"/>
                </g>
                <g transform="matrix(-0.0354624,1.06941,1.01814,0.0372481,3596.03,4288.9)">
                    <path d="M4.364,-4.518C5.941,-4.518 7.219,-2.564 7.219,-0.151C7.219,2.26 5.941,4.216 4.364,4.215C2.788,4.215 1.509,2.261 1.509,-0.151C1.509,-2.563 2.788,-4.518 4.364,-4.518" style="fill:rgb(159,34,53);fill-rule:nonzero;"/>
                </g>
                <g transform="matrix(-0.0354624,1.06941,1.01814,0.0372481,3585.08,4299.01)">
                    <path d="M4.364,-4.519C5.94,-4.519 7.219,-2.565 7.219,-0.152C7.219,2.259 5.94,4.215 4.364,4.214C2.787,4.214 1.508,2.26 1.509,-0.152C1.509,-2.564 2.787,-4.519 4.364,-4.519" style="fill:rgb(159,34,53);fill-rule:nonzero;"/>
                </g>
                <g transform="matrix(-0.0354624,1.06941,1.01814,0.0372481,3581.18,4282.52)">
                    <path d="M4.364,-4.519C5.94,-4.519 7.219,-2.565 7.219,-0.152C7.219,2.259 5.94,4.215 4.364,4.214C2.787,4.214 1.508,2.26 1.509,-0.152C1.509,-2.564 2.787,-4.519 4.364,-4.519" style="fill:rgb(159,34,53);fill-rule:nonzero;"/>
                </g>
                <g transform="matrix(1.01876,0,0,1.07006,3540.02,4668.18)">
                    <clipPath id="_clip1">
                        <path d="M108.08,-290.224C108.08,-290.224 111.397,-239.117 89.52,-239.879C67.643,-240.641 39.959,-236.597 21.865,-226.445C-8.226,-209.562 -15.084,-173.376 -10.948,-154.252C-6.384,-133.151 268.356,-108.875 277.554,-140.64C286.752,-172.405 277.984,-216.988 219.83,-229.23C189.42,-235.631 153.09,-233.591 153.09,-233.591L166.646,-315.897L108.08,-290.224Z" clip-rule="nonzero"/>
                    </clipPath>
                    <g clip-path="url(#_clip1)">
                        <path d="M0,-254.144C31.756,-258.919 40.774,-217.561 91.179,-207.749C149.151,-196.465 169.559,-244.876 242.454,-244.429C287.655,-244.152 349.355,-225.112 359.942,-186.949C372.294,-142.426 309.571,-91.723 299.139,-83.56C186.262,4.775 -27.512,-17.368 -64.978,-103.867C-88.909,-159.116 -43.907,-247.542 0,-254.144" style="fill:rgb(2,58,81);fill-rule:nonzero;"/>
                    </g>
                </g>
                <g transform="matrix(1.01814,0.0372434,0.0354579,-1.06941,3541.52,4303.89)">
                    <clipPath id="_clip2">
                        <path d="M24.349,-113.207C-5.136,-131.127 -10.73,-167.529 -5.931,-186.498C-0.636,-207.427 274.783,-222.126 282.87,-190.06C290.957,-157.994 280.642,-113.744 222.097,-103.533C210.723,-101.55 198.572,-100.759 187.793,-100.548C181.573,-103.33 175.761,-106.337 170.152,-109.338C146.443,-122.017 126.348,-134.571 94.272,-129.479C70.601,-125.721 55.704,-114.784 43.334,-104.783C36.364,-107.045 29.88,-109.844 24.349,-113.207Z" clip-rule="nonzero"/>
                    </clipPath>
                    <g clip-path="url(#_clip2)">
                        <rect x="-8.462" y="-486.111" width="313.088" height="480.808" style="fill:rgb(2,58,81);"/>
                    </g>
                </g>
                <g transform="matrix(1.01876,0,0,1.07006,2109.14,4014.78)">
                    <clipPath id="_clip3">
                        <path d="M1426.39,384.172C1396.3,401.055 1389.44,437.241 1393.58,456.365C1398.14,477.466 1672.88,501.742 1682.08,469.977C1691.28,438.212 1682.51,393.629 1624.36,381.387C1613.06,379.009 1600.94,377.796 1590.18,377.21C1583.86,379.774 1577.95,382.577 1572.24,385.38C1548.1,397.227 1527.58,409.074 1495.7,402.868C1472.18,398.289 1457.67,386.84 1445.66,376.415C1438.61,378.433 1432.04,381.005 1426.39,384.172Z" clip-rule="nonzero"/>
                    </clipPath>
                    <g clip-path="url(#_clip3)">
                        <g transform="matrix(-0.0348038,0.999394,0.999394,0.0348038,1514.56,400.239)">
                            <path d="M-120.892,-116.756L112.76,-116.756" style="fill:none;fill-rule:nonzero;"/>
                        </g>
                        <g transform="matrix(-0.0348038,0.999394,0.999394,0.0348038,1529.62,400.763)">
                            <path d="M-120.892,-116.756L112.76,-116.756" style="fill:none;fill-rule:nonzero;"/>
                        </g>
                        <g transform="matrix(-0.0348038,0.999394,0.999394,0.0348038,1544.67,401.288)">
                            <path d="M-120.892,-116.756L112.76,-116.756" style="fill:none;fill-rule:nonzero;"/>
                        </g>
                        <g transform="matrix(-0.0348038,0.999394,0.999394,0.0348038,1559.73,401.812)">
                            <path d="M-120.892,-116.756L112.76,-116.756" style="fill:none;fill-rule:nonzero;"/>
                        </g>
                        <g transform="matrix(-0.0348038,0.999394,0.999394,0.0348038,1574.79,402.336)">
                            <path d="M-120.892,-116.756L112.76,-116.756" style="fill:none;fill-rule:nonzero;"/>
                        </g>
                        <g transform="matrix(-0.0348038,0.999394,0.999394,0.0348038,1589.85,402.861)">
                            <path d="M-120.892,-116.756L112.76,-116.756" style="fill:none;fill-rule:nonzero;"/>
                        </g>
                        <g transform="matrix(-0.0348038,0.999394,0.999394,0.0348038,1604.91,403.386)">
                            <path d="M-120.892,-116.756L112.76,-116.756" style="fill:none;fill-rule:nonzero;"/>
                        </g>
                        <g transform="matrix(-0.0348038,0.999394,0.999394,0.0348038,1619.97,403.91)">
                            <path d="M-120.892,-116.756L112.76,-116.756" style="fill:none;fill-rule:nonzero;"/>
                        </g>
                        <g transform="matrix(-0.0348038,0.999394,0.999394,0.0348038,1635.03,404.434)">
                            <path d="M-120.892,-116.756L112.76,-116.756" style="fill:none;fill-rule:nonzero;"/>
                        </g>
                        <g transform="matrix(-0.0348038,0.999394,0.999394,0.0348038,1650.09,404.959)">
                            <path d="M-120.892,-116.756L112.76,-116.756" style="fill:none;fill-rule:nonzero;"/>
                        </g>
                        <g transform="matrix(-0.0348038,0.999394,0.999394,0.0348038,1665.15,405.483)">
                            <path d="M-120.892,-116.756L112.76,-116.756" style="fill:none;fill-rule:nonzero;"/>
                        </g>
                        <g transform="matrix(-0.0348038,0.999394,0.999394,0.0348038,1680.21,406.008)">
                            <path d="M-120.892,-116.756L112.76,-116.756" style="fill:none;fill-rule:nonzero;"/>
                        </g>
                        <g transform="matrix(-0.0348038,0.999394,0.999394,0.0348038,1695.27,406.532)">
                            <path d="M-120.892,-116.756L112.76,-116.756" style="fill:none;fill-rule:nonzero;"/>
                        </g>
                        <g transform="matrix(-0.0348038,0.999394,0.999394,0.0348038,1710.33,407.056)">
                            <path d="M-120.892,-116.756L112.76,-116.756" style="fill:none;fill-rule:nonzero;"/>
                        </g>
                        <g transform="matrix(-0.0348038,0.999394,0.999394,0.0348038,1725.39,407.581)">
                            <path d="M-120.892,-116.756L112.76,-116.756" style="fill:none;fill-rule:nonzero;"/>
                        </g>
                        <g transform="matrix(-0.0348038,0.999394,0.999394,0.0348038,1740.45,408.106)">
                            <path d="M-120.892,-116.756L112.76,-116.756" style="fill:none;fill-rule:nonzero;"/>
                        </g>
                        <g transform="matrix(-0.0348038,0.999394,0.999394,0.0348038,1755.51,408.63)">
                            <path d="M-120.892,-116.756L112.76,-116.756" style="fill:none;fill-rule:nonzero;"/>
                        </g>
                        <g transform="matrix(-0.0348038,0.999394,0.999394,0.0348038,1770.57,409.154)">
                            <path d="M-120.892,-116.756L112.76,-116.756" style="fill:none;fill-rule:nonzero;"/>
                        </g>
                        <g transform="matrix(-0.0348038,0.999394,0.999394,0.0348038,1785.63,409.679)">
                            <path d="M-120.892,-116.756L112.76,-116.756" style="fill:none;fill-rule:nonzero;"/>
                        </g>
                        <g transform="matrix(-0.0348038,0.999394,0.999394,0.0348038,1800.69,410.203)">
                            <path d="M-120.892,-116.756L112.76,-116.756" style="fill:none;fill-rule:nonzero;"/>
                        </g>
                    </g>
                </g>
                <g transform="matrix(0.384212,-0.991046,-0.943533,-0.40356,3685.51,4246.16)">
                    <clipPath id="_clip4">
                        <path d="M-7.721,22.264C-15.172,36.098 -42.795,37.389 -42.795,37.389C-42.795,37.389 -53.192,2.959 -15.511,-6.693C-15.511,-6.693 -1.488,7.222 -6.921,20.567C-7.152,21.134 -7.417,21.7 -7.721,22.264Z" clip-rule="nonzero"/>
                    </clipPath>
                    <g clip-path="url(#_clip4)">
                        <path d="M-17,-11.433C-29.69,-11.433 -39.978,-3.215 -39.977,6.923C-39.977,17.06 -29.69,25.278 -17,25.278C-4.309,25.277 5.978,17.059 5.978,6.922C5.978,-3.215 -4.309,-11.433 -17,-11.433" style="fill:rgb(159,34,53);fill-rule:nonzero;"/>
                    </g>
                </g>
                <g transform="matrix(1.01876,0,0,1.07006,3641,4147.97)">
                    <path d="M0,310.407C31.891,305.497 73.172,287.133 98.748,248.452C118.199,219.034 120.222,190.485 122.405,159.683C123.597,142.866 119.617,114.987 111.657,59.23C105.065,13.056 102.21,2.106 94.896,0.262C79.479,-3.623 56.125,35.951 53.722,41.904C51.32,47.852 50.235,52.692 49.643,55.719C46.365,72.461 56.248,155.39 56.248,155.39C59.699,184.511 61.425,199.072 56.553,213.6C43.93,251.241 18.553,283.762 -13.436,297.258C-32.139,305.148 -49.028,305.591 -48.789,308.192C-48.5,311.336 -23.532,314.03 0,310.407" style="fill:rgb(255,49,86);fill-rule:nonzero;"/>
                </g>
                <g transform="matrix(1.01876,0,0,1.07006,3641.03,4148.49)">
                    <path d="M0,310.113C-13.289,312.123 -26.894,312.686 -40.269,311.07C-42.443,310.707 -49.623,309.978 -49.277,307.364C-48.891,306.319 -47.673,306.051 -46.874,305.727C-45.558,305.302 -44.244,304.991 -42.932,304.675C-31.279,302.094 -19.345,299.034 -8.739,293.5C23.257,276.696 44.56,244.191 55.274,210.391C57.473,202.818 57.739,194.981 57.356,187.072C56.795,176.12 55.291,165.085 54.026,154.067C50.968,125.798 47.799,97.319 47.161,68.866C47.162,68.865 47.144,64.503 47.144,64.503L47.313,60.101L47.357,59L47.494,57.868L47.776,55.605C48.612,50.491 50.174,45.559 52.095,40.763C55.567,33.455 60.095,26.777 64.807,20.239C71.209,11.934 80.836,-0.714 91.864,-1.989C99.391,-2.573 102.637,4.38 104.378,10.408C106.083,16.051 107.153,21.744 108.182,27.435C111.75,46.982 115.168,75.915 118.101,95.886C120.575,115.905 123.884,135.992 123.562,156.237C122.672,170.666 121.503,185.061 118.834,199.285C108.278,258.649 58.19,300.586 0,310.113M-0.061,309.717C50.871,301.86 98.346,265.953 113.205,215.685C119.044,196.425 120.287,176.147 121.484,156.167C121.676,136.062 118.264,116.121 115.687,96.217C112.586,76.289 109.043,47.516 105.382,27.943C103.864,21.054 101.758,4.644 95.565,1.608C85.538,-2.015 72.818,15.042 67.445,22.17C62.955,28.481 58.595,35.052 55.291,42.055C53.031,47.881 51.174,54.04 50.9,60.309C50.642,65.896 50.871,71.836 51.108,77.392C52.483,103.008 55.402,129.433 58.299,154.97C59.394,163.985 60.936,176.567 61.423,186.887C61.797,195.049 61.485,203.555 59.099,211.502C47.772,246.012 25.342,278.869 -7.876,295.238C-18.726,300.579 -30.883,303.436 -42.691,305.746C-44.524,306.243 -46.636,306.419 -48.174,307.453C-48.36,307.64 -48.324,307.618 -48.292,307.74C-47.251,308.778 -45.549,309.078 -44.071,309.474C-40.164,310.351 -36.158,310.736 -32.161,311.01C-21.465,311.667 -10.682,311.246 -0.061,309.717" style="fill:white;fill-rule:nonzero;"/>
                </g>
                <g transform="matrix(0.0708874,-1.06747,-1.01629,-0.074457,3608.36,4234.55)">
                    <clipPath id="_clip5">
                        <path d="M-16.69,29.063C-48.05,16.969 -40.062,-2.514 -36.807,-2.85C-33.552,-3.186 -17.576,2.525 -11.068,12.603C-9.532,14.98 -9.034,17.149 -9.169,19.08C-9.605,25.335 -16.69,29.063 -16.69,29.063Z" clip-rule="nonzero"/>
                    </clipPath>
                    <g clip-path="url(#_clip5)">
                        <path d="M-19.118,-17.831C-30.202,-17.832 -39.189,-9.251 -39.189,1.332C-39.189,11.917 -30.203,20.497 -19.118,20.497C-8.033,20.498 0.953,11.917 0.954,1.334C0.954,-9.251 -8.033,-17.831 -19.118,-17.831" style="fill:rgb(159,34,53);fill-rule:nonzero;"/>
                    </g>
                </g>
                <g transform="matrix(1.01876,0,0,1.07006,3646.84,4244.3)">
                    <path d="M0,-26.768C-3.929,-27.213 -7.768,-26.369 -8.008,-17.996C-8.162,-12.6 -3.535,-9.374 4.729,-9.07C7.909,-8.952 17.685,-10.41 27.615,-9.014C35.401,-7.919 45.522,-4.453 47.425,-1.992C49.328,0.469 43.472,-13.588 24.456,-20.685C6.901,-27.237 0,-26.768 0,-26.768" style="fill:rgb(159,34,53);fill-rule:nonzero;"/>
                </g>
                <g transform="matrix(1.01876,0,0,1.07006,3603.45,4240.84)">
                    <path d="M0,-23.335C3.337,-23.006 4.993,-11.32 0.15,-9.968C-4.693,-8.616 -9.608,-9.626 -14.863,-9.757C-18.992,-9.86 -29.198,-6.42 -30.202,-2.682C-31.207,1.056 -31.167,-7.974 -25.205,-13.692C-19.242,-19.409 -10.713,-24.391 0,-23.335" style="fill:rgb(159,34,53);fill-rule:nonzero;"/>
                </g>
                <g transform="matrix(-0.515707,-0.922832,-0.878589,0.541677,3607,4317.33)">
                    <path d="M-2.096,-3.66C-8.138,-7.3 -13.035,-9.161 -13.035,-7.819C-13.035,-6.477 -8.137,-2.439 -2.096,1.199C3.945,4.839 8.843,6.701 8.842,5.359C8.843,4.016 3.945,-0.022 -2.096,-3.66" style="fill:rgb(159,34,53);fill-rule:nonzero;"/>
                </g>
                <g transform="matrix(1.01876,0,0,1.07006,3799.67,4172.27)">
                    <path d="M0,1.238C-74.973,-84.817 -151.506,-69.39 -185.947,-54.163C-212.928,-42.234 -228.617,2.021 -234.148,20.634C-240.02,24.888 -243.88,29.465 -243.973,33.929C-244.105,40.3 -240.5,44.804 -240.499,44.804C-237.401,48.674 -233.207,50.093 -231.394,50.592C-228.021,48.254 -223.135,45.202 -216.866,42.376C-213.539,40.875 -203.833,37.317 -188.713,34.671C-156.738,29.074 -130.56,34.791 -116.788,38.853C-87.659,44.937 -70.135,56.149 -59.261,65.934C-50.387,73.919 -40.272,86.055 -28.731,84.062C-24.345,83.304 -18.78,80.337 -16.988,75.834C-15.033,70.92 -17.644,64.186 -23.302,56.781C-20.628,57.29 -18.718,57.435 -17.849,57.1C-10.857,54.409 -9.216,47.91 -9.289,43.184C-9.328,40.703 -12.536,36.429 -15.576,32.921C-12.511,35.137 -8.051,37.104 -1.928,36.893C11.6,36.426 21.251,25.631 0,1.238" style="fill:rgb(2,58,81);fill-rule:nonzero;"/>
                </g>
                <g transform="matrix(1.01876,0,0,1.07006,3799.82,4177.32)">
                    <path d="M0,-3.61C5.764,3.269 12.118,11.055 12.615,20.403C12.91,27.948 5.96,32.24 -0.84,32.722C-6.193,33.27 -11.805,32.07 -16.245,28.92L-15.06,27.626C-13.095,29.847 -11.173,32.109 -9.615,34.785C-8.792,36.148 -8.198,37.851 -8.337,39.508C-8.316,45.533 -11.654,51.523 -17.505,53.717C-19.639,54.372 -21.775,53.816 -23.738,53.563C-23.738,53.562 -22.242,51.139 -22.242,51.139C-20.438,53.436 -18.742,55.849 -17.364,58.515C-14.262,64.088 -13.145,71.613 -18.619,76.345C-21.901,79.326 -26.021,81.15 -30.394,81.475C-44.357,82.063 -54.204,67.656 -64.136,59.995C-79.419,47.47 -98.237,40.237 -117.439,36.073C-140.865,29.045 -165.936,27.527 -190.033,31.733C-199.589,33.497 -209.349,35.547 -218.212,39.531C-222.646,41.568 -226.917,43.972 -230.963,46.714L-231.368,46.988L-231.816,46.859C-235.515,45.804 -238.962,43.7 -241.355,40.652L-240.651,40.99C-240.864,40.984 -241.162,40.86 -241.327,40.676C-242.116,39.665 -242.702,38.518 -243.241,37.356C-244.701,33.93 -245.547,29.928 -244.338,26.298C-242.58,21.537 -238.608,18.267 -234.704,15.358C-230.264,-0.477 -222.033,-20.516 -212.104,-35.716C-205.207,-46.182 -196.255,-56.22 -184.357,-60.98C-161.179,-71.062 -135.177,-74.807 -110.119,-71.173C-65.86,-65.185 -28.585,-36.477 0,-3.61M-0.302,-3.347C-46.629,-57.215 -114.518,-85.673 -183.388,-58.672C-210.689,-48.134 -225.817,-9.87 -233.702,16.336C-239.252,20.413 -245.241,25.876 -242.831,33.42C-242.267,35.577 -241.325,37.66 -239.999,39.456L-239.984,39.475C-239.984,39.475 -239.944,39.519 -240.042,39.411C-240.185,39.256 -240.459,39.161 -240.649,39.185L-239.946,39.524C-238.847,40.848 -237.528,41.988 -236.046,42.879C-234.57,43.775 -232.951,44.449 -231.275,44.89L-232.126,45.036C-228.046,42.148 -223.733,39.581 -219.238,37.373C-210.146,33.038 -200.389,30.673 -190.587,28.703C-166.026,23.941 -140.397,25.245 -116.374,32.219C-100.278,35.455 -82.57,41.671 -68.425,51.451C-63.604,54.692 -59.068,58.487 -54.941,62.497C-47.439,69.315 -38.875,79.626 -27.862,77.124C-11.246,72.038 -19.901,59.226 -26.979,49.783L-23.168,50.567C-21.571,50.867 -19.938,51.256 -18.513,51.057C-13.624,49.442 -10.719,44.486 -10.569,39.426C-10.414,38.106 -10.79,36.961 -11.436,35.771C-12.735,33.315 -14.553,31.009 -16.395,28.783L-21.14,23.047L-15.21,27.489C-9.191,31.989 -0.406,32.897 6.363,29.585C19.426,21.837 6.466,4.555 -0.302,-3.347" style="fill:white;fill-rule:nonzero;"/>
                </g>
                <g transform="matrix(1.01876,0,0,1.07006,3603.75,4313.02)">
                    <path d="M0,-51.257C5.12,-40.052 8.929,-25.835 5.114,-13.703C2.99,-8.196 -0.596,-2.859 -5.891,0C-5.891,-0.001 -6.137,-0.315 -6.137,-0.315C-2.249,-5.915 0.145,-11.88 2.25,-18.147C4.116,-24.47 3.698,-31.325 2.754,-37.869C2.093,-42.332 1.013,-46.766 -0.369,-51.102L0,-51.257Z" style="fill:rgb(159,34,53);fill-rule:nonzero;"/>
                </g>
                <g transform="matrix(1.01876,0,0,1.07006,3664.71,4261.09)">
                    <path d="M0,-14.693C-4.678,-14.615 -9.095,-13.015 -12.377,-9.72C-14.706,-7.2 -16.442,-4.187 -18.919,-1.742C-19.743,-0.875 -20.613,0.002 -21.675,0.712L-21.914,0.53C-20.073,-6.637 -14.559,-12.972 -7.253,-14.829C-4.813,-15.405 -2.339,-15.332 0.01,-14.993L0,-14.693Z" style="fill:rgb(159,34,53);fill-rule:nonzero;"/>
                </g>
                <g transform="matrix(1.01876,0,0,1.07006,3591.05,4259.93)">
                    <path d="M0,-15.23C-3.603,-15.324 -7.399,-13.882 -8.46,-10.235C-9.174,-7.688 -9.113,-4.798 -9.919,-2.16C-10.175,-1.241 -10.478,-0.274 -11.078,0.54L-11.264,0.468C-11.523,-4.957 -11.621,-12.451 -5.715,-15.021C-3.822,-15.77 -1.839,-15.658 0.007,-15.43L0,-15.23Z" style="fill:rgb(159,34,53);fill-rule:nonzero;"/>
                </g>
                <g transform="matrix(0.204263,-1.04833,-0.998073,-0.214549,3694.98,4170.29)">
                    <path d="M-23.706,-19.345C-28.225,-19.345 -31.888,-8.512 -31.889,4.852C-31.888,18.215 -28.225,29.049 -23.706,29.049C-19.186,29.049 -15.523,18.216 -15.523,4.852C-15.523,-8.511 -19.187,-19.345 -23.706,-19.345" style="fill:white;fill-rule:nonzero;"/>
                </g>
                <g transform="matrix(1.01876,0,0,1.07006,3681.67,4264.93)">
                    <path d="M0,-47.731C6.351,-47.497 12.767,-46.18 18.818,-44.28C24.999,-42.509 30.478,-38.94 36.023,-35.871C39.966,-33.648 49.134,-29.006 52.727,-26.481C57.997,-22.944 62.78,-18.411 67.32,-14.16C73.232,-8.677 79.452,-2.575 87.982,-2.523L88.05,-2.129C81.587,0 74.687,-3.155 69.489,-6.954C64.257,-10.602 59.895,-15.487 55.385,-19.779C49.254,-25.387 43.037,-31.158 35.435,-34.722C31.636,-36.512 27.551,-37.621 23.593,-38.902C19.608,-40.125 15.75,-41.66 11.788,-42.988C7.823,-44.423 3.834,-45.693 -0.082,-47.339L0,-47.731Z" style="fill:white;fill-rule:nonzero;"/>
                </g>
                <g transform="matrix(1.01876,0,0,1.07006,3685.75,4270.16)">
                    <path d="M0,-12.077C-6.048,-22.304 -17.79,-27.174 -27.941,-24.326C-40.345,-20.846 -48.512,-6.365 -44.211,7.968C-38.618,10.422 -25.714,15.097 -12.308,10.68C-8.508,9.428 -3.634,7.741 -0.785,2.861C2.902,-3.451 0.544,-10.553 0,-12.077" style="fill:white;fill-rule:nonzero;"/>
                </g>
                <g transform="matrix(0.152581,-1.05799,-1.00727,-0.160265,3678.11,4238)">
                    <clipPath id="_clip6">
                        <path d="M-8.718,19.348C-14.017,31.09 -29.558,36.997 -43.085,30.598C-44.674,24.7 -47.364,11.241 -40.988,-1.353C-39.181,-4.921 -36.784,-9.488 -31.532,-11.574C-24.74,-14.274 -18.07,-10.879 -16.644,-10.113C-9.189,-4.028 -5.767,5.224 -7.04,13.627C-7.337,15.598 -7.895,17.522 -8.718,19.348Z" clip-rule="nonzero"/>
                    </clipPath>
                    <g clip-path="url(#_clip6)">
                        <path d="M-18.465,-15.878C-31.375,-15.878 -41.842,-7.517 -41.842,2.797C-41.842,13.111 -31.375,21.472 -18.465,21.472C-5.554,21.472 4.913,13.111 4.913,2.797C4.913,-7.517 -5.554,-15.878 -18.465,-15.878" style="fill:rgb(2,58,81);fill-rule:nonzero;"/>
                    </g>
                </g>
                <g transform="matrix(1.01876,0,0,1.07006,3578.61,4270.39)">
                    <path d="M0,-10.209C0,-10.209 0,-32.686 14.96,-24.56C25.686,-18.734 29.393,-0.621 28.821,2.659C28.25,5.938 10.054,22.477 0,-10.209" style="fill:white;fill-rule:nonzero;"/>
                </g>
                <g transform="matrix(0.0708756,-1.06747,-1.01629,-0.0744446,3607.68,4233.05)">
                    <clipPath id="_clip7">
                        <path d="M-26.618,26.748C-58.525,14.443 -40.76,-2.557 -37.448,-2.898C-34.136,-3.241 -16.325,1.717 -11.26,12.823C-10.178,15.195 -9.787,17.165 -9.901,18.804C-10.536,27.868 -26.618,26.748 -26.618,26.748Z" clip-rule="nonzero"/>
                    </clipPath>
                    <g clip-path="url(#_clip7)">
                        <path d="M-19.451,-18.141C-30.729,-18.141 -39.871,-9.412 -39.871,1.356C-39.872,12.125 -30.729,20.855 -19.451,20.855C-8.172,20.855 0.97,12.126 0.97,1.357C0.971,-9.411 -8.172,-18.142 -19.451,-18.141" style="fill:rgb(2,58,81);fill-rule:nonzero;"/>
                    </g>
                </g>
                <g transform="matrix(1.01876,0,0,1.07006,3657.09,4273.45)">
                    <path d="M0,-26.972C-5.46,-23.921 -9.829,-19.751 -12.097,-14.767C-13.585,-11.064 -14.133,-7.297 -16.139,-3.59C-16.769,-2.297 -17.47,-0.959 -18.521,0.34L-18.974,0.322C-20.879,-7.244 -16.757,-16.554 -8.845,-22.741C-6.15,-24.766 -3.135,-26.21 -0.157,-27.312L0,-26.972Z" style="fill:rgb(159,34,53);fill-rule:nonzero;"/>
                </g>
                <g transform="matrix(1.01876,0,0,1.07006,3590.07,4258.76)">
                    <path d="M0,-15.37C-3.636,-15.393 -7.42,-13.922 -8.437,-10.245C-9.096,-7.673 -9.007,-4.728 -9.93,-2.077C-10.222,-1.143 -10.572,-0.152 -11.248,0.66L-11.48,0.569C-12.152,-5.01 -11.915,-12.706 -5.862,-15.283C-3.894,-16.03 -1.867,-15.886 0.009,-15.619L0,-15.37Z" style="fill:rgb(159,34,53);fill-rule:nonzero;"/>
                </g>
                <g transform="matrix(1.4447,0,0,1.51745,-1380.5,-2222.45)">
                    <g transform="matrix(64,0,0,64,3273.58,4406.13)">
                    </g>
                    <text x="3036.97px" y="4406.13px" style="font-family:'SourceSerifPro-Bold', 'Source Serif Pro', serif;font-weight:700;font-size:64px;fill:rgb(2,58,81);">cr<tspan x="3098.47px 3131.62px " y="4406.13px 4406.13px ">ea</tspan>ti<tspan x="3208.23px 3240.23px " y="4406.13px 4406.13px ">ve</tspan></text>
                </g>
            </g>
        </g>
    </g>
</svg>
