<svg width="621" height="333" viewBox="0 0 621 333" fill="none" xmlns="http://www.w3.org/2000/svg">
<rect width="621" height="333" fill="#023A51"/>
<rect x="118" y="122" width="385" height="89" rx="4.5" stroke="#FFAAB9" stroke-dasharray="10 5"/>
<rect x="140" y="144" width="45" height="45" rx="22.5" stroke="#66A373" stroke-width="5"/>
<path d="M166.215 157.951V175.049H162.84V161.842L158.785 163.131V160.471L165.852 157.951H166.215Z" fill="#66A373"/>
<rect x="205.5" y="135.5" width="62" height="62" stroke="#FFAAB9" stroke-width="2"/>
<rect x="214" y="144" width="45" height="45" rx="22.5" stroke="white" stroke-width="5"/>
<path d="M242.506 172.518V175.154H230.834V172.904L236.354 166.986C236.908 166.369 237.346 165.826 237.666 165.357C237.986 164.881 238.217 164.455 238.357 164.08C238.506 163.697 238.58 163.334 238.58 162.99C238.58 162.475 238.494 162.033 238.322 161.666C238.15 161.291 237.896 161.002 237.561 160.799C237.232 160.596 236.826 160.494 236.342 160.494C235.826 160.494 235.381 160.619 235.006 160.869C234.639 161.119 234.357 161.467 234.162 161.912C233.975 162.357 233.881 162.861 233.881 163.424H230.494C230.494 162.408 230.736 161.479 231.221 160.635C231.705 159.783 232.389 159.107 233.271 158.607C234.154 158.1 235.201 157.846 236.412 157.846C237.607 157.846 238.615 158.041 239.436 158.432C240.264 158.814 240.889 159.369 241.311 160.096C241.74 160.814 241.955 161.674 241.955 162.674C241.955 163.236 241.865 163.787 241.686 164.326C241.506 164.857 241.248 165.389 240.912 165.92C240.584 166.443 240.186 166.975 239.717 167.514C239.248 168.053 238.729 168.611 238.158 169.189L235.193 172.518H242.506Z" fill="white"/>
<rect x="288" y="144" width="45" height="45" rx="22.5" stroke="#B49A68" stroke-width="5"/>
<path d="M308.443 165.041H310.248C310.826 165.041 311.303 164.943 311.678 164.748C312.053 164.545 312.33 164.264 312.51 163.904C312.697 163.537 312.791 163.111 312.791 162.627C312.791 162.189 312.705 161.803 312.533 161.467C312.369 161.123 312.115 160.857 311.771 160.67C311.428 160.475 310.994 160.377 310.471 160.377C310.057 160.377 309.674 160.459 309.322 160.623C308.971 160.787 308.689 161.018 308.479 161.314C308.268 161.611 308.162 161.971 308.162 162.393H304.775C304.775 161.455 305.025 160.639 305.525 159.943C306.033 159.248 306.713 158.705 307.564 158.314C308.416 157.924 309.354 157.729 310.377 157.729C311.533 157.729 312.545 157.916 313.412 158.291C314.279 158.658 314.955 159.201 315.439 159.92C315.924 160.639 316.166 161.529 316.166 162.592C316.166 163.131 316.041 163.654 315.791 164.162C315.541 164.662 315.182 165.115 314.713 165.521C314.252 165.92 313.689 166.24 313.025 166.482C312.361 166.717 311.615 166.834 310.787 166.834H308.443V165.041ZM308.443 167.607V165.861H310.787C311.717 165.861 312.533 165.967 313.236 166.178C313.939 166.389 314.529 166.693 315.006 167.092C315.482 167.482 315.842 167.947 316.084 168.486C316.326 169.018 316.447 169.607 316.447 170.256C316.447 171.053 316.295 171.764 315.99 172.389C315.686 173.006 315.256 173.529 314.701 173.959C314.154 174.389 313.514 174.717 312.779 174.943C312.045 175.162 311.244 175.271 310.377 175.271C309.658 175.271 308.951 175.174 308.256 174.979C307.568 174.775 306.943 174.475 306.381 174.076C305.826 173.67 305.381 173.162 305.045 172.553C304.717 171.936 304.553 171.205 304.553 170.361H307.939C307.939 170.799 308.049 171.189 308.268 171.533C308.486 171.877 308.787 172.146 309.17 172.342C309.561 172.537 309.994 172.635 310.471 172.635C311.01 172.635 311.471 172.537 311.854 172.342C312.244 172.139 312.541 171.857 312.744 171.498C312.955 171.131 313.061 170.705 313.061 170.221C313.061 169.596 312.947 169.096 312.721 168.721C312.494 168.338 312.17 168.057 311.748 167.877C311.326 167.697 310.826 167.607 310.248 167.607H308.443Z" fill="#B49A68"/>
<rect x="362" y="144" width="45" height="45" rx="22.5" stroke="#49A2BF" stroke-width="5"/>
<path d="M390.729 168.656V171.305H378.436L378.271 169.254L385.385 157.969H388.068L385.162 162.832L381.623 168.656H390.729ZM388.795 157.969V175.031H385.42V157.969H388.795Z" fill="#49A2BF"/>
<rect x="436" y="144" width="45" height="45" rx="22.5" stroke="#8681C0" stroke-width="5"/>
<path d="M455.846 167.145L453.15 166.5L454.123 157.852H463.709V160.582H456.9L456.479 164.367C456.705 164.234 457.049 164.094 457.51 163.945C457.971 163.789 458.486 163.711 459.057 163.711C459.885 163.711 460.619 163.84 461.26 164.098C461.9 164.355 462.443 164.73 462.889 165.223C463.342 165.715 463.686 166.316 463.92 167.027C464.154 167.738 464.271 168.543 464.271 169.441C464.271 170.199 464.154 170.922 463.92 171.609C463.686 172.289 463.33 172.898 462.854 173.438C462.377 173.969 461.779 174.387 461.061 174.691C460.342 174.996 459.49 175.148 458.506 175.148C457.771 175.148 457.061 175.039 456.373 174.82C455.693 174.602 455.08 174.277 454.533 173.848C453.994 173.418 453.561 172.898 453.232 172.289C452.912 171.672 452.744 170.969 452.729 170.18H456.08C456.127 170.664 456.252 171.082 456.455 171.434C456.666 171.777 456.943 172.043 457.287 172.23C457.631 172.418 458.033 172.512 458.494 172.512C458.924 172.512 459.291 172.43 459.596 172.266C459.9 172.102 460.146 171.875 460.334 171.586C460.521 171.289 460.658 170.945 460.744 170.555C460.838 170.156 460.885 169.727 460.885 169.266C460.885 168.805 460.83 168.387 460.721 168.012C460.611 167.637 460.443 167.312 460.217 167.039C459.99 166.766 459.701 166.555 459.35 166.406C459.006 166.258 458.604 166.184 458.143 166.184C457.518 166.184 457.033 166.281 456.689 166.477C456.354 166.672 456.072 166.895 455.846 167.145Z" fill="#8681C0"/>
<path d="M265.605 229.604L257.901 190.543L288.66 215.82L272.305 213.403L271.496 213.283L271.218 214.052L265.605 229.604Z" fill="#022939" stroke="white" stroke-width="2"/>
</svg>
