<?xml version="1.0" encoding="UTF-8" standalone="no"?>
<!DOCTYPE svg PUBLIC "-//W3C//DTD SVG 1.1//EN" "http://www.w3.org/Graphics/SVG/1.1/DTD/svg11.dtd">
<svg width="100%" height="100%" viewBox="0 0 255 255" version="1.1" xmlns="http://www.w3.org/2000/svg" xmlns:xlink="http://www.w3.org/1999/xlink" xml:space="preserve" xmlns:serif="http://www.serif.com/" style="fill-rule:evenodd;clip-rule:evenodd;stroke-linejoin:round;stroke-miterlimit:2;">
    <g transform="matrix(1,0,0,1,-9182.43,0)">
        <g id="Page-5" serif:id="Page 5" transform="matrix(1,0,0,1,9182.43,0)">
            <rect x="0" y="0" width="255" height="255" style="fill:none;"/>
            <g id="Layer-1" serif:id="Layer 1">
                <g transform="matrix(0,-1,-1,0,126.747,20.7873)">
                    <path d="M-105.96,-105.96C-164.48,-105.96 -211.92,-58.52 -211.92,0C-211.92,58.52 -164.48,105.96 -105.96,105.96C-47.44,105.96 0,58.52 0,0C0,-58.52 -47.44,-105.96 -105.96,-105.96" style="fill:rgb(2,58,81);fill-rule:nonzero;"/>
                </g>
                <g transform="matrix(1,0,0,1,151.24,48.4243)">
                    <path d="M0,141.896C0.673,140.657 1.809,138.158 1.758,134.88C1.737,133.512 1.68,130.814 0.074,128.705C-0.817,127.536 -2.963,124.885 -10.535,125.373C-14.099,125.602 -16.969,125.972 -25.785,127.572C-26.545,127.709 -32.694,128.845 -44.993,131.115C-46.663,131.423 -51.308,132.258 -57.238,132.267C-58.24,132.269 -59.368,132.249 -60.893,132.153C-64.782,131.91 -68.488,131.087 -71.908,129.707C-74.536,128.648 -76.845,127.112 -78.75,125.171C-79.391,124.519 -80.779,123.014 -81.967,120.832C-85.175,114.942 -84.367,108.819 -83.927,106.533C-82.75,100.418 -79.35,96.505 -78.266,95.289C-75.279,91.937 -72.683,90.249 -72.683,90.249C-71.9,87.88 -70.799,84.666 -69.387,80.893C-67.538,75.949 -64.414,67.671 -59.309,57.576C-54.642,48.348 -50.402,41.776 -47.442,37.135C-43.169,30.437 -38.805,24.33 -34.471,18.986C-30.036,13.515 -25.823,9.048 -21.951,5.707L-21.481,5.3C-18.547,2.756 -14.529,-0.729 -8.88,-0.729C-8.151,-0.729 -7.417,-0.668 -6.697,-0.547C-2.836,0.1 -0.09,2.302 1.384,3.486C4.76,6.194 6.499,9.192 7.242,10.473C9.631,14.59 10.424,18.265 10.926,21.624C11.176,23.302 11.52,25.603 11.19,28.596C10.726,32.781 9.027,35.893 8.115,37.565C6.452,40.611 3.355,44.604 -1.632,50.133L-1.682,50.189C-3.924,52.628 -6.932,55.573 -10.879,59.189C-14.651,62.646 -18.807,66.385 -23.23,70.301C-27.681,74.241 -31.97,78.07 -35.979,81.679C-39.922,85.231 -43.325,88.482 -46.088,91.34C-48.727,94.069 -49.504,95.283 -49.652,95.534L-49.701,95.645C-50.496,97.464 -51.525,98.749 -52.605,99.656C-52.629,99.902 -52.648,100.148 -52.663,100.393C-52.692,100.844 -52.688,101.222 -52.665,101.537C-50.417,103.036 -48.902,105.22 -48.36,107.71C-47.969,107.671 -47.578,107.629 -47.187,107.582C-43.297,107.121 -40.132,106.73 -37.777,106.42L-37.661,106.405L-37.544,106.393C-35.706,106.203 -33.17,105.77 -30.007,105.105C-26.374,104.343 -22.388,103.655 -18.154,103.059C-14.866,102.596 -11.652,102.362 -8.598,102.362C-7.372,102.362 -6.148,102.4 -4.96,102.474C0.156,102.795 6.053,103.529 11.305,108.188C16.558,112.848 17.949,118.887 18.144,119.842C19.341,125.71 18.542,135.074 11.581,139.651C7.057,142.625 2.035,142.194 0,141.896" style="fill:rgb(2,58,81);fill-rule:nonzero;"/>
                </g>
                <g transform="matrix(1,0,0,1,153.369,49.1301)">
                    <path d="M0,139.963C2.404,140.055 5.703,139.71 8.672,137.758C15.419,133.322 15.588,124.144 14.623,119.421C14.407,118.358 13.08,112.844 8.234,108.544C3.319,104.184 -2.298,103.493 -7.178,103.186C-11.197,102.932 -15.564,103.124 -20.085,103.759C-24.291,104.351 -28.247,105.034 -31.845,105.789C-35.05,106.463 -37.635,106.904 -39.527,107.1L-39.712,107.122C-42.062,107.431 -45.234,107.823 -49.149,108.287C-49.547,108.334 -49.948,108.378 -50.348,108.417L-51.607,108.543L-51.876,107.306C-52.34,105.176 -53.656,103.297 -55.582,102.013L-56.162,101.627L-56.211,100.932C-56.24,100.52 -56.239,100.071 -56.21,99.597C-56.194,99.337 -56.173,99.075 -56.146,98.811L-56.09,98.235L-55.647,97.864C-54.61,96.991 -53.763,95.815 -53.131,94.37L-53.004,94.108C-52.749,93.674 -51.87,92.37 -49.238,89.647C-46.456,86.77 -43.031,83.496 -39.058,79.918C-35.079,76.335 -30.787,72.504 -26.301,68.531C-21.89,64.627 -17.741,60.894 -13.968,57.436C-10.05,53.847 -7.07,50.931 -4.857,48.522L-4.81,48.47C0.096,43.031 3.132,39.124 4.739,36.179C5.607,34.589 7.216,31.637 7.649,27.733C7.959,24.93 7.632,22.738 7.393,21.137C6.911,17.907 6.153,14.388 3.885,10.481C3.182,9.268 1.538,6.431 -1.633,3.887C-3.008,2.785 -5.565,0.734 -9.06,0.148C-9.702,0.041 -10.357,-0.014 -11.009,-0.014C-16.128,-0.014 -19.76,3.136 -22.679,5.667L-23.15,6.075C-26.961,9.363 -31.115,13.769 -35.497,19.175C-39.796,24.477 -44.128,30.539 -48.373,37.193L-48.694,37.696C-51.651,42.329 -55.701,48.675 -60.17,57.511C-65.346,67.746 -68.494,76.163 -70.186,80.685C-71.337,83.761 -72.439,86.891 -73.463,89.988L-73.62,90.461L-74.037,90.733C-74.06,90.748 -76.528,92.378 -79.335,95.528C-82.121,98.654 -83.913,102.209 -84.661,106.095C-85.193,108.862 -85.665,114.276 -82.848,119.447C-82.061,120.894 -81.029,122.285 -79.866,123.471C-78.086,125.283 -75.947,126.7 -73.506,127.683C-70.229,129.006 -66.671,129.796 -62.934,130.03C-61.341,130.13 -60.236,130.136 -59.369,130.141C-53.454,130.132 -48.882,129.289 -47.379,129.012L-36.977,127.093C-31.533,126.088 -28.67,125.56 -28.167,125.468C-19.268,123.854 -16.393,123.484 -12.755,123.249C-5.175,122.761 -2.374,125.235 -0.924,127.14C0.981,129.64 1.027,132.688 1.049,134.152C1.08,136.117 0.72,138.093 0,139.963M0.706,142.817C-0.481,142.817 -1.522,142.715 -2.335,142.595L-4.349,142.301L-3.377,140.512C-2.306,138.541 -1.757,136.357 -1.791,134.196C-1.809,133.034 -1.845,130.618 -3.184,128.86C-3.856,127.98 -5.626,125.637 -12.572,126.084C-16.09,126.31 -18.897,126.674 -27.66,128.263C-28.162,128.355 -31.023,128.883 -36.462,129.886L-46.864,131.806C-48.429,132.094 -53.192,132.972 -59.365,132.982C-60.239,132.974 -61.429,132.971 -63.111,132.865C-67.154,132.611 -71.009,131.754 -74.568,130.318C-77.373,129.188 -79.838,127.553 -81.892,125.461C-83.238,124.091 -84.432,122.481 -85.344,120.806C-88.584,114.855 -88.054,108.699 -87.45,105.559C-86.604,101.162 -84.587,97.151 -81.455,93.638C-79.055,90.945 -76.898,89.282 -76.011,88.646C-75.018,85.662 -73.954,82.651 -72.846,79.69C-71.135,75.116 -67.951,66.604 -62.705,56.23C-58.172,47.266 -54.077,40.851 -51.088,36.167L-50.768,35.666C-46.465,28.921 -42.07,22.771 -37.703,17.386C-33.215,11.85 -28.943,7.321 -25.008,3.926L-24.54,3.521C-21.437,0.831 -17.188,-2.854 -11.009,-2.854C-10.2,-2.854 -9.387,-2.786 -8.591,-2.653C-4.365,-1.946 -1.432,0.407 0.144,1.671C3.73,4.548 5.56,7.707 6.342,9.056C8.849,13.375 9.678,17.209 10.201,20.708C10.465,22.472 10.823,24.876 10.473,28.046C9.979,32.506 8.194,35.778 7.235,37.535C5.516,40.685 2.358,44.764 -2.706,50.379L-2.762,50.44C-5.033,52.913 -8.07,55.885 -12.049,59.53C-15.833,62.999 -19.995,66.743 -24.418,70.658C-28.898,74.626 -33.184,78.451 -37.157,82.029C-41.081,85.563 -44.459,88.791 -47.196,91.622C-49.56,94.066 -50.343,95.21 -50.52,95.489L-50.531,95.516C-51.246,97.15 -52.199,98.534 -53.365,99.633C-53.368,99.681 -53.372,99.728 -53.375,99.776C-53.382,99.882 -53.386,99.987 -53.389,100.089C-51.538,101.493 -50.176,103.354 -49.448,105.462C-45.561,105.001 -42.413,104.612 -40.09,104.307L-39.817,104.274C-38.024,104.088 -35.538,103.663 -32.428,103.009C-28.768,102.242 -24.749,101.547 -20.481,100.946C-15.769,100.284 -11.21,100.086 -6.999,100.351C-1.648,100.687 4.529,101.461 10.119,106.419C15.64,111.317 17.159,117.636 17.407,118.853C18.891,126.121 17.248,135.52 10.232,140.132C6.979,142.271 3.454,142.817 0.706,142.817" style="fill:white;fill-rule:nonzero;"/>
                </g>
                <g transform="matrix(1,0,0,1,94.7156,79.7935)">
                    <path d="M0,82.306C-2.147,81.789 -3.451,80.281 -3.915,79.729C-6.21,77.005 -6.541,73.322 -6.404,69.769C-6.125,62.531 -3.948,56.966 -2.935,54.451C0.386,46.211 3.734,39.657 6.978,33.657C10.406,27.315 13.587,21.514 18.493,13.823C22.622,7.349 26.762,1.556 30.91,-3.56C35.057,-8.675 38.887,-12.746 42.401,-15.777C45.126,-18.128 47.784,-20.633 50.83,-20.122C52.551,-19.833 53.988,-18.681 55.078,-17.806C57.192,-16.11 58.29,-14.257 58.937,-13.141C60.597,-10.281 61.16,-7.799 61.587,-4.941C61.831,-3.313 62.013,-1.947 61.81,-0.118C61.545,2.274 60.627,4.084 59.703,5.775C58.394,8.174 55.521,11.834 51.085,16.753C49.031,18.989 46.135,21.82 42.396,25.246C38.655,28.675 34.573,32.348 30.151,36.262C25.726,40.18 21.458,43.988 17.35,47.687C13.241,51.388 9.734,54.741 6.826,57.748C3.919,60.755 -1.477,65.38 -2.074,66.876C-2.426,67.683 -2.805,68.071 -3.204,68.046C-3.707,68.015 -3.77,67.421 -3.395,66.262C-3.012,64.988 0.409,60.91 2.596,58.812C4.813,56.686 7.984,53.246 10.804,50.055C13.623,46.867 16.648,43.879 19.884,40.242C22.931,36.819 25.563,33.555 28.474,30.486C31.384,27.422 33.891,24.773 35.995,22.541C38.099,20.311 39.535,18.814 40.281,18.025C41.561,16.675 45.835,12.495 46.887,11.439C48.747,9.572 51.138,7.122 52.719,5.161C55.529,1.675 56.749,-1.321 56.882,-3.438C56.993,-5.203 56.346,-6.13 54.942,-6.218C53.939,-6.281 52.652,-5.83 51.081,-4.866C49.511,-3.9 47.648,-2.304 45.494,-0.077C41.487,4.397 36.756,9.595 31.301,15.512C25.843,21.434 20.482,27.86 15.214,34.794C9.945,41.73 5.556,49.104 2.045,56.917C1.447,58.416 0.654,60.612 -0.332,63.501C-1.321,66.394 -1.9,69.252 -2.077,72.075C-2.195,73.959 -2.025,75.653 -1.565,77.157C-1.389,77.735 -1.053,78.476 -0.404,79.259C1.34,81.365 3.764,81.428 3.7,81.927C3.645,82.358 1.788,82.736 0,82.306M66.223,102.939C66.342,101.946 66.413,100.251 65.817,98.29C65.701,97.907 65.134,96.117 63.623,94.267C63.623,94.267 60.798,90.815 55.669,89.33C45.221,86.305 18.777,96.233 -1.465,96.037C-4.665,96.006 -10.14,95.699 -14.079,91.879C-14.571,91.403 -17.822,88.155 -18.123,83.139C-18.207,81.741 -18.088,80.417 -17.806,79.176C-17.183,76.431 -15.753,74.253 -13.283,71.564C-11.103,69.192 -7.463,65.726 -1.944,62.35C-2.968,62.937 -3.626,63.228 -3.736,63.084C-3.831,62.961 -3.572,62.479 -3.291,62.393C-2.933,62.283 -3.397,65.255 -3.37,65.281C-3.114,65.527 -2.143,63.335 -2.177,63.882C-2.187,64.037 -3.074,66.776 -3.118,66.922C-3.184,67.137 -3.182,67.231 -3.174,67.28C-3.171,67.298 -3.17,67.336 -3.164,67.336C-3.146,67.337 -3.065,66.975 -3.118,66.922C-3.388,66.652 -10.932,70.27 -12.035,77.106C-12.182,78.017 -12.59,80.795 -11.073,83.56C-10.836,83.991 -9.801,85.789 -7.179,87.349C-3.737,89.396 -0.115,89.524 4.814,89.265C11.593,88.91 16.762,88.032 18.837,87.672C25.522,86.516 27.877,85.91 32.064,85.125C32.775,84.992 33.968,84.775 36.558,84.34C43.805,83.125 47.429,82.517 48.534,82.45C51.864,82.248 59.492,81.785 64.679,86.627C65.28,87.188 68.013,89.829 68.916,93.866C69.466,96.324 69.099,98.157 68.994,98.635C68.63,100.285 67.976,101.201 67.816,101.418C67.264,102.166 66.652,102.65 66.223,102.939" style="fill:white;fill-rule:nonzero;"/>
                </g>
            </g>
        </g>
    </g>
</svg>
