<svg id="Layer_1" data-name="Layer 1" xmlns="http://www.w3.org/2000/svg" viewBox="0 0 920.09 908.49"><defs><style>.cls-1{fill:#fff;}.cls-2{fill:#f9a779;}</style></defs><path class="cls-1" d="M595.11,213.19H439.89a47.39,47.39,0,0,0-47.39,47.39V387.72H519.88A48.15,48.15,0,0,1,568,435.87v85.39H392.5V647.91a47.39,47.39,0,0,0,47.39,47.39H595.11c133.13,0,241-107.93,241-241.06h0C836.16,321.11,728.24,213.19,595.11,213.19Z"/><path class="cls-2" d="M326,212.19H150.45a66.53,66.53,0,0,0-66.53,66.53v351a66.53,66.53,0,0,0,66.53,66.53H568V520.77a66.53,66.53,0,0,0-66.53-66.53h-109A66.52,66.52,0,0,1,326,387.72Z"/></svg>