<svg id="Layer_1" data-name="Layer 1" xmlns="http://www.w3.org/2000/svg" viewBox="0 0 700.52 488.79"><defs><style>.cls-1,.cls-5{font-size:72.06px;letter-spacing:0.01em;}.cls-1,.cls-13,.cls-18{fill:#003b4d;}.cls-1{font-family:AcierBATText-Solid, Acier BAT;}.cls-2{letter-spacing:-0.02em;}.cls-3{letter-spacing:0.01em;}.cls-4{letter-spacing:-0.01em;}.cls-19,.cls-5{fill:#013c4d;}.cls-5{font-family:AcierBATText-Gris, Acier BAT;}.cls-6{letter-spacing:-0.08em;}.cls-10,.cls-7{fill:#fff;}.cls-8,.cls-9{fill:#f15c5e;}.cls-10,.cls-11,.cls-16,.cls-18,.cls-8{stroke:#003b4d;}.cls-10,.cls-11,.cls-14,.cls-15,.cls-16,.cls-17,.cls-18,.cls-8{stroke-miterlimit:10;stroke-width:2.5px;}.cls-11,.cls-14,.cls-15,.cls-17{fill:none;}.cls-12{fill:#ff595a;}.cls-14{stroke:#221f1f;}.cls-15{stroke:#0b5a6e;}.cls-16{fill:#0b5a6e;}.cls-17{stroke:#2c4451;}</style></defs><text class="cls-1" transform="translate(61.17 345.48) scale(1.02 1)">L<tspan class="cls-2" x="34.87" y="0">A</tspan><tspan x="79.48" y="0">UREN DRIS</tspan><tspan class="cls-2" x="397.96" y="0">C</tspan><tspan class="cls-3" x="443.65" y="0">OL</tspan><tspan class="cls-4" x="533.21" y="0">L</tspan></text><text class="cls-5" transform="translate(24.01 422.99) scale(1.02 1)">Inter<tspan class="cls-6" x="170.84" y="0">a</tspan><tspan class="cls-3" x="211.12" y="0">ctive DEsign</tspan></text><path class="cls-7" d="M542.9,168.15c-9.83-22.62-26.76-48.7-52.58-48.7H429.6L411.34,208l43,62.19H492c26.33,0,41.46-14,51.11-36.59A82.66,82.66,0,0,0,542.9,168.15Zm-39.38,72.24-23-35.62,12.1-55.09C541.12,196.61,503.52,240.39,503.52,240.39Z"/><path class="cls-7" d="M316.29,167.62c-9.83-22.61-26.76-48.69-52.58-48.69H203l-18.25,88.54,43,62.19H265.4c26.34,0,41.46-14,51.12-36.59A82.75,82.75,0,0,0,316.29,167.62Zm-39.38,72.24-23-35.62L266,149.15C314.5,196.08,276.91,239.86,276.91,239.86Z"/><rect class="cls-7" x="330.13" y="227.33" width="25.23" height="40.93"/><polygon class="cls-8" points="166.67 118.93 203.24 118.93 184.73 207.47 227.71 269.66 191.4 269.66 148.42 207.47 166.67 118.93"/><path class="cls-9" d="M233.71,143.42s16.13-.64,19.74.22S266,148.58,266,148.58l-12.58,57.34,23.46,33.94s-12.82,12.09-26.58,10L220,205.92Z"/><polygon class="cls-9" points="392.17 118.91 428.13 118.87 397.38 269.71 360.41 269.71 392.17 118.91"/><path class="cls-9" d="M343.82,107.25,392,119.07s98.4-.17,101.05.22,23.36,1.55,40.49,32.43,14.94,46.11,14.94,46.11-2.13,33.36-12,46-18.56,24-34.26,25c0,0,20.57,1.29,22.34,1s20.33-1.28,29.34-9S570.69,244.13,574,237s10.44-27.31,10.34-36.54-2.8-36.4-7.4-40.73c0,0-9.76-20.13-14.46-26.21s-13-16.59-20.92-20.26-14.53-5.79-19.41-5.91S343.82,107.25,343.82,107.25Z"/><polyline class="cls-10" points="326.63 207.35 343.36 107.11 391.5 118.93 360.41 269.71"/><line class="cls-11" x1="312.27" y1="257.67" x2="360.41" y2="269.5"/><path class="cls-9" d="M382.14,40.29h22.41s22.42-.16,26.53,29.08c0,0,.3,20.61-22.82,28.7l-26.12.63s25.77,1.73,29.2-29.2C411.34,69.5,411.34,42,382.14,40.29Z"/><path class="cls-12" d="M118.53,107.11l48.14,11.82s98.4-.17,101.05.22,23.35,1.55,40.48,32.43,14.95,46.1,14.95,46.1-2.13,33.37-12,46-18.55,24-34.25,25c0,0,20.57,1.29,22.34,1s20.33-1.27,29.34-9S345.4,244,348.73,236.89s10.43-27.32,10.33-36.54-2.8-36.4-7.39-40.73c0,0-9.76-20.13-14.46-26.21s-13-16.59-20.92-20.26-14.54-5.79-19.41-5.92S118.53,107.11,118.53,107.11Z"/><path class="cls-13" d="M387.71,40.4l16.84-.11s22.42-.16,26.53,29.08c0,0,.3,20.61-22.82,28.7l-26.12.63s16.33.68,27.44-5.64c14.77-8.41,15.95-29.4,5.11-42.49C409.3,44.06,400.42,41.15,387.71,40.4Z"/><line class="cls-14" x1="474.63" y1="143.26" x2="459.26" y2="143.11"/><path class="cls-9" d="M459,143.56s16.13-.64,19.74.22,12.58,4.94,12.58,4.94l-12.58,57.34L502.2,240s-12.82,12.09-26.58,10l-30.34-43.9Z"/><polygon class="cls-14" points="118.53 107.11 166.67 118.93 148.42 207.47 191.4 269.66 144.78 269.66 101.8 207.35 118.53 107.11"/><polygon class="cls-10" points="118.53 107.11 166.67 118.93 148.42 207.47 191.4 269.66 144.78 269.66 101.8 207.35 118.53 107.11"/><line class="cls-11" x1="151.71" y1="106.19" x2="116.69" y2="106.19"/><line class="cls-11" x1="166.67" y1="118.93" x2="202.98" y2="118.93"/><path class="cls-14" d="M296.37,269.66h-105"/><path class="cls-11" d="M298.75,269.5c-46.68,0-71,.16-71,.16H191.4"/><path class="cls-11" d="M316.52,233.07c-9.66,22.55-24.78,36.59-51.12,36.59"/><path class="cls-11" d="M316.29,167.62a82.75,82.75,0,0,1,.23,65.45"/><path class="cls-11" d="M263.71,118.93c25.82,0,42.75,26.08,52.58,48.69"/><line class="cls-11" x1="235.95" y1="141.45" x2="219.99" y2="205.92"/><line class="cls-11" x1="219.45" y1="204.24" x2="251.94" y2="250.41"/><path class="cls-11" d="M286.46,224c-6.82,15.94-17.51,25.87-36.13,25.87"/><path class="cls-11" d="M286.3,177.69a58.46,58.46,0,0,1,.16,46.26"/><path class="cls-11" d="M249.14,143.28c18.25,0,30.21,18.43,37.16,34.41"/><line class="cls-11" x1="233.71" y1="143.42" x2="249.14" y2="143.28"/><path class="cls-11" d="M296.88,269.5c28.36,0,44.64-15.12,55-39.4"/><path class="cls-15" d="M351.67,159.62a89.07,89.07,0,0,1,.25,70.48"/><path class="cls-15" d="M295.06,107.19c27.8,0,46,28.08,56.61,52.43"/><line class="cls-11" x1="202.98" y1="118.93" x2="263.71" y2="118.93"/><line class="cls-11" x1="266.03" y1="148.58" x2="253.45" y2="205.92"/><line class="cls-11" x1="253.21" y1="204.24" x2="276.91" y2="239.86"/><path class="cls-16" d="M150.42,106.19c91.74,0,78.67,1,146.51,1"/><line class="cls-11" x1="341.07" y1="106.82" x2="377.38" y2="106.82"/><line class="cls-11" x1="429.15" y1="119.01" x2="391.5" y2="118.93"/><line class="cls-17" x1="428.34" y1="118.99" x2="397.26" y2="269.71"/><path class="cls-11" d="M401.88,40.17a29.2,29.2,0,0,1,0,58.4"/><line class="cls-11" x1="382.22" y1="40.33" x2="401.96" y2="40.21"/><line class="cls-11" x1="382.39" y1="98.76" x2="402.13" y2="98.63"/><line class="cls-11" x1="359.89" y1="269.38" x2="397.38" y2="269.71"/><path class="cls-11" d="M521.62,269.69H453"/><line class="cls-17" x1="428.24" y1="118.96" x2="409.98" y2="207.5"/><line class="cls-11" x1="409.98" y1="207.5" x2="454.95" y2="270.36"/><line class="cls-11" x1="461.15" y1="142" x2="445.24" y2="205.94"/><line class="cls-11" x1="444.84" y1="204.18" x2="477.47" y2="250.7"/><path class="cls-11" d="M511.72,224c-6.83,15.94-17.52,25.86-36.13,25.86"/><path class="cls-11" d="M511.55,177.72a58.46,58.46,0,0,1,.17,46.26"/><path class="cls-11" d="M474.39,143.3c18.25,0,30.22,18.43,37.16,34.42"/><line class="cls-11" x1="458.96" y1="143.44" x2="474.39" y2="143.3"/><path class="cls-15" d="M522.13,269.52c28.36,0,44.65-15.12,55-39.4"/><path class="cls-15" d="M576.92,159.65a89,89,0,0,1,.26,70.47"/><path class="cls-15" d="M520.31,107.22c27.8,0,46,28.08,56.61,52.43"/><path class="cls-11" d="M428.24,119H489c25.82,0,42.75,26.07,52.58,48.69a82.66,82.66,0,0,1,.23,65.45c-9.65,22.55-24.78,36.59-51.11,36.59"/><line class="cls-11" x1="491.12" y1="150.86" x2="478.7" y2="205.94"/><line class="cls-11" x1="478.4" y1="203.99" x2="502.16" y2="239.89"/><path class="cls-11" d="M376.4,106.86s100.27.25,145.86.25"/><polygon class="cls-13" points="203.72 120.08 189.28 120.08 170.43 207.13 209.74 269.81 229.19 269.66 186.21 207.47 203.72 120.08"/><polygon class="cls-18" points="429.23 119.95 414.79 119.95 383.14 269.35 399.46 269.99 429.23 119.95"/><path class="cls-13" d="M128.43,106.22l6.13,1.92c48.22,1.59,137.42,2.16,149.79,3.59,2.71.31,25.68,5.6,42.81,36.49a143.44,143.44,0,0,1,12.32,29.24c4.18,14.35,4.23,29.1,1.6,43.81-1.78,9.93-9.31,21.28-15.16,28.72-9.89,12.6-18.45,18.27-34.15,19.28,0,0,20.76-.08,22.53-.37s7.15-.51,16.16-8.19S347.28,244,350.6,236.89s10.44-27.32,10.34-36.54-2.8-36.4-7.4-40.73c0,0-10.26-19.88-15-26s-12.5-16.83-20.42-20.5-16.19-6.64-21.05-7S128.43,106.22,128.43,106.22Z"/><path class="cls-13" d="M353.65,106.22l17,2.69c48.75,1.61,137.11,2.61,139,2.82,2.7.31,25.67,5.6,42.81,36.49a143.91,143.91,0,0,1,12.31,29.24c4.19,14.35,4.23,29.1,1.6,43.81-1.77,9.93-9.31,21.28-15.16,28.72-9.89,12.6-18.45,18.27-34.15,19.28,0,0,21.68.42,23.45.13s6.23-1,15.24-8.69S572.5,244,575.82,236.89s10.44-27.32,10.34-36.54-2.8-36.4-7.39-40.73c0,0-10.27-19.88-15-26s-12.51-16.83-20.43-20.5-16.19-6.64-21-7S353.65,106.22,353.65,106.22Z"/><path class="cls-11" d="M298.75,269.5c28.36,0,44.65-15.12,55.05-39.4"/><path class="cls-11" d="M520.94,269.73c28.35,0,47.64-15.35,58-39.63"/><path class="cls-11" d="M353.54,159.62a89.07,89.07,0,0,1,.26,70.48"/><path class="cls-11" d="M296.93,107.19c27.8,0,46,28.08,56.61,52.43"/><path class="cls-11" d="M578.77,159.62A89.07,89.07,0,0,1,579,230.1"/><path class="cls-11" d="M522.15,107.19c27.81,0,46,28.08,56.62,52.43"/><polygon class="cls-13" points="201.21 120.08 139.97 106.22 153.99 106.64 215.65 120.08 201.21 120.08"/><polygon class="cls-13" points="424.62 120.11 363.38 106.25 375.45 106.67 437.12 120.11 424.62 120.11"/><circle class="cls-10" cx="382.14" cy="69.5" r="29.2"/><rect class="cls-19" x="99.69" y="257.79" width="487.84" height="14.81"/></svg>