<?xml version="1.0" encoding="utf-8"?>
<!-- Generator: Adobe Illustrator 24.3.0, SVG Export Plug-In . SVG Version: 6.00 Build 0)  -->
<svg version="1.1" id="Layer_1" xmlns="http://www.w3.org/2000/svg" xmlns:xlink="http://www.w3.org/1999/xlink" x="0px" y="0px"
	 viewBox="0 0 700.5 488.8" style="enable-background:new 0 0 700.5 488.8;" xml:space="preserve">
<style type="text/css">
	.st0{enable-background:new    ;}
	.st1{fill:#2B2B2B;}
	.st2{fill:#2C2C2C;}
	.st3{fill:#FFFFFF;}
	.st4{fill:#898989;stroke:#2B2B2B;stroke-width:2.5;stroke-miterlimit:10;}
	.st5{fill:#898989;}
	.st6{fill:#FFFFFF;stroke:#2B2B2B;stroke-width:2.5;stroke-miterlimit:10;}
	.st7{fill:none;stroke:#2B2B2B;stroke-width:2.5;stroke-miterlimit:10;}
	.st8{fill:#8B8B8B;}
	.st9{fill:none;stroke:#202020;stroke-width:2.5;stroke-miterlimit:10;}
	.st10{fill:none;stroke:#454545;stroke-width:2.5;stroke-miterlimit:10;}
	.st11{fill:#454545;stroke:#2B2B2B;stroke-width:2.5;stroke-miterlimit:10;}
	.st12{fill:none;stroke:#3E3E3E;stroke-width:2.5;stroke-miterlimit:10;}
	.st13{fill:#2B2B2B;stroke:#2B2B2B;stroke-width:2.5;stroke-miterlimit:10;}
</style>
<g class="st0">
	<path class="st1" d="M64.7,302.2h10.8v34.2h19.2v9.1h-30V302.2z"/>
</g>
<g class="st0">
	<path class="st1" d="M119.4,300.8h1.9l21.6,44.7h-11.6l-2.2-4.5h-17.4l-2.1,4.5H97.9L119.4,300.8z M125.4,333.4l-5.1-11h-0.1
		l-5.1,11H125.4z"/>
</g>
<g class="st0">
	<path class="st1" d="M145.8,302.2h10.7v27.1c0,5.8,2.8,7.8,6.5,7.8c4.1,0,6.7-2,6.7-7.8v-27.1h10.8v28.7c0,10.2-7.8,16-17.5,16
		c-10.1,0-17.3-6.1-17.3-16v-28.7H145.8z"/>
	<path class="st1" d="M188.3,302.2h18.4c9.5,0,15.7,5.6,15.7,13.8c0,7.6-3.9,11.8-10.4,13.4l11.9,16.1h-13.5l-11.2-16.1v16.1h-10.8
		L188.3,302.2L188.3,302.2z M207.8,321c2.4,0,4-2.4,4-5c0-2.5-1.9-4.8-4.3-4.8h-8.4v9.7L207.8,321L207.8,321z"/>
	<path class="st1" d="M228.5,302.2h29.2v9.4h-18.4v7.8h17v9.2h-17v7.8h19.2v9.1h-30L228.5,302.2L228.5,302.2z"/>
	<path class="st1" d="M264.4,302.2h11.4l17.1,25.7v-25.7h10.7v43.2h-11.2l-17.2-25.7v25.7h-10.8V302.2z"/>
	<path class="st1" d="M330.9,302.2h15.4c13,0,23.1,9.4,23.1,21.5c0,11.5-9,21.7-23.1,21.7h-15.4V302.2z M346.1,335.8
		c6.9,0,12.2-4.8,12.2-12c0-6.7-4.6-12-12.2-12h-4.3v24H346.1z"/>
	<path class="st1" d="M377.4,302.2h18.4c9.5,0,15.7,5.6,15.7,13.8c0,7.6-3.9,11.8-10.4,13.4l11.9,16.1h-13.5l-11.2-16.1v16.1h-10.8
		v-43.3H377.4z M396.9,321c2.4,0,4-2.4,4-5c0-2.5-1.9-4.8-4.3-4.8h-8.4v9.7L396.9,321L396.9,321z"/>
	<path class="st1" d="M417.6,302.2h10.8v43.2h-10.8V302.2z"/>
	<path class="st1" d="M446.5,332.8c0,2.5,2.1,4.5,4.6,4.5c2.7,0,4.4-1.5,4.4-3.7c0-3.2-4.3-4.2-7.9-5.4c-7.4-2.6-11.5-6-11.5-13.4
		c0-7.6,6.7-14,15-14c9.8,0,14.4,6.1,15,14.1H456c0-2.5-1.5-4.5-4.6-4.5c-2.4,0-4.6,1.4-4.6,4.2c0,3.2,4,3.8,7.8,4.9
		c7.9,2.3,11.5,6.6,11.5,13.4c0,7.6-6.6,14-14.9,14c-9.6,0-15.1-6.3-15.1-14.1H446.5z"/>
</g>
<g class="st0">
	<path class="st1" d="M494.9,300.8c8.4,0,14.2,3.1,18.9,7.9l-7.4,6.9c-3.1-3-7.1-4.8-11.5-4.8c-7.9,0-12.9,5.8-12.9,13
		c0,7.3,5.1,13,12.9,13c4.4,0,8.4-1.9,11.5-4.8l7.2,6.9c-4.4,4.5-10.5,7.9-18.7,7.9c-14,0-23.9-10.2-23.9-23.1
		C471.1,311,481,300.8,494.9,300.8z"/>
</g>
<g class="st0">
	<path class="st1" d="M541.4,300.8c13.9,0,23.7,10.2,23.7,23.1s-9.8,23.1-23.7,23.1c-14,0-23.7-10.2-23.7-23.1
		S527.4,300.8,541.4,300.8z M541.4,336.9c7.8,0,12.8-5.8,12.8-13c0-7.3-5-13-12.8-13c-7.9,0-12.8,5.8-12.8,13
		C528.6,331.1,533.5,336.9,541.4,336.9z"/>
	<path class="st1" d="M573.4,302.2h10.8v34.2h19.2v9.1h-30V302.2z"/>
</g>
<g class="st0">
	<path class="st1" d="M608.6,302.2h10.8v34.2h19.2v9.1h-30V302.2z"/>
</g>
<g class="st0">
	<path class="st2" d="M27.5,379.8h10.8V423H27.5V379.8z M35.6,421v-39.2h-5.4V421H35.6z M31,382.4h3.9v0.4H31V382.4z M31,383.9h3.9
		v0.4H31V383.9z M31,385.3h3.9v0.4H31V385.3z M31,386.7h3.9v0.4H31V386.7z M31,388.2h3.9v0.4H31V388.2z M31,389.6h3.9v0.4H31V389.6z
		 M31,391.1h3.9v0.4H31V391.1z M31,392.5h3.9v0.4H31V392.5z M31,393.9h3.9v0.4H31V393.9z M31,395.4h3.9v0.4H31V395.4z M31,396.8h3.9
		v0.4H31V396.8z M31,398.3h3.9v0.4H31V398.3z M31,399.7h3.9v0.4H31V399.7z M31,401.2h3.9v0.4H31V401.2z M31,402.6h3.9v0.4H31V402.6z
		"/>
	<path class="st2" d="M46.1,379.8h11.4l17.1,25.7v-25.7h10.7V423H74.1l-17.2-25.7V423H46.1V379.8z M54.2,421v-30.5h1.1L75.8,421h6.8
		v-39.2h-5.3v30.1H76l-20.2-30.1h-7V421H54.2z M50.8,382.6h4.6l0.3,0.4H51L50.8,382.6z M51.8,384h4.6l0.3,0.4H52L51.8,384z
		 M52.7,385.4h4.6l0.3,0.4H53L52.7,385.4z M53.8,386.9h4.5l0.3,0.4H54L53.8,386.9z M54.7,388.3h4.5l0.3,0.4H55L54.7,388.3z
		 M55.8,389.8h4.4l0.3,0.4H56L55.8,389.8z M56.7,391.2h4.5l0.3,0.4h-4.6L56.7,391.2z M57.7,392.7h4.5l0.3,0.4h-4.6L57.7,392.7z
		 M58.7,394.1h4.4l0.3,0.4h-4.5L58.7,394.1z M59.7,395.5h4.4l0.3,0.4h-4.5L59.7,395.5z M60.6,397H65l0.3,0.4h-4.5L60.6,397z
		 M61.6,398.4h4.5l0.3,0.4h-4.6L61.6,398.4z M62.5,399.9H67l0.3,0.4h-4.6L62.5,399.9z M63.5,401.3H68l0.3,0.4h-4.6L63.5,401.3z
		 M64.5,402.7h4.4l0.3,0.4h-4.5L64.5,402.7z M65.5,404.2h4.4l0.3,0.4h-4.5L65.5,404.2z M66.4,405.6h4.4l0.3,0.4h-4.5L66.4,405.6z
		 M67.4,407.1h4.5l0.3,0.4h-4.6L67.4,407.1z M72.8,408.5l0.3,0.4h-4.6l-0.2-0.4H72.8z M73.8,409.9l0.3,0.4h-4.5l-0.2-0.4H73.8z
		 M74.7,411.4l0.3,0.4h-4.5l-0.2-0.4H74.7z M75.8,412.8l0.3,0.4h-4.6l-0.2-0.4H75.8z M76.9,414.3l0.4,0.4h-4.8l-0.2-0.4H76.9z
		 M78,415.7l0.4,0.4h-4.9l-0.2-0.4H78z M79.1,417.2l0.3,0.4h-5l-0.2-0.4H79.1z M80.2,418.6l0.4,0.4h-5.1l-0.2-0.4H80.2z M81.2,419.9
		l0.4,0.4h-5.4l-0.2-0.4H81.2z"/>
	<path class="st2" d="M101,389.1h-9.9v-9.4h30.7v9.4h-10V423H101V389.1z M109.1,421v-33.9h10v-5.3H93.8v5.3h9.9V421H109.1z
		 M94.6,382.8h23.8v0.4H94.6V382.8z M94.6,384.3h23.8v0.4H94.6V384.3z M94.6,385.7h23.8v0.4H94.6V385.7z"/>
	<path class="st2" d="M127.6,379.8h29.2v9.4h-18.4v7.8h17v9.2h-17v7.8h19.2v9.1h-30C127.6,423.1,127.6,379.8,127.6,379.8z
		 M154.8,421v-5h-19.2v-11.8h17V399h-17v-11.8H154v-5.3h-23.7V421H154.8z M131.6,419.7h22.5v0.4h-22.9L131.6,419.7z M131.3,382.8h22
		v0.4h-21.6L131.3,382.8z M132.8,384.2h20.5v0.4h-20.1L132.8,384.2z M133.2,418.3h20.9v0.4h-21.3L133.2,418.3z M134.3,385.7h19v0.4
		h-18.7L134.3,385.7z M134.7,416.9h19.4v0.4h-19.8L134.7,416.9z M135.7,399.9h16.2v0.4h-16.2V399.9z M135.7,401.3h16.2v0.4h-16.2
		V401.3z M135.7,402.7h16.2v0.4h-16.2V402.7z"/>
	<path class="st2" d="M163.5,379.8H182c9.5,0,15.7,5.6,15.7,13.8c0,7.6-3.9,11.8-10.4,13.4l11.9,16.1h-13.5L174.5,407v16h-10.8
		v-43.2H163.5z M171.6,421v-15.5h4.9l10.8,15.5h7.3l-11-14.9v-0.6c7.5-0.9,11.4-4.5,11.4-11.5c0-7.4-5.6-12.2-12.9-12.2h-15.7V421
		H171.6z M171.6,386.7h11.1c4.5,0,7.1,3.5,7.1,6.8c0,3.8-2.7,7-6.8,7h-11.4L171.6,386.7L171.6,386.7z M171.7,382.6H182l3.5,0.4
		h-13.7v-0.4H171.7z M171.7,384h16.5l0.6,0.4h-17.1V384z M171.7,385.4h18.7l0.4,0.4h-19.1L171.7,385.4L171.7,385.4z M171.7,401.3
		h19.8l-0.4,0.4h-19.5L171.7,401.3L171.7,401.3z M171.7,402.7h17.9l-0.7,0.4h-17.3v-0.4H171.7z M171.7,404.2H186l-1.9,0.4h-12.4
		L171.7,404.2L171.7,404.2z M183,398.5c2.4,0,4-2.5,4-5s-1.9-4.8-4.3-4.8h-8.4v9.7L183,398.5L183,398.5z M177.4,405.6h5.2v0.4h-5
		L177.4,405.6z M178.4,407.1h4.9l0.4,0.4h-5L178.4,407.1z M179.4,408.5h4.9l0.3,0.4h-5L179.4,408.5z M180.3,409.9h5l0.4,0.4h-5.1
		L180.3,409.9z M186.4,411.4l0.3,0.4h-5.1l-0.2-0.4H186.4z M187.5,412.8l0.4,0.4h-5.3l-0.2-0.4H187.5z M188.6,414.3l0.3,0.4h-5.3
		l-0.2-0.4H188.6z M189.6,415.7l0.4,0.4h-5.4l-0.2-0.4H189.6z M190.7,417.2l0.3,0.4h-5.4l-0.2-0.4H190.7z M191.8,386.9l0.3,0.4H187
		l-0.8-0.4H191.8z M191.7,418.6l0.4,0.4h-5.4l-0.2-0.4H191.7z M187.3,399.9h5.4l-0.3,0.4h-5.7L187.3,399.9z M192.8,420l0.2,0.4h-5.4
		l-0.2-0.4H192.8z M192.8,388.3l0.1,0.4h-4.1l-0.5-0.4H192.8z M188.9,398.4h4.6l-0.2,0.4h-4.7L188.9,398.4z M189.4,389.8h4l0.1,0.4
		h-4L189.4,389.8z M189.8,397h4.1l-0.1,0.4h-4.2L189.8,397z M190.1,391.2h3.7v0.4h-3.5L190.1,391.2z M190.2,395.5h3.8v0.4h-3.9
		L190.2,395.5z M190.4,392.7h3.7v0.4h-3.7V392.7z M190.5,394.1h3.7v0.4h-3.7V394.1z"/>
</g>
<g class="st0">
	<path class="st2" d="M220.9,378.3h1.9l21.6,44.7h-11.6l-2.2-4.5h-17.4l-2.1,4.5h-11.6L220.9,378.3z M209.1,421l12.3-26.1h1
		l12.2,26.1h6l-18.7-38.8L203.3,421H209.1z M208.1,412.4h4l-0.2,0.4h-4L208.1,412.4z M208.8,411h4l-0.2,0.4h-4L208.8,411z
		 M209.5,409.5h4l-0.2,0.4h-4L209.5,409.5z M210.2,408.1h4l-0.2,0.4h-4L210.2,408.1z M210.9,406.6h4l-0.2,0.4h-4L210.9,406.6z
		 M211.6,405.2h4l-0.2,0.4h-3.9L211.6,405.2z M212.2,403.7h4l-0.2,0.4h-3.9L212.2,403.7z M213,402.3h4l-0.2,0.4h-4L213,402.3z
		 M213.6,400.9h4l-0.2,0.4h-3.9L213.6,400.9z M229.7,416.6L228,413h-12.4l-1.6,3.6H229.7z M214.4,399.4h4l-0.2,0.4h-4L214.4,399.4z
		 M215,398h4l-0.2,0.4h-3.9L215,398z M215.8,396.5h4l-0.2,0.4h-4L215.8,396.5z M215.8,415.3h11.9l0.1,0.4h-12.2L215.8,415.3z
		 M216.4,395.1h4l-0.2,0.4h-3.9L216.4,395.1z M216.4,413.8h10.7l0.2,0.4h-11L216.4,413.8z M226.9,410.9l-5-10.9h-0.1l-5.1,10.9
		H226.9z M217.2,393.7h9.3l0.2,0.4h-9.8L217.2,393.7z M217.8,392.2h8l0.1,0.4h-8.3L217.8,392.2z M218.5,390.8h6.6l0.2,0.4h-7
		L218.5,390.8z M219.2,389.3h5.2l0.1,0.4H219L219.2,389.3z M219.9,387.9h3.8l0.2,0.4h-4.2L219.9,387.9z M220.6,386.5h2.4l0.1,0.4
		h-2.8L220.6,386.5z M221.3,385h1l0.2,0.4h-1.4L221.3,385z M221.9,383.8l0.1,0.3h-0.3L221.9,383.8z M223.4,395.1h3.8l0.1,0.4h-3.7
		L223.4,395.1z M224.1,396.5h3.8l0.2,0.4h-3.8L224.1,396.5z M224.7,398h3.9l0.1,0.4h-3.8L224.7,398z M225.4,399.4h3.9l0.2,0.4h-3.9
		L225.4,399.4z M226.1,400.9h4l0.1,0.4h-3.9L226.1,400.9z M226.7,402.3h4l0.2,0.4h-4L226.7,402.3z M227.4,403.7h4l0.1,0.4h-4
		L227.4,403.7z M228,405.2h4l0.2,0.4h-4L228,405.2z M232.8,406.6l0.1,0.4h-4l-0.2-0.4H232.8z M233.5,408.1l0.2,0.4h-4.2l-0.2-0.4
		H233.5z M234.2,409.5l0.1,0.4h-4.2l-0.2-0.4H234.2z M234.9,411l0.2,0.4h-4.3l-0.2-0.4H234.9z M235.6,412.4l0.1,0.4h-4.3l-0.2-0.4
		H235.6z"/>
</g>
<g class="st0">
	<path class="st2" d="M267.2,378.3c8.4,0,14.2,3.1,18.9,7.9l-7.4,6.9c-3.1-3-7.1-4.8-11.5-4.8c-7.9,0-12.9,5.8-12.9,13
		s5.1,13,12.9,13c4.4,0,8.4-1.9,11.5-4.8l7.2,6.9c-4.4,4.5-10.5,7.9-18.7,7.9c-14,0-23.9-10.2-23.9-23.1S253.2,378.3,267.2,378.3z
		 M267.2,422.4c6.5,0,11.3-2,15.4-5.8l-4.2-4.2c-2.6,2.3-6.8,4-11.2,4c-9.5,0-15.7-6.6-15.7-15.1c0-8.4,6.2-15.1,15.7-15.1
		c4.2,0,8.2,1.5,11.4,3.9l4.2-4c-3.9-3.9-9-5.9-15.6-5.9c-12.3,0-21.2,9.3-21.2,21S254.9,422.4,267.2,422.4z M246.8,399.8h4
		l-0.1,0.4h-4L246.8,399.8z M246.8,401.2h4v0.4h-4V401.2z M246.8,402.7h4l0.1,0.4h-4L246.8,402.7z M247,398.3h4l-0.1,0.4h-4
		L247,398.3z M246.9,404.1h4l0.1,0.4h-4L246.9,404.1z M247.2,396.9h4.1l-0.1,0.4h-4V396.9z M247.1,405.5h4l0.1,0.4h-4L247.1,405.5z
		 M247.6,395.5h4.2l-0.1,0.4h-4.1L247.6,395.5z M247.5,407h4.1l0.1,0.4h-4.2L247.5,407z M248,394h4.4l-0.2,0.4H248V394z M248,408.4
		h4.3l0.2,0.4H248V408.4z M248.6,392.6h4.6l-0.3,0.4h-4.5L248.6,392.6z M248.5,409.9h4.6l0.3,0.4h-4.6L248.5,409.9z M249.3,391.1h5
		l-0.3,0.4h-4.9L249.3,391.1z M249.2,411.3h4.9l0.4,0.4h-5L249.2,411.3z M250.3,389.7h5.4l-0.4,0.4H250L250.3,389.7z M250.1,412.8
		h5.3l0.4,0.4h-5.4L250.1,412.8z M251.3,388.3h6.2l-0.5,0.4h-6L251.3,388.3z M251.2,414.2h5.9l0.4,0.4h-6.1L251.2,414.2z
		 M252.7,386.8h7.7l-1,0.4h-7.1L252.7,386.8z M259.6,415.6l0.7,0.4h-7.6l-0.4-0.4H259.6z M254.4,385.4h12.8v0.1l-2.9,0.2h-10.5
		L254.4,385.4z M264.8,417.1c0.7,0,1.8,0.1,2.4,0.1v0.2h-12.6l-0.4-0.4L264.8,417.1L264.8,417.1z M256.6,383.9h10.7v0.4H256
		L256.6,383.9z M267.2,418.5v0.4h-10.5l-0.5-0.4H267.2z M259.6,382.5h7.6v0.4h-8.6L259.6,382.5z M267.2,420v0.4h-7.5l-1-0.4H267.2z
		 M267.2,381.1v0.3h-3.7C264.7,381.2,265.1,381.1,267.2,381.1z M267.2,421.4v0.2h-0.1l-3.3-0.2H267.2z"/>
	<path class="st2" d="M299.9,389.1H290v-9.4h30.7v9.4h-10V423h-10.8L299.9,389.1L299.9,389.1z M308,421v-33.9h10v-5.3h-25.3v5.3h9.9
		V421H308z M293.4,382.8h23.8v0.4h-23.8V382.8z M293.4,384.3h23.8v0.4h-23.8V384.3z M293.4,385.7h23.8v0.4h-23.8V385.7z"/>
	<path class="st2" d="M326.5,379.8h10.8V423h-10.8V379.8z M334.5,421v-39.2h-5.4V421H334.5z M329.9,382.4h3.9v0.4h-3.9V382.4z
		 M329.9,383.9h3.9v0.4h-3.9V383.9z M329.9,385.3h3.9v0.4h-3.9V385.3z M329.9,386.7h3.9v0.4h-3.9V386.7z M329.9,388.2h3.9v0.4h-3.9
		V388.2z M329.9,389.6h3.9v0.4h-3.9V389.6z M329.9,391.1h3.9v0.4h-3.9V391.1z M329.9,392.5h3.9v0.4h-3.9V392.5z M329.9,393.9h3.9
		v0.4h-3.9V393.9z M329.9,395.4h3.9v0.4h-3.9V395.4z M329.9,396.8h3.9v0.4h-3.9V396.8z M329.9,398.3h3.9v0.4h-3.9V398.3z
		 M329.9,399.7h3.9v0.4h-3.9V399.7z M329.9,401.2h3.9v0.4h-3.9V401.2z M329.9,402.6h3.9v0.4h-3.9V402.6z"/>
	<path class="st2" d="M342.3,379.8h11.2l8.9,20.8l8.9-20.8h11.2L363,424.5h-1.3L342.3,379.8z M378.9,381.8h-5.6l-10.3,24h-1.1
		l-10.4-24.1h-5.6l16.5,37.7L378.9,381.8z M347,382.6h4l0.1,0.4h-3.9L347,382.6z M347.6,384h4l0.1,0.4h-3.9L347.6,384z M348.3,385.4
		h4l0.1,0.4h-3.9L348.3,385.4z M348.9,386.9h4l0.1,0.4h-3.9L348.9,386.9z M349.5,388.3h4l0.1,0.4h-3.9L349.5,388.3z M350.2,389.8
		h3.9l0.1,0.4h-3.8L350.2,389.8z M350.8,391.2h4l0.1,0.4H351L350.8,391.2z M351.4,392.7h3.9l0.1,0.4h-3.8L351.4,392.7z M352.1,394.1
		h3.9l0.1,0.4h-3.8L352.1,394.1z M352.7,395.5h3.9l0.1,0.4h-3.8L352.7,395.5z M353.4,397h3.9l0.1,0.4h-3.8L353.4,397z M353.9,398.4
		h3.9l0.1,0.4h-3.8L353.9,398.4z M354.6,399.9h3.9l0.1,0.4h-3.8L354.6,399.9z M355.2,401.3h3.9l0.1,0.4h-3.8L355.2,401.3z
		 M355.9,402.7h3.8l0.1,0.4h-3.7L355.9,402.7z M356.5,404.2h3.7l0.1,0.4h-3.7L356.5,404.2z M357.1,405.6h3.8l0.1,0.4h-3.7
		L357.1,405.6z M357.8,407.1h3.7l0.1,0.4H358L357.8,407.1z M358.3,408.5h3.8l0.1,0.4h-3.7L358.3,408.5z M359,409.9h3.7l0.1,0.4h-3.7
		L359,409.9z M359.7,411.4h3.7l0.1,0.4h-3.6L359.7,411.4z M363.9,412.8l0.1,0.4h-3.6l-0.2-0.4H363.9z M363.9,414.3l-0.2,0.4h-2.5
		l-0.2-0.4H363.9z M363.2,415.7l-0.2,0.4h-1.2l-0.2-0.4H363.2z M362.6,417.2l-0.1,0.3l-0.1-0.3H362.6z"/>
	<path class="st2" d="M387.5,379.8h29.2v9.4h-18.4v7.8h17v9.2h-17v7.8h19.2v9.1h-30L387.5,379.8L387.5,379.8z M414.8,421v-5h-19.2
		v-11.8h17V399h-17v-11.8H414v-5.3h-23.7V421H414.8z M391.6,419.7h22.5v0.4h-22.9L391.6,419.7z M391.3,382.8h22v0.4h-21.6
		L391.3,382.8z M392.7,384.2h20.5v0.4h-20.1L392.7,384.2z M393.1,418.3H414v0.4h-21.3L393.1,418.3z M394.2,385.7h19v0.4h-18.7
		L394.2,385.7z M394.7,416.9h19.4v0.4h-19.8L394.7,416.9z M395.6,399.9h16.2v0.4h-16.2V399.9z M395.6,401.3h16.2v0.4h-16.2V401.3z
		 M395.6,402.7h16.2v0.4h-16.2V402.7z"/>
	<path class="st2" d="M442.9,379.8h15.4c13,0,23.1,9.4,23.1,21.5c0,11.5-9,21.7-23.1,21.7h-15.4V379.8z M458.3,421
		c12.4,0,20.4-9.2,20.4-19.7c0-11-8.9-19.5-20.4-19.5h-12.6V421H458.3z M451,382.8h10.2l2.1,0.4H451V382.8z M451,384.2h15.5l0.8,0.4
		H451V384.2z M451,385.7h18.2l0.5,0.4H451V385.7z M451,387.3h7.1c9.3,0,14.9,6.1,14.9,14c0,8.5-6.5,14.1-14.9,14.1H451V387.3z
		 M451,416.7h18.8l-0.5,0.4H451V416.7z M451,418.2h16.5l-0.8,0.4H451V418.2z M451,419.6h12.4l-1.5,0.3h-11v-0.3H451z M458.1,413.3
		c6.9,0,12.2-4.8,12.2-12c0-6.7-4.6-12-12.2-12h-4.3v24H458.1z M463.5,415.4h8.2l-0.3,0.3h-8.8L463.5,415.4z M471.2,387L471.2,387
		l0.5,0.4h-7.9l-1.2-0.4H471.2z M466.8,413.9h6.5l-0.4,0.4h-6.8L466.8,413.9z M472.7,388.5l0.4,0.4h-6l-0.6-0.4H472.7z M468.8,412.5
		h5.5l-0.3,0.4h-5.8L468.8,412.5z M474,389.9l0.2,0.3H469l-0.4-0.3H474z M470.1,411.1h5.1l-0.3,0.4h-5.1L470.1,411.1z M470,391.3
		h4.9l0.3,0.4h-4.9L470,391.3z M471.2,409.7h4.8l-0.2,0.4H471L471.2,409.7z M471.2,392.7h4.6l0.1,0.4h-4.6L471.2,392.7z
		 M472.1,408.3h4.6l-0.1,0.3H472L472.1,408.3z M472,394.1h4.5l0.1,0.4h-4.4L472,394.1z M472.6,395.5h4.3l0.1,0.4h-4.3L472.6,395.5z
		 M472.7,406.8h4.4l-0.1,0.4h-4.3V406.8z M473.2,405.4h4.3l-0.1,0.4h-4.3L473.2,405.4z M473.2,397h4.3l0.1,0.3h-4.3L473.2,397z
		 M473.5,398.3h4.2l0.1,0.4h-4.3L473.5,398.3z M473.5,404h4.3l-0.1,0.4h-4.2L473.5,404z M473.7,402.6h4.2v0.4h-4.3L473.7,402.6z
		 M473.7,399.8h4.2v0.4h-4.2V399.8z M473.7,401.2h4.2v0.4h-4.2V401.2z"/>
	<path class="st2" d="M489.5,379.8h29.2v9.4h-18.4v7.8h17v9.2h-17v7.8h19.2v9.1h-30L489.5,379.8L489.5,379.8z M516.7,421v-5h-19.2
		v-11.8h17V399h-17v-11.8h18.4v-5.3h-23.7V421H516.7z M493.5,419.7H516v0.4h-22.9L493.5,419.7z M493.2,382.8h22v0.4h-21.6
		L493.2,382.8z M494.7,384.2h20.5v0.4h-20.1L494.7,384.2z M495.1,418.3H516v0.4h-21.3L495.1,418.3z M496.2,385.7h19v0.4h-18.7
		L496.2,385.7z M496.6,416.9H516v0.4h-19.8L496.6,416.9z M497.6,399.9h16.2v0.4h-16.2L497.6,399.9L497.6,399.9z M497.6,401.3h16.2
		v0.4h-16.2L497.6,401.3L497.6,401.3z M497.6,402.7h16.2v0.4h-16.2L497.6,402.7L497.6,402.7z"/>
	<path class="st2" d="M535.7,410.3c0,2.5,2.1,4.5,4.6,4.5c2.7,0,4.4-1.5,4.4-3.7c0-3.2-4.3-4.2-7.9-5.4c-7.4-2.6-11.5-6-11.5-13.4
		c0-7.6,6.7-14,15-14c9.8,0,14.4,6.1,15,14.1H545c0-2.5-1.5-4.5-4.6-4.5c-2.4,0-4.6,1.4-4.6,4.2c0,3.2,4,3.8,7.8,4.9
		c7.9,2.3,11.5,6.6,11.5,13.4c0,7.6-6.6,14-14.9,14c-9.6,0-15.1-6.3-15.1-14.1H535.7z M540.3,422.4c6.8,0,12.4-5.4,12.4-12
		c0-7.3-4.4-9.9-11.2-11.8c-4.3-1.2-8.1-2.2-8.1-6.5c0-3.7,2.9-6.2,6.8-6.2c4.6,0,6.1,2.7,6.8,4.5h5.5c-0.4-4.3-3.7-10.1-12.3-10.1
		c-6.8,0-12.6,5.4-12.6,12c0,5.3,2.1,8.7,10.1,11.5c4.2,1.5,9.3,2.6,9.3,7.3c0,3.8-3.4,5.8-6.8,5.8c-3.7-0.1-6.1-2.2-6.8-4.5h-5.7
		C527.9,417.7,533.3,422.4,540.3,422.4z M528.4,391.5h4.3v0.4h-4.3V391.5z M528.4,392.9h4.3l0.1,0.4h-4.3L528.4,392.9L528.4,392.9z
		 M528.7,390h4.3l-0.1,0.4h-4.3L528.7,390z M528.6,394.5h4.4l0.1,0.4h-4.5V394.5z M528.9,395.9h4.9l-0.1-0.1l0.4,0.4H529
		L528.9,395.9z M529.1,388.5h4.5l-0.2,0.4H529L529.1,388.5z M529.8,387h5.1l-0.5,0.4h-4.8L529.8,387z M529.7,397.4h6l0.6,0.4H530
		L529.7,397.4z M530.8,385.6h6.5l-0.8,0.4h-6L530.8,385.6z M530.9,398.8h8.5l1.4,0.4h-9.5L530.9,398.8z M532.2,384.1h8.1v0.4h-8.5
		L532.2,384.1z M532.5,400.3H544l1.1,0.4h-11.8L532.5,400.3z M534.4,382.6h5.9v0.4h-6.5L534.4,382.6z M547.2,401.8l0.4,0.4H536
		l-0.6-0.4H547.2z M538.7,381.2h1.5v0.4H537L538.7,381.2z M549.2,403.2l0.4,0.4h-10.1l-1.1-0.4H549.2z M540.3,418h8.4l-0.4,0.4h-8
		V418z M540.3,419.5h6.6l-0.5,0.4h-6.1V419.5z M540.3,421h3.7l-1.4,0.4h-2.4V421H540.3z M550.5,404.8l0.1,0.4h-7.1l-0.8-0.4H550.5z
		 M544.7,416.5h5.2l-0.2,0.3l-0.1,0.1h-5.8L544.7,416.5z M551.1,406.2l0.1,0.4h-5.4l-0.4-0.4H551.1z M546.4,415.1h4.3l-0.2,0.4H546
		L546.4,415.1z M546.8,407.7h4.9l0.1,0.4H547L546.8,407.7z M547.4,413.5h4l-0.1,0.4h-4.1L547.4,413.5z M547.5,409.2h4.3v0.4h-4.3
		V409.2z M547.8,412.1h4l-0.1,0.4h-4L547.8,412.1z M547.8,410.7h4.1l-0.1,0.4h-4V410.7z"/>
	<path class="st2" d="M563.2,379.8H574V423h-10.8V379.8z M571.3,421v-39.2h-5.4V421H571.3z M566.6,382.4h3.9v0.4h-3.9V382.4z
		 M566.6,383.9h3.9v0.4h-3.9V383.9z M566.6,385.3h3.9v0.4h-3.9V385.3z M566.6,386.7h3.9v0.4h-3.9V386.7z M566.6,388.2h3.9v0.4h-3.9
		V388.2z M566.6,389.6h3.9v0.4h-3.9V389.6z M566.6,391.1h3.9v0.4h-3.9V391.1z M566.6,392.5h3.9v0.4h-3.9V392.5z M566.6,393.9h3.9
		v0.4h-3.9V393.9z M566.6,395.4h3.9v0.4h-3.9V395.4z M566.6,396.8h3.9v0.4h-3.9V396.8z M566.6,398.3h3.9v0.4h-3.9V398.3z
		 M566.6,399.7h3.9v0.4h-3.9V399.7z M566.6,401.2h3.9v0.4h-3.9V401.2z M566.6,402.6h3.9v0.4h-3.9V402.6z"/>
	<path class="st2" d="M605.5,378.3c8.2,0,13.8,3,18.4,7.6l-7.5,6.8c-3-2.7-6.8-4.3-11-4.3c-7.9,0-12.9,5.8-12.9,13
		c0,8,5.8,13,13.2,13c7.7,0,11.5-4.2,11.8-8.4h-12.6v-9.2h24.3v4.1c0,12.8-7.6,23.4-23.7,23.4c-14,0-23.9-10.2-23.9-23.1
		S591.5,378.3,605.5,378.3z M605.5,422.4c14.2,0,20.9-9,20.9-21v-2.5h-18.8v5.1h12.8c-0.1,5.9-4.6,12.4-14.9,12.4
		c-9.5,0-15.7-6.6-15.7-15.1c0-8.4,6.2-15.1,15.7-15.1c3.9,0,7.7,1.4,10.8,3.5l4.3-4c-3.8-3.5-8.7-5.4-15.1-5.4
		c-12.3,0-21.2,9.3-21.2,21S593.2,422.4,605.5,422.4z M585.1,399.8h4l-0.1,0.4h-4L585.1,399.8z M585,401.2h4v0.4h-4V401.2z
		 M585,402.7h4l0.1,0.4h-4L585,402.7z M585.2,398.3h4l-0.1,0.4h-4L585.2,398.3z M585.2,404.1h4l0.1,0.4h-4L585.2,404.1z
		 M585.5,396.9h4.1l-0.1,0.4h-4V396.9z M585.4,405.5h4l0.1,0.4h-4L585.4,405.5z M585.8,407h4.1l0.1,0.4h-4.2L585.8,407z
		 M586.2,408.4h4.3l0.2,0.4h-4.4L586.2,408.4z M586.7,409.9h4.6l0.3,0.4H587L586.7,409.9z M587.4,411.3h4.9l0.4,0.4h-5L587.4,411.3z
		 M588.3,412.8h5.3l0.4,0.4h-5.4L588.3,412.8z M589.4,414.2h5.9l0.4,0.4h-6.1L589.4,414.2z M597.9,415.6l0.7,0.4H591l-0.4-0.4H597.9
		z M603,417.1c0.6,0.1,1.6,0.1,2.4,0.1c1,0,1.7-0.1,2.4-0.1h11.5l-0.4,0.4h-26.1l-0.4-0.4H603z M617.5,418.5l-0.5,0.4h-22.1
		l-0.5-0.4H617.5z M614.8,420l-1,0.4H598l-1-0.4H614.8z M608.8,421.4c-0.6,0.1-1.5,0.2-3.4,0.2c-1.2,0-2.4-0.1-3.5-0.2H608.8z
		 M608.5,399.8h17v0.4h-17V399.8z M608.5,401.2h17v0.4h-17V401.2z M608.5,402.7h17v0.4h-17V402.7z M613.3,415.6h7.6l-0.4,0.4h-8
		L613.3,415.6z M616.1,414.2h6l-0.3,0.4h-6.2L616.1,414.2z M617.7,412.8h5.1l-0.3,0.4h-5.2L617.7,412.8z M619,411.3h4.6l-0.2,0.4
		h-4.7L619,411.3z M619.8,409.9h4.4l-0.2,0.4h-4.5L619.8,409.9z M620.4,408.4h4.2l-0.1,0.4h-4.2L620.4,408.4z M620.9,407h4l-0.1,0.4
		h-4L620.9,407z M621.2,405.5h4l-0.1,0.4h-4L621.2,405.5z M621.3,404.1h4v0.4h-4V404.1z"/>
	<path class="st2" d="M636.9,379.8h11.4l17.1,25.7v-25.7h10.7V423h-11.2l-17.2-25.7V423h-10.8V379.8z M645,421v-30.5h1.1l20.5,30.5
		h6.8v-39.2h-5.3v30.1h-1.3l-20.2-30.1h-7V421H645z M641.5,382.6h4.6l0.3,0.4h-4.7L641.5,382.6z M642.6,384h4.6l0.3,0.4h-4.6
		L642.6,384z M643.5,385.4h4.6l0.3,0.4h-4.6L643.5,385.4z M644.6,386.9h4.5l0.3,0.4h-4.6L644.6,386.9z M645.5,388.3h4.5l0.3,0.4
		h-4.6L645.5,388.3z M646.5,389.8h4.4l0.3,0.4h-4.5L646.5,389.8z M647.5,391.2h4.5l0.3,0.4h-4.6L647.5,391.2z M648.5,392.7h4.5
		l0.3,0.4h-4.6L648.5,392.7z M649.5,394.1h4.4l0.3,0.4h-4.5L649.5,394.1z M650.4,395.5h4.4l0.3,0.4h-4.5L650.4,395.5z M651.4,397
		h4.4l0.3,0.4h-4.5L651.4,397z M652.3,398.4h4.5l0.3,0.4h-4.6L652.3,398.4z M653.3,399.9h4.5l0.3,0.4h-4.6L653.3,399.9z
		 M654.3,401.3h4.5l0.3,0.4h-4.6L654.3,401.3z M655.3,402.7h4.4l0.3,0.4h-4.5L655.3,402.7z M656.2,404.2h4.4l0.3,0.4h-4.5
		L656.2,404.2z M657.2,405.6h4.4l0.3,0.4h-4.5L657.2,405.6z M658.2,407.1h4.5l0.3,0.4h-4.6L658.2,407.1z M663.6,408.5l0.3,0.4h-4.6
		l-0.2-0.4H663.6z M664.6,409.9l0.3,0.4h-4.5l-0.2-0.4H664.6z M665.5,411.4l0.3,0.4h-4.5l-0.2-0.4H665.5z M666.6,412.8l0.3,0.4h-4.6
		l-0.2-0.4H666.6z M667.6,414.3l0.4,0.4h-4.8l-0.2-0.4H667.6z M668.7,415.7l0.4,0.4h-4.9l-0.2-0.4H668.7z M669.8,417.2l0.3,0.4h-5
		l-0.2-0.4H669.8z M670.9,418.6l0.4,0.4h-5.1l-0.2-0.4H670.9z M672,419.9l0.4,0.4H667l-0.2-0.4H672z"/>
</g>
<path class="st3" d="M542.9,168.1c-9.8-22.6-26.8-48.7-52.6-48.7h-60.7L411.3,208l43,62.2H492c26.3,0,41.5-14,51.1-36.6
	C552,212.7,552,189,542.9,168.1z M503.5,240.4l-23-35.6l12.1-55.1C541.1,196.6,503.5,240.4,503.5,240.4L503.5,240.4z"/>
<path class="st3" d="M316.3,167.6c-9.8-22.6-26.8-48.7-52.6-48.7H203l-18.2,88.5l43,62.2h37.6c26.3,0,41.5-14,51.1-36.6
	C325.4,212.1,325.4,188.5,316.3,167.6z M276.9,239.9l-23-35.6l12.1-55.1C314.5,196.1,276.9,239.9,276.9,239.9L276.9,239.9z"/>
<rect x="330.1" y="227.3" class="st3" width="25.2" height="40.9"/>
<polygon class="st4" points="166.7,118.9 203.2,118.9 184.7,207.5 227.7,269.7 191.4,269.7 148.4,207.5 "/>
<path class="st5" d="M233.7,143.4c0,0,16.1-0.6,19.7,0.2c3.6,0.9,12.5,4.9,12.5,4.9l-12.6,57.3l23.5,33.9c0,0-12.8,12.1-26.6,10
	L220,205.9L233.7,143.4z"/>
<polygon class="st5" points="392.2,118.9 428.1,118.9 397.4,269.7 360.4,269.7 "/>
<path class="st5" d="M343.8,107.2L392,119c0,0,98.4-0.2,101,0.2s23.4,1.6,40.5,32.4s14.9,46.1,14.9,46.1s-2.1,33.4-12,46
	s-18.6,24-34.3,25c0,0,20.6,1.3,22.3,1s20.3-1.3,29.3-9s16.8-16.7,20.1-23.8s10.4-27.3,10.3-36.5s-2.8-36.4-7.4-40.7
	c0,0-9.8-20.1-14.5-26.2s-13-16.6-20.9-20.3s-14.5-5.8-19.4-5.9S343.8,107.2,343.8,107.2z"/>
<polyline class="st6" points="326.6,207.4 343.4,107.1 391.5,118.9 360.4,269.7 "/>
<line class="st7" x1="312.3" y1="257.7" x2="360.4" y2="269.5"/>
<path class="st5" d="M382.1,40.3h22.4c0,0,22.4-0.2,26.5,29.1c0,0,0.3,20.6-22.8,28.7l-26.1,0.6c0,0,25.8,1.7,29.2-29.2
	C411.3,69.5,411.3,42,382.1,40.3z"/>
<path class="st8" d="M118.5,107.1l48.1,11.8c0,0,98.4-0.2,101.1,0.2s23.4,1.6,40.5,32.4s15,46.1,15,46.1s-2.1,33.4-12,46
	s-18.5,24-34.2,25c0,0,20.6,1.3,22.3,1s20.3-1.3,29.3-9s16.8-16.7,20.1-23.8s10.4-27.3,10.3-36.5s-2.8-36.4-7.4-40.7
	c0,0-9.8-20.1-14.5-26.2s-13-16.6-20.9-20.3s-14.5-5.8-19.4-5.9S118.5,107.1,118.5,107.1z"/>
<path class="st1" d="M387.7,40.4l16.8-0.1c0,0,22.4-0.2,26.5,29.1c0,0,0.3,20.6-22.8,28.7l-26.1,0.6c0,0,16.3,0.7,27.4-5.6
	c14.8-8.4,16-29.4,5.1-42.5C409.3,44.1,400.4,41.2,387.7,40.4z"/>
<line class="st9" x1="474.6" y1="143.3" x2="459.3" y2="143.1"/>
<path class="st5" d="M459,143.6c0,0,16.1-0.6,19.7,0.2s12.6,4.9,12.6,4.9L478.7,206l23.5,33.9c0,0-12.8,12.1-26.6,10L445.3,206
	L459,143.6z"/>
<polygon class="st9" points="118.5,107.1 166.7,118.9 148.4,207.5 191.4,269.7 144.8,269.7 101.8,207.4 "/>
<polygon class="st6" points="118.5,107.1 166.7,118.9 148.4,207.5 191.4,269.7 144.8,269.7 101.8,207.4 "/>
<line class="st7" x1="151.7" y1="106.2" x2="116.7" y2="106.2"/>
<line class="st7" x1="166.7" y1="118.9" x2="203" y2="118.9"/>
<path class="st9" d="M296.4,269.7h-105"/>
<path class="st7" d="M298.8,269.5c-46.7,0-71,0.2-71,0.2h-36.4"/>
<path class="st7" d="M316.5,233.1c-9.7,22.6-24.8,36.6-51.1,36.6"/>
<path class="st7" d="M316.3,167.6c9.1,20.9,9.2,44.5,0.2,65.4"/>
<path class="st7" d="M263.7,118.9c25.8,0,42.8,26.1,52.6,48.7"/>
<line class="st7" x1="235.9" y1="141.4" x2="220" y2="205.9"/>
<line class="st7" x1="219.4" y1="204.2" x2="251.9" y2="250.4"/>
<path class="st7" d="M286.5,224c-6.8,15.9-17.5,25.9-36.1,25.9"/>
<path class="st7" d="M286.3,177.7c6.4,14.7,6.5,31.5,0.2,46.3"/>
<path class="st7" d="M249.1,143.3c18.3,0,30.2,18.4,37.2,34.4"/>
<line class="st7" x1="233.7" y1="143.4" x2="249.1" y2="143.3"/>
<path class="st7" d="M296.9,269.5c28.4,0,44.6-15.1,55-39.4"/>
<path class="st10" d="M351.7,159.6c9.8,22.5,9.9,48,0.2,70.5"/>
<path class="st10" d="M295.1,107.2c27.8,0,46,28.1,56.6,52.4"/>
<line class="st7" x1="203" y1="118.9" x2="263.7" y2="118.9"/>
<line class="st7" x1="266" y1="148.6" x2="253.4" y2="205.9"/>
<line class="st7" x1="253.2" y1="204.2" x2="276.9" y2="239.9"/>
<path class="st11" d="M150.4,106.2c91.7,0,78.7,1,146.5,1"/>
<line class="st7" x1="341.1" y1="106.8" x2="377.4" y2="106.8"/>
<line class="st7" x1="429.1" y1="119" x2="391.5" y2="118.9"/>
<line class="st12" x1="428.3" y1="119" x2="397.3" y2="269.7"/>
<path class="st7" d="M401.9,40.2c16.1,0,29.2,13.1,29.2,29.2S418,98.6,401.9,98.6l0,0"/>
<line class="st7" x1="382.2" y1="40.3" x2="402" y2="40.2"/>
<line class="st7" x1="382.4" y1="98.8" x2="402.1" y2="98.6"/>
<line class="st7" x1="359.9" y1="269.4" x2="397.4" y2="269.7"/>
<path class="st7" d="M521.6,269.7H453"/>
<line class="st12" x1="428.2" y1="119" x2="410" y2="207.5"/>
<line class="st7" x1="410" y1="207.5" x2="455" y2="270.4"/>
<line class="st7" x1="461.1" y1="142" x2="445.2" y2="205.9"/>
<line class="st7" x1="444.8" y1="204.2" x2="477.5" y2="250.7"/>
<path class="st7" d="M511.7,224c-6.8,15.9-17.5,25.9-36.1,25.9"/>
<path class="st7" d="M511.5,177.7c6.4,14.7,6.5,31.5,0.2,46.3"/>
<path class="st7" d="M474.4,143.3c18.2,0,30.2,18.4,37.2,34.4"/>
<line class="st7" x1="459" y1="143.4" x2="474.4" y2="143.3"/>
<path class="st10" d="M522.1,269.5c28.4,0,44.7-15.1,55-39.4"/>
<path class="st10" d="M576.9,159.6c9.8,22.5,9.9,47.9,0.3,70.5"/>
<path class="st10" d="M520.3,107.2c27.8,0,46,28.1,56.6,52.4"/>
<path class="st7" d="M428.2,119H489c25.8,0,42.8,26.1,52.6,48.7c9.1,20.9,9.2,44.5,0.2,65.4c-9.7,22.6-24.8,36.6-51.1,36.6"/>
<line class="st7" x1="491.1" y1="150.9" x2="478.7" y2="205.9"/>
<line class="st7" x1="478.4" y1="204" x2="502.2" y2="239.9"/>
<path class="st7" d="M376.4,106.9c0,0,100.3,0.2,145.9,0.2"/>
<polygon class="st1" points="203.7,120.1 189.3,120.1 170.4,207.1 209.7,269.8 229.2,269.7 186.2,207.5 "/>
<polygon class="st13" points="429.2,119.9 414.8,119.9 383.1,269.4 399.5,270 "/>
<path class="st1" d="M128.4,106.2l6.1,1.9c48.2,1.6,137.4,2.2,149.8,3.6c2.7,0.3,25.7,5.6,42.8,36.5c5.2,9.3,9.3,19.1,12.3,29.2
	c4.2,14.4,4.2,29.1,1.6,43.8c-1.8,9.9-9.3,21.3-15.2,28.7c-9.9,12.6-18.5,18.3-34.1,19.3c0,0,20.8-0.1,22.5-0.4s7.1-0.5,16.2-8.2
	s16.8-16.7,20.1-23.8s10.4-27.3,10.3-36.5s-2.8-36.4-7.4-40.7c0,0-10.3-19.9-15-26s-12.5-16.8-20.4-20.5s-16.2-6.6-21-7
	S128.4,106.2,128.4,106.2z"/>
<path class="st1" d="M353.6,106.2l17,2.7c48.8,1.6,137.1,2.6,139,2.8c2.7,0.3,25.7,5.6,42.8,36.5c5.2,9.3,9.3,19.1,12.3,29.2
	c4.2,14.4,4.2,29.1,1.6,43.8c-1.8,9.9-9.3,21.3-15.2,28.7c-9.9,12.6-18.5,18.3-34.2,19.3c0,0,21.7,0.4,23.5,0.1s6.2-1,15.2-8.7
	s16.8-16.7,20.1-23.8s10.4-27.3,10.3-36.5s-2.8-36.4-7.4-40.7c0,0-10.3-19.9-15-26s-12.5-16.8-20.4-20.5s-16.2-6.6-21-7
	S353.6,106.2,353.6,106.2z"/>
<path class="st7" d="M298.8,269.5c28.4,0,44.6-15.1,55-39.4"/>
<path class="st7" d="M520.9,269.7c28.3,0,47.6-15.4,58-39.6"/>
<path class="st7" d="M353.5,159.6c9.8,22.5,9.9,48,0.3,70.5"/>
<path class="st7" d="M296.9,107.2c27.8,0,46,28.1,56.6,52.4"/>
<path class="st7" d="M578.8,159.6c9.8,22.5,9.8,48,0.2,70.5"/>
<path class="st7" d="M522.2,107.2c27.8,0,46,28.1,56.6,52.4"/>
<polygon class="st1" points="201.2,120.1 140,106.2 154,106.6 215.6,120.1 "/>
<polygon class="st1" points="424.6,120.1 363.4,106.2 375.5,106.7 437.1,120.1 "/>
<circle class="st6" cx="382.1" cy="69.5" r="29.2"/>
<rect x="99.7" y="257.8" class="st2" width="487.8" height="14.8"/>
</svg>
