<?xml version="1.0" encoding="utf-8"?>
<!-- Generator: Adobe Illustrator 24.3.0, SVG Export Plug-In . SVG Version: 6.00 Build 0)  -->
<svg version="1.1" id="Layer_1" xmlns="http://www.w3.org/2000/svg" xmlns:xlink="http://www.w3.org/1999/xlink" x="0px" y="0px"
	 viewBox="0 0 3305 3161.1" style="enable-background:new 0 0 3305 3161.1;" xml:space="preserve">
<style type="text/css">
	.st0{fill:#FFFFFF;}
	.st1{fill:#B5CCE8;}
	.st2{fill:#1154A5;}
	.st3{fill:#6287BC;}
</style>
<g>
	<g id="Layer_1-2">
		<rect class="st0" width="2865.4" height="2865.4"/>
		<path class="st1" d="M1067.4,3161.1c87.7-67,137.5-151.9,163-192.2c285-450.2,221.1-1064.9,97.2-1082.3
			c-75.1-10.5-173.7,225.4-340.2,627.5c-74.1,178.8-202.3,488.4-200,644.3"/>
		<rect x="960.8" y="2578.3" class="st1" width="2139.3" height="582.8"/>
		<path class="st1" d="M3025,3161.1c-87.7-67-137.5-151.9-163.1-192.2c-285.1-450.2-221.1-1064.9-97.2-1082.3
			c75.1-10.5,173.7,225.4,340.2,627.5c74,178.8,202.3,488.4,200,644.3"/>
		<ellipse class="st2" cx="2077.6" cy="1890.1" rx="765.3" ry="527.3"/>
		<path class="st1" d="M2789.2,2489.3c53.4,259.4,82.1,390.2,0,483.6c-113.4,128.8-320.3,130.4-734.1,133.4
			c-415.7,3.1-653.2-76.8-709.9-167.3c-38.4-61.2-14.3-96.6,0.4-268.6c35.5-415.8-79.2-515,16.4-629.1c71.4-85.3,281-86.2,689.9-94
			c278.9-5.4,420.3-6.9,514.3,50C2705.2,2081.3,2733.6,2219.2,2789.2,2489.3z"/>
		<path class="st3" d="M1847.6,2081.6v-481.4c0-12.7,10.3-22.9,22.9-22.9h378.4c12.7,0,22.9,10.3,22.9,22.9v481.4
			c0,11.1-7.5,21.6-19.2,29.9c-4,2.9-7.9,6-11.5,9.4c-21.6,19.1-86.4,65.8-184.7,64.6c-107.4-1.3-174.1-68.5-186-80.9"/>
		<path class="st0" d="M2790.4,1124.3c0,192.9-80.8,339.9-195.7,475.9c-153.9,182.1-305,358.9-542,358.9
			c-218.3,0-399.4-160.9-534.4-331.4c-117-147.7-203.3-289.3-203.3-503.3c0-461,330.3-834.8,737.7-834.8S2790.4,663.3,2790.4,1124.3
			z"/>
		<path class="st3" d="M2079.6,289.5c0,0,32.6,665.6-767.3,834.8C1312.3,1124.3,1291.5,218,2079.6,289.5z"/>
		<path class="st3" d="M2793.5,1124.3c0,0,21.6-906.3-794-834.8C1999.5,289.5,1965.8,955.1,2793.5,1124.3"/>
		<path class="st3" d="M1526.7,831.3c-0.3,7.5-0.7,19-1,32.9c-8.4,337.1-36.1,499.4-37.5,691.2c-2.4,328.8,140.5,313.1,177.1,536.1
			c35.7,217.4-331.7,556.5-133.4,706c0,0-435.3,347.7-547.5-372.7c-78.9-506.8,228.8-1374,389.8-1719.8
			c67.9-145.8,129.1-208.4,129.1-208.4L1526.7,831.3z"/>
		<path class="st3" d="M2052.7,1145.3l-117,386.8c8.5,8.4,49.4,47,114,48.2c68.4,1.2,112.2-40.5,120-48.2
			C2130.7,1403.2,2091.7,1274.3,2052.7,1145.3z"/>
		<path class="st3" d="M1756.3,1589.1c4.3,5.7,8.8,11.2,13.5,16.5s9.4,10.6,14.3,15.6c2.4,2.6,5,5,7.4,7.5s5,5,7.6,7.3
			s5.1,4.8,7.7,7.2s5.2,4.7,7.9,7c10.6,9.1,21.6,17.7,33,25.8c2.9,2,5.7,4,8.6,5.9l8.7,5.7l8.9,5.4c1.5,0.9,3,1.7,4.5,2.6l4.5,2.6
			c3,1.8,6.1,3.3,9.2,4.9l4.6,2.4c1.5,0.8,3.1,1.5,4.7,2.2c3.2,1.4,6.2,3,9.4,4.4l9.5,4.1c1.6,0.7,3.2,1.3,4.8,1.9l4.8,1.8l4.8,1.8
			l4.9,1.7l4.9,1.7c1.6,0.5,3.2,1.2,4.9,1.6l9.9,2.9l2.5,0.7l2.5,0.6l5,1.2c3.3,0.8,6.6,1.7,10,2.3l10.1,2c3.4,0.6,6.8,1,10.2,1.6
			l5.1,0.8c1.7,0.3,3.4,0.4,5.1,0.6l10.2,1.1c3.4,0.3,6.8,0.4,10.3,0.7s6.8,0.5,10.3,0.4l10.3,0.2h2.6l2.6-0.1l5.1-0.2l5.1-0.2
			c1.7,0,3.4-0.1,5.1-0.3l10.3-0.8c3.4-0.2,6.8-0.7,10.2-1.1l5.1-0.6c1.7-0.2,3.4-0.4,5.1-0.7l10.1-1.8l2.5-0.4l2.5-0.6l5-1.1
			c6.8-1.3,13.4-3.2,20-4.9c3.3-1,6.6-2,9.9-3c1.6-0.5,3.3-1,4.9-1.5l4.9-1.7l5-1.7l2.4-0.9l2.4-0.9l9.6-3.8
			c6.3-2.8,12.7-5.4,18.9-8.5l4.7-2.2l4.6-2.4l4.6-2.4l2.3-1.2l2.3-1.3c3-1.7,6.1-3.4,9.1-5.1l8.9-5.4c11.8-7.4,23.3-15.3,34.5-23.8
			c5.6-4.2,11-8.7,16.4-13.2c2.7-2.2,5.3-4.6,8-6.9s5.3-4.7,7.8-7.1c5.2-4.8,10.2-9.7,15.2-14.7s9.8-10.2,14.4-15.6
			c-7.5,12.2-15.9,23.8-25.2,34.6c-9.3,11-19.2,21.4-29.7,31.1c-10.6,9.8-21.7,19-33.3,27.6l-8.9,6.3c-3,2-6.1,4-9.1,6l-2.3,1.5
			l-2.3,1.4l-4.6,2.8c-1.6,0.9-3.1,1.9-4.7,2.8l-4.8,2.6c-6.3,3.6-12.9,6.8-19.4,10l-10,4.5l-2.5,1.1l-2.5,1l-5.1,2l-5.1,2
			c-1.7,0.7-3.4,1.2-5.1,1.9c-3.4,1.2-6.9,2.4-10.4,3.6c-7,2-14,4.3-21.1,5.9l-5.3,1.3l-2.7,0.6l-2.7,0.5l-10.8,2.1
			c-1.8,0.4-3.6,0.6-5.4,0.9l-5.4,0.8c-3.6,0.5-7.2,1.1-10.9,1.4l-11,1c-1.8,0.2-3.7,0.2-5.5,0.3l-5.5,0.2l-5.5,0.2l-2.8,0.1h-2.7
			l-11-0.1c-3.7,0-7.3-0.3-11-0.5s-7.3-0.4-11-0.8l-10.9-1.2c-1.8-0.2-3.6-0.4-5.4-0.7l-5.4-0.9c-3.6-0.6-7.2-1.2-10.8-1.9
			l-10.7-2.4c-3.6-0.7-7.1-1.7-10.7-2.7l-5.3-1.4l-2.7-0.7l-2.6-0.8l-10.4-3.4c-1.8-0.5-3.4-1.2-5.2-1.8l-5.1-1.9l-5.1-1.9l-5-2.2
			l-5-2.2c-1.7-0.7-3.4-1.4-5-2.2c-26.4-12.3-51.1-27.8-73.6-46.3c-11.1-9.2-21.7-19-31.6-29.4s-19.3-21.3-27.9-32.8
			C1770.8,1613.8,1763,1601.7,1756.3,1589.1z"/>
		<path class="st3" d="M2572.6,831.3c0.3,7.5,0.6,19,1,32.9c8.4,337.1,36.1,499.4,37.5,691.2c2.4,328.8-140.5,313.1-177.1,536.1
			c-35.7,217.4,331.6,556.5,133.4,706c0,0,435.3,347.7,547.5-372.7c78.9-506.8-228.8-1374-389.8-1719.8
			C2657.3,559.2,2596,496.5,2596,496.5L2572.6,831.3z"/>
		<path class="st2" d="M633,258.1c-8,0.6-19.2,3.7-23.5,7.4s-3.7,6.8-11.1,13c-13.6,11.1-9.3,11.8-9.9,13.6
			c-3.1,12.4-8.7,8-11.1,19.2c-1.2,5-4.3,34-6.2,35.3c-2.5,1.9,5,19.2,5.6,21.7s-1.8,11.1,1.9,17.3c8,13,11.8,14.2,11.1,16.1
			s14.2,13,21,20.4s29.7,11.8,37.8,16.1s40.2,7.4,45.2,8s24.8-1.9,24.8-2.5s31-39,32.2-39s6.8-5,6.8-6.8c0-18,8.7-5,32.8-34.7
			c16.7-20.4,58.2-60.6,65-59.4c1.2,0,1.2-5,2.5-5.6c29.7-22.3,62.5-52,128.1-53.9c21-0.6,32.2,6.8,38.4,14.2
			c12.4,15.5-0.6,44.6-5,54.5c-6.2,14.2-8,12.4-13,18.6s12.4,1.9-36.5,48.3c-19.2,18.6-16.1,11.1-27.2,16.1s-8,8.7-11.8,12.4
			s-14.8,9.3-17.3,13s-17.9,6.8-23.5,5s-6.2,4.3-6.8,5s-23.5,6.8-31.6,9.3s-27.2,0.6-30.3,5s-22.3,8.7-23.5,6.2s-8.5-1.3-16.5,2.4
			s-23.5,1.2-22.9,1.9s-16.7,19.8-19.2,18.6s-5.6,1.9-11.1,8s4.3,6.2,3.7,6.2s-8.7,12.4-16.7,22.9s-9.3-3.1-11.1,7.4
			c-1.8,10.5-21,39-26,44.6s-8.7,6.8-10.5,13s-11.1,17.3-13,19.2s-9.3,8-5,10.5s-8,13-8.7,12.4s7.4,9.9,8.7,11.1
			c6.2,6.2,18,15.5,19.8,25.4c0.6,3.7-1.9,6.8-3.1,11.8s11.8-3.1,13.6-0.6s5,9.3,9.3,12.4c3.7,2.5,13.6,2.5,7.4,11.8
			c0,0,13.6,12.4,18.6,14.8s7.4,7.4,12.4,13.6s0,7.4,3.1,13.6s15.5,9.3,20.4,15.5c3.7,4.3,0,11.8,44.6,37.1
			c7.4,4.3,31.6,9.3,33.4,10.5s13,2.5,13.6,0s0.6,0,22.9-1.8s22.9-18.6,31.6-24.1s6.8,5.6,6.8,5.6s-10.5,32.8-77.4,29.7
			c-63.8-3.1-107.1-42.1-110.2-47.7c-1.9-3.1-15.5-13-18.6-18s-5.6-8.7-9.9-9.3s-8.7-8-8.7-8s-39-47.7-47.7-54.5s-22.3-24.1-21-24.8
			c0,0-16.7,9.3-22.3,15.5s-8-0.6-11.1,6.2c-8.7,21-7.4,10.5-12.4,13.6c-6.2,3.7-10.5,3.1-11.1,1.9s-4.3,1.2-8,6.2
			s-5.6,12.4-14.2,16.7s-13,8.7-19.2,13.6s-11.2,1.3-11.8,3.7s-17.3,9.3-22.9,11.8s-18.6,3.1-18,3.7s-5.6,1.9-9.9,0
			s-9.2,3.7-11.2,8.1s-18.6,6.8-34,8.7s-8.7-1.2-22.3,1.9s-43.9-2.5-63.1-9.9c-42.1-16.1-20.4-13.6-32.8-21c-2.5-1.2-5,3.1-6.8,1.9
			c-42.7-26.6-58.2-66.2-61.9-90.4c-0.6-2.5,5-2.5,5-5c0-1.9-5.6-6.2-5.6-8c0.1-12.1,1.6-24.1,4.3-35.9c1.2-4.3,6.2-3.1,6.2-8.7
			c-0.6-16.7,17.3-46.4,41.5-65.6c54.4-43.4,112.6-40.3,118.7-40.9s13-5.6,20.4,0.6c6.2,5.6,43.3,1.9,73,15.5
			c14.9,6.8,29.7,11.8,42.7,20.4c9.3,6.2,17.3,14.9,29.7,23.5c1.2,1.2,2.5,5.6,3.7,6.8c0.6,0.6,3.1-1.8,5,0
			c8.7,8,26.6,26.6,35.9,34.7c6.2,5.6,14.8,13,14.8,13s21-26.6,23.5-30.3S646,541,648.5,541c16.7,0,8.7-13,14.8-19.8
			c13.6-15.5,43.3-65.6,43.3-65.6c-2.7,0-5.4-0.2-8-0.6c-2.5-0.6-0.6-3.1-11.1,0c-8.7,2.5-58.8-5.6-73-10.5c-3.7-1.2-3.7-8-6.2-10.5
			c-6.8-5.6-6.8,4.3-19.8-4.3c-14.8-9.9-27.8-16.7-32.8-34c-1.2-4.3,6.8-11.1,6.2-12.4c-1.9-6.8-9.9-1.9-10.5-3.1
			c-5-12.4-6.8-30.9,0-56.3c1.8-6.8,8.7-3.7,9.3-5.6c0.6-1.2-3.7-5-3.1-6.2c3.1-6.2,7.4-16.7,12.4-23.5c19.2-27.2,51.4-35.9,60-37.1
			C636.8,250.1,639.8,257.5,633,258.1z M569.9,596c-3.7-3.7-5.6-11.1-11.1-14.2s-14.8-8.7-17.3-11.8s-9.9-13.6-11.8-15.5
			s-1.9-5.6-8.7-7.4s-5-9.9-6.8-10.5s-8-8.7-14.2-9.9s-3.1-6.2-7.4-8.7s-15.5-13.6-19.8-16.7s-13.6-6.2-18.6-7.4s-7.4-2.5-12.4-2.5
			s-5.6,1.9-8.7-3.1s-5.6-1.2-9.9-1.9s-12.4-5.6-20.4-4.3s-23.5,0.6-26.6,0s-11.1-0.6-18.6,1.9s-29.1,9.3-34,8.7s-4.3,1.2-3.1,5.6
			s-19.2,11.8-24.8,18c-5,5.6-19.2,21.7-26.6,22.3c-5.6,0.6-2.5,9.9-5,11.8s-8.7,20.4-9.3,22.9s-4.3,11.1-3.7,18s-0.6,7.4-5,13.6
			s8.1,8,8.1,8s0,13-3.1,19.2s0,6.2,4.3,8.7s-2.5,4.3-2.5,6.8s4.3,9.3,6.8,16.7s-2.5,6.2-4.3,6.8s1.2,5.6,6.8,8s6.8,6.2,9.3,11.8
			s17.3,14.8,19.2,17.3s10.5,9.3,10.5,13.6s9.9,0.6,9.9,0.6l13.6,12.4c15.5,14.2,51.4,9.9,53.2,11.1s16.7-4.3,22.3-2.5
			c10.5,3.7,17.3-6.8,24.1-8.7c41.5-10.5,74.3-39,78-40.2s6.2-2.5,7.4-6.2s25.4-20.4,38.4-31.6s40.8-43.9,40.2-43.9
			C585.4,615.2,573.6,599.8,569.9,596z M787.8,443.2c6.8-1.9,14.8-7.4,19.2-5.6s5,5.6,9.9,3.7s8-8,13-9.3s58.1-16,67.5-21.7
			c3.1-1.9,11.1-6.2,20.4-6.2l4.3-8c2.5-0.6,17.3-12.4,18-11.8s7.4-7.4,7.4-7.4s11.8-12.4,14.2-11.8s6.8-3.7,6.8-5
			s22.9-24.8,22.9-24.8s8.7-13.6,11.1-16.1s1.8-5,4.3-4.3s3.7-4.3,2.5-6.2s7.4-17.3,8-18.6s3.1-11.8,0.6-21s-20.4-11.1-35.9-9.3
			s-45.8,19.8-49.5,21.7s-17.3,13.6-22.3,18s-11.1,8.7-14.8,9.9s-10.5,5-16.1,9.9s-13,18-15.5,21s-7.4,6.2-11.8,5.6
			s-16.7,21-22.9,25.4s-6.8,7.4-11.8,14.2s-8.7,6.8-9.3,6.2s-7.4,12.4-12.4,18s-6.8,5.6-11.1,5s3.1,7.4-8.7,18.6
			c-6.2,5.6-11.1,13-10.5,13S781,445,787.8,443.2z"/>
		<path class="st2" d="M569.6,852c1.2-2.5,5-23.5,16.1-34.7c14.8-16.1,56.9-40.2,90.4-52.6c85.4-27.2,84.2-20.4,124.4-29.7
			c23.5-5.6,45.2-3.1,68.1-5.6c1.2,0,3.1,5.6,9.9,6.2c5,0.6,7.4-6.2,8.7-6.2c13.6-1.2,23.5-1.2,34.7-1.2
			c40.8,0,87.9,24.1,116.4,50.1c9.3,8,0.6,11.8,5,22.9c1.2,2.5,11.1,1.2,11.8,3.7l7.4,21c5,19.8,7.4,27.8,5.6,39.6
			c-3.1,21,0,16.7,0.6,22.9s-7.4,12.4-4.3,16.1s3.1,13.6,3.1,18.6s-19.8-0.6-16.1,4.3s19.8,0.6-2.5,42.7c-11.8,21.7-5.6,15.5-6.8,26
			s-8,14.8-8,14.8s-3.7,17.3-8.7,21.7s-9.3-1.2-19.8,14.8s-6.2,16.7-7.4,21s-1.9,9.3-6.2,10.5s-9.9,6.2-11.8,10.5s-3.7,8.7-7.4,11.8
			s-14.8,18-21,21.1s-21.7,1.2-18.6,6.2s6.2,9.3,5.6,9.3s-6.2,1.8-11.1,6.2c-6.2,5-29.1,18-30.3,18s-22.3,1.8-18,6.2
			s-1.9,8.7-1.9,8.7s-6.8,6.8-25.4,19.8s-21-1.2-24.1,7.4s-9.3,9.3-9.3,9.3s-14.9-8.7-13.6-3.1s-6.2,8.7-6.2,8.7s-9.3,3.7-10.5,5
			s-64.4,9.3-74.9,9.9s-12.4-6.2-14.8-2.5c-5,8.7-26,6.2-29.1,7.4s-72.4,0.6-97.8-8s-42.1-14.8-40.8-17.9s-4.3-7.4-9.3-6.2
			s-29.1-9.3-47-37.8c-11.1-17.3-23.5-39-20.4-61.3c1.2-6.8,6.8-8.7,2.5-16.7c-5-9.3,9.3-42.1,9.3-42.1s25.3-45.9,76.6-70.1
			c0.6-1.2,5,7.4,11.1,0s6.2-10.5,14.2-14.8s53.8-14.2,74.3-18c34-6.2,69.3-3.7,95.3-3.1c4.3,0,14.2-22.3,17.3-27.2
			c28.5-45.2,27.2-29.1,29.7-30.3s5-12.4,6.8-21s24.8-20.4,42.7-42.1c17.1-20.3,38.2-37,61.9-48.9c21-10.5,22.9,0.6,19.8,1.8
			s-12.4,4.3-10.5,4.3s-6.2,9.9-10.5,11.8s-12.4,2.5-14.2,3.1s-2.5,9.3-6.8,13.6s-10.5,13.6-13.6,13.6s-4.3,9.3-4.3,9.3
			s-0.6,10.5-6.2,16.7s-13,13.6-13,13.6s-10.5,1.9-9.3,6.2s-1.2,10.6-1.2,10.6s-6.8,15.5-15.5,24.1c-5.3,5.3-10.2,10.9-14.8,16.7
			l-14.2,32.8c0,0,36.5,6.2,65,21.7s35.9,30.3,40.8,45.2c4.9,14.9,1.9,23.5-4.3,14.8c-1.9-3.1-12.4-10.5-14.2-10.5s7.4-5,7.4-5
			s-8.7-7.4-12.4-6.8s-35.9-26-37.1-26.6s-22.9-9.9-53.2-19.2c-3.1-1.2-19.8,25.4-19.8,25.4s-8,9.3-12.4,9.3s-5,3.7-5,9.3
			s-3.1,14.8-3.1,13.6s-9.3,9.9-10.5,12.4s-8.7,5.6-13,16.1s-4.3,22.3-7.4,18s-5.6-3.1-6.8,3.1s-6.2,16.7-7.4,15.4
			s-13.6,14.2-13.6,16.1s-15.5,13.6-24.2,24.2s-9.9,14.2-10.5,15.5s-17.3,17.3-45.8,30.3c-17.2,7.8-35.6,12.9-54.5,14.9
			c0,0-4.3-5,1.9-10.5s22.9-1.9,36.5-12.4s34.7-33.4,49.5-58.2c1.2,0,11.2,0.6,11.8-8s-0.6-6.8,6.8-19.2s18.6-27.2,18-26
			s4.3,3.1,7.4-7.4s9.3-14.8,10.5-16.7s11.1-19.8,22.9-34.7s16.7-27.2,21-31.6s-27.8-13.6-73-7.4c-50.8,6.8-63.8,18.6-82.3,29.7
			s-31.6,14.2-33.4,22.9s-2.5,16.1-8,12.4s-12.4-1.9-13,2.5s-1.8,11.1-1.8,11.1s3.7,3.7,1.2,6.8s-6.2,13-6.8,13.6l-9.9,14.2
			c0,0-6.2-8.7-7.4-2.5s-5.6,13.6-5.6,16.1s8-5,6.2,2.5s-5,24.1-6.2,24.1s3.7,16.7,1.2,21c-3.7,6.2,4.3,16.7,6.2,22.9
			s0.6,15.5,22.3,36.5c0.6,0.6-3.1,2.5-1.8,3.7c0.6,0.6,6.8,0.6,7.4,1.2c14.9,12.4,38.4,23.5,67.5,29.1c1.9,0.6,1.2,4.3,3.1,4.3
			s6.2-2.5,8-2.5c19.8,3.1,40.8,2.5,64.4-1.2c12.4-2.5,31-9.3,37.1-7.4c5.6,1.8,11.8-2.5,17.3-3.7c40.8-9.9,74.9-21.7,87.9-29.7
			c18.6-11.8,19.2-19.2,27.8-18s11.8,0,14.8-9.3s24.1-14.2,45.2-37.1s50.1-40.2,82.9-93.4c32.2-52,23.5-63.1,28.5-61.3s8-9.9,8-16.1
			s8.7-24.8,8.7-24.8s8.7-44.6,4.3-83.5c0-1.9,4.3-7.4,3.7-9.3c-0.6-2.5-5-1.2-5.6-3.7c-8-33.4-16.1-67.5-65.6-74.3
			c-6.2,0-13-9.9-22.9-9.9c-3.7,0-15.5,0.6-19.2,0.6c-66.8-1.2-80.5,3.7-100.3,8s-76.8,23.5-89.1,31c-14.2,8.7-20.4-9.3-22.9-2.5
			l-3.7,11.1c0,0,8.7,3.7-27.2,15.5c-3.1,0.6-11.8-3.7-11.8-3.7s-14.2,11.8-16.1,14.9c-21,25.4-21,9.3-22.3,13
			c-1.9,3.1-5,11.1-9.9,9.3c-5.6-0.6-3.1,1.2-9.9,10.5s-12.4,8-18,22.3l-9.9,19.8c-1.9,4.3-5,6.8-6.2-0.6
			C567.1,878,565.2,863.7,569.6,852z"/>
	</g>
</g>
</svg>
