<svg id="Layer_1" data-name="Layer 1" xmlns="http://www.w3.org/2000/svg" viewBox="0 0 100 100"><defs><style>.cls-1{fill:none;}.cls-2{fill:#ffa879;}</style></defs><path class="cls-1" d="M54.45,61.08c0,12.25-6.46,22.17-15.52,22.17S23.42,73.33,23.42,61.08,38.93,16.75,38.93,16.75,54.45,48.84,54.45,61.08Z"/><path class="cls-2" d="M38.93,86.75c-10.84,0-19-11-19-25.67,0-12.67,14.24-42.5,15.86-45.85l1.28-2.64a2.08,2.08,0,0,1,3.75,0l1.28,2.64C43.71,18.58,58,48.41,58,61.08,58,75.72,49.78,86.75,38.93,86.75Zm1.33-58.68a1.44,1.44,0,0,0-2.65,0c-4.81,11-10.69,26.14-10.69,33,0,10.47,5.28,18.67,12,18.67s12-8.2,12-18.67C51,54.21,45.06,39.09,40.26,28.07Z"/><path class="cls-1" d="M78.58,40.7c0,6.18-3.26,11.19-7.83,11.19s-7.83-5-7.83-11.19,7.83-22.37,7.83-22.37S78.58,34.52,78.58,40.7Z"/><path class="cls-2" d="M70.75,55.39c-6.46,0-11.33-6.32-11.33-14.69,0-6.78,7.34-22.16,8.18-23.89l1.92-4a1.37,1.37,0,0,1,2.46,0l1.92,4c.84,1.73,8.18,17.11,8.18,23.89C82.08,49.07,77.21,55.39,70.75,55.39Zm1-26a1.13,1.13,0,0,0-2.09,0c-1.81,4.56-3.29,9-3.29,11.27,0,4.24,2,7.69,4.33,7.69s4.33-3.45,4.33-7.69C75.08,38.48,73.6,34,71.8,29.43Z"/></svg>