<?xml version="1.0" encoding="UTF-8"?><svg xmlns="http://www.w3.org/2000/svg" xmlns:xlink="http://www.w3.org/1999/xlink" viewBox="0 0 337.24 398.68"><defs><style>.h{fill:none;stroke:#11002b;stroke-miterlimit:10;stroke-width:3px;}.i{fill:#fff;}.j{fill:#ff5cd5;}.k{fill:#9f45ff;}.l{fill:#5e00e5;}</style><symbol id="a" viewBox="0 0 337.24 398.68"><g><g><g><g><path class="k" d="M40.66,283.19s2.87-24.09-20.57-38.27c0,0,26.72,2.69,36.95,27.11"/><path class="k" d="M44.2,283.61l-7.08-.84,3.54,.42-3.54-.41c.1-.89,2.21-22.05-18.87-34.81l-13.53-8.19,15.73,1.58c1.18,.12,28.96,3.2,39.89,29.28l-6.58,2.76c-4.32-10.31-11.79-16.4-18.64-19.98,10.83,13.96,9.19,29.35,9.09,30.18Z"/></g><g><g><path class="l" d="M228.49,306.21l-15.61,54.79h-33.67l16.95-14.03,6.62-41.54c-20.76,11.79-16.74-20.66-16.74-20.66l17.82-58.67,50.6,31.9-25.96,48.22Z"/><path class="l" d="M215.57,364.56h-46.26l23.54-19.49,5.4-33.94c-3.59,.88-6.72,.44-9.35-1.32-3.87-2.59-6.1-7.81-6.63-15.52-.36-5.22,.2-9.78,.22-9.97l.04-.3,.09-.29,19.17-63.15,57.37,36.17-27.36,50.81-16.24,57Zm-26.46-7.14h21.07l14.98-52.57,24.56-45.63-43.83-27.63-16.37,53.89c-.72,6.34-.17,16.05,3.33,18.39,2.05,1.37,5.56-.1,8.15-1.57l6.45-3.66-7.99,50.2-10.36,8.58Z"/></g><g><polygon class="l" points="108.61 380.29 76.94 380.29 94.24 366.7 111.54 333.07 130.7 308.41 147.62 334.48 108.61 380.29"/><path class="l" d="M110.26,383.86h-43.63l24.79-19.49,17.09-33.23,22.44-28.88,21.09,32.51-41.79,49.1Zm-23.01-7.14h19.71l36.21-42.54-12.74-19.63-15.88,20.44-17.5,34.03-9.8,7.71Z"/></g><g><path class="k" d="M254.78,179.08l-11.34,.48c2.83,.94,33.97-.89,57.08-17.33,18.2-12.95,27.2-36.02,23.01-58.95,0,0,23.77,21.57-1.68,69.12-17.4,32.5-49.92,41.59-49.92,41.59"/><path class="k" d="M272.88,217.44l-1.92-6.87c.31-.09,31.31-9.15,47.74-39.84,13.5-25.22,12.68-42.49,9.31-52.82-1.01,18.84-10.2,36.41-25.42,47.24-24.06,17.12-56.21,19.15-60.27,17.8l-18.51-6.13,30.82-1.3v.03c11.19-1.49,29.17-5.8,43.82-16.22,17.04-12.12,25.51-33.87,21.56-55.4l-1.9-10.36,7.8,7.08c1.05,.96,25.53,24.01-.94,73.44-17.91,33.46-50.72,42.96-52.11,43.35Z"/></g><g><path class="k" d="M159.89,309.83l64.22-61.57s-10.97,58.38,0,57.09c10.97-1.29,32.92-15.5,32.92-15.5l-20.66,76.85-17.18,16.79h37.84l36.79-120.76s-23.88,6.46-24.53-9.69c-.65-16.14,4.65-46.89-8.39-61.35-11.96-13.26-22.59-14.21-36.79-14.85-14.2-.65-36.79,4.52-46.48,22.6s-17.6,43.2-29.05,51.66c-9.76,7.21-25.7,16.64-52.81,14.7l-18.83,10.79"/><path class="k" d="M259.67,387.06h-49.23l22.74-22.23,18.09-67.32c-7.65,4.42-19.29,10.5-26.75,11.38-2.03,.24-3.94-.47-5.37-2-2.51-2.69-5.04-8.95-2.33-33.67,.59-5.37,1.32-10.61,1.99-14.94l-56.46,54.13-4.93-5.15,72.24-69.26-2.05,10.93c-.02,.12-2.31,12.36-3.72,25.27-2.29,21.01-.37,26.38,.28,27.55,8.48-1.3,25.11-11.13,30.92-14.89l7.79-5.04-23.32,86.75-11.62,11.35h26.44l34.31-112.63c-5.17,.61-12.47,.58-17.52-3.13-3.38-2.48-5.26-6.28-5.45-10.98-.16-3.9,.02-8.6,.21-13.56,.6-15.83,1.35-35.53-7.69-45.54-10.85-12.03-20.1-13.03-34.31-13.68-24.71-1.12-38.77,12.5-43.17,20.72-2.93,5.48-5.77,11.78-8.52,17.86-6.63,14.7-12.89,28.59-21.55,34.98-10.11,7.47-26.67,17.13-54.09,15.46l-17.89,10.25-3.54-6.19,19.77-11.33,1.08,.08c25.44,1.82,40.31-6.53,50.44-14.01,7.16-5.29,13.33-18.96,19.29-32.18,2.79-6.2,5.68-12.6,8.73-18.3,11.04-20.61,36.49-25.09,49.78-24.48,13.31,.61,25.89,1.18,39.28,16.03,10.97,12.17,10.17,33.47,9.52,50.59-.18,4.82-.36,9.38-.21,13.01,.13,3.36,1.52,4.76,2.54,5.51,4.55,3.34,14.4,1.71,17.49,.87l6.22-1.68-39.44,129.46Z"/></g><g><path class="k" d="M157.04,298.89c-1.22,14.21,14.13,19.37,14.13,19.37l-43.25,76.85h-36.79l18.27-11.62,26.92-56.18-6.45-1.29s-3.87,3.87-23.88,8.4c-20.01,4.52-35.95-2.11-35.95-2.11,0,0-17.41,7.91-29.79,14.83-10.48,5.86-34.25-8.13-34.25-8.13l25.72-23.22s-1.88-12.41,.06-20.97c1.6-7.04,28.37-25.63,28.37-25.63,12.74-31.91-21.65-51.88-21.65-51.88,0,0,34.4-1.56,57.28,52.44"/><path class="k" d="M130.01,398.68h-51.13l27.74-17.65,24.49-51.12-.45-.09c-2.75,1.71-9.27,4.77-23.9,8.08-17.52,3.96-31.98-.14-36.58-1.73-4.29,1.98-18.05,8.42-28.19,14.09-11.92,6.66-35.19-6.63-37.8-8.17l-4.19-2.47,27.94-25.22c-.46-3.98-1.26-13.25,.36-20.37,1.7-7.46,21.49-21.94,28.91-27.14,10.38-28.16-20.19-46.31-20.51-46.49l-10.51-6.1,12.14-.55c1.51-.06,37.15-1.02,60.72,54.61l-6.57,2.79c-12.64-29.82-28.56-41.97-39.81-46.91,1.42,1.47,2.85,3.09,4.23,4.85,9.99,12.81,12.26,27.13,6.55,41.42l-.4,1-.88,.61c-12.38,8.6-26.15,20.09-26.93,23.49-1.77,7.79-.03,19.53-.01,19.64l.29,1.9-23.4,21.13c8.79,4.43,21.02,8.74,26.38,5.75,12.36-6.91,29.87-14.89,30.05-14.96l1.41-.64,1.43,.6c.14,.06,15.22,6.12,33.79,1.92,16.72-3.78,21.58-7.04,22.2-7.5l1.31-1.57,1.86,.65,10.95,2.19-29.34,61.25-8.79,5.59h22.46l40.31-71.63c-6.16-3.36-13.6-10.38-12.66-21.34l7.11,.61c-.96,11.19,11.21,15.51,11.73,15.69l4.05,1.39-2.09,3.73-44.27,78.67Zm-2.67-75.19h0Z"/></g><g><line class="k" x1="71.73" y1="286.91" x2="61.46" y2="308.36"/><path class="k" d="M71.73,286.91c.48,2.43,.31,4.54-.05,6.57-.37,2.02-1.03,3.9-1.87,5.7-.86,1.79-1.91,3.48-3.26,5.03-1.35,1.55-2.9,3.01-5.1,4.15-.48-2.43-.32-4.55,.04-6.57,.37-2.02,1.03-3.9,1.88-5.69,.86-1.78,1.92-3.47,3.26-5.03,1.35-1.55,2.9-3.01,5.09-4.15Z"/></g><g><line class="k" x1="71.73" y1="286.91" x2="61.46" y2="308.36"/><path class="i" d="M71.73,286.91c.48,2.43,.31,4.54-.05,6.57-.37,2.02-1.03,3.9-1.87,5.7-.86,1.79-1.91,3.48-3.26,5.03-1.35,1.55-2.9,3.01-5.1,4.15-.48-2.43-.32-4.55,.04-6.57,.37-2.02,1.03-3.9,1.88-5.69,.86-1.78,1.92-3.47,3.26-5.03,1.35-1.55,2.9-3.01,5.09-4.15Z"/></g></g></g><path class="j" d="M83.48,352.94l-5.95-10.68c8.76-4.89,15.73-11.38,20.71-19.3,17.04-27.11,2.84-59.33,1.16-62.91l11.07-5.18c1.96,4.2,18.6,42-1.89,74.6-6.08,9.68-14.53,17.58-25.11,23.48Z"/></g><g><g><path class="k" d="M99.43,141.28s35.9,13.36,25.49,85.51c0,0,19.53-10.85,32.3-54.76,8.54-29.35,44.86-28.94,44.86-28.94,0,0-55.58-21.17-26.49-53.35,0,0-43.43-3.08-44.17-64.49l-31.98,116.03Z"/><path class="k" d="M120.36,233.41l1.03-7.12c2.85-19.75,3.77-47.39-8.02-66.9-6.92-11.45-15.13-14.74-15.21-14.77l-3-1.17,.83-3.12L134.68,0l.3,25.21c.29,23.98,7.54,42.13,20.98,52.49,.1,.08,.2,.15,.3,.23,8.95,6.78,21.18,7.3,30.81,1.52l8.53-5.12-17.37,17.81c-6.29,6.96-8.6,13.51-7.04,20.01,4,16.68,31.87,27.51,32.16,27.62l18.65,7.13-19.96-.23c-.07,0-8.74-.04-18.2,3.33-12.21,4.34-20.01,12.09-23.2,23.04-13.03,44.8-33.14,56.41-33.99,56.89l-6.29,3.5Zm-16.71-94.01c8.47,4.85,31.41,23.3,25.9,78.92,7.21-7.6,17.07-22.62,24.25-47.29,3.83-13.15,13.46-22.78,27.87-27.84,2.73-.96,5.39-1.67,7.83-2.19-9.59-5.4-22.24-14.67-25.24-27.18-1.74-7.24-.1-14.52,4.88-21.7-4.54-1.24-11.03-3.74-17.54-8.77-8.29-6.4-17.88-18-21.87-38.57l-26.08,94.62Z"/></g><g><path class="l" d="M186.09,85.44l-74.63,52.98,91.71,4.67s-44.92-20.76-17.08-57.65Z"/><path class="l" d="M221.42,147.59l-120.4-6.13,101.81-72.27-13.89,18.4c-7.2,9.54-9.78,18.68-7.65,27.16,4.01,15.99,23.19,25.01,23.38,25.1l16.75,7.74Zm-99.51-12.21l68.05,3.46c-6.24-5-13.11-12.49-15.58-22.36-1.56-6.22-1.2-12.61,1.08-19.11l-53.54,38.01Z"/></g></g></g></symbol></defs><g id="b"><use width="337.24" height="398.68" xlink:href="#a"/><polygon class="h" points="-52.27 -84.26 -501.48 -84.26 -501.48 501.72 -52.27 501.72 397.93 501.72 397.93 -84.26 -52.27 -84.26"/></g><g id="c"/><g id="d"/><g id="e"/><g id="f"><g id="g"/></g></svg>