<?xml version="1.0" encoding="UTF-8"?><svg xmlns="http://www.w3.org/2000/svg" xmlns:xlink="http://www.w3.org/1999/xlink" viewBox="0 0 1980 748.58"><defs><style>.i{fill:url(#d);}.j{fill:none;}.j,.k{stroke:#fff;stroke-miterlimit:10;stroke-width:6px;}.l{fill:#f2ebff;}.m{fill:#fff;}.n{fill:#ff5cd5;}.o{fill:#9f45ff;}.p,.k{fill:#11002b;}.q{fill:#5e00e5;}</style><symbol id="a" viewBox="0 0 337.24 398.68"><g><g><g><g><path class="o" d="M40.66,283.19s2.87-24.09-20.57-38.27c0,0,26.72,2.69,36.95,27.11"/><path class="o" d="M44.2,283.61l-7.08-.84,3.54,.42-3.54-.41c.1-.89,2.21-22.05-18.87-34.81l-13.53-8.19,15.73,1.58c1.18,.12,28.96,3.2,39.89,29.28l-6.58,2.76c-4.32-10.31-11.79-16.4-18.64-19.98,10.83,13.96,9.19,29.35,9.09,30.18Z"/></g><g><g><path class="q" d="M228.49,306.21l-15.61,54.79h-33.67l16.95-14.03,6.62-41.54c-20.76,11.79-16.74-20.66-16.74-20.66l17.82-58.67,50.6,31.9-25.96,48.22Z"/><path class="q" d="M215.57,364.56h-46.26l23.54-19.49,5.4-33.94c-3.59,.88-6.72,.44-9.35-1.32-3.87-2.59-6.1-7.81-6.63-15.52-.36-5.22,.2-9.78,.22-9.97l.04-.3,.09-.29,19.17-63.15,57.37,36.17-27.36,50.81-16.24,57Zm-26.46-7.14h21.07l14.98-52.57,24.56-45.63-43.83-27.63-16.37,53.89c-.72,6.34-.17,16.05,3.33,18.39,2.05,1.37,5.56-.1,8.15-1.57l6.45-3.66-7.99,50.2-10.36,8.58Z"/></g><g><polygon class="q" points="108.61 380.29 76.94 380.29 94.24 366.7 111.54 333.07 130.7 308.41 147.62 334.48 108.61 380.29"/><path class="q" d="M110.26,383.86h-43.63l24.79-19.49,17.09-33.23,22.44-28.88,21.09,32.51-41.79,49.1Zm-23.01-7.14h19.71l36.21-42.54-12.74-19.63-15.88,20.44-17.5,34.03-9.8,7.71Z"/></g><g><path class="o" d="M254.78,179.08l-11.34,.48c2.83,.94,33.97-.89,57.08-17.33,18.2-12.95,27.2-36.02,23.01-58.95,0,0,23.77,21.57-1.68,69.12-17.4,32.5-49.92,41.59-49.92,41.59"/><path class="o" d="M272.88,217.44l-1.92-6.87c.31-.09,31.31-9.15,47.74-39.84,13.5-25.22,12.68-42.49,9.31-52.82-1.01,18.84-10.2,36.41-25.42,47.24-24.06,17.12-56.21,19.15-60.27,17.8l-18.51-6.13,30.82-1.3v.03c11.19-1.49,29.17-5.8,43.82-16.22,17.04-12.12,25.51-33.87,21.56-55.4l-1.9-10.36,7.8,7.08c1.05,.96,25.53,24.01-.94,73.44-17.91,33.46-50.72,42.96-52.11,43.35Z"/></g><g><path class="o" d="M159.89,309.83l64.22-61.57s-10.97,58.38,0,57.09c10.97-1.29,32.92-15.5,32.92-15.5l-20.66,76.85-17.18,16.79h37.84l36.79-120.76s-23.88,6.46-24.53-9.69c-.65-16.14,4.65-46.89-8.39-61.35-11.96-13.26-22.59-14.21-36.79-14.85-14.2-.65-36.79,4.52-46.48,22.6s-17.6,43.2-29.05,51.66c-9.76,7.21-25.7,16.64-52.81,14.7l-18.83,10.79"/><path class="o" d="M259.67,387.06h-49.23l22.74-22.23,18.09-67.32c-7.65,4.42-19.29,10.5-26.75,11.38-2.03,.24-3.94-.47-5.37-2-2.51-2.69-5.04-8.95-2.33-33.67,.59-5.37,1.32-10.61,1.99-14.94l-56.46,54.13-4.93-5.15,72.24-69.26-2.05,10.93c-.02,.12-2.31,12.36-3.72,25.27-2.29,21.01-.37,26.38,.28,27.55,8.48-1.3,25.11-11.13,30.92-14.89l7.79-5.04-23.32,86.75-11.62,11.35h26.44l34.31-112.63c-5.17,.61-12.47,.58-17.52-3.13-3.38-2.48-5.26-6.28-5.45-10.98-.16-3.9,.02-8.6,.21-13.56,.6-15.83,1.35-35.53-7.69-45.54-10.85-12.03-20.1-13.03-34.31-13.68-24.71-1.12-38.77,12.5-43.17,20.72-2.93,5.48-5.77,11.78-8.52,17.86-6.63,14.7-12.89,28.59-21.55,34.98-10.11,7.47-26.67,17.13-54.09,15.46l-17.89,10.25-3.54-6.19,19.77-11.33,1.08,.08c25.44,1.82,40.31-6.53,50.44-14.01,7.16-5.29,13.33-18.96,19.29-32.18,2.79-6.2,5.68-12.6,8.73-18.3,11.04-20.61,36.49-25.09,49.78-24.48,13.31,.61,25.89,1.18,39.28,16.03,10.97,12.17,10.17,33.47,9.52,50.59-.18,4.82-.36,9.38-.21,13.01,.13,3.36,1.52,4.76,2.54,5.51,4.55,3.34,14.4,1.71,17.49,.87l6.22-1.68-39.44,129.46Z"/></g><g><path class="o" d="M157.04,298.89c-1.22,14.21,14.13,19.37,14.13,19.37l-43.25,76.85h-36.79l18.27-11.62,26.92-56.18-6.45-1.29s-3.87,3.87-23.88,8.4c-20.01,4.52-35.95-2.11-35.95-2.11,0,0-17.41,7.91-29.79,14.83-10.48,5.86-34.25-8.13-34.25-8.13l25.72-23.22s-1.88-12.41,.06-20.97c1.6-7.04,28.37-25.63,28.37-25.63,12.74-31.91-21.65-51.88-21.65-51.88,0,0,34.4-1.56,57.28,52.44"/><path class="o" d="M130.01,398.68h-51.13l27.74-17.65,24.49-51.12-.45-.09c-2.75,1.71-9.27,4.77-23.9,8.08-17.52,3.96-31.98-.14-36.58-1.73-4.29,1.98-18.05,8.42-28.19,14.09-11.92,6.66-35.19-6.63-37.8-8.17l-4.19-2.47,27.94-25.22c-.46-3.98-1.26-13.25,.36-20.37,1.7-7.46,21.49-21.94,28.91-27.14,10.38-28.16-20.19-46.31-20.51-46.49l-10.51-6.1,12.14-.55c1.51-.06,37.15-1.02,60.72,54.61l-6.57,2.79c-12.64-29.82-28.56-41.97-39.81-46.91,1.42,1.47,2.85,3.09,4.23,4.85,9.99,12.81,12.26,27.13,6.55,41.42l-.4,1-.88,.61c-12.38,8.6-26.15,20.09-26.93,23.49-1.77,7.79-.03,19.53-.01,19.64l.29,1.9-23.4,21.13c8.79,4.43,21.02,8.74,26.38,5.75,12.36-6.91,29.87-14.89,30.05-14.96l1.41-.64,1.43,.6c.14,.06,15.22,6.12,33.79,1.92,16.72-3.78,21.58-7.04,22.2-7.5l1.31-1.57,1.86,.65,10.95,2.19-29.34,61.25-8.79,5.59h22.46l40.31-71.63c-6.16-3.36-13.6-10.38-12.66-21.34l7.11,.61c-.96,11.19,11.21,15.51,11.73,15.69l4.05,1.39-2.09,3.73-44.27,78.67Zm-2.67-75.19h0Z"/></g><g><line class="o" x1="71.73" y1="286.91" x2="61.46" y2="308.36"/><path class="o" d="M71.73,286.91c.48,2.43,.31,4.54-.05,6.57-.37,2.02-1.03,3.9-1.87,5.7-.86,1.79-1.91,3.48-3.26,5.03-1.35,1.55-2.9,3.01-5.1,4.15-.48-2.43-.32-4.55,.04-6.57,.37-2.02,1.03-3.9,1.88-5.69,.86-1.78,1.92-3.47,3.26-5.03,1.35-1.55,2.9-3.01,5.09-4.15Z"/></g><g><line class="o" x1="71.73" y1="286.91" x2="61.46" y2="308.36"/><path class="m" d="M71.73,286.91c.48,2.43,.31,4.54-.05,6.57-.37,2.02-1.03,3.9-1.87,5.7-.86,1.79-1.91,3.48-3.26,5.03-1.35,1.55-2.9,3.01-5.1,4.15-.48-2.43-.32-4.55,.04-6.57,.37-2.02,1.03-3.9,1.88-5.69,.86-1.78,1.92-3.47,3.26-5.03,1.35-1.55,2.9-3.01,5.09-4.15Z"/></g></g></g><path class="n" d="M83.48,352.94l-5.95-10.68c8.76-4.89,15.73-11.38,20.71-19.3,17.04-27.11,2.84-59.33,1.16-62.91l11.07-5.18c1.96,4.2,18.6,42-1.89,74.6-6.08,9.68-14.53,17.58-25.11,23.48Z"/></g><g><g><path class="o" d="M99.43,141.28s35.9,13.36,25.49,85.51c0,0,19.53-10.85,32.3-54.76,8.54-29.35,44.86-28.94,44.86-28.94,0,0-55.58-21.17-26.49-53.35,0,0-43.43-3.08-44.17-64.49l-31.98,116.03Z"/><path class="o" d="M120.36,233.41l1.03-7.12c2.85-19.75,3.77-47.39-8.02-66.9-6.92-11.45-15.13-14.74-15.21-14.77l-3-1.17,.83-3.12L134.68,0l.3,25.21c.29,23.98,7.54,42.13,20.98,52.49,.1,.08,.2,.15,.3,.23,8.95,6.78,21.18,7.3,30.81,1.52l8.53-5.12-17.37,17.81c-6.29,6.96-8.6,13.51-7.04,20.01,4,16.68,31.87,27.51,32.16,27.62l18.65,7.13-19.96-.23c-.07,0-8.74-.04-18.2,3.33-12.21,4.34-20.01,12.09-23.2,23.04-13.03,44.8-33.14,56.41-33.99,56.89l-6.29,3.5Zm-16.71-94.01c8.47,4.85,31.41,23.3,25.9,78.92,7.21-7.6,17.07-22.62,24.25-47.29,3.83-13.15,13.46-22.78,27.87-27.84,2.73-.96,5.39-1.67,7.83-2.19-9.59-5.4-22.24-14.67-25.24-27.18-1.74-7.24-.1-14.52,4.88-21.7-4.54-1.24-11.03-3.74-17.54-8.77-8.29-6.4-17.88-18-21.87-38.57l-26.08,94.62Z"/></g><g><path class="q" d="M186.09,85.44l-74.63,52.98,91.71,4.67s-44.92-20.76-17.08-57.65Z"/><path class="q" d="M221.42,147.59l-120.4-6.13,101.81-72.27-13.89,18.4c-7.2,9.54-9.78,18.68-7.65,27.16,4.01,15.99,23.19,25.01,23.38,25.1l16.75,7.74Zm-99.51-12.21l68.05,3.46c-6.24-5-13.11-12.49-15.58-22.36-1.56-6.22-1.2-12.61,1.08-19.11l-53.54,38.01Z"/></g></g></g></symbol><linearGradient id="d" x1="1362.58" y1="682.27" x2="1246.24" y2="480.76" gradientTransform="matrix(1, 0, 0, 1, 0, 0)" gradientUnits="userSpaceOnUse"><stop offset="0" stop-color="#9f45ff"/><stop offset=".35" stop-color="#bd4cf1"/><stop offset="1" stop-color="#ff5cd5"/></linearGradient></defs><g id="b"/><g id="c"><g><path class="n" d="M1501.88,283.12h-12v-7h12v7Zm-24,0h-12v-7h12v7Zm-24,0h-12v-7h12v7Zm-24,0h-12v-7h12v7Zm-24,0h-12v-7h12v7Zm-24,0h-12v-7h12v7Zm-24,0h-12v-7h12v7Zm-24,0h-12v-7h12v7Zm-24,0h-12v-7h12v7Zm-24,0h-12v-7h12v7Zm-24,0h-12v-7h12v7Zm-24,0h-12v-7h12v7Zm-24,0h-12v-7h12v7Zm-24,0h-12v-7h12v7Zm-24,0h-12v-7h12v7Zm-24,0h-12v-7h12v7Zm-24,0h-12v-7h12v7Zm-24,0h-12v-7h12v7Zm-24,0h-12v-7h12v7Zm-24,0h-12v-7h12v7Zm-24,0h-12v-7h12v7Zm-24,0h-12v-7h12v7Zm-24,0h-12v-7h12v7Zm-24,0h-12v-7h12v7Zm-24,0h-12v-7h12v7Zm-24,0h-12v-7h12v7Zm-24,0h-12v-7h12v7Zm-24,0h-12v-7h12v7Zm-24,0h-12v-7h12v7Zm-24,0h-12v-7h12v7Zm-24,0h-12v-7h12v7Zm-24,0h-12v-7h12v7Zm-24,0h-12v-7h12v7Zm-24,0h-12v-7h12v7Zm-24,0h-12v-7h12v7Zm-24,0h-12v-7h12v7Zm-24,0h-12v-7h12v7Zm-24,0h-12v-7h12v7Zm-24,0h-12v-7h12v7Zm-24,0h-12v-7h12v7Zm-24,0h-12v-7h12v7Zm-24,0h-12v-7h12v7Zm-24,0h-12v-7h12v7Zm-24,0h-12v-7h12v7Zm-24,0h-12v-7h12v7Zm-24,0h-12v-7h12v7Zm-24,0h-12v-7h12v7Zm-24,0h-12v-7h12v7Zm-24,0h-12v-7h12v7Zm-24,0h-12v-7h12v7Zm-24,0h-12v-7h12v7Zm-24,0h-12v-7h12v7Zm-24,0h-12v-7h12v7Zm-24,0h-12v-7h12v7Zm-24,0h-12v-7h12v7Zm-24,0h-12v-7h12v7Zm1331.69-7.31h-7v-12h7v12Zm0-24h-7v-12h7v12Zm0-24h-7v-10h9v7h-2v3Zm290-3h-12v-7h12v7Zm-24,0h-12v-7h12v7Zm-24,0h-12v-7h12v7Zm-24,0h-12v-7h12v7Zm-24,0h-12v-7h12v7Zm-24,0h-12v-7h12v7Zm-24,0h-12v-7h12v7Zm-24,0h-12v-7h12v7Zm-24,0h-12v-7h12v7Zm-24,0h-12v-7h12v7Zm-24,0h-12v-7h12v7Zm-24,0h-12v-7h12v7Z"/><g><polygon class="q" points="1249.23 363.96 1298.91 363.96 1281.93 348.34 1249.23 363.96"/><g><path class="q" d="M1205.86,202.82l12.74-28.95h-62.13l-12.74,28.95h-152.08l12.74-28.95h-62.13l-12.74,30.23h-330.18l-3.01,5.56-2.19,4.99-64.89,147.49h62.13l9.4-21.36h171.2l-9.4,21.36h62.13l9.4-23.93,34.72,1.28h284.3l61.25-1.28-4.95,1.34,10.27,10.79c8.2,8.79,20.9,13.63,35.77,13.63,16.64,0,34.46-5.69,50.19-16.02,17.2-11.3,31.13-27.65,39.22-46.04l46.61-82.19,4.42-10.05,3.01-6.84h-193.07Z"/><path class="o" d="M1176.84,202.82v-28.95h-62.93v28.95h-154.05v-28.95h-62.93v28.95h-334.45v159.32h62.93v-21.36h173.42v21.36h62.93v-21.36h382.07l3.13,2.62,9.65,6.94c12.22,8.79,27.24,13.63,42.31,13.63,16.85,0,32.37-5.69,43.7-16.02,12.39-11.3,19.21-27.65,19.21-46.04v-99.08h-184.98Z"/><path class="m" d="M585.66,232.84h13.75l1.82,13.19c5.47-9.4,15.3-15.02,26.25-15.02,18.11,0,34.81,15.72,34.81,40.14s-16.42,40.14-34.39,40.14c-10.39,0-20.63-5.47-25.69-14.32v41.97h-16.56v-106.11Zm59.93,38.18c0-14.6-9.54-24.84-21.9-24.84s-21.75,10.25-21.75,24.98,9.4,24.98,21.61,24.98,22.04-10.25,22.04-25.12Z"/><path class="m" d="M679.27,279.44v-46.6h16.56v46.74c0,10.53,5.89,16.56,15.86,16.56s16.56-6.03,16.56-16.7v-46.6h16.56v46.46c0,18.81-12.63,32-33.12,32s-32.42-13.19-32.42-31.86Z"/><path class="m" d="M766.15,232.84h13.19l1.68,11.93h.28c5.19-9.68,14.6-12.77,21.48-12.77,2.1,0,3.79,.14,5.33,.42v15.72c-1.82-.42-3.79-.56-5.75-.56-9.83,0-19.65,5.89-19.65,20.63v41.26h-16.56v-76.63Z"/><path class="m" d="M822.01,232.84h13.75l1.82,13.19c5.47-9.4,15.3-15.02,26.25-15.02,18.11,0,34.81,15.72,34.81,40.14s-16.42,40.14-34.39,40.14c-10.39,0-20.63-5.47-25.69-14.32v41.97h-16.56v-106.11Zm59.93,38.18c0-14.6-9.54-24.84-21.9-24.84s-21.76,10.25-21.76,24.98,9.4,24.98,21.62,24.98,22.04-10.25,22.04-25.12Z"/><path class="m" d="M920.11,197.05h16.56v112.43h-16.56v-112.43Z"/><path class="m" d="M1025.79,276.21h-55.02c2.24,13.47,12.49,21.33,25.97,21.33,8.7,0,17.26-3.09,24.98-9.12v14.88c-7.86,5.33-16.84,8-26.67,8-25.12,0-40.28-16.28-40.28-39.86s17.12-40.42,37.62-40.42c18.53,0,33.83,13.33,33.83,38.74,0,2.39-.14,4.49-.42,6.46Zm-15.3-11.09c-.42-13.62-8.7-20.35-18.25-20.35-10.53,0-19.65,7.72-21.61,20.35h39.86Z"/><path class="m" d="M1077.02,271.16c0-24.56,16.56-40.14,34.53-40.14,10.67,0,20.49,5.33,25.55,14.32v-48.28h16.56v112.43h-13.76l-1.96-13.19c-5.33,9.4-15.3,15.02-26.25,15.02-17.97,0-34.67-15.58-34.67-40.14Zm60.35,0c0-14.6-9.54-24.98-21.76-24.98s-21.9,10.39-21.9,24.98,9.4,24.98,21.9,24.98,21.76-10.25,21.76-24.98Z"/><path class="m" d="M1171.33,271.16c0-23.3,16.98-40.14,39.02-40.14s38.88,16.84,38.88,40.14-16.7,40.14-38.88,40.14-39.02-16.84-39.02-40.14Zm61.2,0c0-15.86-10.81-24.98-22.18-24.98s-22.32,9.12-22.32,24.98,10.95,24.98,22.32,24.98,22.18-9.12,22.18-24.98Z"/><path class="m" d="M1323.05,245.48l1.82-12.63h13.76v69.06c0,25.26-17.83,38.88-39.72,38.88-10.39,0-20.77-3.51-28.77-9.26v-16.7c7.86,6.88,17.97,11.09,27.65,11.09,13.62,0,24.28-8.7,24.28-21.75v-9.83c-5.19,8.28-14.46,13.75-25.27,13.75-17.97,0-34.39-15.44-34.39-38.46s16.7-38.46,34.67-38.46c10.81,0,20.63,5.61,25.97,14.32Zm-44.07,24.28c0,13.33,9.4,23.44,21.76,23.44s21.76-10.25,21.76-23.86-9.4-23.16-21.76-23.16-21.76,10.25-21.76,23.58Z"/><path class="m" d="M585.66,232.84h13.75l1.82,13.19c5.47-9.4,15.3-15.02,26.25-15.02,18.11,0,34.81,15.72,34.81,40.14s-16.42,40.14-34.39,40.14c-10.39,0-20.63-5.47-25.69-14.32v41.97h-16.56v-106.11Zm59.93,38.18c0-14.6-9.54-24.84-21.9-24.84s-21.75,10.25-21.75,24.98,9.4,24.98,21.61,24.98,22.04-10.25,22.04-25.12Z"/><path class="m" d="M679.27,279.44v-46.6h16.56v46.74c0,10.53,5.89,16.56,15.86,16.56s16.56-6.03,16.56-16.7v-46.6h16.56v46.46c0,18.81-12.63,32-33.12,32s-32.42-13.19-32.42-31.86Z"/><path class="m" d="M766.15,232.84h13.19l1.68,11.93h.28c5.19-9.68,14.6-12.77,21.48-12.77,2.1,0,3.79,.14,5.33,.42v15.72c-1.82-.42-3.79-.56-5.75-.56-9.83,0-19.65,5.89-19.65,20.63v41.26h-16.56v-76.63Z"/><path class="m" d="M822.01,232.84h13.75l1.82,13.19c5.47-9.4,15.3-15.02,26.25-15.02,18.11,0,34.81,15.72,34.81,40.14s-16.42,40.14-34.39,40.14c-10.39,0-20.63-5.47-25.69-14.32v41.97h-16.56v-106.11Zm59.93,38.18c0-14.6-9.54-24.84-21.9-24.84s-21.76,10.25-21.76,24.98,9.4,24.98,21.62,24.98,22.04-10.25,22.04-25.12Z"/><path class="m" d="M920.11,197.05h16.56v112.43h-16.56v-112.43Z"/><path class="m" d="M1025.79,276.21h-55.02c2.24,13.47,12.49,21.33,25.97,21.33,8.7,0,17.26-3.09,24.98-9.12v14.88c-7.86,5.33-16.84,8-26.67,8-25.12,0-40.28-16.28-40.28-39.86s17.12-40.42,37.62-40.42c18.53,0,33.83,13.33,33.83,38.74,0,2.39-.14,4.49-.42,6.46Zm-15.3-11.09c-.42-13.62-8.7-20.35-18.25-20.35-10.53,0-19.65,7.72-21.61,20.35h39.86Z"/><path class="m" d="M1077.02,271.16c0-24.56,16.56-40.14,34.53-40.14,10.67,0,20.49,5.33,25.55,14.32v-48.28h16.56v112.43h-13.76l-1.96-13.19c-5.33,9.4-15.3,15.02-26.25,15.02-17.97,0-34.67-15.58-34.67-40.14Zm60.35,0c0-14.6-9.54-24.98-21.76-24.98s-21.9,10.39-21.9,24.98,9.4,24.98,21.9,24.98,21.76-10.25,21.76-24.98Z"/><path class="m" d="M1171.33,271.16c0-23.3,16.98-40.14,39.02-40.14s38.88,16.84,38.88,40.14-16.7,40.14-38.88,40.14-39.02-16.84-39.02-40.14Zm61.2,0c0-15.86-10.81-24.98-22.18-24.98s-22.32,9.12-22.32,24.98,10.95,24.98,22.32,24.98,22.18-9.12,22.18-24.98Z"/><path class="m" d="M1323.05,245.48l1.82-12.63h13.76v69.06c0,25.26-17.83,38.88-39.72,38.88-10.39,0-20.77-3.51-28.77-9.26v-16.7c7.86,6.88,17.97,11.09,27.65,11.09,13.62,0,24.28-8.7,24.28-21.75v-9.83c-5.19,8.28-14.46,13.75-25.27,13.75-17.97,0-34.39-15.44-34.39-38.46s16.7-38.46,34.67-38.46c10.81,0,20.63,5.61,25.97,14.32Zm-44.07,24.28c0,13.33,9.4,23.44,21.76,23.44s21.76-10.25,21.76-23.86-9.4-23.16-21.76-23.16-21.76,10.25-21.76,23.58Z"/></g></g><g><path class="p" d="M1631.66,173.87h-8.64v-33.57h-11.07v-7.19h30.78v7.19h-11.07v33.57Z"/><path class="p" d="M1643.87,142.7h9.31l5.88,17.54c.5,1.52,.85,3.33,1.03,5.41h.17c.21-1.91,.6-3.72,1.2-5.41l5.77-17.54h9.12l-13.19,35.16c-1.21,3.25-2.93,5.69-5.17,7.3s-4.86,2.43-7.85,2.43c-1.47,0-2.91-.16-4.32-.47v-6.75c1.02,.24,2.14,.36,3.35,.36,1.51,0,2.82-.46,3.95-1.38,1.12-.92,2-2.31,2.63-4.17l.5-1.53-12.38-30.95Z"/><path class="p" d="M1697.94,174.43c-3.66,0-6.53-1.33-8.62-3.99h-.45c.3,2.6,.45,4.11,.45,4.52v12.63h-8.5v-44.89h6.92l1.2,4.04h.39c1.99-3.08,4.94-4.63,8.84-4.63,3.68,0,6.56,1.42,8.64,4.27s3.12,6.79,3.12,11.85c0,3.33-.49,6.22-1.46,8.67-.98,2.45-2.37,4.32-4.17,5.6-1.8,1.28-3.92,1.92-6.36,1.92Zm-2.51-25.51c-2.1,0-3.63,.65-4.6,1.94s-1.47,3.42-1.51,6.4v.92c0,3.35,.5,5.74,1.49,7.19,.99,1.45,2.57,2.17,4.73,2.17,3.81,0,5.72-3.14,5.72-9.42,0-3.07-.47-5.37-1.41-6.9-.94-1.53-2.41-2.3-4.42-2.3Z"/><path class="p" d="M1731.06,174.43c-5.02,0-8.94-1.38-11.77-4.15-2.83-2.77-4.24-6.69-4.24-11.77s1.31-9.26,3.92-12.12c2.61-2.85,6.22-4.28,10.83-4.28s7.83,1.25,10.29,3.76c2.45,2.51,3.68,5.98,3.68,10.4v4.13h-20.1c.09,2.42,.81,4.3,2.15,5.66,1.34,1.36,3.21,2.04,5.63,2.04,1.88,0,3.65-.2,5.33-.59,1.67-.39,3.42-1.01,5.24-1.87v6.58c-1.49,.74-3.08,1.3-4.77,1.66s-3.75,.54-6.19,.54Zm-1.2-26.27c-1.8,0-3.22,.57-4.24,1.71-1.02,1.14-1.61,2.77-1.76,4.87h11.93c-.04-2.1-.58-3.72-1.64-4.87-1.06-1.14-2.49-1.71-4.29-1.71Z"/></g><g><path class="p" d="M1626.07,492.26l-9.81-31.98h-.25c.35,6.51,.53,10.85,.53,13.02v18.96h-7.72v-40.76h11.77l9.65,31.17h.17l10.23-31.17h11.77v40.76h-8.06v-19.29c0-.91,.01-1.96,.04-3.15s.15-4.35,.38-9.48h-.25l-10.51,31.93h-7.92Z"/><path class="p" d="M1681.78,492.26l-1.65-4.24h-.22c-1.43,1.8-2.9,3.05-4.42,3.75-1.51,.7-3.49,1.05-5.92,1.05-2.99,0-5.35-.85-7.07-2.57-1.72-1.71-2.58-4.14-2.58-7.3s1.16-5.75,3.47-7.32c2.31-1.57,5.8-2.44,10.47-2.61l5.41-.17v-1.37c0-3.16-1.62-4.74-4.85-4.74-2.49,0-5.42,.75-8.78,2.26l-2.82-5.74c3.59-1.88,7.57-2.82,11.93-2.82s7.39,.91,9.62,2.73c2.23,1.82,3.35,4.59,3.35,8.31v20.77h-5.94Zm-2.51-14.44l-3.29,.11c-2.47,.08-4.31,.52-5.52,1.34-1.21,.82-1.81,2.06-1.81,3.74,0,2.4,1.38,3.6,4.13,3.6,1.97,0,3.54-.57,4.73-1.7,1.18-1.13,1.77-2.64,1.77-4.52v-2.57Z"/><path class="p" d="M1713.87,460.5c1.15,0,2.11,.08,2.87,.25l-.64,7.97c-.69-.19-1.52-.28-2.51-.28-2.71,0-4.83,.7-6.34,2.09-1.51,1.39-2.27,3.35-2.27,5.86v15.87h-8.5v-31.17h6.44l1.25,5.24h.42c.97-1.75,2.27-3.16,3.92-4.22,1.65-1.07,3.43-1.6,5.37-1.6Z"/><path class="p" d="M1730.58,475.31l3.71-4.74,8.73-9.48h9.59l-12.38,13.52,13.13,17.65h-9.81l-8.98-12.63-3.65,2.93v9.7h-8.5v-43.38h8.5v19.35l-.45,7.08h.11Z"/></g><path class="n" d="M1519.57,593.66h-12v-7h12v7Zm-24,0h-12v-7h12v7Zm-24,0h-12v-7h12v7Zm-24,0h-12v-7h12v7Zm-24,0h-12v-7h12v7Zm-24,0h-12v-7h12v7Zm-24,0h-12v-7h12v7Zm-24,0h-12v-7h12v7Zm-24,0h-12v-7h12v7Zm-24,0h-12v-7h12v7Zm-24,0h-12v-7h12v7Zm-24,0h-12v-7h12v7Zm-24,0h-12v-7h12v7Zm-24,0h-12v-7h12v7Zm-24,0h-12v-7h12v7Zm-24,0h-12v-7h12v7Zm-24,0h-12v-7h12v7Zm-24,0h-12v-7h12v7Zm-24,0h-12v-7h12v7Zm-24,0h-12v-7h12v7Zm-24,0h-12v-7h12v7Zm-24,0h-12v-7h12v7Zm-24,0h-12v-7h12v7Zm-24,0h-12v-7h12v7Zm-24,0h-12v-7h12v7Zm-24,0h-12v-7h12v7Zm-24,0h-12v-7h12v7Zm-24,0h-12v-7h12v7Zm-24,0h-12v-7h12v7Zm-24,0h-12v-7h12v7Zm-24,0h-12v-7h12v7Zm-24,0h-12v-7h12v7Zm-24,0h-12v-7h12v7Zm-24,0h-12v-7h12v7Zm-24,0h-12v-7h12v7Zm-24,0h-12v-7h12v7Zm-24,0h-12v-7h12v7Zm-24,0h-12v-7h12v7Zm-24,0h-12v-7h12v7Zm-24,0h-12v-7h12v7Zm-24,0h-12v-7h12v7Zm-24,0h-12v-7h12v7Zm-24,0h-12v-7h12v7Zm-24,0h-12v-7h12v7Zm-24,0h-12v-7h12v7Zm-24,0h-12v-7h12v7Zm-24,0h-12v-7h12v7Zm-24,0h-12v-7h12v7Zm-24,0h-12v-7h12v7Zm-24,0h-12v-7h12v7Zm-24,0h-12v-7h12v7Zm-24,0h-12v-7h12v7Zm-24,0h-12v-7h12v7Zm-24,0h-12v-7h12v7Zm-24,0h-12v-7h12v7Zm-24,0h-12v-7h12v7Zm1331.69-7.31h-7v-12h7v12Zm0-24h-7v-12h7v12Zm0-24h-7v-10h9v7h-2v3Zm290-3h-12v-7h12v7Zm-24,0h-12v-7h12v7Zm-24,0h-12v-7h12v7Zm-24,0h-12v-7h12v7Zm-24,0h-12v-7h12v7Zm-24,0h-12v-7h12v7Zm-24,0h-12v-7h12v7Zm-24,0h-12v-7h12v7Zm-24,0h-12v-7h12v7Zm-24,0h-12v-7h12v7Zm-24,0h-12v-7h12v7Zm-24,0h-12v-7h12v7Z"/><g><g><g><ellipse class="i" cx="1304.41" cy="581.51" rx="118.64" ry="115.53"/><ellipse class="j" cx="1304.41" cy="581.51" rx="118.64" ry="115.53"/></g><g><path class="m" d="M1375.39,525.79l-1.99-1.8,.48,2.64c1.81,9.86-2.08,19.82-9.89,25.37-9.91,7.05-23.41,7.9-24.65,7.6l-.58-.19h-.01c-2.73-.81-5.46-.94-8.27-1.07-5.78-.26-16.81,1.67-21.57,10.56-1.35,2.52-2.63,5.36-3.88,8.12-2.69,5.97-5.48,12.15-8.82,14.61-3.18,2.35-7.91,5.23-14.99,6.17,.09,.28,.19,.58,.28,.88,.09,.28,.17,.58,.26,.88,1.87,6.55,3.46,17.69-2.85,27.73-.75,1.2-1.59,2.32-2.51,3.4,.51-.09,1.02-.19,1.54-.3,.19-.04,.37-.09,.56-.13l-6.71,13.05-9.62,7.56h16.22l-10.38,6.61h20.06l19.55-34.72,.53-.95-1.04-.35c-.16-.05-2.48-.88-4.11-2.8l9.39-9c-.04,2.66,.31,6.73,2.72,8.33,1.24,.83,2.79,.88,4.64,.17l-2.62,16.47-9.24,7.65h18.23l7.12-24.99,.32-.6c3.5-1.24,7.67-3.6,10.08-5.05l-8.55,31.8-9.08,8.87h19.78l17.08-56.05-1.58,.43c-.06,.01-5.67,1.49-8.39-.5-.9-.66-1.36-1.63-1.41-2.98-.07-1.64,.01-3.69,.09-5.85,.13-3.35,.26-7.06-.04-10.62l.91,.37,.11-.66c2.7-1.36,17.01-8.94,22.25-18.72,11.55-21.57,1.01-31.5,.56-31.91Zm-62.45,114.65l5.88-4.87,3.3-20.72-1.64,.93c-1.92,1.09-3.38,1.32-4.35,.67-2.07-1.38-2.02-6.46-1.8-8.67l14.73-14.11c-1.09,6.47-3.02,20.2-.33,23.09,.49,.53,1.12,.76,1.82,.68,.25-.03,.52-.08,.8-.13l-6.59,23.13h-11.81Zm-24.31-13.71l1.33,.27-9.44,19.69-2.01,2.36h-11.08l5.8-4.56,7.62-14.81c4.89-1.29,6.98-2.41,7.77-2.95Z"/><path class="m" d="M1274.3,624.39c5.62-8.94,3.62-19.12,1.89-24.46-.1-.32-.21-.63-.31-.91-.12-.33-.23-.63-.33-.91-.74-.01-1.51-.04-2.29-.1l-.28-.02h0l-8.63,4.95,.9,1.58,8.16-4.67c.48,.03,.95,.05,1.41,.07-.46-.01-.93-.03-1.41-.07l-8.16,4.67-.9-1.58,8.63-4.94h0c-10.3-21.99-24.73-21.63-25.37-21.61l-3.08,.14,2.67,1.55c.59,.35,14.42,8.58,9.37,21.75-.11,.07-.24,.17-.38,.26-5.05-10.11-16.16-11.35-16.65-11.4l-4.01-.4,3.45,2.08c9.79,5.92,8.79,15.74,8.74,16.18h0l.19,.02c-2.11,1.9-3.84,3.78-4.13,5.06-.75,3.31-.29,7.73-.11,9.2l-12.03,10.86,1.07,.63c.45,.27,11.11,6.47,16.18,3.64,4.77-2.67,11.31-5.7,12.87-6.42,.88,.32,3.22,1.07,6.45,1.41,2.46-1.85,4.51-4.04,6.1-6.56Zm-18.37-22.7l-6.36,4.33c0,.11,0,.22-.01,.31,0-.09,0-.19,.01-.31l6.36-4.33,.84-.35c-.09-.22-.18-.43-.28-.63,.1,.21,.19,.42,.28,.63l-.84,.35Zm7.27,9.23c-.2,1.03-.56,1.99-1.03,2.9-.47,.91-1.05,1.77-1.79,2.56-.74,.79-1.59,1.53-2.8,2.11-.27-1.24-.18-2.32,.02-3.35,.11-.54,.26-1.06,.45-1.56,.14-.44,.3-.86,.5-1.27,.39-.79,.87-1.54,1.5-2.22,.09-.09,.17-.18,.27-.27,.04-.04,.08-.09,.12-.14,.74-.79,1.59-1.53,2.8-2.12,.26,1.24,.17,2.31-.03,3.35Z"/><g><path class="m" d="M1281.57,551.01c5.43,8.87,5.03,21.42,3.73,30.38l-.26,1.81,1.6-.89c.37-.2,9.1-5.25,14.84-24.95,1.49-5.11,5.13-8.72,10.81-10.74,.34-.12,.67-.23,1.01-.33h0l3.84-1.94s4.65,1.67,1.82,1.48h0l11.24,.75-5.86-2.6c-.11-.05-10.95-4.94-13.06-13.07-.97-3.75,.08-7.7,3.12-11.72l4.42-5.86-1.2,.85-5.15,6.36-6.42,.26c-2.14-1.74-4.28-3.48-6.42-5.22-6.16-4.75-9.49-13.03-9.62-23.93l-.08-6.42-15.97,57.92-.22,.8,.77,.29s3.84,1.51,7.06,6.76Zm27.51-19.52c.89,3.42,3.03,6.28,5.4,8.54,1.49,1.42,3.06,2.6,4.47,3.53l-35.49-2.36,23.6-16.75,2.78-1.97c-1.27,3.04-1.53,6.05-.76,9.01Z"/><path class="m" d="M1311.92,522.01l5.69-7.82h0c-1.6,1.04-5.92,3.54-11.66,3.1-2.69-.21-6.49-2.4-7.96-3.1,2.33,5.78,6.76,11.88,10.63,7.41l3.3,.42Z"/><path class="m" d="M1313.3,546.3c.1-.02,2.87-.64,5.65-.46,.82,.04,1.25-.02,1.29-.18,.07-.27-1.02-.84-3.26-1.7-2.17,.22-3.7,.91-3.67,2.34Z"/></g></g></g><g><ellipse class="k" cx="623.77" cy="581.51" rx="118.64" ry="115.53"/><use width="337.24" height="398.68" transform="translate(549.64 483.09) scale(.45)" xlink:href="#a"/></g><g><g><ellipse class="l" cx="964.09" cy="581.51" rx="118.64" ry="115.53"/><ellipse class="j" cx="964.09" cy="581.51" rx="118.64" ry="115.53"/></g><use width="337.24" height="398.68" transform="translate(890.41 484.21) scale(.45)" xlink:href="#a"/></g></g><g><path class="p" d="M901.6,85.79V45.02h8.64v33.63h16.54v7.14h-25.18Z"/><path class="p" d="M961.52,70.15c0,5.07-1.34,9.04-4.02,11.91-2.68,2.86-6.4,4.29-11.18,4.29-2.99,0-5.63-.66-7.92-1.97-2.29-1.31-4.04-3.19-5.27-5.65-1.23-2.45-1.84-5.32-1.84-8.59,0-5.09,1.33-9.05,3.99-11.88,2.66-2.83,6.39-4.24,11.21-4.24,2.99,0,5.63,.65,7.92,1.95,2.29,1.3,4.04,3.17,5.27,5.6,1.23,2.44,1.84,5.29,1.84,8.56Zm-21.55,0c0,3.08,.51,5.42,1.52,7,1.01,1.58,2.66,2.37,4.95,2.37s3.9-.79,4.89-2.36c.99-1.57,1.49-3.91,1.49-7.01s-.5-5.4-1.51-6.94c-1-1.54-2.65-2.31-4.94-2.31s-3.9,.77-4.91,2.3-1.51,3.85-1.51,6.96Z"/><path class="p" d="M995.68,54.61v4.32l-4.88,1.25c.89,1.39,1.34,2.96,1.34,4.68,0,3.35-1.17,5.95-3.5,7.82-2.33,1.87-5.57,2.8-9.72,2.8l-1.53-.08-1.25-.14c-.87,.67-1.31,1.41-1.31,2.23,0,1.23,1.56,1.84,4.68,1.84h5.3c3.42,0,6.03,.73,7.82,2.2,1.79,1.47,2.69,3.62,2.69,6.47,0,3.64-1.52,6.47-4.56,8.48-3.04,2.01-7.4,3.01-13.09,3.01-4.35,0-7.67-.76-9.97-2.27-2.3-1.51-3.44-3.64-3.44-6.37,0-1.88,.59-3.45,1.76-4.71s2.89-2.17,5.16-2.7c-.87-.37-1.64-.98-2.29-1.83-.65-.85-.98-1.74-.98-2.69,0-1.19,.34-2.18,1.03-2.97s1.68-1.57,2.98-2.33c-1.64-.71-2.93-1.84-3.89-3.4-.96-1.56-1.44-3.4-1.44-5.52,0-3.4,1.11-6.03,3.32-7.89,2.21-1.86,5.37-2.79,9.48-2.79,.87,0,1.91,.08,3.11,.24,1.2,.16,1.97,.28,2.3,.35h10.87Zm-24.06,35.58c0,1.17,.56,2.09,1.69,2.76s2.7,1,4.73,1c3.05,0,5.44-.42,7.17-1.25,1.73-.84,2.59-1.98,2.59-3.43,0-1.17-.51-1.98-1.53-2.43s-2.6-.67-4.74-.67h-4.41c-1.56,0-2.87,.37-3.92,1.1-1.05,.73-1.58,1.71-1.58,2.91Zm3.09-25.37c0,1.69,.39,3.03,1.16,4.02s1.95,1.48,3.53,1.48,2.77-.49,3.51-1.48,1.12-2.32,1.12-4.02c0-3.75-1.54-5.63-4.63-5.63s-4.68,1.88-4.68,5.63Z"/><path class="p" d="M1029.14,70.15c0,5.07-1.34,9.04-4.02,11.91-2.68,2.86-6.4,4.29-11.18,4.29-2.99,0-5.63-.66-7.92-1.97-2.29-1.31-4.04-3.19-5.27-5.65-1.23-2.45-1.84-5.32-1.84-8.59,0-5.09,1.33-9.05,3.99-11.88,2.66-2.83,6.39-4.24,11.21-4.24,2.99,0,5.63,.65,7.92,1.95,2.29,1.3,4.04,3.17,5.27,5.6,1.23,2.44,1.84,5.29,1.84,8.56Zm-21.55,0c0,3.08,.51,5.42,1.52,7,1.01,1.58,2.66,2.37,4.95,2.37s3.9-.79,4.89-2.36c.99-1.57,1.49-3.91,1.49-7.01s-.5-5.4-1.51-6.94c-1-1.54-2.65-2.31-4.94-2.31s-3.9,.77-4.91,2.3-1.51,3.85-1.51,6.96Z"/></g></g></g><g id="e"/><g id="f"/><g id="g"><g id="h"/></g></svg>