<?xml version="1.0" encoding="utf-8"?>
<!-- Generator: Adobe Illustrator 24.3.0, SVG Export Plug-In . SVG Version: 6.00 Build 0)  -->
<svg version="1.1" id="Layer_1" xmlns="http://www.w3.org/2000/svg" xmlns:xlink="http://www.w3.org/1999/xlink" x="0px" y="0px"
	 viewBox="0 0 407 314.9" style="enable-background:new 0 0 407 314.9;" xml:space="preserve">
<style type="text/css">
	.st0{opacity:7.000000e-02;}
	.st1{fill:none;stroke:#000000;stroke-width:13;stroke-miterlimit:10;}
	.st2{stroke:#000000;stroke-width:1;stroke-miterlimit:10.0002;}
	.st3{stroke:#000000;stroke-miterlimit:10;}
	.st4{fill:#000F28;}
	.st5{fill:none;stroke:#B8C7DD;stroke-width:13;stroke-miterlimit:10;}
	.st6{fill:#FF811A;}
	.st7{fill:#FFA45A;}
	.st8{fill:#FFD0A9;}
	.st9{fill:#FFF9F5;}
	.st10{fill:#AA4D00;}
</style>
<g class="st0">
	<line class="st1" x1="47.8" y1="192.6" x2="213.9" y2="186.1"/>
	
		<ellipse transform="matrix(0.9987 -5.122221e-02 5.122221e-02 0.9987 -9.447 6.7824)" class="st2" cx="127.6" cy="187.7" rx="46.8" ry="59.4"/>
	<path class="st3" d="M118.9,152.5c10.1,9.5,15.9,22.6,16.1,36.4c0.5,20.8-10.9,33.3-12.5,35l-69.2,3.6l-3.7-71.4L118.9,152.5z"/>
	<ellipse transform="matrix(0.9987 -5.122213e-02 5.122213e-02 0.9987 -9.7467 2.8895)" cx="51.5" cy="191.6" rx="44.5" ry="56.5"/>
	<path d="M89.7,163.4c2.8,6,4.7,12.4,5.7,19s1.1,13.3,0.3,19.9c-0.8,6.7-2.5,13.1-5.3,19.3c-2.7,6.2-6.7,11.7-11.5,16.4
		c-4.9,4.7-10.9,8.1-17.5,9.9c-3.3,0.9-6.7,1.2-10.1,1.1c-3.4-0.1-6.8-0.7-10-1.7c-6.5-2.1-12.4-5.7-17.2-10.5s-8.8-10.3-11.7-16.5
		c-5.8-12.3-8-26.1-6.2-39.6c0.8-6.8,2.7-13.3,5.5-19.5c2.9-6.2,6.9-11.8,11.9-16.5c2.5-2.3,5.3-4.3,8.3-6c3-1.6,6.2-2.9,9.6-3.7
		c3.3-0.8,6.8-1.1,10.2-0.9c3.4,0.2,6.7,0.9,10,2c6.4,2.3,12.1,6,16.8,10.9C83.1,151.8,86.9,157.3,89.7,163.4z M89.4,163.5
		c-2.8-6-6.7-11.4-11.5-16c-4.7-4.6-10.5-7.9-16.8-9.9c-3.1-0.9-6.3-1.4-9.6-1.5c-3.2,0-6.4,0.4-9.5,1.2c-6.2,1.8-11.9,5-16.5,9.5
		c-4.7,4.4-8.5,9.8-11.1,15.6c-2.7,5.9-4.6,12.2-5.4,18.6c-1.8,13,0.1,26.2,5.5,38.1c2.7,5.9,6.4,11.3,11,15.9
		c4.6,4.6,10.2,8.1,16.3,10.2c3.1,1,6.3,1.6,9.5,1.8c3.2,0.1,6.5-0.2,9.6-1c6.3-1.6,12.1-4.8,16.9-9.3s8.7-9.8,11.5-15.8
		S94,208.6,95,202c0.9-6.6,0.9-13.2,0-19.8C94.2,175.9,92.3,169.5,89.4,163.5z"/>
	
		<ellipse transform="matrix(0.9987 -5.122213e-02 5.122213e-02 0.9987 -9.7551 2.7616)" class="st2" cx="49" cy="191.7" rx="35.6" ry="45.2"/>
	<path d="M64.7,232.8c13.8-10.4,29.9-54.2-5.2-84"/>
	<path d="M64.7,232.8c2.5-3,4.6-6.3,6.2-9.9c1.6-3.5,2.8-7.1,3.8-10.7c2-7.2,2.8-14.8,2.4-22.3c-0.4-7.4-2.2-14.8-5.1-21.6
		c-1.6-3.5-3.4-6.8-5.5-10c-2.1-3.3-4.5-6.3-7-9.5c1.7,1,3.4,2.1,5,3.4c0.8,0.6,1.6,1.2,2.4,1.9l2.3,2.1c2.9,2.9,5.5,6.2,7.6,9.7
		c4.3,7.2,6.8,15.4,7.3,23.8c0.4,8.3-1,16.7-4.2,24.4c-1.6,3.8-3.6,7.4-6.1,10.7c-1.2,1.6-2.6,3.2-4.1,4.6
		C68.1,230.7,66.5,231.9,64.7,232.8z"/>
</g>
<g>
	<polygon class="st4" points="204.6,182 204.1,173.7 208.9,182.3 213.6,178.9 213.3,186.8 220.4,190.2 215.2,192.7 220.5,201 
		213.4,196.7 213.9,205 209.1,196.4 204.4,199.8 204.7,192 197.6,188.5 202.8,186 197.5,177.7 	"/>
</g>
<line class="st5" x1="356.2" y1="114.3" x2="207.4" y2="188.5"/>
<ellipse transform="matrix(0.8896 -0.4567 0.4567 0.8896 -37.7351 147.07)" class="st6" cx="285.4" cy="151.6" rx="46.8" ry="59.4"/>
<path class="st7" d="M307.8,180.1c-13.1-4.5-23.7-14.1-29.7-26.5c-9-18.7-3.8-34.9-3-37l61.7-31.7l32.6,63.6L307.8,180.1z"/>
<ellipse transform="matrix(0.8896 -0.4567 0.4567 0.8896 -14.3579 174.1939)" class="st6" cx="353.2" cy="116.8" rx="44.5" ry="56.5"/>
<path class="st8" d="M330,158.2c-5-4.4-9.4-9.4-13-15s-6.5-11.7-8.5-18c-2-6.4-3.1-13-3.1-19.7s1.3-13.4,3.8-19.7
	c2.5-6.3,6.6-11.9,11.9-16.2c2.7-2.1,5.6-3.9,8.7-5.2c3.2-1.3,6.5-2.2,9.9-2.6c6.8-0.7,13.6,0.1,20,2.5s12.3,5.8,17.4,10.2
	c10.3,8.8,18,20.5,21.9,33.5c2,6.5,3,13.3,3,20.1c-0.1,6.9-1.5,13.6-4.1,19.9c-1.4,3.2-3.1,6.1-5.1,8.9c-2.1,2.7-4.5,5.2-7.2,7.3
	s-5.7,3.8-8.9,5c-3.2,1.2-6.5,2-9.9,2.3c-6.7,0.5-13.5-0.5-19.8-3C340.7,166.1,335,162.6,330,158.2z M330.2,158
	c5,4.3,10.8,7.6,17,9.9c6.2,2.2,12.8,3,19.4,2.1c3.2-0.4,6.3-1.3,9.3-2.6c2.9-1.3,5.7-3,8.2-5c4.9-4.1,8.8-9.4,11.1-15.4
	c2.4-6,3.7-12.4,3.7-18.9c0.1-6.5-0.8-13-2.7-19.2c-3.6-12.6-10.8-23.8-20.7-32.5c-4.9-4.3-10.5-7.7-16.6-10
	c-6.1-2.4-12.6-3.3-19.1-2.6c-3.2,0.4-6.4,1.1-9.3,2.3c-3,1.2-5.8,2.8-8.4,4.8c-5.1,4.1-9.1,9.4-11.6,15.4c-2.6,6.1-3.9,12.5-4,19.1
	s0.7,13.2,2.6,19.5c1.8,6.4,4.6,12.4,8.1,18C320.8,148.6,325.1,153.6,330.2,158z"/>
<ellipse transform="matrix(0.8896 -0.4567 0.4567 0.8896 -13.552 175.1119)" class="st7" cx="355.5" cy="115.6" rx="35.6" ry="45.2"/>
<path class="st9" d="M324.3,84.6c-1.1,3.8-1.6,7.6-1.5,11.5c0,3.8,0.3,7.6,0.9,11.4c1.2,7.4,3.5,14.6,6.9,21.3
	c3.4,6.6,8,12.6,13.6,17.6c2.9,2.5,5.9,4.8,9.1,6.9c3.2,2.1,6.7,3.9,10.3,5.8c-2-0.2-4-0.5-6-1c-1-0.2-2-0.5-3-0.8l-2.9-1
	c-3.9-1.4-7.5-3.3-11-5.7c-6.9-4.8-12.5-11.2-16.4-18.7c-3.8-7.4-6-15.6-6.2-24c-0.1-4.1,0.3-8.3,1.1-12.3c0.5-2,1.1-3.9,1.9-5.8
	C322,88,323,86.2,324.3,84.6z"/>
<g>
	<path class="st10" d="M394.9,154.1c-1.6,2.6-3.5,4.9-5.7,7.1c-2.1,2.2-4.5,4.1-7.1,5.8c-5.2,3.3-11.2,5.5-17.4,5.9
		c-3.1,0.2-6.3,0.1-9.4-0.3c-0.8-0.1-1.5-0.3-2.3-0.4c-0.8-0.2-1.5-0.3-2.3-0.6l-2.2-0.7l-2.2-0.9c-5.7-2.5-10.8-6.1-14.9-10.6
		l0.2-0.3c1.4,0.6,2.7,1.3,4.1,2c1.4,0.6,2.7,1.3,4,1.9c2.7,1.2,5.4,2.4,8.1,3.3l2,0.7l2.1,0.6l1,0.3l1,0.3c0.7,0.2,1.4,0.4,2.1,0.5
		c2.8,0.7,5.6,1,8.5,1c5.7,0,11.5-1.6,16.6-4.5c5.2-2.8,9.8-6.7,13.5-11.3L394.9,154.1z"/>
</g>
<g>
	<path class="st10" d="M324.8,194.4c-2.7,3.6-6.1,6.7-9.8,9.3c-3.7,2.6-7.9,4.7-12.4,6.1c-4.4,1.4-9.2,1.9-13.9,1.4
		c-4.7-0.4-9.3-1.9-13.5-3.9c-8.4-4.2-15.3-10.6-20.8-17.8c-5.6-7.2-10.1-15.1-13.7-23.3c5.1,7.4,10.2,14.7,16.1,21.3
		c0.7,0.9,1.5,1.6,2.3,2.4l2.3,2.4c0.8,0.8,1.6,1.5,2.4,2.2s1.6,1.5,2.5,2.1c0.9,0.7,1.7,1.4,2.5,2c0.9,0.7,1.8,1.2,2.7,1.9
		c0.4,0.3,0.9,0.6,1.3,0.9l1.4,0.8c0.9,0.5,1.8,1.1,2.8,1.5s1.9,0.9,2.9,1.3l3,1.1l3.1,0.8c1,0.2,2.1,0.3,3.1,0.5
		c4.2,0.6,8.5,0.3,12.7-0.7c1-0.3,2.1-0.5,3.1-0.9c1-0.3,2.1-0.7,3.1-1.1c1-0.4,2-0.9,3-1.3c1-0.5,2-1,2.9-1.5
		C317.8,199.9,321.5,197.3,324.8,194.4z"/>
</g>
</svg>
