<?xml version="1.0" encoding="UTF-8"?><svg id="a" xmlns="http://www.w3.org/2000/svg" xmlns:xlink="http://www.w3.org/1999/xlink" viewBox="0 0 1068 358"><defs><style>.l{fill:none;}.m{fill:#eb7305;}.n{fill:#ffa348;}.o{fill:#fff;}.p{fill:#89d8e5;}.q{fill:#af5c51;}.r{clip-path:url(#b);}</style><clipPath id="b"><circle class="l" cx="184.07" cy="174.74" r="134.6"/></clipPath></defs><g><g><path class="q" d="M400.6,142.59c0-9.76-.24-29.87-.59-37.4-.59-11.41-1.18-12.58-1.18-12.58,0,0,4.59,.24,9.41,.24h14.58c20.35,0,30.46,9.41,30.46,21.17,0,20.82-19.05,23.64-19.05,23.64v.59s19.88,29.64,29.76,35.28v.82s-6.94,1.53-10.35,1.53c-18.58,0-27.64-35.52-37.87-38.46l-1.65-.47c0,2.82,.59,18.47,.59,31.4,0,6.35-3.53,8-7.65,8-2.47,0-5.06-.71-8-1.18,0,0,1.53-3.29,1.53-32.58Zm23.64-10c8.35,0,15.17-4.23,15.17-16.11,0-9.41-5.53-17.41-21.17-17.41h-3.65c-.35,9.88-.47,23.52-.47,32.23,3.41,1.18,6.82,1.29,10.11,1.29Z"/><path class="q" d="M475.41,146.71c0-26.82-2.71-30.46-2.82-30.46,2-.59,3.88-1.06,5.76-1.06,5.29,0,10,2.82,10,7.53,0,12.47-.59,26.58-.59,35.28,0,5.29,.12,12.35,5.88,12.35,2.35,0,4.47-1.65,4.47-1.65l.47,.35s-2.94,7.29-13.06,7.29c-5.18,0-10.59-2.47-10.59-9.53s.47-13.53,.47-20.11Zm-1.88-49.4c0-4.35,3.65-8,7.88-8s8,3.65,8,8-3.65,7.88-8,7.88-7.88-3.65-7.88-7.88Z"/><path class="q" d="M503.98,124.01c-1.18-2.47-2.47-5.18-4.7-7.06v-.59c2.35-.47,4.7-.94,8.82-.94s8.35,1.29,9.29,4.94c2.47,10.12,10.11,32.11,15.29,45.16h.59c15.88-45.52,9.76-50.1,19.99-50.1,3.65,0,5.41,.94,5.41,.94v.59s-2.94,2-6.12,10.82l-17.76,49.16s-12.82-.35-15.88-10.23c-3.29-10.7-10.59-33.29-14.94-42.69Z"/><path class="q" d="M591.37,114.6c15.53,0,21.64,8.82,21.64,16.82,0,11.76-12.35,16-22.7,16-6.82,0-12.94-3.29-12.94-3.29l-.47,.23c0,14.11,6.59,23.76,18.7,23.76,9.64,0,18.47-6.7,18.47-6.7l.59,.59s-4,14.94-23.76,14.94c-15.76,0-27.4-12.35-27.4-29.64,0-16.23,10.7-32.7,27.87-32.7Zm-3.41,26.93c5.29,0,11.06-2.94,11.06-10.23,0-5.53-2.47-11.29-9.17-11.29-8.35,0-12.82,14.23-12.82,18.7,0,.94,6,2.82,10.94,2.82Z"/><path class="q" d="M629.48,146.83c0-23.88-2.47-30.11-2.94-30.58,2-.59,3.88-1.06,5.76-1.06,5.41,0,9.53,2.71,9.53,7.53,0,1.76-.82,4.35-.82,4.35l.47,.12c3.29-7.41,11.41-12,17.76-12,4.59,0,5.76,2,5.76,4.59s-.47,5.88-1.41,8.35l-.59,.24c-3.76-1.88-6.7-3.29-9.41-3.29-9.17,0-11.76,9.53-11.76,22.58,0,23.17,2.47,27.4,2.71,27.52-2.94,.47-5.76,1.18-8.23,1.18-4.35,0-7.41-1.76-7.41-9.06s.59-14,.59-20.46Z"/><path class="q" d="M706.86,142.59c0-9.76-.24-29.87-.59-37.4-.59-11.41-1.18-12.58-1.18-12.58,0,0,4.59,.24,9.41,.24h14.58c20.35,0,30.46,9.41,30.46,21.17,0,20.82-19.05,23.64-19.05,23.64v.59s19.88,29.64,29.76,35.28v.82s-6.94,1.53-10.35,1.53c-18.58,0-27.64-35.52-37.87-38.46l-1.65-.47c0,2.82,.59,18.47,.59,31.4,0,6.35-3.53,8-7.65,8-2.47,0-5.06-.71-8-1.18,0,0,1.53-3.29,1.53-32.58Zm23.64-10c8.35,0,15.17-4.23,15.17-16.11,0-9.41-5.53-17.41-21.17-17.41h-3.65c-.35,9.88-.47,23.52-.47,32.23,3.41,1.18,6.82,1.29,10.11,1.29Z"/><path class="q" d="M806.95,114.6c19.76,0,29.87,13.76,29.87,27.99,0,17.52-10.82,34.34-31.05,34.34s-29.87-14.47-29.87-29.76c0-16.82,10.7-32.58,31.05-32.58Zm0,56.92c10.47,0,15.53-13.41,15.53-26.82,0-12.35-5.53-24.7-16.82-24.7-10.47,0-15.41,12.58-15.41,25.17,0,13.29,5.53,26.35,16.7,26.35Z"/><path class="q" d="M878.34,114.6c4.94,0,18.94,2.12,18.94,8.35,0,2.35-2.12,5.76-4.12,7.88h-.59s-6.59-10.7-16.82-10.7c-11.64,0-15.76,12.94-15.76,23.05,0,13.88,7.65,25.05,19.64,25.05,9.06,0,19.05-7.64,19.05-7.64l.47,.47s-4.94,15.88-24.46,15.88c-15.64,0-28.35-12.82-28.35-29.29,0-18.11,12.94-33.05,31.99-33.05Z"/><path class="q" d="M913.74,140.24c0-14.82-.24-30.7-.71-40.93-.59-10.82-2.12-13.17-2.12-13.17l.35-.47c7.88,.12,15.17,1.41,15.17,8.7,0,11.88-.47,24.23-.47,36.7v9.64h.59l1.53-1.53c15.53-15.53,18.94-18.23,19.64-22.82,0,0,3.41-.94,6.35-.94,4,0,5.65,.82,5.65,2.35,0,4.35-12.35,11.76-23.17,21.41v.47c5.53,7.41,20.58,27.64,30.23,34.58v.59s-2.82,1.18-9.29,1.18c-16.47,0-26.93-29.52-30.58-30.58l-.82-.24c.12,8.94,.47,15.41,.47,23.17,0,6.35-3.29,8-7.41,8-2.47,0-5.53-.71-8.35-1.18,2-1.53,2.94-23.52,2.94-34.93Z"/><path class="q" d="M973.84,162.12h.59s6.82,8.47,18.35,8.47c7.64,0,10.35-4,10.35-8.12,0-12.11-30.58-10.35-30.58-30.34,0-11.29,10.82-17.52,21.76-17.52,4.7,0,17.76,1.76,17.76,6.59,0,2.47-2.12,6.23-4.23,8.47h-.59s-5.76-9.88-14.7-9.88c-5.29,0-9.17,3.76-9.17,8.94,0,12,30.58,9.06,30.58,30.11,0,11.88-11.53,18.11-22.46,18.11-7.76,0-19.99-3.29-19.99-8.35,0-1.88,1.41-4.82,2.35-6.47Z"/></g><g><g><path class="m" d="M395.75,210.44h5.91l17.45,56.22,18.9-56.22h5.96l18.9,56.17,17.45-56.17h5.91l-19.78,63.2h-6.75l-18.76-56.13-18.66,56.13h-6.75l-19.78-63.2Z"/><path class="m" d="M534.5,270.15c-5.26,3.16-10.84,4.42-16.61,4.42-15.08,0-25.46-9.49-25.46-23.27s9.54-23.27,22.99-23.27c15.73,0,23.5,12.33,21.36,25.32h-38.35c.88,10.29,10.15,15.92,18.8,15.92,5.17,0,10.05-.42,16.06-4.09l1.21,4.98Zm-2.93-21.55c-.42-8.8-6.28-15.26-15.96-15.26s-16.38,6.42-17.03,15.26h33Z"/><path class="m" d="M553.04,208.12h5.58v65.53h-5.58v-65.53Z"/><path class="m" d="M578.32,208.12h5.58v65.53h-5.58v-65.53Z"/><path class="m" d="M644.33,246.37v27.27h-5.49v-25.6c0-10.01-5.07-14.8-14.33-14.8-8.52,0-15.31,6.19-15.31,15.08v25.32h-5.58v-44.68h5.58v7.77c3.54-6.05,9.91-8.7,16.2-8.7,11.26,0,18.94,6.24,18.94,18.34Z"/><path class="m" d="M701.63,270.15c-5.26,3.16-10.84,4.42-16.61,4.42-15.08,0-25.46-9.49-25.46-23.27s9.54-23.27,22.99-23.27c15.73,0,23.5,12.33,21.36,25.32h-38.35c.88,10.29,10.15,15.92,18.8,15.92,5.17,0,10.05-.42,16.06-4.09l1.21,4.98Zm-2.93-21.55c-.42-8.8-6.28-15.26-15.96-15.26s-16.38,6.42-17.03,15.26h33Z"/><path class="m" d="M737.25,249.16c8.66,1.67,13.22,5.82,13.22,12.05,0,8.33-6.47,13.36-17.31,13.36-5.86,0-12.05-1.26-16.52-3.35l.88-5.31c3.68,2.23,9.4,3.54,15.22,3.54,7.63,0,12.24-2.84,12.24-7.63s-4.47-6.75-11.31-8l-4.98-.93c-6.93-1.3-12.29-4.65-12.29-11.5,0-8.33,6.66-13.36,17.73-13.36,5.26,0,10.38,.93,13.64,2.23l-.93,4.93c-3.58-1.35-8.19-2.19-12.24-2.19-7.77,0-12.43,2.93-12.43,7.87s4.05,6.19,10.94,7.49l4.14,.79Z"/><path class="m" d="M782.92,249.16c8.66,1.67,13.22,5.82,13.22,12.05,0,8.33-6.47,13.36-17.31,13.36-5.86,0-12.05-1.26-16.52-3.35l.88-5.31c3.68,2.23,9.4,3.54,15.22,3.54,7.63,0,12.24-2.84,12.24-7.63s-4.47-6.75-11.31-8l-4.98-.93c-6.93-1.3-12.29-4.65-12.29-11.5,0-8.33,6.66-13.36,17.73-13.36,5.26,0,10.38,.93,13.64,2.23l-.93,4.93c-3.58-1.35-8.19-2.19-12.24-2.19-7.77,0-12.43,2.93-12.43,7.87s4.05,6.19,10.94,7.49l4.14,.79Z"/></g><g><path class="m" d="M806.32,242.69v-18.3h1.62v16.81h11.08v1.48h-12.69Z"/><path class="m" d="M823.27,242.69v-18.3h1.62v16.81h11.08v1.48h-12.69Z"/><path class="m" d="M847.89,242.96c-6.12,0-10.29-3.84-10.29-9.45s4.08-9.39,10.04-9.39c2.28,0,4.12,.5,5.4,1.13l-.18,1.51c-1.28-.59-3.19-1.09-5.25-1.09-4.96,0-8.34,3.18-8.34,7.84s3.5,7.9,8.61,7.9c3.46,0,5.27-1.17,5.27-1.17l.32,1.55s-2.22,1.17-5.58,1.17Z"/></g></g></g><g class="r"><path class="n" d="M5.7,189.9c6.86-21.84,37.2-32.45,57.71-34.05,26.39-2.06,34.26,10.97,59.53,4.97,19.83-4.71,22.22-14.45,34.42-12.51,20.35,3.24-3.48,23.06,27.11,17.73,6.49-1.13,4.05,8.78,7.75,7.69,0,0,2.49-3.68,10.99-2.17,8.06,1.43,14.28,10.86,14.28,10.86,12.84-.79,22.98,6.27,24.52,14.87,1.27,7.08-13.61,26.47-16.92,45.43,2.99-1.08,6.24-2.02,9.89-2.61,23.67-3.81,46.53,9.9,53.54,16.97,17.97,7.32,35.47,20.17,48.33,16.09,27.45-8.71,41.42-96.69,10.68-167.89C310.3,19.09,196.31-33.95,99.68-4.32,26.88,18-45.01,89.98-38.3,166.01c2.29,25.96,14.05,55.65,35.15,76.81,5.58-4.73,12.34-8.52,19.15-11.34-6.37-8.77-15.49-25.11-10.32-41.58Z"/><g><g id="c"><polygon class="o" points="115.3 150.65 67.85 123.31 120.67 137.76 115.3 150.65"/></g><g id="d"><polygon class="o" points="125.88 129.64 90.75 87.63 135.37 119.38 125.88 129.64"/></g><g id="e"><polygon class="o" points="143.06 113.55 124.52 62.02 155.49 107.18 143.06 113.55"/></g><g id="f"><polygon class="o" points="164.72 104.36 165.05 49.6 178.58 102.66 164.72 104.36"/></g><g id="g"><polygon class="o" points="188.22 103.18 207.38 51.88 201.82 106.36 188.22 103.18"/></g><g id="h"><polygon class="o" points="210.69 110.16 246.34 68.59 222.36 117.83 210.69 110.16"/></g><g id="i"><polygon class="o" points="229.38 124.45 277.16 97.69 237.71 135.67 229.38 124.45"/></g><g id="j"><polygon class="o" points="242.02 144.31 296.08 135.62 245.97 157.7 242.02 144.31"/></g><g id="k"><polygon class="o" points="247.04 167.29 300.8 177.75 246.15 181.23 247.04 167.29"/></g></g><path class="q" d="M361.13,296.03c1.53-15.1-139.78-19.56-142.96-40.04-3.18-20.48,17.56-45.14,16.17-53.11-1.39-7.97-10.76-14.55-22.66-13.87,0,0-5.73-8.76-13.19-10.12-7.86-1.43-10.19,1.97-10.19,1.97-3.43,1-1.13-8.17-7.15-7.15-28.36,4.81-6.21-13.45-25.05-16.54-11.29-1.85-13.55,7.17-31.94,11.45-23.43,5.45-30.68-6.65-55.13-4.85-19.01,1.4-47.16,11.11-53.61,31.31-6.94,21.75,13.12,43.39,14.29,44.62,9.36,9.82,18.89,36.07,26.05,53.7-3.43,7.63-6.38,15.91-8.77,24.9-1.81,6.81-13.47,50.63-1.96,85.89,12.65,38.73,47.31,48.48,70.65,42.61,44.87-11.28,33.36-55.51,60.6-89.04,12.23-15.05,33.62-13.1,52.92,3.95,78.34,69.21,127.33-20.27,131.92-65.67Z"/><path class="p" d="M276.07,295.97c-17.87-9.51-29.24-29.62-47.12-39.12-17.87-9.51-41.6-8.01-59.47-17.51-17.87-9.51-29.89-30.01-47.76-39.52-17.87-9.51-41.6-8.01-59.47-17.51-17.87-9.51-30.98-30.47-48.85-39.97-.81,3.73,1.09,22.11,.26,38.83-.47,9.65-12.81,21.19-11.54,33.18,1.1,10.3,15.24,18.76,18.51,29.78,3,10.11-4.36,25.1,1.11,35.08,5.06,9.22,21.4,11.05,29.09,19.56,10.7,11.85,15.53,31.33,29.24,39.33,13.77,8.05,33.46,2.77,48.67,6.96,15.65,4.31,29.88,18.82,45.31,19.07,16.7,.27,31.01-14.01,45.32-18.46,16.28-5.07,36.75-3.05,46.84-14.19,1.88-2.08-6.11-12.01-4.55-14.2,1.62-2.28,13.61,2.01,14.91-.35,1.35-2.45-8.66-10.35-7.62-12.83,1.09-2.58,13.71-.88,14.51-3.44,.84-2.69-7.97-2.11-7.39-4.7Z"/><g><path class="o" d="M238.88,382.41l-4.63-2.78c-1.52-.99-3.01-2.08-4.51-3.12-.74-.56-1.45-1.17-2.17-1.75-.71-.6-1.46-1.15-2.13-1.8-1.35-1.31-2.76-2.55-3.97-3.97-2.57-2.74-4.7-5.74-6.63-8.53l-2.77-4.07-1.34-1.88c-.44-.64-.9-1.22-1.36-1.79-.47-.57-.89-1.19-1.39-1.72l-1.45-1.62c-.47-.56-1.03-1.02-1.54-1.53-.53-.49-1.01-1.04-1.59-1.49-2.22-1.9-4.61-3.68-7.2-5.28l-1.96-1.19c-.65-.4-1.3-.8-1.99-1.14-1.36-.69-2.71-1.46-4.08-2.09l-2.07-.9c-.69-.29-1.38-.64-2.08-.85l-2.1-.73c-.35-.12-.7-.26-1.05-.35l-1.07-.28-2.14-.56-2.18-.4c-.37-.06-.72-.15-1.1-.2l-1.12-.13c-.75-.08-1.48-.21-2.26-.25-3.04-.27-6.34-.34-9.77-.56-3.43-.16-7.06-.68-10.58-1.44-1.74-.47-3.52-.84-5.19-1.47l-2.54-.87c-.83-.31-1.63-.69-2.45-1.03l-2.43-1.05-2.33-1.19-2.32-1.2c-.78-.39-1.5-.88-2.25-1.31-1.48-.91-3-1.74-4.42-2.8-1.44-1.01-2.9-1.98-4.24-3.15l-2.05-1.69-1.93-1.84-.96-.92c-.32-.31-.6-.65-.9-.98l-1.78-1.98c-2.25-2.72-4.24-5.55-6.09-8.3-1.83-2.73-3.65-5.3-5.61-7.7l-1.54-1.72c-.26-.28-.5-.59-.78-.85l-.83-.8-1.67-1.61-1.8-1.48c-1.16-1.03-2.48-1.89-3.76-2.81-1.25-.95-2.66-1.71-4.01-2.54-.69-.4-1.35-.85-2.06-1.21l-2.12-1.1-2.12-1.1-2.17-.94c-.73-.31-1.44-.65-2.18-.93l-2.23-.77c-1.47-.57-3.01-.88-4.52-1.3-3.07-.66-6.18-1.14-9.41-1.29-3.23-.22-6.54-.27-9.93-.57-.84-.05-1.69-.19-2.54-.28l-1.27-.15c-.42-.05-.84-.15-1.26-.22l-2.52-.46-2.48-.64c-6.62-1.77-12.71-4.81-18.4-8.34-2.86-1.76-5.58-3.76-8.14-5.95-.66-.52-1.23-1.15-1.85-1.72-.59-.6-1.24-1.14-1.79-1.78l-1.69-1.88c-.58-.61-1.06-1.3-1.59-1.95-2.09-2.62-3.9-5.41-5.76-8.12-1.87-2.7-3.76-5.38-6-7.77-1.05-1.26-2.29-2.33-3.46-3.48-.59-.58-1.25-1.06-1.88-1.59-.64-.52-1.26-1.06-1.91-1.55-1.35-.93-2.68-1.92-4.05-2.82l-4.24-2.55,4.36,2.36c1.42,.84,2.8,1.76,4.2,2.64,.68,.47,1.33,.98,2,1.48,.65,.51,1.35,.97,1.97,1.52,1.23,1.11,2.54,2.15,3.67,3.37,2.39,2.33,4.45,4.96,6.45,7.6,2,2.65,3.91,5.31,6.06,7.76,.54,.6,1.04,1.25,1.62,1.82l1.7,1.73c.55,.59,1.2,1.08,1.8,1.63,.62,.52,1.19,1.09,1.85,1.56,2.55,1.98,5.25,3.78,8.08,5.35,5.65,3.16,11.66,5.8,17.87,7.15l2.33,.49,2.36,.32c.39,.05,.78,.12,1.18,.15l1.19,.09c.8,.05,1.58,.14,2.39,.15,3.2,.13,6.49,.04,9.86,.11,3.36,.01,6.82,.36,10.23,.94,1.68,.38,3.41,.66,5.05,1.2l2.49,.74c.82,.26,1.61,.6,2.42,.89l2.41,.92,2.33,1.07,2.33,1.08c.78,.35,1.51,.8,2.27,1.19,1.5,.83,3.03,1.58,4.47,2.56,1.45,.93,2.94,1.82,4.31,2.91l2.09,1.57,1.98,1.74,.99,.87c.33,.29,.62,.62,.93,.93l1.85,1.88c2.34,2.6,4.46,5.34,6.43,8,1.95,2.64,3.89,5.12,5.95,7.4l1.61,1.63c.27,.27,.53,.55,.81,.8l.86,.75,1.72,1.5,1.84,1.37c1.19,.95,2.53,1.74,3.83,2.57,1.27,.87,2.69,1.55,4.05,2.31,.69,.36,1.36,.77,2.07,1.09l2.13,.98,2.12,.97,2.16,.81c.72,.26,1.43,.56,2.15,.79l2.18,.63c1.44,.48,2.92,.7,4.38,1.03,2.96,.48,5.9,.79,9.07,.8,3.16,.06,6.47-.03,10.02,.11,.87,.01,1.78,.12,2.67,.17l1.34,.1c.45,.04,.9,.12,1.35,.17l2.71,.38,2.68,.57,1.34,.29c.45,.09,.87,.25,1.31,.37l2.61,.78c.89,.24,1.7,.59,2.54,.9l2.51,.96c.43,.15,.83,.33,1.23,.52l1.2,.56,2.41,1.12c.81,.35,1.59,.78,2.36,1.21l2.33,1.27c3.1,1.73,6.13,3.75,9.02,6.02,.74,.54,1.4,1.2,2.11,1.79,.68,.62,1.42,1.2,2.05,1.87l1.94,1.98c.66,.65,1.21,1.37,1.82,2.05,.6,.69,1.2,1.38,1.73,2.08l1.63,2.08,2.99,3.98c1.94,2.54,3.76,4.86,5.82,6.84,.97,1.06,2.11,1.93,3.16,2.88,.53,.48,1.15,.87,1.71,1.31,.58,.42,1.14,.87,1.74,1.28,1.26,.77,2.47,1.59,3.75,2.34l3.96,2.14-6.83,12.89Z"/><path class="o" d="M245.78,366.63l-4.63-2.78c-1.52-.99-3.01-2.08-4.51-3.12-.74-.56-1.45-1.17-2.17-1.75-.71-.6-1.46-1.15-2.13-1.8-1.35-1.31-2.76-2.55-3.97-3.97-2.57-2.74-4.7-5.74-6.63-8.53l-2.77-4.07-1.34-1.88c-.44-.64-.9-1.22-1.36-1.79-.47-.57-.89-1.19-1.39-1.72l-1.45-1.62c-.47-.56-1.03-1.02-1.54-1.53-.53-.49-1.01-1.04-1.59-1.49-2.22-1.9-4.61-3.68-7.2-5.28l-1.96-1.19c-.65-.4-1.3-.8-1.99-1.14-1.36-.69-2.71-1.46-4.08-2.09l-2.07-.9c-.69-.29-1.38-.64-2.08-.85l-2.1-.73c-.35-.12-.7-.26-1.05-.35l-1.07-.28-2.14-.56-2.18-.4c-.37-.06-.72-.15-1.1-.2l-1.12-.13c-.75-.08-1.48-.21-2.26-.25-3.04-.27-6.34-.34-9.77-.56-3.43-.16-7.06-.68-10.58-1.44-1.74-.47-3.52-.84-5.19-1.47l-2.54-.87c-.83-.31-1.63-.69-2.45-1.03l-2.43-1.05-2.33-1.19-2.32-1.2c-.78-.39-1.5-.88-2.25-1.31-1.48-.91-3-1.74-4.42-2.8-1.44-1.01-2.9-1.98-4.24-3.15l-2.05-1.69-1.93-1.84-.96-.92c-.32-.31-.6-.65-.9-.98l-1.78-1.98c-2.25-2.72-4.24-5.55-6.09-8.3-1.83-2.73-3.65-5.3-5.61-7.7l-1.54-1.72c-.26-.28-.5-.59-.78-.85l-.83-.8-1.67-1.61-1.8-1.48c-1.16-1.03-2.48-1.89-3.76-2.81-1.25-.95-2.66-1.71-4.01-2.54-.69-.4-1.35-.85-2.06-1.21l-2.12-1.1-2.12-1.1-2.17-.94c-.73-.31-1.44-.65-2.18-.93l-2.23-.77c-1.47-.57-3.01-.88-4.52-1.3-3.07-.66-6.18-1.14-9.41-1.29-3.23-.22-6.54-.27-9.93-.57-.84-.05-1.69-.19-2.54-.28l-1.27-.15c-.42-.05-.84-.15-1.26-.22l-2.52-.46-2.48-.64c-6.62-1.77-12.71-4.81-18.4-8.34-2.86-1.76-5.58-3.76-8.14-5.95-.66-.52-1.23-1.15-1.85-1.72-.59-.6-1.24-1.14-1.79-1.78l-1.69-1.88c-.58-.61-1.06-1.3-1.59-1.95-2.09-2.62-3.9-5.41-5.76-8.12-1.87-2.7-3.76-5.38-6-7.77-1.05-1.26-2.29-2.33-3.46-3.48-.59-.58-1.25-1.06-1.88-1.59-.64-.52-1.26-1.06-1.91-1.55-1.35-.93-2.68-1.92-4.05-2.82l-4.24-2.55,4.36,2.36c1.42,.84,2.8,1.76,4.2,2.64,.68,.47,1.33,.98,2,1.48,.65,.51,1.35,.97,1.97,1.52,1.23,1.11,2.54,2.15,3.67,3.37,2.39,2.33,4.45,4.96,6.45,7.6,2,2.65,3.91,5.31,6.06,7.76,.54,.6,1.04,1.25,1.62,1.82l1.7,1.73c.55,.59,1.2,1.08,1.8,1.63,.62,.52,1.19,1.09,1.85,1.56,2.55,1.98,5.25,3.78,8.08,5.35,5.65,3.16,11.66,5.8,17.87,7.15l2.33,.49,2.36,.32c.39,.05,.78,.12,1.18,.15l1.19,.09c.8,.05,1.58,.14,2.39,.15,3.2,.13,6.49,.04,9.86,.11,3.36,.01,6.82,.36,10.23,.94,1.68,.38,3.41,.66,5.05,1.2l2.49,.74c.82,.26,1.61,.6,2.42,.89l2.41,.92,2.33,1.07,2.33,1.08c.78,.35,1.51,.8,2.27,1.19,1.5,.83,3.03,1.58,4.47,2.56,1.45,.93,2.94,1.82,4.31,2.91l2.09,1.57,1.98,1.74,.99,.87c.33,.29,.62,.62,.93,.93l1.85,1.88c2.34,2.6,4.46,5.34,6.43,8,1.95,2.64,3.89,5.12,5.95,7.4l1.61,1.63c.27,.27,.53,.55,.81,.8l.86,.75,1.72,1.5,1.84,1.37c1.19,.95,2.53,1.74,3.83,2.57,1.27,.87,2.69,1.55,4.05,2.31,.69,.36,1.36,.77,2.07,1.09l2.13,.98,2.12,.97,2.16,.81c.72,.26,1.43,.56,2.15,.79l2.18,.63c1.44,.48,2.92,.7,4.38,1.03,2.96,.48,5.9,.79,9.07,.8,3.16,.06,6.47-.03,10.02,.11,.87,.01,1.78,.12,2.67,.17l1.34,.1c.45,.04,.9,.12,1.35,.17l2.71,.38,2.68,.57,1.34,.29c.45,.09,.87,.25,1.31,.37l2.61,.78c.89,.24,1.7,.59,2.54,.9l2.51,.96c.43,.15,.83,.33,1.23,.52l1.2,.56,2.41,1.12c.81,.35,1.59,.78,2.36,1.21l2.33,1.27c3.1,1.73,6.13,3.75,9.02,6.02,.74,.54,1.4,1.2,2.11,1.79,.68,.62,1.42,1.2,2.05,1.87l1.94,1.98c.66,.65,1.21,1.37,1.82,2.05,.6,.69,1.2,1.38,1.73,2.08l1.63,2.08,2.99,3.98c1.94,2.54,3.76,4.86,5.82,6.84,.97,1.06,2.11,1.93,3.16,2.88,.53,.48,1.15,.87,1.71,1.31,.58,.42,1.14,.87,1.74,1.28,1.26,.77,2.47,1.59,3.75,2.34l3.96,2.14-6.83,12.89Z"/><path class="o" d="M252.3,351.11l-4.63-2.78c-1.52-.99-3.01-2.08-4.51-3.12-.74-.56-1.45-1.17-2.17-1.75-.71-.6-1.46-1.15-2.13-1.8-1.35-1.31-2.76-2.55-3.97-3.97-2.57-2.74-4.7-5.74-6.63-8.53l-2.77-4.07-1.34-1.88c-.44-.64-.9-1.22-1.36-1.79-.47-.57-.89-1.19-1.39-1.72l-1.45-1.62c-.47-.56-1.03-1.02-1.54-1.53-.53-.49-1.01-1.04-1.59-1.49-2.22-1.9-4.61-3.68-7.2-5.28l-1.96-1.19c-.65-.4-1.3-.8-1.99-1.14-1.36-.69-2.71-1.46-4.08-2.09l-2.07-.9c-.69-.29-1.38-.64-2.08-.85l-2.1-.73c-.35-.12-.7-.26-1.05-.35l-1.07-.28-2.14-.56-2.18-.4c-.37-.06-.72-.15-1.1-.2l-1.12-.13c-.75-.08-1.48-.21-2.26-.25-3.04-.27-6.34-.34-9.77-.56-3.43-.16-7.06-.68-10.58-1.44-1.74-.47-3.52-.84-5.19-1.47l-2.54-.87c-.83-.31-1.63-.69-2.45-1.03l-2.43-1.05-2.33-1.19-2.32-1.2c-.78-.39-1.5-.88-2.25-1.31-1.48-.91-3-1.74-4.42-2.8-1.44-1.01-2.9-1.98-4.24-3.15l-2.05-1.69-1.93-1.84-.96-.92c-.32-.31-.6-.65-.9-.98l-1.78-1.98c-2.25-2.72-4.24-5.55-6.09-8.3-1.83-2.73-3.65-5.3-5.61-7.7l-1.54-1.72c-.26-.28-.5-.59-.78-.85l-.83-.8-1.67-1.61-1.8-1.48c-1.16-1.03-2.48-1.89-3.76-2.81-1.25-.95-2.66-1.71-4.01-2.54-.69-.4-1.35-.85-2.06-1.21l-2.12-1.1-2.12-1.1-2.17-.94c-.73-.31-1.44-.65-2.18-.93l-2.23-.77c-1.47-.57-3.01-.88-4.52-1.3-3.07-.66-6.18-1.14-9.41-1.29-3.23-.22-6.54-.27-9.93-.57-.84-.05-1.69-.19-2.54-.28l-1.27-.15c-.42-.05-.84-.15-1.26-.22l-2.52-.46-2.48-.64c-6.62-1.77-12.71-4.81-18.4-8.34-2.86-1.76-5.58-3.76-8.14-5.95-.66-.52-1.23-1.15-1.85-1.72-.59-.6-1.24-1.14-1.79-1.78l-1.69-1.88c-.58-.61-1.06-1.3-1.59-1.95-2.09-2.62-3.9-5.41-5.76-8.12-1.87-2.7-3.76-5.38-6-7.77-1.05-1.26-2.29-2.33-3.46-3.48-.59-.58-1.25-1.06-1.88-1.59-.64-.52-1.26-1.06-1.91-1.55-1.35-.93-2.68-1.92-4.05-2.82l-4.24-2.55,4.36,2.36c1.42,.84,2.8,1.76,4.2,2.64,.68,.47,1.33,.98,2,1.48,.65,.51,1.35,.97,1.97,1.52,1.23,1.11,2.54,2.15,3.67,3.37,2.39,2.33,4.45,4.96,6.45,7.6,2,2.65,3.91,5.31,6.06,7.76,.54,.6,1.04,1.25,1.62,1.82l1.7,1.73c.55,.59,1.2,1.08,1.8,1.63,.62,.52,1.19,1.09,1.85,1.56,2.55,1.98,5.25,3.78,8.08,5.35,5.65,3.16,11.66,5.8,17.87,7.15l2.33,.49,2.36,.32c.39,.05,.78,.12,1.18,.15l1.19,.09c.8,.05,1.58,.14,2.39,.15,3.2,.13,6.49,.04,9.86,.11,3.36,.01,6.82,.36,10.23,.94,1.68,.38,3.41,.66,5.05,1.2l2.49,.74c.82,.26,1.61,.6,2.42,.89l2.41,.92,2.33,1.07,2.33,1.08c.78,.35,1.51,.8,2.27,1.19,1.5,.83,3.03,1.58,4.47,2.56,1.45,.93,2.94,1.82,4.31,2.91l2.09,1.57,1.98,1.74,.99,.87c.33,.29,.62,.62,.93,.93l1.85,1.88c2.34,2.6,4.46,5.34,6.43,8,1.95,2.64,3.89,5.12,5.95,7.4l1.61,1.63c.27,.27,.53,.55,.81,.8l.86,.75,1.72,1.5,1.84,1.37c1.19,.95,2.53,1.74,3.83,2.57,1.27,.87,2.69,1.55,4.05,2.31,.69,.36,1.36,.77,2.07,1.09l2.13,.98,2.12,.97,2.16,.81c.72,.26,1.43,.56,2.15,.79l2.18,.63c1.44,.48,2.92,.7,4.38,1.03,2.96,.48,5.9,.79,9.07,.8,3.16,.06,6.47-.03,10.02,.11,.87,.01,1.78,.12,2.67,.17l1.34,.1c.45,.04,.9,.12,1.35,.17l2.71,.38,2.68,.57,1.34,.29c.45,.09,.87,.25,1.31,.37l2.61,.78c.89,.24,1.7,.59,2.54,.9l2.51,.96c.43,.15,.83,.33,1.23,.52l1.2,.56,2.41,1.12c.81,.35,1.59,.78,2.36,1.21l2.33,1.27c3.1,1.73,6.13,3.75,9.02,6.02,.74,.54,1.4,1.2,2.11,1.79,.68,.62,1.42,1.2,2.05,1.87l1.94,1.98c.66,.65,1.21,1.37,1.82,2.05,.6,.69,1.2,1.38,1.73,2.08l1.63,2.08,2.99,3.98c1.94,2.54,3.76,4.86,5.82,6.84,.97,1.06,2.11,1.93,3.16,2.88,.53,.48,1.15,.87,1.71,1.31,.58,.42,1.14,.87,1.74,1.28,1.26,.77,2.47,1.59,3.75,2.34l3.96,2.14-6.83,12.89Z"/><path class="o" d="M258.28,335.01l-4.63-2.78c-1.52-.99-3.01-2.08-4.51-3.12-.74-.56-1.45-1.17-2.17-1.75-.71-.6-1.46-1.15-2.13-1.8-1.35-1.31-2.76-2.55-3.97-3.97-2.57-2.74-4.7-5.74-6.63-8.53l-2.77-4.07-1.34-1.88c-.44-.64-.9-1.22-1.36-1.79-.47-.57-.89-1.19-1.39-1.72l-1.45-1.62c-.47-.56-1.03-1.02-1.54-1.53-.53-.49-1.01-1.04-1.59-1.49-2.22-1.9-4.61-3.68-7.2-5.28l-1.96-1.19c-.65-.4-1.3-.8-1.99-1.14-1.36-.69-2.71-1.46-4.08-2.09l-2.07-.9c-.69-.29-1.38-.64-2.08-.85l-2.1-.73c-.35-.12-.7-.26-1.05-.35l-1.07-.28-2.14-.56-2.18-.4c-.37-.06-.72-.15-1.1-.2l-1.12-.13c-.76-.08-1.48-.21-2.26-.25-3.04-.27-6.34-.34-9.77-.56-3.43-.16-7.06-.68-10.58-1.44-1.74-.47-3.52-.84-5.19-1.47l-2.54-.87c-.83-.31-1.63-.69-2.45-1.03l-2.43-1.05-2.33-1.19-2.32-1.2c-.78-.39-1.5-.88-2.25-1.31-1.48-.91-3-1.74-4.42-2.8-1.44-1.01-2.9-1.98-4.24-3.15l-2.05-1.69-1.93-1.84-.96-.92c-.32-.31-.6-.65-.9-.98l-1.78-1.98c-2.25-2.72-4.24-5.55-6.09-8.3-1.83-2.73-3.65-5.3-5.61-7.7l-1.54-1.72c-.26-.28-.5-.59-.78-.85l-.83-.8-1.67-1.61-1.8-1.48c-1.16-1.03-2.48-1.89-3.76-2.81-1.25-.95-2.66-1.71-4.01-2.54-.69-.4-1.35-.85-2.06-1.21l-2.12-1.1-2.12-1.1-2.17-.94c-.73-.31-1.45-.65-2.18-.93l-2.23-.77c-1.47-.57-3.01-.88-4.52-1.3-3.07-.66-6.18-1.14-9.41-1.29-3.23-.22-6.54-.27-9.93-.57-.84-.05-1.69-.19-2.54-.28l-1.27-.15c-.42-.05-.84-.15-1.26-.22l-2.52-.46-2.48-.64c-6.62-1.77-12.71-4.81-18.4-8.34-2.86-1.76-5.58-3.76-8.14-5.95-.66-.52-1.23-1.15-1.85-1.72-.59-.6-1.24-1.14-1.79-1.78l-1.69-1.88c-.58-.61-1.06-1.3-1.59-1.95-2.09-2.62-3.9-5.41-5.76-8.12-1.87-2.7-3.76-5.38-6-7.77-1.05-1.26-2.29-2.33-3.46-3.48-.58-.58-1.25-1.06-1.88-1.59-.64-.52-1.26-1.06-1.91-1.55-1.35-.93-2.68-1.92-4.05-2.82l-4.24-2.55,4.36,2.36c1.42,.84,2.8,1.76,4.2,2.64,.68,.47,1.33,.98,2,1.48,.65,.51,1.35,.97,1.97,1.52,1.23,1.11,2.54,2.15,3.67,3.37,2.39,2.33,4.45,4.96,6.45,7.6,2,2.65,3.91,5.31,6.06,7.76,.54,.6,1.04,1.25,1.62,1.82l1.7,1.73c.55,.59,1.2,1.08,1.8,1.63,.62,.52,1.19,1.09,1.85,1.56,2.55,1.98,5.25,3.78,8.08,5.35,5.65,3.16,11.66,5.8,17.87,7.15l2.33,.49,2.36,.32c.39,.05,.78,.12,1.18,.15l1.19,.09c.8,.05,1.58,.14,2.39,.15,3.2,.13,6.49,.04,9.86,.11,3.36,.01,6.82,.36,10.23,.94,1.68,.38,3.41,.66,5.05,1.2l2.49,.74c.82,.26,1.61,.6,2.42,.89l2.41,.92,2.33,1.07,2.33,1.08c.78,.35,1.51,.8,2.27,1.19,1.5,.83,3.03,1.58,4.47,2.56,1.45,.93,2.94,1.82,4.31,2.91l2.09,1.57,1.98,1.74,.99,.87c.33,.29,.62,.62,.93,.93l1.85,1.88c2.34,2.6,4.46,5.34,6.43,8,1.96,2.64,3.89,5.12,5.95,7.4l1.61,1.63c.27,.27,.53,.55,.81,.8l.86,.75,1.72,1.5,1.84,1.37c1.19,.95,2.53,1.74,3.83,2.57,1.27,.87,2.69,1.55,4.05,2.31,.69,.36,1.36,.77,2.07,1.09l2.13,.98,2.12,.97,2.16,.81c.72,.26,1.43,.56,2.15,.79l2.18,.63c1.44,.48,2.92,.7,4.38,1.03,2.96,.48,5.9,.79,9.07,.8,3.16,.06,6.47-.03,10.02,.11,.87,.01,1.78,.12,2.67,.17l1.34,.1c.45,.04,.9,.12,1.35,.17l2.71,.38,2.68,.57,1.34,.29c.45,.09,.87,.25,1.31,.37l2.61,.78c.89,.24,1.7,.59,2.54,.9l2.51,.96c.43,.15,.83,.33,1.23,.52l1.2,.56,2.41,1.12c.81,.35,1.59,.78,2.36,1.21l2.33,1.27c3.1,1.73,6.13,3.75,9.02,6.02,.74,.54,1.4,1.2,2.11,1.79,.68,.62,1.42,1.2,2.05,1.87l1.94,1.98c.66,.65,1.21,1.37,1.82,2.05,.6,.69,1.2,1.38,1.73,2.08l1.63,2.08,2.99,3.98c1.94,2.54,3.76,4.86,5.82,6.84,.97,1.06,2.11,1.93,3.16,2.88,.53,.48,1.15,.87,1.71,1.31,.58,.42,1.14,.87,1.74,1.28,1.26,.77,2.47,1.59,3.75,2.34l3.96,2.14-6.83,12.89Z"/><path class="o" d="M265.18,319.23l-4.63-2.78c-1.52-.99-3.01-2.08-4.51-3.12-.74-.56-1.45-1.17-2.17-1.75-.71-.6-1.46-1.15-2.13-1.8-1.35-1.31-2.76-2.55-3.97-3.97-2.57-2.74-4.7-5.74-6.63-8.53l-2.77-4.07-1.34-1.88c-.44-.64-.9-1.22-1.36-1.79-.47-.57-.89-1.19-1.39-1.72l-1.45-1.62c-.47-.56-1.03-1.02-1.54-1.53-.53-.49-1.01-1.04-1.59-1.49-2.22-1.9-4.61-3.68-7.2-5.28l-1.96-1.19c-.65-.4-1.3-.8-1.99-1.14-1.36-.69-2.71-1.46-4.08-2.09l-2.07-.9c-.69-.29-1.38-.64-2.08-.85l-2.1-.73c-.35-.12-.7-.26-1.05-.35l-1.07-.28-2.14-.56-2.18-.4c-.37-.06-.72-.15-1.1-.2l-1.12-.13c-.76-.08-1.48-.21-2.26-.25-3.04-.27-6.34-.34-9.77-.56-3.43-.16-7.06-.68-10.58-1.44-1.74-.47-3.52-.84-5.19-1.47l-2.54-.87c-.83-.31-1.63-.69-2.45-1.03l-2.43-1.05-2.33-1.19-2.32-1.2c-.78-.39-1.5-.88-2.25-1.31-1.48-.91-3-1.74-4.42-2.8-1.44-1.01-2.9-1.98-4.24-3.15l-2.05-1.69-1.93-1.84-.96-.92c-.32-.31-.6-.65-.9-.98l-1.78-1.98c-2.25-2.72-4.24-5.55-6.09-8.3-1.83-2.73-3.65-5.3-5.61-7.7l-1.54-1.72c-.26-.28-.5-.59-.78-.85l-.83-.8-1.67-1.61-1.8-1.48c-1.16-1.03-2.48-1.89-3.76-2.81-1.25-.95-2.66-1.71-4.01-2.54-.69-.4-1.35-.85-2.06-1.21l-2.12-1.1-2.12-1.1-2.17-.94c-.73-.31-1.45-.65-2.18-.93l-2.23-.77c-1.47-.57-3.01-.88-4.52-1.3-3.07-.66-6.18-1.14-9.41-1.29-3.23-.22-6.54-.27-9.93-.57-.84-.05-1.69-.19-2.54-.28l-1.27-.15c-.42-.05-.84-.15-1.26-.22l-2.52-.46-2.48-.64c-6.62-1.77-12.71-4.81-18.4-8.34-2.86-1.76-5.58-3.76-8.14-5.95-.66-.52-1.23-1.15-1.85-1.72-.59-.6-1.24-1.14-1.79-1.78l-1.69-1.88c-.58-.61-1.06-1.3-1.59-1.95-2.09-2.62-3.9-5.41-5.76-8.12-1.87-2.7-3.76-5.38-6-7.77-1.05-1.26-2.29-2.33-3.46-3.48-.58-.58-1.25-1.06-1.88-1.59-.64-.52-1.26-1.06-1.91-1.55-1.35-.93-2.68-1.92-4.05-2.82l-4.24-2.55,4.36,2.36c1.42,.84,2.8,1.76,4.2,2.64,.68,.47,1.33,.98,2,1.48,.65,.51,1.35,.97,1.97,1.52,1.23,1.11,2.54,2.15,3.67,3.37,2.39,2.33,4.45,4.96,6.45,7.6,2,2.65,3.91,5.31,6.06,7.76,.54,.6,1.04,1.25,1.62,1.82l1.7,1.73c.55,.59,1.2,1.08,1.8,1.63,.62,.52,1.19,1.09,1.85,1.56,2.55,1.98,5.25,3.78,8.08,5.35,5.65,3.16,11.66,5.8,17.87,7.15l2.33,.49,2.36,.32c.39,.05,.78,.12,1.18,.15l1.19,.09c.8,.05,1.58,.14,2.39,.15,3.2,.13,6.49,.04,9.86,.11,3.36,.01,6.82,.36,10.23,.94,1.68,.38,3.41,.66,5.05,1.2l2.49,.74c.82,.26,1.61,.6,2.42,.89l2.41,.92,2.33,1.07,2.33,1.08c.78,.35,1.51,.8,2.27,1.19,1.5,.83,3.03,1.58,4.47,2.56,1.45,.93,2.94,1.82,4.31,2.91l2.09,1.57,1.98,1.74,.99,.87c.33,.29,.62,.62,.93,.93l1.85,1.88c2.34,2.6,4.46,5.34,6.43,8,1.96,2.64,3.89,5.12,5.95,7.4l1.61,1.63c.27,.27,.53,.55,.81,.8l.86,.75,1.72,1.5,1.84,1.37c1.19,.95,2.53,1.74,3.83,2.57,1.27,.87,2.69,1.55,4.05,2.31,.69,.36,1.36,.77,2.07,1.09l2.13,.98,2.12,.97,2.16,.81c.72,.26,1.43,.56,2.15,.79l2.18,.63c1.44,.48,2.92,.7,4.38,1.03,2.96,.48,5.9,.79,9.07,.8,3.16,.06,6.47-.03,10.02,.11,.87,.01,1.78,.12,2.67,.17l1.34,.1c.45,.04,.9,.12,1.35,.17l2.71,.38,2.68,.57,1.34,.29c.45,.09,.87,.25,1.31,.37l2.61,.78c.89,.24,1.7,.59,2.54,.9l2.51,.96c.43,.15,.83,.33,1.23,.52l1.2,.56,2.41,1.12c.81,.35,1.59,.78,2.36,1.21l2.33,1.27c3.1,1.73,6.13,3.75,9.02,6.02,.74,.54,1.4,1.2,2.11,1.79,.68,.62,1.42,1.2,2.05,1.87l1.94,1.98c.66,.65,1.21,1.37,1.82,2.05,.6,.69,1.2,1.38,1.73,2.08l1.63,2.08,2.99,3.98c1.94,2.54,3.76,4.86,5.82,6.84,.97,1.06,2.11,1.93,3.16,2.88,.53,.48,1.15,.87,1.71,1.31,.58,.42,1.14,.87,1.74,1.28,1.26,.77,2.47,1.59,3.75,2.34l3.96,2.14-6.83,12.89Z"/><path class="o" d="M271.7,303.71l-4.63-2.78c-1.52-.99-3.01-2.08-4.51-3.12-.74-.56-1.45-1.17-2.17-1.75-.71-.6-1.46-1.15-2.13-1.8-1.35-1.31-2.76-2.55-3.97-3.97-2.57-2.74-4.7-5.74-6.63-8.53l-2.77-4.07-1.34-1.88c-.44-.64-.9-1.22-1.36-1.79-.47-.57-.89-1.19-1.39-1.72l-1.45-1.62c-.47-.56-1.03-1.02-1.54-1.53-.53-.49-1.01-1.04-1.59-1.49-2.22-1.9-4.61-3.68-7.2-5.28l-1.96-1.19c-.65-.4-1.3-.8-1.99-1.14-1.36-.69-2.71-1.46-4.08-2.09l-2.07-.9c-.69-.29-1.38-.64-2.08-.85l-2.1-.73c-.35-.12-.7-.26-1.05-.35l-1.07-.28-2.14-.56-2.18-.4c-.37-.06-.72-.15-1.1-.2l-1.12-.13c-.76-.08-1.48-.21-2.26-.25-3.04-.27-6.34-.34-9.77-.56-3.43-.16-7.06-.68-10.58-1.44-1.74-.47-3.52-.84-5.19-1.47l-2.54-.87c-.83-.31-1.63-.69-2.45-1.03l-2.43-1.05-2.33-1.19-2.32-1.2c-.78-.39-1.5-.88-2.25-1.31-1.48-.91-3-1.74-4.42-2.8-1.44-1.01-2.9-1.98-4.24-3.15l-2.05-1.69-1.93-1.84-.96-.92c-.32-.31-.6-.65-.9-.98l-1.78-1.98c-2.25-2.72-4.24-5.55-6.09-8.3-1.83-2.73-3.65-5.3-5.61-7.7l-1.54-1.72c-.26-.28-.5-.59-.78-.85l-.83-.8-1.67-1.61-1.8-1.48c-1.16-1.03-2.48-1.89-3.76-2.81-1.25-.95-2.66-1.71-4.01-2.54-.69-.4-1.35-.85-2.06-1.21l-2.12-1.1-2.12-1.1-2.17-.94c-.73-.31-1.45-.65-2.18-.93l-2.23-.77c-1.47-.57-3.01-.88-4.52-1.3-3.07-.66-6.18-1.14-9.41-1.29-3.23-.22-6.54-.27-9.93-.57-.84-.05-1.69-.19-2.54-.28l-1.27-.15c-.42-.05-.84-.15-1.26-.22l-2.52-.46-2.48-.64c-6.62-1.77-12.71-4.81-18.4-8.34-2.86-1.76-5.58-3.76-8.14-5.95-.66-.52-1.23-1.15-1.85-1.72-.59-.6-1.24-1.14-1.79-1.78l-1.69-1.88c-.58-.61-1.06-1.3-1.59-1.95-2.09-2.62-3.9-5.41-5.76-8.12-1.87-2.7-3.76-5.38-6-7.77-1.05-1.26-2.29-2.33-3.46-3.48-.58-.58-1.25-1.06-1.88-1.59-.64-.52-1.26-1.06-1.91-1.55-1.35-.93-2.68-1.92-4.05-2.82l-4.24-2.55,4.36,2.36c1.42,.84,2.8,1.76,4.2,2.64,.68,.47,1.33,.98,2,1.48,.65,.51,1.35,.97,1.97,1.52,1.23,1.11,2.54,2.15,3.67,3.37,2.39,2.33,4.45,4.96,6.45,7.6,2,2.65,3.91,5.31,6.06,7.76,.54,.6,1.04,1.25,1.62,1.82l1.7,1.73c.55,.59,1.2,1.08,1.8,1.63,.62,.52,1.19,1.09,1.85,1.56,2.55,1.98,5.25,3.78,8.08,5.35,5.65,3.16,11.66,5.8,17.87,7.15l2.33,.49,2.36,.32c.39,.05,.78,.12,1.18,.15l1.19,.09c.8,.05,1.58,.14,2.39,.15,3.2,.13,6.49,.04,9.86,.11,3.36,.01,6.82,.36,10.23,.94,1.68,.38,3.41,.66,5.05,1.2l2.49,.74c.82,.26,1.61,.6,2.42,.89l2.41,.92,2.33,1.07,2.33,1.08c.78,.35,1.51,.8,2.27,1.19,1.5,.83,3.03,1.58,4.47,2.56,1.45,.93,2.94,1.82,4.31,2.91l2.09,1.57,1.98,1.74,.99,.87c.33,.29,.62,.62,.93,.93l1.85,1.88c2.34,2.6,4.46,5.34,6.43,8,1.95,2.64,3.89,5.12,5.95,7.4l1.61,1.63c.27,.27,.53,.55,.81,.8l.86,.75,1.72,1.5,1.84,1.37c1.19,.95,2.53,1.74,3.83,2.57,1.27,.87,2.69,1.55,4.05,2.31,.69,.36,1.36,.77,2.07,1.09l2.13,.98,2.12,.97,2.16,.81c.72,.26,1.43,.56,2.15,.79l2.18,.63c1.44,.48,2.92,.7,4.38,1.03,2.96,.48,5.9,.79,9.07,.8,3.16,.06,6.47-.03,10.02,.11,.87,.01,1.78,.12,2.67,.17l1.34,.1c.45,.04,.9,.12,1.35,.17l2.71,.38,2.68,.57,1.34,.29c.45,.09,.87,.25,1.31,.37l2.61,.78c.89,.24,1.7,.59,2.54,.9l2.51,.96c.43,.15,.83,.33,1.23,.52l1.2,.56,2.41,1.12c.81,.35,1.59,.78,2.36,1.21l2.33,1.27c3.1,1.73,6.13,3.75,9.02,6.02,.74,.54,1.4,1.2,2.11,1.79,.68,.62,1.42,1.2,2.05,1.87l1.94,1.98c.66,.65,1.21,1.37,1.82,2.05,.6,.69,1.2,1.38,1.73,2.08l1.63,2.08,2.99,3.98c1.94,2.54,3.76,4.86,5.82,6.84,.97,1.06,2.11,1.93,3.16,2.88,.53,.48,1.15,.87,1.71,1.31,.58,.42,1.14,.87,1.74,1.28,1.26,.77,2.47,1.59,3.75,2.34l3.96,2.14-6.83,12.89Z"/></g><path class="p" d="M337.54,176.66c-18.6,9.85-42.55,7.93-61.16,17.78-18.6,9.85-31.14,31.16-49.74,41.02-18.6,9.85-43.27,8.26-61.87,18.11-18.6,9.85-31.14,31.16-49.74,41.02s-44.29,8.93-62.89,18.78c2.74,2.87,19.68,11.95,33.6,22.4,8.04,6.03,10.79,23.39,21.86,29.28,9.51,5.06,25.04-2.2,36.44,1.41,10.46,3.31,19.08,18.39,30.87,19.48,10.89,1.01,21.98-11.99,33.8-13.65,16.44-2.31,36.03,4.88,50.92-2.26,14.96-7.18,21.89-27.21,34.35-37.87,12.83-10.97,33.62-14.77,42.83-27.91,9.97-14.23,6.01-34.88,10.51-49.79,5.12-16.97,18.79-33.43,15.07-48.61-.69-2.83-13.91-1.74-14.89-4.35-1.02-2.72,9.66-10.55,8.39-13.04-1.32-2.59-13.97,1.43-15.49-.92-1.59-2.44,7.23-12.32,5.5-14.5-1.83-2.3-6.47,5.64-8.36,3.63Z"/><g><path class="o" d="M45,309.59l5.08-2.41c1.73-.75,3.53-1.41,5.29-2.11,.9-.32,1.84-.58,2.75-.88,.93-.27,1.83-.6,2.78-.81,1.9-.42,3.77-.93,5.7-1.17,3.83-.66,7.65-.8,11.22-.89l5.21-.09c1.64-.07,3.31-.09,4.88-.26,.79-.08,1.6-.1,2.37-.24l2.33-.35c.78-.09,1.53-.33,2.3-.48,.76-.19,1.54-.3,2.29-.55,3.03-.87,6.05-1.96,9.02-3.33l2.22-1.05c.74-.35,1.49-.69,2.2-1.1,1.42-.81,2.9-1.55,4.28-2.4l2.04-1.31c.67-.45,1.39-.85,2-1.35l1.91-1.44c.31-.25,.65-.47,.95-.73l.89-.79,1.79-1.58,1.67-1.71c.28-.29,.57-.56,.83-.86l.79-.92c.52-.62,1.07-1.2,1.58-1.86,2.06-2.54,4.07-5.39,6.28-8.24,2.16-2.89,4.72-5.71,7.42-8.31,1.42-1.23,2.77-2.55,4.29-3.63l2.23-1.69c.75-.54,1.54-1.02,2.31-1.53l2.32-1.5,2.39-1.33,2.39-1.32c.79-.45,1.64-.8,2.45-1.2,1.66-.77,3.26-1.61,5-2.24,1.71-.67,3.4-1.38,5.19-1.88l2.65-.82,2.72-.62,1.36-.31c.45-.1,.92-.15,1.37-.23l2.75-.42c3.67-.4,7.3-.52,10.79-.56,3.48-.04,6.83-.16,10.12-.51l2.45-.37c.41-.07,.82-.11,1.22-.2l1.21-.27,2.42-.55,2.38-.73c1.6-.43,3.15-1.1,4.71-1.7,1.58-.56,3.08-1.35,4.62-2.06,.76-.37,1.55-.69,2.28-1.11l2.22-1.23,2.22-1.23,2.12-1.37c.7-.46,1.43-.9,2.11-1.38l2-1.52c1.38-.97,2.56-2.14,3.84-3.23,2.41-2.32,4.68-4.79,6.74-7.54,2.1-2.71,4.12-5.57,6.36-8.35,.54-.7,1.16-1.36,1.73-2.05l.88-1.02c.3-.34,.62-.65,.93-.97l1.88-1.93,2.02-1.79c5.43-4.74,11.64-8.29,18.06-11.23,3.21-1.48,6.55-2.71,9.96-3.69,.84-.28,1.73-.42,2.59-.63,.87-.18,1.72-.43,2.6-.55l2.63-.4c.87-.15,1.76-.18,2.64-.27,3.52-.32,7.03-.31,10.5-.39,3.47-.09,6.94-.21,10.36-.8,1.72-.2,3.39-.67,5.09-1.03,.85-.18,1.66-.49,2.5-.73,.83-.26,1.67-.49,2.49-.78,1.61-.65,3.25-1.24,4.85-1.93l4.73-2.24-4.64,2.42c-1.57,.75-3.19,1.41-4.79,2.13-.81,.32-1.65,.59-2.47,.89-.83,.27-1.64,.62-2.49,.83-1.7,.43-3.38,.97-5.11,1.25-3.44,.73-6.96,1-10.45,1.22-3.49,.21-6.96,.33-10.38,.78-.85,.13-1.71,.18-2.55,.36l-2.53,.48c-.85,.14-1.66,.42-2.49,.63-.82,.24-1.66,.4-2.47,.7-3.25,1.08-6.43,2.38-9.49,3.94-6.13,3.1-12.01,6.79-16.93,11.44l-1.83,1.75-1.7,1.88c-.28,.32-.57,.62-.84,.95l-.79,1c-.52,.67-1.07,1.31-1.57,2.01-2.04,2.73-3.93,5.65-5.99,8.53-2.01,2.92-4.37,5.7-6.88,8.31-1.33,1.23-2.58,2.56-4.02,3.66l-2.11,1.72c-.71,.56-1.47,1.05-2.2,1.57l-2.22,1.55-2.3,1.4-2.31,1.39c-.76,.47-1.58,.85-2.37,1.27-1.6,.81-3.16,1.71-4.85,2.39-1.66,.72-3.3,1.49-5.05,2.04l-2.59,.9-2.66,.71-1.33,.35c-.44,.12-.9,.18-1.35,.27l-2.71,.51c-3.63,.53-7.25,.79-10.74,.97-3.47,.17-6.81,.43-10.07,.91l-2.41,.47c-.4,.08-.81,.14-1.2,.24l-1.18,.32-2.36,.64-2.32,.82c-1.56,.49-3.06,1.21-4.57,1.86-1.53,.61-2.98,1.46-4.46,2.21-.73,.4-1.49,.74-2.2,1.18l-2.14,1.29-2.13,1.29-2.01,1.42c-.66,.48-1.36,.93-2,1.43l-1.88,1.55c-1.3,.99-2.39,2.17-3.57,3.26-2.23,2.34-4.29,4.76-6.2,7.53-1.96,2.74-3.85,5.68-6.07,8.64-.53,.74-1.15,1.46-1.72,2.2l-.88,1.09c-.3,.36-.63,.71-.94,1.06l-1.91,2.1-2.06,1.97-1.03,.98c-.34,.33-.72,.61-1.08,.91l-2.19,1.79c-.72,.62-1.5,1.12-2.26,1.67l-2.3,1.61c-1.55,1.04-3.15,1.93-4.73,2.9-.78,.5-1.6,.92-2.43,1.34l-2.46,1.28c-3.31,1.68-6.81,3.12-10.43,4.31-.89,.33-1.84,.52-2.76,.78-.93,.23-1.85,.53-2.8,.69l-2.83,.54c-.95,.2-1.88,.26-2.82,.4-1.9,.27-3.72,.36-5.55,.52l-5.24,.3c-3.39,.22-6.56,.47-9.58,1.12-1.54,.24-3.01,.73-4.51,1.11-.75,.19-1.48,.51-2.21,.75-.73,.27-1.47,.5-2.2,.79-1.45,.66-2.91,1.25-4.35,1.94l-4.29,2.24-6.15-11.46Z"/><path class="o" d="M51.04,326.27l5.08-2.41c1.73-.75,3.53-1.41,5.29-2.11,.9-.32,1.84-.58,2.75-.88,.93-.27,1.83-.6,2.78-.81,1.9-.42,3.77-.93,5.7-1.17,3.83-.66,7.65-.8,11.22-.89l5.21-.09c1.64-.07,3.31-.09,4.88-.26,.79-.08,1.6-.1,2.37-.24l2.33-.35c.78-.09,1.53-.33,2.3-.48,.76-.19,1.54-.3,2.29-.55,3.03-.87,6.05-1.96,9.02-3.33l2.22-1.05c.74-.35,1.49-.69,2.2-1.1,1.42-.81,2.9-1.55,4.28-2.4l2.04-1.31c.67-.45,1.39-.85,2-1.35l1.91-1.44c.31-.25,.65-.47,.95-.73l.89-.79,1.79-1.58,1.67-1.71c.28-.29,.57-.56,.83-.86l.79-.92c.52-.62,1.07-1.2,1.58-1.86,2.06-2.54,4.07-5.39,6.28-8.24,2.16-2.89,4.72-5.71,7.42-8.31,1.42-1.23,2.77-2.55,4.29-3.63l2.23-1.69c.75-.54,1.54-1.02,2.31-1.53l2.32-1.5,2.39-1.33,2.39-1.32c.79-.45,1.64-.8,2.45-1.2,1.66-.77,3.26-1.61,5-2.24,1.71-.67,3.4-1.38,5.19-1.88l2.65-.82,2.72-.62,1.36-.31c.45-.1,.92-.15,1.37-.23l2.75-.42c3.67-.4,7.3-.52,10.79-.56,3.48-.04,6.83-.16,10.12-.51l2.45-.37c.41-.07,.82-.11,1.22-.2l1.21-.27,2.42-.55,2.38-.73c1.6-.43,3.15-1.1,4.71-1.7,1.58-.56,3.08-1.35,4.62-2.06,.76-.37,1.55-.69,2.28-1.11l2.22-1.23,2.22-1.23,2.12-1.37c.7-.46,1.43-.9,2.11-1.38l2-1.52c1.38-.97,2.56-2.14,3.84-3.23,2.41-2.32,4.68-4.79,6.74-7.54,2.1-2.71,4.12-5.57,6.36-8.35,.54-.7,1.16-1.36,1.73-2.05l.88-1.02c.3-.34,.62-.65,.93-.97l1.88-1.93,2.02-1.79c5.43-4.74,11.64-8.29,18.06-11.23,3.21-1.48,6.55-2.71,9.96-3.69,.84-.28,1.73-.42,2.59-.63,.87-.18,1.72-.43,2.6-.55l2.63-.4c.87-.15,1.76-.18,2.64-.27,3.52-.32,7.03-.31,10.5-.39,3.47-.09,6.94-.21,10.36-.8,1.72-.2,3.39-.67,5.09-1.03,.85-.18,1.66-.49,2.5-.73,.83-.26,1.67-.49,2.49-.78,1.61-.65,3.25-1.24,4.85-1.93l4.73-2.24-4.64,2.42c-1.57,.75-3.19,1.41-4.79,2.13-.81,.32-1.65,.59-2.47,.89-.83,.27-1.64,.61-2.49,.83-1.7,.43-3.38,.97-5.11,1.25-3.44,.73-6.96,1-10.45,1.22-3.49,.21-6.96,.33-10.38,.78-.85,.13-1.71,.18-2.55,.36l-2.53,.48c-.85,.14-1.66,.42-2.49,.63-.82,.24-1.66,.4-2.47,.7-3.25,1.08-6.43,2.38-9.49,3.94-6.13,3.1-12.01,6.79-16.93,11.44l-1.83,1.75-1.7,1.88c-.28,.32-.57,.62-.84,.95l-.79,1c-.52,.67-1.07,1.31-1.57,2.01-2.04,2.73-3.93,5.65-5.99,8.53-2.01,2.92-4.37,5.7-6.88,8.31-1.33,1.23-2.58,2.56-4.02,3.66l-2.11,1.72c-.71,.56-1.47,1.05-2.2,1.57l-2.22,1.55-2.3,1.4-2.31,1.39c-.76,.47-1.58,.85-2.37,1.27-1.6,.81-3.16,1.71-4.85,2.39-1.66,.72-3.3,1.49-5.05,2.04l-2.59,.9-2.66,.71-1.33,.35c-.44,.12-.9,.18-1.35,.27l-2.71,.51c-3.63,.53-7.24,.79-10.74,.97-3.47,.17-6.81,.43-10.07,.91l-2.41,.47c-.4,.08-.81,.14-1.2,.24l-1.18,.32-2.36,.64-2.32,.82c-1.56,.49-3.06,1.21-4.57,1.86-1.53,.61-2.98,1.46-4.46,2.21-.73,.4-1.49,.74-2.2,1.18l-2.14,1.29-2.13,1.29-2.01,1.42c-.66,.48-1.36,.93-2,1.43l-1.88,1.55c-1.3,.99-2.39,2.17-3.57,3.26-2.23,2.34-4.29,4.76-6.2,7.53-1.96,2.74-3.85,5.68-6.07,8.64-.53,.74-1.15,1.46-1.72,2.2l-.88,1.09c-.3,.36-.63,.71-.94,1.06l-1.91,2.1-2.06,1.97-1.03,.98c-.34,.33-.72,.61-1.08,.91l-2.19,1.79c-.72,.62-1.5,1.12-2.26,1.67l-2.3,1.61c-1.55,1.04-3.15,1.93-4.73,2.9-.78,.5-1.6,.92-2.43,1.34l-2.46,1.28c-3.31,1.68-6.81,3.12-10.43,4.31-.89,.33-1.84,.52-2.76,.78-.93,.23-1.85,.53-2.8,.69l-2.83,.54c-.95,.2-1.88,.26-2.82,.4-1.9,.27-3.72,.36-5.55,.52l-5.24,.3c-3.39,.22-6.56,.47-9.58,1.12-1.54,.24-3.01,.73-4.51,1.11-.75,.19-1.48,.51-2.21,.75-.73,.27-1.47,.5-2.2,.79-1.45,.66-2.91,1.25-4.35,1.94l-4.29,2.24-6.15-11.46Z"/><path class="o" d="M57.16,342.43l5.08-2.41c1.73-.75,3.53-1.41,5.29-2.11,.9-.32,1.84-.58,2.75-.88,.93-.27,1.83-.6,2.78-.81,1.9-.42,3.77-.93,5.7-1.17,3.83-.66,7.65-.8,11.22-.89l5.21-.09c1.64-.07,3.31-.09,4.88-.26,.79-.08,1.6-.1,2.37-.24l2.33-.35c.78-.09,1.53-.33,2.3-.48,.76-.19,1.54-.3,2.29-.55,3.03-.87,6.05-1.96,9.02-3.33l2.22-1.05c.74-.35,1.49-.69,2.2-1.1,1.42-.81,2.9-1.55,4.28-2.4l2.04-1.31c.67-.45,1.39-.85,2-1.35l1.91-1.44c.31-.25,.65-.47,.95-.73l.89-.79,1.79-1.58,1.67-1.71c.28-.29,.57-.56,.83-.86l.79-.92c.52-.62,1.07-1.2,1.58-1.86,2.06-2.54,4.07-5.39,6.28-8.24,2.16-2.89,4.72-5.71,7.42-8.31,1.42-1.23,2.77-2.55,4.29-3.63l2.23-1.69c.75-.54,1.54-1.02,2.31-1.53l2.32-1.5,2.39-1.33,2.39-1.32c.79-.45,1.64-.8,2.45-1.2,1.66-.77,3.26-1.61,5-2.24,1.71-.67,3.4-1.38,5.19-1.88l2.65-.82,2.72-.62,1.36-.31c.45-.1,.92-.15,1.37-.23l2.75-.42c3.67-.4,7.3-.52,10.79-.56,3.48-.04,6.83-.16,10.12-.51l2.45-.37c.41-.07,.82-.11,1.22-.2l1.21-.27,2.42-.55,2.38-.73c1.6-.43,3.15-1.1,4.71-1.7,1.58-.56,3.08-1.35,4.62-2.06,.76-.37,1.55-.69,2.28-1.11l2.22-1.23,2.22-1.23,2.12-1.37c.7-.46,1.43-.9,2.11-1.38l2-1.52c1.38-.97,2.56-2.14,3.84-3.23,2.41-2.32,4.68-4.79,6.74-7.54,2.1-2.71,4.12-5.57,6.36-8.35,.54-.7,1.16-1.36,1.73-2.05l.88-1.02c.3-.34,.62-.65,.93-.97l1.88-1.93,2.02-1.79c5.43-4.74,11.64-8.29,18.06-11.23,3.21-1.48,6.55-2.71,9.96-3.69,.84-.28,1.73-.42,2.59-.63,.87-.18,1.72-.43,2.6-.55l2.63-.4c.87-.15,1.76-.18,2.64-.27,3.52-.32,7.03-.31,10.5-.39,3.47-.09,6.94-.21,10.36-.8,1.72-.2,3.39-.67,5.09-1.03,.85-.18,1.66-.49,2.5-.73,.83-.26,1.67-.49,2.49-.78,1.61-.65,3.25-1.24,4.85-1.93l4.73-2.24-4.64,2.42c-1.57,.75-3.19,1.41-4.79,2.13-.81,.32-1.65,.59-2.47,.89-.83,.27-1.64,.62-2.49,.83-1.7,.43-3.38,.97-5.11,1.25-3.44,.73-6.96,1-10.45,1.22-3.49,.21-6.96,.33-10.38,.78-.85,.13-1.71,.18-2.55,.36l-2.53,.48c-.85,.14-1.66,.42-2.49,.63-.82,.24-1.66,.4-2.47,.7-3.25,1.08-6.43,2.38-9.49,3.94-6.13,3.1-12.01,6.79-16.93,11.44l-1.83,1.75-1.7,1.88c-.28,.32-.57,.62-.84,.95l-.79,1c-.52,.67-1.07,1.31-1.57,2.01-2.04,2.73-3.93,5.65-5.99,8.53-2.01,2.92-4.37,5.7-6.88,8.31-1.33,1.23-2.58,2.56-4.02,3.66l-2.11,1.72c-.71,.56-1.47,1.05-2.2,1.57l-2.22,1.55-2.3,1.4-2.31,1.39c-.76,.47-1.58,.85-2.37,1.27-1.6,.81-3.16,1.71-4.85,2.39-1.66,.72-3.3,1.49-5.05,2.04l-2.59,.9-2.66,.71-1.33,.35c-.44,.12-.9,.18-1.35,.27l-2.71,.51c-3.63,.53-7.24,.79-10.74,.97-3.47,.17-6.81,.43-10.07,.91l-2.41,.47c-.4,.08-.81,.14-1.2,.24l-1.18,.32-2.36,.64-2.32,.82c-1.56,.49-3.06,1.21-4.57,1.86-1.53,.61-2.98,1.46-4.46,2.21-.73,.4-1.49,.74-2.2,1.18l-2.14,1.29-2.13,1.29-2.01,1.42c-.66,.48-1.36,.93-2,1.43l-1.88,1.55c-1.3,.99-2.39,2.17-3.57,3.26-2.23,2.34-4.29,4.76-6.2,7.53-1.96,2.74-3.85,5.68-6.07,8.64-.53,.74-1.15,1.46-1.72,2.2l-.88,1.09c-.3,.36-.63,.71-.94,1.06l-1.91,2.1-2.06,1.97-1.03,.98c-.34,.33-.72,.61-1.08,.91l-2.19,1.79c-.72,.62-1.5,1.12-2.26,1.67l-2.3,1.61c-1.55,1.04-3.15,1.93-4.73,2.9-.78,.5-1.6,.92-2.43,1.34l-2.46,1.28c-3.31,1.68-6.81,3.12-10.43,4.31-.89,.33-1.84,.52-2.76,.78-.93,.23-1.85,.53-2.8,.69l-2.83,.54c-.95,.2-1.88,.26-2.82,.4-1.9,.27-3.72,.36-5.55,.52l-5.24,.3c-3.39,.22-6.56,.47-9.58,1.12-1.54,.24-3.01,.73-4.51,1.11-.75,.19-1.48,.51-2.21,.75-.73,.27-1.47,.5-2.2,.79-1.45,.66-2.91,1.25-4.35,1.94l-4.29,2.24-6.15-11.46Z"/><path class="o" d="M64.04,358.47l5.08-2.41c1.73-.75,3.53-1.41,5.29-2.11,.9-.32,1.84-.58,2.75-.88,.93-.27,1.83-.6,2.78-.81,1.9-.42,3.77-.93,5.7-1.17,3.83-.66,7.65-.8,11.22-.89l5.21-.09c1.64-.07,3.31-.09,4.88-.26,.79-.08,1.6-.1,2.37-.24l2.33-.35c.78-.09,1.53-.33,2.3-.48,.76-.19,1.54-.3,2.29-.55,3.03-.87,6.05-1.96,9.02-3.33l2.22-1.05c.74-.35,1.49-.69,2.2-1.1,1.42-.81,2.9-1.55,4.28-2.4l2.04-1.31c.67-.45,1.39-.85,2-1.35l1.91-1.44c.31-.25,.65-.47,.95-.73l.89-.79,1.79-1.58,1.67-1.71c.28-.29,.57-.56,.83-.86l.79-.92c.52-.62,1.07-1.2,1.58-1.86,2.06-2.54,4.07-5.39,6.28-8.24,2.16-2.89,4.72-5.71,7.42-8.31,1.42-1.23,2.77-2.55,4.29-3.63l2.23-1.69c.75-.54,1.54-1.02,2.31-1.53l2.32-1.5,2.39-1.33,2.39-1.32c.79-.45,1.64-.8,2.45-1.2,1.66-.77,3.26-1.61,5-2.24,1.71-.67,3.4-1.38,5.19-1.88l2.65-.82,2.72-.62,1.36-.31c.45-.1,.92-.15,1.37-.23l2.75-.42c3.67-.4,7.3-.52,10.79-.56,3.48-.04,6.83-.16,10.12-.51l2.45-.37c.41-.07,.82-.11,1.22-.2l1.21-.27,2.42-.55,2.38-.73c1.6-.43,3.15-1.1,4.71-1.7,1.58-.56,3.08-1.35,4.62-2.06,.76-.37,1.55-.69,2.28-1.11l2.22-1.23,2.22-1.23,2.12-1.37c.7-.46,1.43-.9,2.11-1.38l2-1.52c1.38-.97,2.56-2.14,3.84-3.23,2.41-2.32,4.68-4.79,6.74-7.54,2.1-2.71,4.12-5.57,6.36-8.35,.54-.7,1.16-1.36,1.73-2.05l.88-1.02c.3-.34,.62-.65,.93-.97l1.88-1.93,2.02-1.79c5.43-4.74,11.64-8.29,18.06-11.23,3.21-1.48,6.55-2.71,9.96-3.69,.84-.28,1.73-.42,2.59-.63,.87-.18,1.72-.43,2.6-.55l2.63-.4c.87-.15,1.76-.18,2.64-.27,3.52-.32,7.03-.31,10.5-.39,3.47-.09,6.94-.21,10.36-.8,1.72-.2,3.39-.67,5.09-1.03,.85-.18,1.66-.49,2.5-.73,.83-.26,1.67-.49,2.49-.78,1.61-.65,3.25-1.24,4.85-1.93l4.73-2.24-4.64,2.42c-1.57,.75-3.19,1.41-4.79,2.13-.81,.32-1.65,.59-2.47,.89-.83,.27-1.64,.62-2.49,.83-1.7,.43-3.38,.97-5.11,1.25-3.44,.73-6.96,1-10.45,1.22-3.49,.21-6.96,.33-10.38,.78-.85,.13-1.71,.18-2.55,.36l-2.53,.48c-.85,.14-1.66,.42-2.49,.63-.82,.24-1.66,.4-2.47,.7-3.25,1.08-6.43,2.38-9.49,3.94-6.13,3.1-12.01,6.79-16.93,11.44l-1.83,1.75-1.7,1.88c-.28,.32-.57,.62-.84,.95l-.79,1c-.52,.67-1.07,1.31-1.57,2.01-2.04,2.73-3.93,5.65-5.99,8.53-2.01,2.92-4.37,5.7-6.88,8.31-1.33,1.23-2.58,2.56-4.02,3.66l-2.11,1.72c-.71,.56-1.47,1.05-2.2,1.57l-2.22,1.55-2.3,1.4-2.31,1.39c-.76,.47-1.58,.85-2.37,1.27-1.6,.81-3.16,1.71-4.85,2.39-1.66,.72-3.3,1.49-5.05,2.04l-2.59,.9-2.66,.71-1.33,.35c-.44,.12-.9,.18-1.35,.27l-2.71,.51c-3.63,.53-7.25,.79-10.74,.97-3.47,.17-6.81,.43-10.07,.91l-2.41,.47c-.4,.08-.81,.14-1.2,.24l-1.18,.32-2.36,.64-2.32,.82c-1.56,.49-3.06,1.21-4.57,1.86-1.53,.61-2.98,1.46-4.46,2.21-.73,.4-1.49,.74-2.2,1.18l-2.14,1.29-2.13,1.29-2.01,1.42c-.66,.48-1.36,.93-2,1.43l-1.88,1.55c-1.3,.99-2.39,2.17-3.57,3.26-2.23,2.34-4.29,4.76-6.2,7.53-1.96,2.74-3.85,5.68-6.07,8.64-.53,.74-1.15,1.46-1.72,2.2l-.88,1.09c-.3,.36-.63,.71-.94,1.06l-1.91,2.1-2.06,1.97-1.03,.98c-.34,.33-.72,.61-1.08,.91l-2.19,1.79c-.72,.62-1.5,1.12-2.26,1.67l-2.3,1.61c-1.55,1.04-3.15,1.93-4.73,2.9-.78,.5-1.6,.92-2.43,1.34l-2.46,1.28c-3.31,1.68-6.81,3.12-10.43,4.31-.89,.33-1.84,.52-2.76,.78-.93,.23-1.85,.53-2.8,.69l-2.83,.54c-.95,.2-1.88,.26-2.82,.4-1.9,.27-3.72,.36-5.55,.52l-5.24,.3c-3.39,.22-6.56,.47-9.58,1.12-1.54,.24-3.01,.73-4.51,1.11-.75,.19-1.48,.51-2.21,.75-.73,.27-1.47,.5-2.2,.79-1.45,.66-2.91,1.25-4.35,1.94l-4.29,2.24-6.15-11.46Z"/></g></g></svg>