<?xml version="1.0" encoding="utf-8"?>
<!-- Generator: Adobe Illustrator 24.3.0, SVG Export Plug-In . SVG Version: 6.00 Build 0)  -->
<svg version="1.1" id="Layer_1" xmlns="http://www.w3.org/2000/svg" xmlns:xlink="http://www.w3.org/1999/xlink" x="0px" y="0px"
	 viewBox="0 0 5836.5 1986.7" style="enable-background:new 0 0 5836.5 1986.7;" xml:space="preserve">
<style type="text/css">
	.st0{fill:#5D6E7F;}
	.st1{fill:#8DA0B7;}
	.st2{fill:#121C2D;stroke:#FFFFFF;stroke-miterlimit:10;}
	.st3{fill:#2A4D84;}
	.st4{fill:#F3FAFD;}
	.st5{fill:#121C2D;}
	.st6{fill:#3F474F;}
	.st7{fill:#FAAA61;}
	.st8{fill:#464F4F;}
	.st9{fill:#1F2828;}
</style>
<rect x="5547.8" y="1637.9" transform="matrix(0.7071 -0.7071 0.7071 0.7071 418.5499 4467.4614)" class="st0" width="108.3" height="181.1"/>
<rect x="5560.7" y="1631.1" transform="matrix(0.7071 -0.7071 0.7071 0.7071 425.4086 4470.3022)" class="st1" width="96.2" height="181.1"/>
<g>
	<path class="st2" d="M2540.8,1731.6l-1058-146.5c-71.2-9.9-121-75.6-111.1-146.8l99.8-721.1c9.9-71.2,75.6-121,146.8-111.1
		l1058,146.5c71.2,9.9,121,75.6,111.1,146.8l-99.8,721.1C2677.8,1691.7,2612,1741.5,2540.8,1731.6z"/>
	<path class="st1" d="M2513.1,1701.9l-1032.6-143c-71.2-9.9-117-75.6-107.1-146.8l96.5-696.7c9.9-71.2,71.6-121,142.8-111.1
		l1032.6,143c71.2,9.9,121,75.6,111.1,146.8l-96.5,696.7C2650.1,1662,2584.4,1711.8,2513.1,1701.9z"/>
	<path class="st3" d="M1455,822.9l16.8-121.3c8.8-63.3,67-107.6,130.1-98.8l1057.8,146.5c63.1,8.7,107.2,67.2,98.4,130.5
		l-16.7,121.2"/>
	
		<ellipse transform="matrix(0.1371 -0.9906 0.9906 0.1371 1382.8364 3306.3184)" class="st4" cx="2589.1" cy="859.5" rx="14.4" ry="78.3"/>
	
		<ellipse transform="matrix(0.1371 -0.9906 0.9906 0.1371 689.408 2246.0608)" class="st4" cx="1633.9" cy="727.3" rx="14.4" ry="78.3"/>
</g>
<path class="st5" d="M1722.2,621.3l-72.3-10l6.5-46.6c2-14.2,15.1-24.1,29.3-22.1l20.9,2.9c14.2,2,24.1,15.1,22.1,29.3L1722.2,621.3
	z"/>
<path class="st6" d="M5532.4,1684.2c-114.6-106.2-295.1-197.5-595.4-67.8c-323.6,169.1-434.4,338-636,273.5
	c-206.1-66-289-281.5-297.5-540.1c-3.5-105.1,43.8-298.1,61.6-372.1c56.9-236.9,132.9-357,117.1-534.3
	c-17.4-196.2-432.9-294.8-535.3-154.4c-144.2,197.7,245.6,669.5,8.5,902.4c-174.2,171.1-431,157.6-557.5,72.5
	c-199-133.8,148.3-589.3,136.9-752.7c-10.1-145.2-395.6,150.1-732.8,35.1c-220.6-75.2-258.9-250-430.5-252.7
	c-154.6-2.5-380.4,166.7-349.8,259.5l-52.7-7.2c-3.7-159.5,255.7-308.6,423.2-305.2c171.6,3.6,209.9,177.5,430.5,252.7
	c337.2,115,628.4-161.8,737.9-59c138.9,130.5-296.7,606.7-142,776.5c88.8,97.5,361.2,82.3,483.9-47.1
	c228.2-240.7-189.8-741.7,13.1-924.8c130.6-117.9,491.7-72.5,588.2,100.8c146.9,263.7-158.4,632.1-146.9,1007.5
	c6.2,199.6,69.7,405,212.9,474.9c224.9,109.7,374.4-157.3,743.9-290.8c313.2-113.1,518,67.1,559,102.1"/>
<g>
	<path class="st5" d="M210.1,739.9c6.9-5.5,25.1-21.3,33.5-49c7.9-25.6,3.1-47.3,0.7-55.9c-0.7-0.3-1.7-0.7-2.9-0.7
		c-6.7,0-15.6,6.5-29.5,45.2c-10,27.7-11.3,50.7-5,57.7C207.8,738.3,209.4,739.7,210.1,739.9z"/>
	<path class="st6" d="M210.1,739.9l787.3,257c8.4,2.7,17.4-1.8,20.1-10.2l24.3-74.6c2.7-8.4-1.8-17.4-10.2-20.1L244.3,635
		c2.4,8.7,7.2,30.3-0.7,55.9C235.1,718.6,217,734.4,210.1,739.9z"/>
	<path class="st5" d="M997.4,996.9c2,0.7,4.1,1,6.1,1l143.6,1.8c14,0.2,18.5-13.6,7.1-21.7l-117-83.3c-1.7-1.2-3.5-2.1-5.6-2.8
		c0.6,11.9,0.2,28.6-5,47.8C1019.4,967,1006.1,986.2,997.4,996.9z"/>
	
		<rect x="256.9" y="697.3" transform="matrix(0.3103 -0.9506 0.9506 0.3103 -464.6689 789.9837)" class="st7" width="110.4" height="35.9"/>
	<g>
		<path d="M679,804l176.6,57.6c6.1,2,12.6-1.3,14.6-7.4l2.8-8.5c2-6.1-1.3-12.6-7.4-14.6l-176.7-57.6c-6.1-2-12.6,1.3-14.6,7.4
			l-2.8,8.5C669.6,795.5,672.9,802,679,804z"/>
		<path class="st5" d="M681.5,796.3l176.6,57.6c6.1,2,12.6-1.3,14.6-7.4l1.3-4c2-6.1-1.3-12.6-7.4-14.6L690,770.3
			c-6.1-2-12.6,1.3-14.6,7.4l-1.3,4C672.1,787.8,675.4,794.3,681.5,796.3z"/>
	</g>
	<path class="st8" d="M244.3,635"/>
	<path class="st9" d="M244.3,635"/>
</g>
<path class="st5" d="M5684.4,1735.4l-70.4,70.4c-5.5,5.5-14.5,5.5-20,0L5463,1674.7c-5.5-5.5-5.5-14.5,0-20l70.4-70.4
	c5.5-5.5,14.5-5.5,20,0l131.1,131.1C5690,1721,5690,1729.9,5684.4,1735.4z"/>
</svg>
