<?xml version="1.0" encoding="utf-8"?>
<!-- Generator: Adobe Illustrator 26.1.0, SVG Export Plug-In . SVG Version: 6.00 Build 0)  -->
<svg version="1.1" id="Layer_1" xmlns="http://www.w3.org/2000/svg" xmlns:xlink="http://www.w3.org/1999/xlink" x="0px" y="0px"
	 viewBox="0 0 100 100" style="enable-background:new 0 0 100 100;" xml:space="preserve">
<style type="text/css">
	.st0{fill:none;}
	.st1{fill:#EF3C5A;}
</style>
<path class="st0" d="M71.8,41.9L23.2,15.5c-1.3-0.6-2.8-0.1-3.4,1.2c-0.3,0.6-0.3,1.2-0.1,1.8L38,70.6c0.1,0.4,0.3,0.7,0.5,1
	c0.9,1,2.4,1,3.4,0.1c0.3-0.3,0.5-0.6,0.6-1L47.7,57l23.1,26.8c0.9,1.1,2.6,1.2,3.7,0.3c0,0,0,0,0,0l5.1-4.4
	c1.1-0.9,1.2-2.6,0.3-3.7c0,0,0,0,0,0L56.7,49.3l14.5-2.9c1.3-0.2,2.2-1.4,2-2.7c-0.1-0.4-0.2-0.8-0.5-1.1
	C72.5,42.3,72.1,42,71.8,41.9z"/>
<path class="st1" d="M72.8,88.2c-1.8,0-3.5-0.8-4.7-2.1L48.9,63.8l-3,8.1c-0.7,2-2.4,3.5-4.5,3.9c-2,0.4-4.1-0.2-5.5-1.8
	c-0.6-0.6-1-1.4-1.2-2.2L16.3,19.5c-1-3.2,0.8-6.5,4-7.5c1.5-0.5,3-0.3,4.4,0.3l0.2,0.1l48.6,26.3c0.8,0.4,1.5,0.9,2,1.6
	c1.3,1.6,1.7,3.7,1,5.7c-0.7,2-2.5,3.4-4.5,3.8l-8.5,1.7l19.2,22.2c2.2,2.5,1.9,6.4-0.6,8.6l-5.1,4.4C75.7,87.7,74.3,88.2,72.8,88.2
	z M46.4,50.2l26.4,30.6l3.7-3.2L50.2,47l17.4-3.5L23.8,19.8l16.5,46.9L46.4,50.2z"/>
</svg>
