<svg id="Layer_1" data-name="Layer 1" xmlns="http://www.w3.org/2000/svg" viewBox="0 0 100 100"><defs><style>.cls-1{fill:none;}.cls-2{fill:#ffa879;}</style></defs><path class="cls-1" d="M71.79,41.86,23.16,15.51a2.54,2.54,0,0,0-3.53,3L38,70.65a2.57,2.57,0,0,0,.55,1,2.39,2.39,0,0,0,4-.91L47.66,57,70.8,83.82a2.6,2.6,0,0,0,3.67.31l5.12-4.43A2.6,2.6,0,0,0,79.83,76L56.73,49.28l14.45-2.9a2.39,2.39,0,0,0,1.52-3.82A2.67,2.67,0,0,0,71.79,41.86Z"/><path class="cls-2" d="M72.81,88.24a6.13,6.13,0,0,1-4.66-2.13L48.88,63.79l-3,8.12a5.93,5.93,0,0,1-4.45,3.88A5.71,5.71,0,0,1,35.92,74a6.16,6.16,0,0,1-1.24-2.22L16.27,19.5a6,6,0,0,1,8.38-7.16l.18.09L73.39,38.75a6.08,6.08,0,0,1,2,1.58A5.72,5.72,0,0,1,76.35,46a6,6,0,0,1-4.53,3.8L63.3,51.53,82.48,73.74a6.11,6.11,0,0,1-.6,8.61l-5.12,4.42A6,6,0,0,1,72.81,88.24Zm-26.38-38L72.88,80.88l3.73-3.22L50.16,47l17.38-3.48L23.81,19.84,40.33,66.71Z"/></svg>