<?xml version="1.0" encoding="utf-8"?>
<!-- Generator: Adobe Illustrator 24.3.0, SVG Export Plug-In . SVG Version: 6.00 Build 0)  -->
<svg version="1.1" id="Layer_1" xmlns="http://www.w3.org/2000/svg" xmlns:xlink="http://www.w3.org/1999/xlink" x="0px" y="0px"
	 viewBox="0 0 1888 147" style="enable-background:new 0 0 1888 147;" xml:space="preserve">
<style type="text/css">
	.st0{fill:#FFFFFF;}
	.st1{fill:none;stroke:#332E23;stroke-width:23;stroke-miterlimit:10;}
	.st2{fill:none;stroke:#C1C6C4;stroke-width:23;stroke-miterlimit:10;}
	.st3{fill:#C1C6C4;stroke:#332E23;stroke-width:8;stroke-miterlimit:10;}
	.st4{fill:#332E23;stroke:#332E23;stroke-width:15;stroke-miterlimit:10;}
	.st5{fill:#332E23;stroke:#C1C6C4;stroke-width:8;stroke-miterlimit:10;}
	.st6{fill:#332E23;stroke:#C1C6C4;stroke-width:38;stroke-miterlimit:10;}
	.st7{fill:#332E23;stroke:#302F28;stroke-width:40;stroke-miterlimit:10;}
	.st8{fill:#C1C6C4;stroke:#000000;stroke-width:40;stroke-miterlimit:10;}
	.st9{fill:#332E23;stroke:#050505;stroke-width:20;stroke-miterlimit:10;}
	.st10{fill:#FFF424;}
	.st11{fill:none;stroke:#FFFFFF;stroke-width:5;stroke-miterlimit:10;}
	.st12{fill:#005B41;}
	.st13{fill:none;stroke:#005B41;stroke-width:2;stroke-miterlimit:10;}
	.st14{fill:#00DB87;}
	.st15{fill:#332E23;stroke:#332E23;stroke-width:20;stroke-miterlimit:10;}
	.st16{fill:none;stroke:#000000;stroke-width:23;stroke-miterlimit:10;}
	.st17{fill:#E24000;stroke:#000000;stroke-width:15;stroke-miterlimit:10;}
	.st18{fill:#E2C100;stroke:#000000;stroke-width:14;stroke-miterlimit:10;}
	.st19{fill:#332E23;stroke:#000000;stroke-width:15;stroke-miterlimit:10;}
	.st20{fill:#F74000;stroke:#FFFFFF;stroke-width:5;stroke-miterlimit:10;}
	.st21{fill:none;stroke:#FFFFFF;stroke-width:6;stroke-miterlimit:10;}
	.st22{fill:#005B41;stroke:#FFFFFF;stroke-width:6;stroke-miterlimit:10;}
	.st23{fill:#E2C100;}
	.st24{fill:#F74000;}
	.st25{fill:#332E23;stroke:#C1C6C4;stroke-width:22;stroke-miterlimit:10;}
	.st26{fill:#332E23;}
	.st27{fill:none;stroke:#332E23;stroke-width:5;stroke-miterlimit:10;}
	.st28{fill:#332E23;stroke:#C1C6C4;stroke-width:27;stroke-miterlimit:10;}
	.st29{fill:#C1C6C4;}
	.st30{fill:#FFA894;}
	.st31{fill:#FFFFFF;stroke:#332E23;stroke-width:3;stroke-miterlimit:10;}
	.st32{fill:none;stroke:#332E23;stroke-width:3;stroke-miterlimit:10;}
	.st33{fill:none;stroke:#332E23;stroke-width:6;stroke-miterlimit:10;}
	.st34{fill:#C1C6C4;stroke:#FFFFFF;stroke-width:7;stroke-miterlimit:10;}
	.st35{fill:#F74000;stroke:#FFFFFF;stroke-width:7;stroke-miterlimit:10;}
	.st36{fill:#FFA894;stroke:#FFFFFF;stroke-width:7;stroke-miterlimit:10;}
	.st37{fill:none;stroke:#F74000;stroke-width:5;stroke-miterlimit:10;}
	.st38{fill:none;stroke:#FFFFFF;stroke-width:7;stroke-miterlimit:10;}
	.st39{fill:none;stroke:#000000;stroke-width:5;stroke-miterlimit:10;}
	.st40{fill:none;}
	.st41{fill:none;stroke:#FFFFFF;stroke-width:8;stroke-miterlimit:10;}
	.st42{fill:none;stroke:#FFFFFF;stroke-width:38;stroke-miterlimit:10;}
	.st43{fill:none;stroke:#FFFFFF;stroke-width:22;stroke-miterlimit:10;}
	.st44{fill:#C0C5C3;}
	.st45{fill:#EE4423;}
	.st46{fill:none;stroke:#332E23;stroke-width:10;stroke-miterlimit:10;}
	.st47{fill:#332E23;stroke:#332E23;stroke-width:23;stroke-miterlimit:10;}
	.st48{fill:#005B41;stroke:#050505;stroke-width:20;}
	.st49{fill:#050505;}
	.st50{fill:none;stroke:#FFFFFF;stroke-width:8.5;stroke-miterlimit:10;}
</style>
<rect x="-55" y="90" class="st0" width="2061" height="133"/>
<rect x="-54.5" y="-42.5" class="st4" width="2027" height="160"/>
<line class="st27" x1="-5.5" y1="123.5" x2="1942.5" y2="123.5"/>
<line class="st46" x1="-6" y1="140.5" x2="1946" y2="140.5"/>
<g>
	<g>
		<g>
			<polygon class="st26" points="57.2,137.5 0,137.5 52.1,124 109.2,124 			"/>
			<polygon class="st26" points="167.9,137.5 110.7,137.5 162.8,124 220,124 			"/>
			<polygon class="st26" points="282.9,137.1 225.7,137.1 277.8,123.6 335,123.6 			"/>
		</g>
		<g>
			<g>
				<polygon class="st26" points="391.8,137.9 334.6,137.9 386.7,124.4 443.9,124.4 				"/>
				<polygon class="st26" points="502.5,137.9 445.4,137.9 497.4,124.4 554.6,124.4 				"/>
				<polygon class="st26" points="617.5,137.5 560.4,137.5 612.4,124 669.6,124 				"/>
			</g>
		</g>
		<g>
			<g>
				<polygon class="st26" points="726.9,137.6 669.7,137.6 721.8,124.1 779,124.1 				"/>
				<polygon class="st26" points="837.6,137.6 780.5,137.6 832.5,124.1 889.7,124.1 				"/>
				<polygon class="st26" points="952.6,137.7 895.5,137.7 947.5,124.2 1004.7,124.2 				"/>
			</g>
		</g>
		<g>
			<g>
				<polygon class="st26" points="1061.5,137.5 1004.3,137.5 1056.3,124 1113.5,124 				"/>
				<polygon class="st26" points="1172.2,137.5 1115,137.5 1167.1,124 1224.2,124 				"/>
				<polygon class="st26" points="1287.2,137.6 1230,137.6 1282.1,124.1 1339.2,124.1 				"/>
			</g>
		</g>
		<g>
			<g>
				<polygon class="st26" points="1396.2,137.6 1339,137.6 1391.1,124.1 1448.3,124.1 				"/>
				<polygon class="st26" points="1506.9,137.6 1449.8,137.6 1501.8,124.1 1559,124.1 				"/>
				<polygon class="st26" points="1621.9,137.2 1564.8,137.2 1616.8,123.7 1674,123.7 				"/>
			</g>
		</g>
	</g>
	<g>
		<g>
			<polygon class="st26" points="1725.5,138 1668.3,138 1720.4,124.5 1777.5,124.5 			"/>
			<polygon class="st26" points="1836.2,138 1779,138 1831.1,124.5 1888.3,124.5 			"/>
		</g>
	</g>
</g>
</svg>
