<?xml version="1.0" encoding="utf-8"?>
<!-- Generator: Adobe Illustrator 24.3.0, SVG Export Plug-In . SVG Version: 6.00 Build 0)  -->
<svg version="1.1" id="Layer_1" xmlns="http://www.w3.org/2000/svg" xmlns:xlink="http://www.w3.org/1999/xlink" x="0px" y="0px"
	 viewBox="0 0 36.9 42.3" style="enable-background:new 0 0 36.9 42.3;" xml:space="preserve">
<style type="text/css">
	.st0{fill:#151917;}
	.st1{fill:none;stroke:#332E23;stroke-width:23;stroke-miterlimit:10;}
	.st2{fill:none;stroke:#C1C6C4;stroke-width:23;stroke-miterlimit:10;}
	.st3{fill:#C1C6C4;stroke:#332E23;stroke-width:8;stroke-miterlimit:10;}
	.st4{fill:#332E23;stroke:#332E23;stroke-width:15;stroke-miterlimit:10;}
	.st5{fill:#332E23;stroke:#C1C6C4;stroke-width:8;stroke-miterlimit:10;}
	.st6{fill:#332E23;stroke:#C1C6C4;stroke-width:38;stroke-miterlimit:10;}
	.st7{fill:#332E23;stroke:#302F28;stroke-width:40;stroke-miterlimit:10;}
	.st8{fill:#C1C6C4;stroke:#000000;stroke-width:40;stroke-miterlimit:10;}
	.st9{fill:#332E23;stroke:#050505;stroke-width:20;stroke-miterlimit:10;}
	.st10{fill:#FFF424;}
	.st11{fill:#FFFFFF;}
	.st12{fill:none;stroke:#FFFFFF;stroke-width:5;stroke-miterlimit:10;}
	.st13{fill:#005B41;}
	.st14{fill:none;stroke:#005B41;stroke-width:2;stroke-miterlimit:10;}
	.st15{fill:#00DB87;}
	.st16{fill:#332E23;stroke:#332E23;stroke-width:20;stroke-miterlimit:10;}
	.st17{fill:none;stroke:#000000;stroke-width:23;stroke-miterlimit:10;}
	.st18{fill:#E24000;stroke:#000000;stroke-width:15;stroke-miterlimit:10;}
	.st19{fill:#E2C100;stroke:#000000;stroke-width:14;stroke-miterlimit:10;}
	.st20{fill:#332E23;stroke:#000000;stroke-width:15;stroke-miterlimit:10;}
	.st21{fill:#F74000;stroke:#FFFFFF;stroke-width:5;stroke-miterlimit:10;}
	.st22{fill:none;stroke:#FFFFFF;stroke-width:6;stroke-miterlimit:10;}
	.st23{fill:#005B41;stroke:#FFFFFF;stroke-width:6;stroke-miterlimit:10;}
	.st24{fill:#E2C100;}
	.st25{fill:#F74000;}
	.st26{fill:#332E23;stroke:#C1C6C4;stroke-width:22;stroke-miterlimit:10;}
	.st27{fill:#332E23;}
	.st28{fill:none;stroke:#332E23;stroke-width:5;stroke-miterlimit:10;}
	.st29{fill:#332E23;stroke:#C1C6C4;stroke-width:27;stroke-miterlimit:10;}
	.st30{fill:#C1C6C4;}
	.st31{fill:#FFA894;}
	.st32{fill:#FFFFFF;stroke:#332E23;stroke-width:3;stroke-miterlimit:10;}
	.st33{fill:none;stroke:#332E23;stroke-width:3;stroke-miterlimit:10;}
	.st34{fill:none;stroke:#332E23;stroke-width:6;stroke-miterlimit:10;}
	.st35{fill:#C1C6C4;stroke:#FFFFFF;stroke-width:7;stroke-miterlimit:10;}
	.st36{fill:#F74000;stroke:#FFFFFF;stroke-width:7;stroke-miterlimit:10;}
	.st37{fill:#FFA894;stroke:#FFFFFF;stroke-width:7;stroke-miterlimit:10;}
	.st38{fill:none;stroke:#F74000;stroke-width:5;stroke-miterlimit:10;}
	.st39{fill:none;stroke:#FFFFFF;stroke-width:7;stroke-miterlimit:10;}
	.st40{fill:none;stroke:#000000;stroke-width:5;stroke-miterlimit:10;}
	.st41{fill:none;}
	.st42{fill:none;stroke:#FFFFFF;stroke-width:8;stroke-miterlimit:10;}
	.st43{fill:none;stroke:#FFFFFF;stroke-width:38;stroke-miterlimit:10;}
	.st44{fill:none;stroke:#FFFFFF;stroke-width:22;stroke-miterlimit:10;}
	.st45{fill:#C0C5C3;}
	.st46{fill:#EE4423;}
	.st47{fill:#332E23;stroke:#332E23;stroke-width:23;stroke-miterlimit:10;}
	.st48{fill:#005B41;stroke:#050505;stroke-width:20;}
	.st49{fill:#050505;}
	.st50{fill:none;stroke:#FFFFFF;stroke-width:8.5;stroke-miterlimit:10;}
	.st51{fill:none;stroke:#332E23;stroke-width:10;stroke-miterlimit:10;}
</style>
<g>
	<g>
		<path class="st11" d="M18.7,8.3c-1.9-2.2-4.3-4-6.9-5.1C9.3,2.1,6.4,1.8,3.8,2.3l1-1.1l1.6,28.6l0,0l-3.8-2.9
			c1.8-0.4,3.6-0.5,5.4-0.2c1.8,0.3,3.5,0.9,5,1.7c1.5,0.8,2.9,1.9,4,3.1c1.1,1.2,2.1,2.5,2.9,3.9l-3.4,1L18.7,8.3z M18.7,8.3
			l1.5,28.1l0.3,5.7l-3.7-4.7c-1.6-2.1-3.7-3.8-6-4.7c-2.3-0.9-4.6-0.9-6.8-0.1L0,34.2l0.3-4.5l0,0L2.5,1.1l0.1-1.1l0.9,0
			c3.1-0.1,6.2,0.7,8.8,2.2C15,3.7,17.1,5.9,18.7,8.3z"/>
	</g>
	<g>
		<path class="st11" d="M18.8,8.5c1.7-2.4,3.8-4.5,6.5-5.9c2.6-1.4,5.8-2.1,8.9-1.9l0.9,0.1l0.1,1.1l1.6,28.6l0,0l0.2,4.5l-4.1-1.7
			c-2.1-0.9-4.5-0.9-6.7-0.2c-2.3,0.8-4.4,2.4-6.1,4.5l-3.8,4.6l0.4-5.7L18.8,8.5z M18.8,8.5l1.5,28.1L17,35.5
			c0.8-1.4,1.9-2.7,3-3.8c1.2-1.1,2.5-2.2,4.1-3c1.6-0.8,3.3-1.3,5.1-1.5c1.8-0.2,3.6-0.1,5.4,0.4l-3.9,2.8l0,0l2.2-28.6l1,1.1
			c-2.6-0.6-5.5-0.3-8.1,0.7C23.1,4.6,20.7,6.4,18.8,8.5z"/>
	</g>
	<polygon class="st11" points="19.9,40.9 16.8,40.8 16.9,34.1 20,34.1 	"/>
</g>
</svg>
