<?xml version="1.0" encoding="utf-8"?>
<!-- Generator: Adobe Illustrator 24.3.0, SVG Export Plug-In . SVG Version: 6.00 Build 0)  -->
<svg version="1.1" id="Layer_1" xmlns="http://www.w3.org/2000/svg" xmlns:xlink="http://www.w3.org/1999/xlink" x="0px" y="0px"
	 viewBox="0 0 1888 28" style="enable-background:new 0 0 1888 28;" xml:space="preserve">
<style type="text/css">
	.st0{fill:none;stroke:#332E23;stroke-width:23;stroke-miterlimit:10;}
	.st1{fill:none;stroke:#C1C6C4;stroke-width:23;stroke-miterlimit:10;}
	.st2{fill:#C1C6C4;stroke:#332E23;stroke-width:8;stroke-miterlimit:10;}
	.st3{fill:#332E23;stroke:#332E23;stroke-width:15;stroke-miterlimit:10;}
	.st4{fill:#332E23;stroke:#C1C6C4;stroke-width:8;stroke-miterlimit:10;}
	.st5{fill:#332E23;stroke:#C1C6C4;stroke-width:38;stroke-miterlimit:10;}
	.st6{fill:#332E23;stroke:#302F28;stroke-width:40;stroke-miterlimit:10;}
	.st7{fill:#C1C6C4;stroke:#000000;stroke-width:40;stroke-miterlimit:10;}
	.st8{fill:#332E23;stroke:#050505;stroke-width:20;stroke-miterlimit:10;}
	.st9{fill:#FFF424;}
	.st10{fill:#FFFFFF;}
	.st11{fill:none;stroke:#FFFFFF;stroke-width:5;stroke-miterlimit:10;}
	.st12{fill:#005B41;}
	.st13{fill:none;stroke:#005B41;stroke-width:2;stroke-miterlimit:10;}
	.st14{fill:#00DB87;}
	.st15{fill:#332E23;stroke:#332E23;stroke-width:20;stroke-miterlimit:10;}
	.st16{fill:none;stroke:#000000;stroke-width:23;stroke-miterlimit:10;}
	.st17{fill:#E24000;stroke:#000000;stroke-width:15;stroke-miterlimit:10;}
	.st18{fill:#E2C100;stroke:#000000;stroke-width:14;stroke-miterlimit:10;}
	.st19{fill:#332E23;stroke:#000000;stroke-width:15;stroke-miterlimit:10;}
	.st20{fill:#F74000;stroke:#FFFFFF;stroke-width:5;stroke-miterlimit:10;}
	.st21{fill:none;stroke:#FFFFFF;stroke-width:6;stroke-miterlimit:10;}
	.st22{fill:#005B41;stroke:#FFFFFF;stroke-width:6;stroke-miterlimit:10;}
	.st23{fill:#E2C100;}
	.st24{fill:#F74000;}
	.st25{fill:#332E23;stroke:#C1C6C4;stroke-width:22;stroke-miterlimit:10;}
	.st26{fill:#332E23;}
	.st27{fill:none;stroke:#332E23;stroke-width:5;stroke-miterlimit:10;}
	.st28{fill:#332E23;stroke:#C1C6C4;stroke-width:27;stroke-miterlimit:10;}
	.st29{fill:#C1C6C4;}
	.st30{fill:#FFA894;}
	.st31{fill:#FFFFFF;stroke:#332E23;stroke-width:3;stroke-miterlimit:10;}
	.st32{fill:none;stroke:#332E23;stroke-width:3;stroke-miterlimit:10;}
	.st33{fill:none;stroke:#332E23;stroke-width:6;stroke-miterlimit:10;}
	.st34{fill:#C1C6C4;stroke:#FFFFFF;stroke-width:7;stroke-miterlimit:10;}
	.st35{fill:#F74000;stroke:#FFFFFF;stroke-width:7;stroke-miterlimit:10;}
	.st36{fill:#FFA894;stroke:#FFFFFF;stroke-width:7;stroke-miterlimit:10;}
	.st37{fill:none;stroke:#F74000;stroke-width:5;stroke-miterlimit:10;}
	.st38{fill:none;stroke:#FFFFFF;stroke-width:7;stroke-miterlimit:10;}
	.st39{fill:none;stroke:#000000;stroke-width:5;stroke-miterlimit:10;}
	.st40{fill:none;}
	.st41{fill:none;stroke:#FFFFFF;stroke-width:8;stroke-miterlimit:10;}
	.st42{fill:none;stroke:#FFFFFF;stroke-width:38;stroke-miterlimit:10;}
	.st43{fill:none;stroke:#FFFFFF;stroke-width:22;stroke-miterlimit:10;}
	.st44{fill:#C0C5C3;}
	.st45{fill:#EE4423;}
	.st46{fill:#332E23;stroke:#332E23;stroke-width:23;stroke-miterlimit:10;}
	.st47{fill:#005B41;stroke:#050505;stroke-width:20;}
	.st48{fill:#050505;}
	.st49{fill:none;stroke:#FFFFFF;stroke-width:8.5;stroke-miterlimit:10;}
	.st50{fill:none;stroke:#332E23;stroke-width:10;stroke-miterlimit:10;}
</style>
<rect x="-177" y="-79" class="st10" width="2061" height="133"/>
<g>
	<g>
		<g>
			<polygon class="st26" points="1830.6,6.4 1887.8,6.4 1835.7,19.9 1778.6,19.9 			"/>
			<polygon class="st26" points="1719.9,6.4 1777.1,6.4 1725,19.9 1667.8,19.9 			"/>
			<polygon class="st26" points="1604.9,6.8 1662.1,6.8 1610,20.3 1552.8,20.3 			"/>
		</g>
		<g>
			<g>
				<polygon class="st26" points="1496,6 1553.2,6 1501.1,19.5 1443.9,19.5 				"/>
				<polygon class="st26" points="1385.3,6 1442.4,6 1390.4,19.5 1333.2,19.5 				"/>
				<polygon class="st26" points="1270.3,6.4 1327.4,6.4 1275.4,19.9 1218.2,19.9 				"/>
			</g>
		</g>
		<g>
			<g>
				<polygon class="st26" points="1160.9,6.3 1218.1,6.3 1166,19.8 1108.8,19.8 				"/>
				<polygon class="st26" points="1050.2,6.3 1107.3,6.3 1055.3,19.8 998.1,19.8 				"/>
				<polygon class="st26" points="935.2,6.2 992.3,6.2 940.3,19.7 883.1,19.7 				"/>
			</g>
		</g>
		<g>
			<g>
				<polygon class="st26" points="826.3,6.4 883.5,6.4 831.5,19.9 774.3,19.9 				"/>
				<polygon class="st26" points="715.6,6.4 772.8,6.4 720.7,19.9 663.6,19.9 				"/>
				<polygon class="st26" points="600.6,6.3 657.8,6.3 605.7,19.8 548.6,19.8 				"/>
			</g>
		</g>
		<g>
			<g>
				<polygon class="st26" points="491.6,6.3 548.8,6.3 496.7,19.8 439.5,19.8 				"/>
				<polygon class="st26" points="380.9,6.3 438,6.3 386,19.8 328.8,19.8 				"/>
				<polygon class="st26" points="265.9,6.7 323,6.7 271,20.2 213.8,20.2 				"/>
			</g>
		</g>
	</g>
	<g>
		<g>
			<polygon class="st26" points="162.3,5.9 219.5,5.9 167.4,19.4 110.3,19.4 			"/>
			<polygon class="st26" points="51.6,5.9 108.8,5.9 56.7,19.4 -0.5,19.4 			"/>
		</g>
	</g>
</g>
<line class="st50" x1="1889.6" y1="23.8" x2="-58.4" y2="23.8"/>
<line class="st50" x1="1890.1" y1="3.8" x2="-61.9" y2="3.8"/>
</svg>
