<?xml version="1.0" encoding="utf-8"?>
<!-- Generator: Adobe Illustrator 26.1.0, SVG Export Plug-In . SVG Version: 6.00 Build 0)  -->
<svg version="1.1" id="Layer_1" xmlns="http://www.w3.org/2000/svg" xmlns:xlink="http://www.w3.org/1999/xlink" x="0px" y="0px"
	 viewBox="0 0 100 100" style="enable-background:new 0 0 100 100;" xml:space="preserve">
<style type="text/css">
	.st0{fill:none;}
	.st1{fill:#EF3C5A;}
</style>
<ellipse class="st0" cx="50.5" cy="33" rx="15.3" ry="15.7"/>
<path class="st1" d="M50.5,51.9C40,52,31.4,43.5,31.2,33c0-10.6,8.6-19.3,19.3-19.3S69.8,22.4,69.8,33C69.7,43.5,61,52,50.5,51.9z
	 M50.5,20.6c-6.2,0-11.3,5.5-11.3,12.3s5.1,12.3,11.3,12.3S61.8,39.8,61.8,33S56.7,20.6,50.5,20.6z"/>
<path class="st0" d="M88.2,86.5c0,0,0.9-35.3-22-32.9c-4,4.6-9.7,7.2-15.8,7.4c-6.2,0-12.2-2.7-16.3-7.4c-3.1-0.3-6.3,0.1-9.1,1.4
	c-9.1,4.1-14.3,16.7-12.9,31.5"/>
<path class="st1" d="M8.1,86.7C6.6,70.5,12.4,56.8,23,52c3.6-1.6,7.6-2.2,11.5-1.8l1.8,0.2l1,1.2c0.9,1,5.7,6.1,13,6
	c4.8-0.2,9.4-2.4,12.6-6l1-1.2l1.7-0.2c5.3-0.8,10.6,0.6,14.9,3.7c12.1,9.1,11.7,31.5,11.7,32.5l-8-0.1c0.1-5.7-1.2-21.6-9.1-27.4
	c-2-1.5-4.4-2.3-6.9-2.2c-4.7,4.7-11.1,7.4-17.7,7.5h-0.4c-6.8,0-13.3-2.7-18.1-7.4c-1.8,0-3.6,0.4-5.2,1.1
	C19.2,61.3,14.8,73,16,86.2L8.1,86.7z M88.2,86.5l-4-0.1l0,0L88.2,86.5z"/>
</svg>
