<?xml version="1.0" encoding="utf-8"?>
<!-- Generator: Adobe Illustrator 26.1.0, SVG Export Plug-In . SVG Version: 6.00 Build 0)  -->
<svg version="1.1" id="Layer_1" xmlns="http://www.w3.org/2000/svg" xmlns:xlink="http://www.w3.org/1999/xlink" x="0px" y="0px"
	 viewBox="0 0 100 100" style="enable-background:new 0 0 100 100;" xml:space="preserve">
<style type="text/css">
	.st0{fill:none;}
	.st1{fill:#EF3C5A;}
</style>
<path class="st0" d="M14,28h72c2.2,0,4,1.8,4,4v43c0,2.2-1.8,4-4,4H14c-2.2,0-4-1.8-4-4V32C10,29.8,11.8,28,14,28z"/>
<path class="st1" d="M86,82.5H14c-4.1,0-7.5-3.3-7.5-7.5c0,0,0,0,0,0V32c0-4.1,3.3-7.5,7.5-7.5c0,0,0,0,0,0h72
	c4.1,0,7.5,3.3,7.5,7.5c0,0,0,0,0,0v43C93.5,79.1,90.2,82.5,86,82.5C86,82.5,86,82.5,86,82.5z M14,31.5c-0.3,0-0.5,0.2-0.5,0.5v43
	c0,0.3,0.2,0.5,0.5,0.5h72c0.3,0,0.5-0.2,0.5-0.5c0,0,0,0,0,0V32c0-0.3-0.2-0.5-0.5-0.5c0,0,0,0,0,0H14z"/>
<path class="st1" d="M49.1,59.5c-3.7,0-7.2-1.3-10-3.7L8.8,30.7l4.5-5.4l30.3,25.1c3.1,2.8,7.7,2.8,10.9,0.2l32-25.3l4.3,5.5
	L58.8,56C56,58.2,52.6,59.4,49.1,59.5z"/>
</svg>
