<?xml version="1.0" encoding="UTF-8"?><svg id="a" xmlns="http://www.w3.org/2000/svg" viewBox="0 0 900.46 346.11"><defs><style>.b{fill:#fff;}.c{fill:#15394f;}</style></defs><path class="c" d="M781,178.6c-.17-.51-.63-1.95-1.37-4.33-1.16-3.7-2.67-7.36-4.52-10.95-5.8-11.19-14.73-13.43-19.16-13.82-2.01-.2-4.07-.3-6.15-.3-4.23,0-8.65,.44-13.2,1.28,2.63-4.67,4.42-9.55,5.33-14.61,1.64-9.18-1.97-17.86-9.68-23.26-5.03-3.5-10.44-5.38-16.06-5.58-.39-.01-.78-.02-1.17-.02-13.12,0-23.1,8.36-25.42,21.29-.88,4.91-.1,9.68,2.13,13.71-.57,.46-1.14,.89-1.69,1.3-4.42,3.23-9.11,7.46-10.34,14.33-.24,1.36-.31,2.72-.23,4.07-3.72-1.11-7.67-1.7-11.8-1.7-6.99,0-12.37,1.6-13.85,2.09-.15,.05-.31,.1-.46,.16-.66-1.3-1.46-2.55-2.4-3.71-2.98-3.69-8.66-8.17-18.84-8.53-.49-.02-.99-.03-1.49-.03-4.63,0-9.64,.77-14.89,2.28-6,1.73-8.65,2.67-10.89,3.9l-3.4,1.86-7,9.16c-1.69-1.73-3.79-3.54-6.36-5.13-8.31-5.16-18.06-6.25-24.78-6.25-3.52,0-6.09,.29-6.84,.39-22.26,2.88-40.62,15.3-51.91,24.97-1.05-1.43-2.26-2.78-3.64-4.02-3.98-3.52-8.8-5.79-14.1-6.68-.23-5.79-2.17-11.35-5.71-16.35-4.03-5.71-10.41-10.4-19.51-14.36l-17.97-7.81-6.5,18.26c-.22,.51-1.2,2.72-5.02,10.33-.78,1.56-1.63,3.18-2.52,4.85-.93-.97-1.88-1.9-2.86-2.77-5.38-4.74-11.86-7.37-18.74-7.61-.32-.01-.63-.02-.95-.02-7.87,0-15.34,3.31-22.21,9.85-.76,.7-1.54,1.43-2.36,2.21-1.62-1.52-3.41-3.04-5.38-4.58-6.16-4.8-12.17-7.23-18.32-7.44h-.76c-8.97-.01-16.87,5.58-25.99,13.99-1.79,1.65-3.61,3.39-5.47,5.19-.14-.54-.27-1.08-.45-1.61-.64-1.91-1.33-3.63-2.06-5.13l-.27-.56-.31-.53c-9.49-16.42-21.52-20.22-29.93-20.51-.66-.02-1.32-.03-1.98-.03-1.68,0-3.39,.11-5.12,.26,5.27-5,9.59-9.34,13.06-13.11l.11-.12c10.95-12.14,17.75-20.91,21.4-27.6,2-3.67,5.73-10.51,6.75-19.69,.73-6.57-.03-11.62-.58-15.31-1.1-7.37-2.84-15.45-8.09-24.48-1.63-2.81-5.45-9.4-12.86-15.34-3.24-2.6-9.27-7.43-17.75-8.85-1.58-.27-3.19-.4-4.79-.4-12.4,0-21.23,7.65-27.67,13.24l-1.03,.89c-8.5,7.33-17.75,17.14-27.49,29.16-9.51,11.73-19.1,25.14-28.48,39.85-6.5,10.19-15.81,24.62-26.06,44.88-11.21,22.17-18.07,40.34-22.13,51.2-3.1,8.28-5.52,15.34-7.24,20.54,0,0-5.7,3.71-12.26,11.07-2.38,2.67-9.85,11.26-12.43,24.69-.97,5.02-2.74,18.46,4.3,31.4,2.61,4.79,5.66,8.09,7.06,9.53,4.18,4.26,9.25,7.63,15.02,9.96,7.51,3.03,15.65,4.84,24.19,5.37,3.35,.21,5.83,.25,8.03,.25,13.02-.02,23.22-1.85,26.89-2.53,27.01-4.98,40.51-7.48,42.18-7.78,19.36-3.51,25.66-4.32,33.48-4.83,16.63-1.07,21.34,4.75,23.29,7.32,3.53,4.63,3.65,10.55,3.7,13.56,.11,7.2-2.38,12.69-3.86,15.41,4.47,.66,15.5,1.6,25.43-4.93,15.28-10.05,17.04-30.61,14.41-43.5-.29-1.42-1.8-7.96-6.31-15.22,.85-.59,1.71-1.2,2.58-1.86,1.49-1.12,3-2.3,4.52-3.52,.42,.55,.86,1.08,1.32,1.61,6.37,7.36,15.82,11.31,28.09,11.74,.4,.01,.81,.02,1.21,.02,8.41,0,16.61-3.14,23.72-9.09,4.18-3.51,8.6-7.41,13.14-11.61,.32-.29,.64-.59,.96-.88,.28,3.1,.93,6.19,1.98,9.21,1.93,5.52,8.62,18.45,29.08,19.18,.47,.02,.95,.03,1.42,.03,10.15,0,20.18-3.77,29.8-11.21,.58-.45,1.14-.91,1.72-1.36,2.1,2.48,4.34,4.42,6.47,5.92,2.64,1.85,5.28,3.35,8.09,4.6,8.15,3.63,15.08,4.15,17.35,4.32,1.25,.09,2.52,.14,3.78,.14,12.24,0,21.98-4.48,26.66-6.63,5.05-2.32,8.95-4.75,12.75-7.47,.52,.63,1.05,1.25,1.63,1.84,7.03,7.15,14.64,8.87,19.79,9.05,.4,.01,.79,.02,1.18,.02,12.67,0,19.85-7.37,22.56-14.7,.09-.2,.19-.44,.32-.7,1.59,4.94,4.13,8.6,6.57,11.19,4.38,4.64,12.28,10.26,25.08,10.72,.38,.01,.76,.02,1.15,.02,9.6,0,19.85-4.19,31.56-13.14,1.37,1.29,2.87,2.49,4.53,3.57,7.16,4.67,15.55,7.21,24.94,7.54,.83,.03,1.65,.04,2.46,.04,8.91,0,17.22-1.76,24.71-5.25,6.62-3.01,12.66-7.16,18-12.33,6.6-6.43,10.72-13.97,12.23-22.41,1.82-10.12-.63-20.36-7.07-29.61l-.14-.2c-2.81-3.92-5.63-7.2-8.56-9.94,.43-.18,.86-.36,1.31-.54,4.33-1.73,8.68-3.06,12.88-3.93,3.63-.74,6.08-1,7.65-1.08,2.84,1.15,5.47,1.48,7.53,1.48,3.77,0,7.44-1.08,10.62-3.13l.13-.08c4.91-3.22,8.17-8.12,9.18-13.73l.13-.69,.82-4.73-1.51-4.48Z"/><path class="b" d="M221.23,264.91c-3.87-.13-6.85-1.47-8.95-3.99-2.09-2.53-3.46-5.43-4.08-8.72-.63-3.29-.73-6.09-.31-8.41,1.42-7.89,5.45-16.14,12.11-24.79,6.65-8.63,14.71-16.64,24.18-24.01,9.46-7.37,19.1-13.33,28.92-17.88,9.8-4.56,18.58-6.7,26.31-6.42,5.56,.19,10.47,3.99,14.74,11.38,.35,.71,.73,1.66,1.13,2.84,.39,1.18,.49,2.35,.28,3.51-.37,2.09-1.47,3.45-3.28,4.09-.29,.22-.7-.55-1.23-2.32-.54-1.77-2.98-2.73-7.32-2.89-4.11-.14-9.88,1.52-17.31,4.99-7.43,3.47-15.37,8.09-23.82,13.86-8.45,5.78-16.26,12.03-23.43,18.78-7.17,6.75-12.67,13.33-16.49,19.73-.78,1.61-1.56,3.21-2.32,4.82-.78,1.61-1.27,2.99-1.47,4.15-.37,2.09,.17,3.16,1.61,3.21,1.45,.05,3.52-.69,6.23-2.23,5.7-3.3,11.79-7.46,18.28-12.49,6.49-5.02,12.84-10.28,19.06-15.78,6.22-5.5,11.59-10.74,16.13-15.71,4.54-4.98,7.58-9.07,9.13-12.29,.82-1.83,3.76-2.67,8.84-2.49,4.11,.14,7.45,1.14,10.04,2.98,2.59,1.84,2.97,3.78,1.14,5.82-5.47,6.11-10.88,12.52-16.21,19.21-5.34,6.7-9.59,13.49-12.77,20.38-.41,.92-.74,1.72-.99,2.42-.25,.69-.41,1.27-.49,1.73-.42,2.32,.33,3.52,2.27,3.58,2.18,.08,4.78-.88,7.82-2.87,5.9-4.46,12.35-10.24,19.33-17.35,6.99-7.11,14.15-14.15,21.48-21.13,2.58-2.23,4.25-3.35,4.97-3.32,.73,.03,.99,.62,.78,1.78-.17,.93-.58,1.85-1.23,2.76-1.38,2.29-3.15,4.62-5.27,6.99-2.13,2.38-4.08,4.47-5.86,6.27-1.51,1.58-4.08,4.41-7.72,8.48-3.65,4.07-7.83,8.36-12.52,12.86-4.7,4.51-9.4,8.37-14.11,11.58-4.72,3.22-8.88,4.77-12.5,4.64-5.07-.18-8.84-1.89-11.29-5.13-2.46-3.24-3.46-6.13-3-8.68,.58-3.24,1.1-5.44,1.55-6.6,.89-2.3,2.18-5.05,3.85-8.27,1.67-3.21,3.25-6.31,4.77-9.29-2.4,2.49-5.94,5.98-10.64,10.48-4.7,4.51-9.71,9.06-15.03,13.65-5.32,4.6-10.33,8.45-15.01,11.55-4.69,3.1-8.12,4.62-10.29,4.54Z"/><path class="b" d="M322.44,266.6c-5.07-.18-9.05-1.37-11.94-3.57-2.88-2.2-4-5.16-3.33-8.87,.96-5.34,3.78-11.59,8.48-18.78,4.69-7.19,9.01-13.63,12.95-19.33-.12-.71-.29-1.47-.5-2.3-.22-.82,.25-1.8,1.44-2.92,7.58-8.37,14.72-15.65,21.42-21.83,6.71-6.18,11.26-9.23,13.68-9.15,2.18,.08,4.76,1.28,7.74,3.6,2.98,2.33,5.38,4.57,7.18,6.73-4.98,4.72-10.51,10.08-16.55,16.05-6.06,5.97-11.71,12.07-16.96,18.31-5.26,6.23-9.47,12.09-12.64,17.58-1.92,3.91-2.96,6.32-3.12,7.25-.29,1.63,.04,2.45,1.01,2.49,1.69,.06,4.8-1.7,9.33-5.27,6.52-5.14,13.77-11.71,21.78-19.72,8-8,15.74-15.96,23.25-23.86,7.49-7.9,13.57-13.99,18.23-18.27,3.52-3.38,6.85-5.01,10-4.9,2.66,.09,5.09,1.12,7.29,3.06,2.2,1.95,4.26,4.35,6.17,7.22-4.13,4.06-9.31,9.54-15.53,16.43-6.22,6.91-12.05,13.99-17.49,21.27-5.44,7.28-9.26,13.68-11.47,19.2-.41,.92-.78,1.96-1.11,3.11-.33,1.16-.58,2.2-.74,3.13-.63,3.48,.02,5.26,1.96,5.32,1.69,.06,4.21-1.13,7.57-3.59,4.21-3.12,8.7-7.16,13.48-12.13,4.78-4.97,9.97-10.16,15.56-15.56,2.3-2.02,4.41-3.98,6.34-5.9s3.92-3.89,5.98-5.92c4.42-4.28,7.11-6.4,8.08-6.37,.72,.02,.31,1.3-1.24,3.81-1.54,2.52-3.58,5.37-6.09,8.54-2.52,3.19-4.97,6.02-7.36,8.49-2.75,3.18-5.81,6.62-9.15,10.36-3.34,3.73-6.9,7.29-10.66,10.65-4.37,4.04-8.56,7.75-12.57,11.11-4.01,3.36-8.18,4.96-12.52,4.81-7.01-.25-11.98-2.05-14.89-5.43-2.92-3.37-4-7.15-3.25-11.32,.71-3.94,2.71-8.66,6-14.14,3.29-5.49,6.17-10.29,8.61-14.41-1.94,1.33-5.23,4.43-9.87,9.28-4.65,4.86-9.83,10.04-15.56,15.56-5.73,5.52-11.27,10.28-16.6,14.29-5.34,4.01-9.46,5.97-12.36,5.87Z"/><path class="b" d="M450.46,273.72c-6.77-.24-10.91-2.54-12.44-6.92-1.52-4.37-1.52-8.75-.01-13.13,2.05-6,5.14-11.38,9.28-16.13,4.14-4.76,8.28-9.28,12.47-13.57,2.95-2.92,5.17-5.42,6.63-7.46,1.46-2.05,1.24-3.23-.64-3.53-1.38,.89-3.47,1.75-6.3,2.58-2.82,.84-5.56,1.21-8.21,1.11-2.18-.08-4.15-.61-5.91-1.61-1.77-.99-2.8-2.66-3.11-5.01-3.09,3.63-5.99,6.97-8.73,10.02-2.74,3.05-5.32,5.94-7.75,8.66-4.5,4.74-8.7,9.21-12.62,13.39-3.91,4.19-8.9,8.96-14.97,14.35-2.02,1.8-3.76,2.67-5.22,2.62-1.45-.05-2.02-.89-1.73-2.51,.17-.92,.69-1.84,1.59-2.75,6.73-6.29,12.32-11.76,16.8-16.39,4.48-4.63,9.71-10.1,15.71-16.43,6.08-6.79,11.7-14.41,16.87-22.86,5.17-8.45,9.45-16.06,12.86-22.83,3.39-6.76,5.35-10.84,5.84-12.23,5.86,2.54,9.82,5.25,11.85,8.12,2.04,2.87,2.77,5.93,2.18,9.18-.79,4.41-3.73,8.86-8.78,13.35-5.06,4.5-10.73,8.61-16.99,12.35,1.63,3.1,3.89,4.69,6.79,4.8,3.13,.11,6.57-1.05,10.29-3.49,3.72-2.43,6.57-4.43,8.56-6,4.69-4.5,9.34-6.67,13.93-6.51,2.66,.09,4.87,.93,6.66,2.51,1.78,1.58,2.46,3.53,2.05,5.85-.21,1.16-.78,2.31-1.72,3.44-4.46,4.52-9.59,10.05-15.38,16.61-5.8,6.57-11.17,13.09-16.09,19.57-4.93,6.48-8.66,12.01-11.18,16.58-.41,.92-.73,1.67-.95,2.25-.23,.58-.38,1.1-.47,1.56-.33,1.86,.35,2.81,2.04,2.87,1.2,.04,2.74-.37,4.59-1.24,1.86-.86,3.35-1.75,4.49-2.64,5.02-3.55,11.49-9.16,19.44-16.82,7.93-7.65,15.32-14.98,22.17-21.98,4.21-4.52,6.92-6.76,8.13-6.72,1.21,.04,.99,1.56-.63,4.53-1.63,2.98-4.13,6.39-7.49,10.24-4.5,4.74-9.72,10.46-15.66,17.13-5.93,6.68-12.23,12.59-18.85,17.72-6.64,5.13-13.1,7.59-19.37,7.37Z"/><path class="b" d="M565.36,180.87s11.89-1.54,19.61,3.26c3.49,2.17,5.16,5.24,5.16,5.24,.68,1.25,.94,2.28,1.02,2.59,.34,1.41,.37,2.89,.09,4.45-.54,3.02-2.22,6.28-5.04,9.8-2.82,3.52-6.17,6.61-10.05,9.28-6.31,3.97-13.45,7.87-21.42,11.67-7.97,3.81-15.27,7.51-21.87,11.13-6.61,3.62-11.1,7.26-13.45,10.91-.69,1.14-1.52,1.69-2.49,1.66-1.69-.06-2-1-.95-2.83,3.66-6.87,8.95-12.64,15.86-17.3,6.91-4.66,14.07-9.01,21.5-13.07,7.41-4.05,13.61-8.44,18.59-13.17,3.72-3.14,5.83-6.1,6.33-8.88,.54-3.01-.88-4.58-4.26-4.7-2.9-.1-6.25,.95-10.05,3.14-10.79,5.92-21.33,13.9-31.64,23.92-10.31,10.02-17.89,20.43-22.75,31.23-1.22,2.76-2.04,5.3-2.46,7.62-.79,4.41-.14,7.52,1.97,9.35,2.1,1.83,4.84,2.79,8.22,2.92,2.9,.1,6-.25,9.32-1.07,3.3-.81,6.29-1.88,8.96-3.19,4-1.96,8.11-4.55,12.34-7.79,4.3-3.29,7.52-6.04,10.72-8.9,5.26-4.71,10.62-9.51,16.4-15.3,19.85-19.91,33.58-39.21,35.94-37.79,1.11,.67-1.68,6.54-2.27,8.12-1.43,3.81-3.75,6.45-5.12,7.8-.2,.19-.47,.41-.85,.8-1.92,1.97-2.73,3.95-2.92,4.39-1.6,3.58-11.92,12.18-20.71,20.81-7.47,7.33-6.14,6.21-9.81,9.7-6.15,5.86-10.17,9.7-15.71,13.99-6.06,4.7-9.95,7.71-16.09,10.53-4.72,2.17-12.28,5.55-21.44,4.87-1.88-.14-6.22-.54-11.27-2.79-1.68-.75-3.33-1.68-5.03-2.87-5.08-3.56-7.57-9.66-7.47-18.3-.08-.93,.07-2.45,.45-4.54,1.64-9.14,6.03-16.66,10.08-22.58,3.04-4.44,6.57-9.94,12.8-16.4,4.12-4.27,24.23-24.4,49.78-27.7Z"/><path class="b" d="M682.9,186.01c1.91,.66,2.65,1.76,2.79,1.99,.64,1.01,.82,2.31,.53,3.91-.83,4.64-3.77,9.79-8.79,15.44-5.03,5.66-10.5,11.42-16.41,17.28-5.64,5.64-11.24,12.45-16.79,20.42-5.57,7.98-8.85,14.74-9.85,20.31-.84,4.65,.32,7.02,3.46,7.13,1.45,.05,3.51-.58,6.17-1.88,2.14-1.09,6.41-3.92,12.82-8.47,6.41-4.56,13.52-11.02,21.35-19.38,2.43-2.71,4.61-4.04,6.55-3.97,.96,.04,1.49,.46,1.59,1.28,.09,.83-.21,1.81-.89,2.95-21.45,24.69-37.61,36.84-48.48,36.46-5.32-.19-9.45-1.86-12.41-4.99-2.96-3.14-3.86-7.96-2.69-14.46,1-5.57,2.97-11.15,5.93-16.77,2.95-5.61,5.99-10.7,9.12-15.26,3.12-4.56,5.62-7.97,7.49-10.24,7.01-9.32,9.56-14.02,7.63-14.09-1.69-.06-6.03,2.77-13.01,8.47-6.98,5.71-15.66,13.74-26.03,24.12-9.16,9.02-15.41,16.09-18.76,21.22-3.35,5.13-5.68,9.31-6.99,12.54-.62,2.08-2.62,3.06-6,2.94-2.66-.09-5.12-1.29-7.38-3.59-2.26-2.3-3.03-5.42-2.32-9.36,.21-1.15,1.84-4.14,4.88-8.93,3.05-4.79,6.66-10.38,10.85-16.77,4.19-6.38,8.25-12.43,12.19-18.13,3.94-5.69,6.9-10.02,8.89-12.99-2.61-1.72-2.84-3.83-.69-6.33l13.82-18.07c.81-.44,3.19-1.23,7.17-2.37,3.97-1.14,7.53-1.66,10.67-1.55,4.35,.15,6.27,1.62,5.77,4.41-.25,1.39-1.63,3.68-4.14,6.86-.94,1.14-3.14,3.92-6.6,8.35-3.48,4.43-7.37,9.54-11.69,15.34-4.32,5.8-8.35,11.27-12.06,16.39-3.72,5.12-6.41,8.94-8.08,11.44-.04,.23-.13,.41-.27,.52-.15,.11-.24,.29-.28,.51-.17,.93,.89,.15,3.16-2.34,1.68-1.84,3.56-3.51,5.16-5.42,5.42-6.43,36.26-37.95,57.14-44.88,0,0,7.88-2.62,15.46,0Z"/><path class="b" d="M702.72,166.26c-1.12-.04-1.64-.33-1.54-.87,.16-.9,1.55-2.3,4.15-4.2,2.6-1.9,5.27-4.16,8.01-6.78,2.73-2.62,4.37-5.46,4.93-8.52,.48-2.7,.11-4.57-1.12-5.61-1.23-1.04-2.46-2.04-3.71-2.99-1.24-.95-1.7-2.32-1.38-4.12,1.03-5.76,4.55-8.54,10.55-8.32,2.63,.09,5.23,1.05,7.83,2.86,2.6,1.82,3.63,4.25,3.08,7.31-1,5.58-3.57,10.92-7.69,16.03-4.13,5.11-8.91,9.2-14.37,12.26-1.25,.68-2.65,1.36-4.18,2.03-1.54,.67-3.05,.98-4.55,.93Z"/><path class="b" d="M699.13,277.44c-6.04-.21-11.24-1.74-15.59-4.58-4.35-2.84-6.01-7.15-4.97-12.96,.38-2.09,1.13-4.28,2.27-6.58,1.55-3.21,3.33-5.31,5.33-6.29,2-.98,2.73-.66,2.2,.95-.91,2.3-.79,4.41,.32,6.32,1.11,1.91,2.77,3.48,4.99,4.73,2.69,1.27,5,1.93,6.93,2,4.83,.17,9.57-1.47,14.2-4.93,4.64-3.45,7.32-7.27,8.07-11.44,.5-2.78,.07-5.13-1.29-7.05-2.19-4.04-4.84-7.23-7.94-9.56-3.11-2.32-5.25-5.61-6.43-9.86l-.49,.69c-2.6,3.64-5.33,6.99-8.18,10.04-2.86,3.05-5.5,5.93-7.93,8.65-4.5,4.74-8.76,9.2-12.8,13.38-4.03,4.18-9.09,8.96-15.16,14.35-2.02,1.8-3.76,2.67-5.22,2.62-1.45-.05-2.02-.89-1.73-2.51,.17-.92,.69-1.84,1.59-2.75,6.73-6.29,12.38-11.75,16.98-16.38,4.59-4.62,9.77-10.1,15.53-16.44,3-3.16,6.13-6.72,9.4-10.7,3.26-3.97,5.83-7.79,7.7-11.46,1.09-7.43,4.78-13.77,11.08-19.04,6.29-5.26,13.55-9.15,21.79-11.66,8.23-2.51,15.68-3.41,22.36-2.71,1.69,.06,3.21,1.4,4.57,4.01,1.35,2.62,2.45,5.28,3.3,8,.85,2.72,1.36,4.31,1.52,4.78l-.13,.69c-.13,.7-.54,1.26-1.22,1.71-.69,.45-1.55,.18-2.59-.79-.68-.25-1.87-.41-3.57-.47-3.62-.13-8.08,.36-13.39,1.45-5.3,1.1-10.64,2.72-16,4.86-5.38,2.14-9.88,4.55-13.51,7.22-3.65,2.68-5.52,5.64-5.61,8.9-.06,3.04,.85,5.41,2.74,7.1,1.88,1.7,4.21,3.59,7.01,5.68,2.78,2.08,5.63,5.16,8.55,9.23,3.67,5.27,5.03,10.57,4.07,15.9-.83,4.64-3.17,8.82-6.99,12.54-3.83,3.71-8.12,6.66-12.89,8.82-5.57,2.6-11.86,3.79-18.87,3.54Z"/><path class="b" d="M324.46,317.66c.26-2.18,.42-5.9-.89-10.21-.26-.84-1.5-4.77-4.82-8.83,0,0-6.2-7.58-17.47-10.84-22.94-6.64-81,15.16-125.45,14.73-7.03-.07-19.05-.74-27.7-9.13-1.08-1.05-8.22-8.18-8.88-19.19-.18-3.07,.08-5.98,.7-8.7,1.37-6.03,4.51-10.81,9.93-16.71,4.79-5.21,12.78-12.82,24.9-20.23-2.25,1.29-3.69,1.93-3.94,1.61-.21-.27,.36-1.33,.98-1.52,.79-.24-.23,6.28-.17,6.34,.56,.54,2.69-4.27,2.62-3.07-.02,.34-1.97,6.36-2.07,6.67-.14,.47-.14,.68-.12,.79,0,.04,0,.12,.02,.12,.04,0,.22-.79,.1-.91-.59-.59-17.16,7.35-19.58,22.36-.32,2-1.22,8.1,2.11,14.17,.52,.95,2.79,4.89,8.55,8.32,7.56,4.49,15.51,4.78,26.33,4.21,14.88-.78,26.23-2.71,30.79-3.5,14.68-2.54,19.85-3.87,29.04-5.59,1.56-.29,4.18-.77,9.87-1.72,15.91-2.67,23.87-4,26.3-4.15,7.31-.44,24.06-1.46,35.45,9.17,1.32,1.23,7.32,7.03,9.3,15.89,1.21,5.4,.4,9.42,.17,10.47-.8,3.62-2.24,5.63-2.59,6.11-1.21,1.64-2.56,2.71-3.5,3.34Zm-145.41-45.3c-4.71-1.13-7.58-4.45-8.6-5.66-5.04-5.98-5.77-14.07-5.47-21.87,.61-15.89,5.39-28.11,7.62-33.63,7.29-18.09,14.64-32.48,21.77-45.66,7.53-13.93,14.51-26.66,25.28-43.55,9.07-14.22,18.16-26.94,27.27-38.17,9.11-11.23,17.51-20.17,25.23-26.82,5.98-5.16,11.82-10.66,18.51-9.54,3.78,.63,6.93,3.16,9.33,5.09,4.64,3.72,7.05,7.79,8.47,10.24,3.64,6.28,4.88,11.73,5.82,18,.53,3.58,.93,6.58,.49,10.59-.58,5.25-2.6,9.23-4.63,12.94-2.88,5.27-9.18,13.3-18.92,24.1-4.51,4.91-10.87,11.13-19.08,18.65-8.21,7.53-17.18,15.59-26.89,24.19-9.72,8.6-19.09,16.96-28.11,25.09-9.02,8.13-16.72,15.49-23.11,22.09-6.38,6.6-18.23,16.76-19.54,20.04-.77,1.77-1.61,2.62-2.48,2.57-1.11-.07-1.24-1.37-.42-3.92,.84-2.8,8.35-11.75,13.16-16.36,4.87-4.67,11.83-12.22,18.02-19.23,6.19-7,12.83-13.56,19.94-21.55,6.69-7.52,12.47-14.68,18.86-21.42,6.39-6.73,11.9-12.54,16.51-17.44,4.62-4.9,7.77-8.19,9.41-9.92,2.81-2.97,12.2-12.14,14.5-14.46,4.08-4.1,9.33-9.48,12.81-13.79,6.17-7.65,8.85-14.23,9.14-18.88,.24-3.88-1.18-5.91-4.26-6.1-2.2-.14-5.03,.85-8.48,2.97-3.45,2.12-7.54,5.63-12.27,10.52-8.8,9.83-19.19,21.24-31.16,34.23-11.98,13-23.76,27.11-35.32,42.34-11.57,15.23-21.21,31.42-28.92,48.58-1.31,3.29-3.05,8.11-5.22,14.46-2.17,6.35-3.44,12.63-3.83,18.83-.26,4.14,.11,7.86,1.12,11.16,.39,1.27,1.13,2.89,2.55,4.61,3.83,4.62,9.15,4.76,9.01,5.86-.12,.95-4.2,1.78-8.12,.83Z"/></svg>