<?xml version="1.0" encoding="UTF-8"?><svg id="a" xmlns="http://www.w3.org/2000/svg" viewBox="0 0 2040.54 346.11"><defs><style>.b{fill:#15394f;}</style></defs><g><path class="b" d="M172.12,227.84c0,.1,0,.2,0,.3,.87-.56,1.75-1.12,2.67-1.68-1.09,.63-1.99,1.1-2.66,1.38Z"/><path class="b" d="M601.58,210.99c-.31,.41-.57,.79-.79,1.15,.27-.39,.53-.77,.79-1.15Z"/><g><path class="b" d="M184.75,218.69c4.87-4.67,11.83-12.22,18.02-19.23,6.19-7,12.83-13.56,19.94-21.55,6.69-7.52,12.47-14.68,18.86-21.42,6.39-6.73,11.9-12.54,16.51-17.44,4.62-4.9,7.77-8.19,9.41-9.92,2.81-2.97,12.2-12.14,14.5-14.46,4.08-4.1,9.33-9.48,12.81-13.79,6.17-7.65,8.85-14.23,9.14-18.88,.24-3.88-1.18-5.91-4.26-6.1-2.2-.14-5.03,.85-8.48,2.97-3.45,2.12-7.54,5.63-12.27,10.52-8.8,9.83-19.19,21.24-31.16,34.23-11.98,13-23.76,27.11-35.32,42.34-11.57,15.23-21.21,31.42-28.92,48.58-.89,2.24-1.99,5.2-3.27,8.85,1.57-1.75,3.14-3.39,4.49-4.69Z"/><path class="b" d="M781,176.52c-.17-.51-.63-1.95-1.37-4.33-1.16-3.7-2.67-7.36-4.52-10.95-5.8-11.19-14.73-13.43-19.16-13.82-2.01-.2-4.07-.3-6.15-.3-4.23,0-8.65,.44-13.2,1.28,2.63-4.67,4.42-9.55,5.33-14.61,1.64-9.18-1.96-17.86-9.68-23.26-5.03-3.5-10.44-5.38-16.06-5.58-.39-.01-.78-.02-1.17-.02-13.12,0-23.1,8.36-25.42,21.29-.88,4.91-.1,9.68,2.13,13.71-.57,.46-1.14,.89-1.69,1.3-4.42,3.23-9.11,7.46-10.34,14.33-.24,1.36-.3,2.72-.22,4.07-3.72-1.11-7.67-1.7-11.8-1.7-6.99,0-12.37,1.6-13.85,2.09-.15,.05-.31,.1-.46,.16-.66-1.3-1.46-2.55-2.4-3.71-2.98-3.69-8.66-8.17-18.84-8.53-.49-.02-.99-.03-1.49-.03-4.63,0-9.64,.77-14.89,2.28-6,1.73-8.65,2.67-10.89,3.9l-3.4,1.86-7,9.16c-1.69-1.73-3.79-3.54-6.36-5.13-8.31-5.16-18.06-6.25-24.78-6.25-3.52,0-6.09,.29-6.84,.39-22.26,2.88-40.62,15.3-51.91,24.97-1.05-1.43-2.26-2.78-3.64-4.02-3.98-3.52-8.8-5.79-14.1-6.68-.23-5.79-2.17-11.35-5.71-16.35-4.03-5.71-10.41-10.4-19.51-14.36l-17.97-7.81-6.5,18.26c-.22,.51-1.2,2.72-5.02,10.33-.78,1.56-1.63,3.18-2.52,4.85-.93-.97-1.88-1.9-2.86-2.77-5.38-4.74-11.86-7.37-18.74-7.61-.32-.01-.63-.02-.95-.02-7.87,0-15.34,3.31-22.21,9.85-.76,.7-1.54,1.43-2.36,2.21-1.62-1.52-3.41-3.04-5.38-4.58-6.16-4.8-12.17-7.23-18.32-7.44h-.76c-8.97-.01-16.87,5.58-25.99,13.99-1.79,1.65-3.61,3.39-5.47,5.19-.14-.54-.27-1.08-.45-1.61-.64-1.91-1.33-3.63-2.06-5.13l-.27-.56-.31-.54c-9.49-16.42-21.52-20.22-29.93-20.51-.66-.02-1.32-.03-1.98-.03-1.68,0-3.39,.11-5.12,.26,5.27-5,9.59-9.34,13.06-13.11l.11-.12c10.95-12.14,17.75-20.91,21.4-27.6,2-3.67,5.73-10.51,6.75-19.69,.73-6.57-.03-11.62-.58-15.31-1.1-7.37-2.84-15.45-8.09-24.48-1.63-2.81-5.45-9.4-12.86-15.34-3.24-2.6-9.27-7.43-17.75-8.85-1.58-.27-3.19-.4-4.79-.4-12.4,0-21.23,7.65-27.67,13.24l-1.03,.89c-8.5,7.33-17.75,17.14-27.49,29.16-9.51,11.73-19.1,25.14-28.48,39.85-6.5,10.19-15.81,24.62-26.06,44.88-11.21,22.17-18.07,40.34-22.13,51.2-3.1,8.28-5.52,15.34-7.24,20.54,0,0-5.7,3.71-12.26,11.07-2.38,2.67-9.85,11.26-12.43,24.69-.97,5.02-2.74,18.46,4.3,31.4,2.61,4.79,5.66,8.09,7.06,9.53,4.18,4.26,9.25,7.63,15.02,9.96,7.51,3.03,15.65,4.84,24.19,5.37,3.35,.21,5.83,.25,8.03,.25,13.02-.02,23.22-1.85,26.89-2.53,27.01-4.98,40.51-7.48,42.18-7.78,19.36-3.51,25.66-4.32,33.49-4.83,16.63-1.07,21.34,4.75,23.29,7.32,3.53,4.63,3.65,10.55,3.7,13.56,.11,7.2-2.38,12.69-3.86,15.41,4.47,.66,15.5,1.6,25.43-4.93,15.28-10.05,17.04-30.61,14.41-43.49-.29-1.42-1.8-7.96-6.31-15.22,.85-.59,1.71-1.2,2.58-1.86,1.49-1.12,3-2.3,4.52-3.52,.42,.55,.86,1.08,1.32,1.61,6.37,7.36,15.82,11.31,28.09,11.74,.4,.01,.81,.02,1.21,.02,8.41,0,16.61-3.14,23.72-9.09,4.18-3.51,8.6-7.41,13.14-11.61,.32-.29,.64-.59,.96-.88,.28,3.1,.93,6.19,1.98,9.21,1.93,5.52,8.62,18.45,29.08,19.18,.47,.02,.95,.03,1.42,.03,10.15,0,20.18-3.77,29.8-11.21,.58-.45,1.15-.91,1.72-1.36,2.1,2.48,4.34,4.42,6.47,5.92,2.64,1.85,5.28,3.35,8.09,4.6,8.15,3.63,15.08,4.15,17.35,4.32,1.25,.09,2.52,.14,3.78,.14,12.24,0,21.98-4.48,26.66-6.63,5.05-2.32,8.95-4.75,12.75-7.47,.52,.63,1.05,1.25,1.64,1.84,7.03,7.15,14.64,8.87,19.79,9.05,.4,.01,.79,.02,1.18,.02,12.67,0,19.85-7.37,22.56-14.7,.09-.2,.19-.44,.32-.7,1.59,4.94,4.13,8.6,6.57,11.19,4.38,4.64,12.28,10.26,25.08,10.72,.38,.01,.76,.02,1.15,.02,9.6,0,19.85-4.19,31.56-13.14,1.37,1.29,2.87,2.49,4.53,3.57,7.16,4.67,15.55,7.21,24.94,7.54,.83,.03,1.65,.04,2.46,.04,8.91,0,17.22-1.76,24.71-5.25,6.62-3.01,12.66-7.16,18-12.33,6.6-6.43,10.72-13.97,12.23-22.41,1.82-10.12-.63-20.36-7.07-29.61l-.14-.2c-2.81-3.92-5.63-7.2-8.56-9.94,.43-.18,.86-.36,1.31-.54,4.33-1.73,8.68-3.06,12.88-3.93,3.63-.74,6.08-1,7.65-1.08,2.84,1.15,5.47,1.48,7.53,1.48,3.77,0,7.44-1.08,10.62-3.13l.13-.08c4.91-3.22,8.17-8.12,9.18-13.73l.13-.69,.82-4.73-1.51-4.48Zm-79.83-13c.16-.9,1.55-2.3,4.15-4.2,2.6-1.9,5.27-4.16,8.01-6.78,2.73-2.62,4.38-5.46,4.93-8.52,.48-2.7,.11-4.57-1.12-5.61-1.23-1.04-2.46-2.04-3.71-2.99-1.24-.95-1.7-2.32-1.38-4.12,1.03-5.76,4.55-8.54,10.55-8.32,2.63,.09,5.23,1.05,7.83,2.86,2.6,1.82,3.63,4.25,3.08,7.31-1,5.58-3.57,10.92-7.69,16.03-4.13,5.11-8.91,9.2-14.37,12.26-1.25,.68-2.65,1.36-4.18,2.03-1.54,.67-3.05,.98-4.55,.93-1.12-.04-1.64-.33-1.54-.87Zm-370.64,142.61c-.8,3.62-2.24,5.63-2.59,6.11-1.21,1.64-2.56,2.71-3.5,3.34,.26-2.18,.42-5.9-.89-10.21-.26-.84-1.5-4.77-4.82-8.83,0,0-6.2-7.58-17.47-10.84-22.94-6.64-81,15.16-125.45,14.73-7.03-.07-19.05-.74-27.7-9.13-1.08-1.05-8.22-8.18-8.88-19.19-.18-3.07,.08-5.98,.7-8.7,1.37-6.03,4.51-10.81,9.93-16.71,3.52-3.83,8.78-8.96,16.12-14.35,1.68-10.78,4.89-18.99,6.6-23.23,7.29-18.09,14.64-32.48,21.77-45.66,7.53-13.93,14.51-26.66,25.28-43.55,9.07-14.22,18.16-26.94,27.27-38.17,9.11-11.23,17.51-20.17,25.23-26.82,5.98-5.16,11.82-10.66,18.51-9.54,3.78,.63,6.93,3.16,9.33,5.09,4.64,3.72,7.05,7.79,8.47,10.24,3.64,6.28,4.88,11.73,5.82,18,.53,3.58,.93,6.58,.49,10.59-.58,5.25-2.6,9.23-4.63,12.94-2.88,5.27-9.18,13.3-18.92,24.1-4.51,4.91-10.87,11.13-19.08,18.65-8.21,7.53-17.18,15.59-26.89,24.19-9.72,8.6-19.09,16.96-28.11,25.09-9.02,8.13-16.72,15.49-23.11,22.09-4.83,5-12.79,12.03-16.94,16.58-1.43,5.01-2.3,9.97-2.61,14.88-.26,4.14,.11,7.86,1.12,11.16,.39,1.27,1.13,2.89,2.55,4.61,3.83,4.62,9.15,4.76,9.01,5.86-.12,.95-4.2,1.78-8.12,.83-4.71-1.13-7.58-4.45-8.6-5.66-5.04-5.98-5.77-14.07-5.47-21.87,.03-.85,.08-1.68,.14-2.51-5.02,3.68-11.11,9.97-12.5,18.62-.32,2-1.22,8.1,2.11,14.17,.52,.95,2.79,4.89,8.55,8.32,7.56,4.49,15.51,4.78,26.33,4.21,14.88-.78,26.23-2.71,30.79-3.5,14.68-2.54,19.85-3.87,29.04-5.59,1.56-.29,4.18-.77,9.87-1.72,15.91-2.67,23.87-4,26.3-4.15,7.31-.44,24.06-1.46,35.45,9.17,1.32,1.23,7.32,7.03,9.3,15.89,1.21,5.4,.4,9.42,.17,10.47Zm440.86-116.45c-.13,.7-.54,1.26-1.22,1.71-.69,.45-1.55,.18-2.59-.79-.68-.25-1.87-.41-3.56-.47-3.62-.13-8.08,.36-13.39,1.45-5.3,1.1-10.64,2.72-16,4.86-5.38,2.14-9.88,4.55-13.51,7.22-3.65,2.68-5.52,5.64-5.61,8.9-.06,3.04,.85,5.41,2.74,7.1,1.88,1.7,4.21,3.59,7.01,5.68,2.78,2.08,5.63,5.16,8.55,9.23,3.67,5.27,5.03,10.57,4.07,15.9-.83,4.64-3.17,8.82-6.99,12.54-3.83,3.71-8.12,6.66-12.89,8.82-5.57,2.6-11.86,3.79-18.87,3.54-6.04-.21-11.24-1.74-15.59-4.58-4.35-2.84-6.01-7.15-4.97-12.96,.38-2.09,1.14-4.28,2.27-6.58,1.55-3.21,3.33-5.31,5.33-6.29,2-.98,2.73-.66,2.2,.95-.91,2.3-.79,4.41,.32,6.32,1.11,1.91,2.77,3.48,4.99,4.73,2.69,1.27,5,1.93,6.93,2,4.83,.17,9.57-1.47,14.2-4.93,4.64-3.45,7.32-7.27,8.07-11.44,.5-2.78,.07-5.13-1.29-7.05-2.19-4.04-4.84-7.23-7.94-9.56-3.11-2.32-5.25-5.61-6.43-9.86l-.49,.69c-2.6,3.64-5.33,6.99-8.18,10.04-2.86,3.05-5.5,5.93-7.93,8.65-1.82,1.92-3.59,3.77-5.33,5.6-21.38,24.57-37.49,36.67-48.33,36.29-5.32-.19-9.45-1.86-12.41-4.99-2.96-3.14-3.86-7.96-2.69-14.46,1-5.57,2.97-11.15,5.93-16.77,2.95-5.61,5.99-10.7,9.12-15.26,3.12-4.56,5.62-7.97,7.49-10.24,7.01-9.32,9.56-14.02,7.63-14.09-1.69-.06-6.03,2.77-13.01,8.47-6.98,5.71-15.66,13.74-26.03,24.12-9.16,9.02-15.41,16.09-18.76,21.22-3.35,5.13-5.68,9.31-6.99,12.54-.62,2.08-2.62,3.06-6,2.94-2.66-.09-5.12-1.29-7.38-3.59-2.26-2.3-3.03-5.42-2.32-9.36,.21-1.15,1.84-4.14,4.88-8.93,3.05-4.79,6.66-10.38,10.85-16.77,3.25-4.95,6.42-9.69,9.52-14.23-4.06,4.33-11.29,10.61-17.71,16.92-7.47,7.33-6.14,6.21-9.81,9.7-6.15,5.86-10.17,9.7-15.71,13.99-6.06,4.7-9.95,7.71-16.09,10.53-4.72,2.17-12.28,5.55-21.44,4.87-1.88-.14-6.22-.54-11.27-2.79-1.68-.75-3.33-1.68-5.03-2.87-5.08-3.56-7.57-9.66-7.47-18.3-.08-.93,.07-2.45,.45-4.54,.28-1.59,.66-3.12,1.09-4.62-1.64,1.82-3.34,3.71-5.11,5.7-5.93,6.68-12.23,12.59-18.85,17.72-6.64,5.13-13.1,7.59-19.37,7.37-6.77-.24-10.91-2.54-12.44-6.92-1.52-4.37-1.52-8.75-.01-13.13,2.05-6,5.14-11.38,9.28-16.13,4.14-4.76,8.28-9.28,12.47-13.57,2.95-2.92,5.17-5.42,6.63-7.46,1.46-2.05,1.24-3.23-.64-3.53-1.38,.89-3.47,1.75-6.3,2.58-2.82,.84-5.56,1.21-8.21,1.11-2.18-.08-4.15-.61-5.91-1.61-1.77-.99-2.8-2.66-3.11-5.01-2.44,2.87-4.77,5.56-6.99,8.07-.79,1.08-1.63,2.18-2.55,3.35-2.52,3.19-4.97,6.02-7.36,8.49-2.75,3.18-5.81,6.62-9.15,10.36-3.34,3.73-6.9,7.29-10.66,10.65-4.37,4.04-8.56,7.75-12.57,11.11-4.01,3.36-8.18,4.96-12.52,4.81-7.01-.25-11.97-2.05-14.89-5.43-2.92-3.37-4-7.15-3.25-11.32,.71-3.94,2.71-8.66,6-14.14,3.29-5.49,6.17-10.29,8.61-14.41-1.94,1.33-5.23,4.43-9.87,9.28-4.65,4.86-9.83,10.04-15.56,15.56-5.73,5.52-11.27,10.28-16.6,14.29-5.34,4.01-9.46,5.97-12.36,5.87-5.07-.18-9.05-1.37-11.94-3.57-2.88-2.2-4-5.16-3.33-8.87,.96-5.34,3.78-11.59,8.48-18.78,1.68-2.58,3.32-5.06,4.9-7.44-1.37,1.5-3.06,3.37-5.1,5.66-3.65,4.07-7.83,8.36-12.52,12.86-4.7,4.51-9.4,8.37-14.11,11.58-4.72,3.22-8.88,4.77-12.5,4.64-5.07-.18-8.84-1.89-11.29-5.13-2.46-3.24-3.46-6.13-3-8.68,.58-3.24,1.1-5.44,1.55-6.6,.89-2.3,2.18-5.05,3.85-8.27,1.67-3.21,3.25-6.31,4.77-9.29-2.4,2.49-5.94,5.98-10.64,10.48-4.7,4.51-9.71,9.06-15.03,13.65-5.32,4.6-10.33,8.45-15.01,11.55-4.69,3.1-8.12,4.62-10.29,4.54-3.87-.14-6.85-1.47-8.95-3.99-2.09-2.53-3.46-5.43-4.08-8.72-.63-3.29-.73-6.09-.31-8.41,1.42-7.89,5.45-16.14,12.11-24.79,6.65-8.63,14.71-16.64,24.18-24.01,9.46-7.37,19.1-13.33,28.92-17.88,9.8-4.56,18.58-6.7,26.31-6.42,5.56,.19,10.47,3.99,14.74,11.38,.35,.71,.73,1.66,1.13,2.84,.39,1.18,.49,2.35,.28,3.51-.37,2.09-1.47,3.45-3.28,4.09-.29,.22-.7-.55-1.23-2.32-.54-1.77-2.98-2.73-7.32-2.89-4.11-.14-9.88,1.52-17.31,4.99-7.43,3.47-15.37,8.09-23.82,13.86-8.45,5.78-16.26,12.03-23.43,18.78-7.17,6.75-12.67,13.33-16.49,19.73-.78,1.61-1.56,3.21-2.32,4.82-.78,1.61-1.27,2.99-1.47,4.15-.37,2.09,.17,3.16,1.61,3.21,1.45,.05,3.52-.69,6.23-2.23,5.7-3.3,11.79-7.46,18.28-12.49,6.49-5.02,12.84-10.28,19.06-15.78,6.22-5.5,11.59-10.74,16.13-15.71,4.54-4.98,7.58-9.07,9.13-12.29,.82-1.83,3.76-2.67,8.84-2.49,4.11,.14,7.46,1.14,10.04,2.98,2.59,1.84,2.97,3.78,1.14,5.82-5.47,6.11-10.88,12.52-16.21,19.21-5.34,6.7-9.59,13.49-12.77,20.38-.41,.92-.74,1.72-.99,2.42-.25,.69-.41,1.27-.49,1.73-.42,2.32,.33,3.52,2.27,3.58,2.18,.08,4.78-.88,7.82-2.87,5.9-4.46,12.35-10.24,19.33-17.35,6.77-6.88,13.7-13.7,20.79-20.46,.14-.15,.29-.31,.45-.47,7.58-8.37,14.72-15.65,21.42-21.83,6.71-6.18,11.26-9.23,13.68-9.15,2.18,.08,4.76,1.28,7.74,3.6,2.98,2.33,5.38,4.57,7.18,6.73-4.98,4.72-10.51,10.08-16.55,16.05-6.06,5.97-11.71,12.07-16.96,18.31-5.26,6.23-9.47,12.09-12.64,17.58-1.92,3.91-2.96,6.32-3.12,7.25-.29,1.63,.04,2.45,1.01,2.49,1.69,.06,4.8-1.7,9.33-5.27,6.52-5.14,13.77-11.71,21.78-19.72,8-8,15.74-15.96,23.25-23.86,7.49-7.9,13.57-13.99,18.23-18.27,3.52-3.38,6.85-5.01,9.99-4.9,2.66,.09,5.09,1.12,7.29,3.06,2.2,1.95,4.26,4.35,6.17,7.22-4.13,4.06-9.31,9.54-15.53,16.43-6.22,6.91-12.05,13.99-17.49,21.27-5.44,7.28-9.26,13.68-11.47,19.2-.41,.92-.78,1.96-1.11,3.11-.33,1.16-.58,2.2-.74,3.13-.63,3.48,.02,5.26,1.96,5.32,1.69,.06,4.21-1.13,7.57-3.59,4.21-3.12,8.7-7.16,13.48-12.13,3.55-3.69,7.33-7.5,11.33-11.44,3.04-3.17,6.35-6.65,9.94-10.43,6.08-6.79,11.7-14.41,16.87-22.86,5.17-8.45,9.45-16.07,12.86-22.83,3.4-6.76,5.35-10.84,5.84-12.23,5.86,2.54,9.82,5.25,11.85,8.12,2.04,2.87,2.77,5.93,2.18,9.18-.79,4.41-3.73,8.86-8.78,13.35-5.06,4.49-10.73,8.61-16.99,12.35,1.63,3.1,3.89,4.69,6.79,4.8,3.13,.11,6.57-1.05,10.29-3.49,3.72-2.43,6.57-4.43,8.56-6,4.69-4.5,9.34-6.67,13.93-6.51,2.66,.09,4.87,.93,6.66,2.51,1.78,1.58,2.46,3.53,2.05,5.85-.21,1.16-.78,2.31-1.72,3.44-4.46,4.52-9.59,10.05-15.38,16.61-5.8,6.57-11.17,13.09-16.09,19.57-4.93,6.48-8.66,12.01-11.18,16.58-.41,.92-.73,1.67-.95,2.25-.23,.58-.38,1.1-.47,1.56-.33,1.86,.35,2.81,2.04,2.87,1.2,.04,2.74-.37,4.59-1.24,1.86-.86,3.35-1.75,4.49-2.64,5.02-3.55,11.49-9.16,19.44-16.82,7.3-7.04,14.12-13.8,20.51-20.29,.04-.06,.08-.11,.11-.17,3.04-4.44,6.57-9.94,12.8-16.4,4.12-4.27,24.23-24.4,49.78-27.7,0,0,11.89-1.54,19.61,3.26,3.49,2.17,5.16,5.24,5.16,5.24,.68,1.25,.94,2.28,1.02,2.59,.34,1.41,.37,2.89,.09,4.45-.54,3.02-2.22,6.28-5.04,9.8-2.82,3.52-6.17,6.61-10.05,9.28-6.31,3.97-13.45,7.87-21.42,11.67-7.97,3.81-15.27,7.51-21.87,11.13-6.61,3.62-11.1,7.26-13.45,10.91-.69,1.14-1.52,1.69-2.49,1.66-1.69-.06-2-1-.95-2.83,3.66-6.87,8.95-12.64,15.86-17.3,6.91-4.66,14.07-9.01,21.5-13.07,7.41-4.05,13.61-8.44,18.59-13.17,3.72-3.14,5.83-6.1,6.33-8.88,.54-3.01-.88-4.58-4.26-4.7-2.9-.1-6.25,.95-10.05,3.14-10.79,5.92-21.33,13.9-31.65,23.92-10.31,10.02-17.89,20.43-22.75,31.23-1.22,2.76-2.04,5.3-2.46,7.62-.79,4.41-.14,7.52,1.97,9.35,2.1,1.83,4.84,2.79,8.22,2.92,2.9,.1,6-.25,9.32-1.07,3.3-.81,6.29-1.88,8.96-3.19,4-1.96,8.11-4.55,12.34-7.79,4.3-3.29,7.52-6.04,10.72-8.9,5.26-4.71,10.62-9.51,16.4-15.3,14.87-14.92,26.3-29.49,32.1-35.26,.17-.24,.34-.49,.56-.74l13.82-18.07c.81-.44,3.19-1.23,7.17-2.37,3.97-1.14,7.53-1.66,10.67-1.55,4.35,.15,6.27,1.62,5.77,4.41-.25,1.39-1.63,3.68-4.14,6.86-.94,1.14-3.14,3.92-6.6,8.35-3.48,4.43-7.37,9.54-11.69,15.34-4.32,5.8-8.35,11.27-12.06,16.39-3.72,5.12-6.41,8.94-8.08,11.44-.04,.23-.13,.41-.27,.52-.15,.11-.24,.29-.28,.51-.17,.93,.89,.15,3.16-2.34,1.68-1.84,3.55-3.51,5.16-5.42,5.42-6.43,36.25-37.95,57.14-44.88,0,0,7.88-2.62,15.46,0,1.91,.66,2.65,1.76,2.79,1.99,.64,1.01,.82,2.31,.53,3.91-.83,4.64-3.77,9.79-8.79,15.44-5.03,5.66-10.5,11.42-16.41,17.28-5.64,5.64-11.24,12.45-16.79,20.42-5.57,7.98-8.85,14.74-9.85,20.31-.84,4.65,.32,7.02,3.46,7.13,1.45,.05,3.51-.58,6.17-1.88,2.14-1.09,6.41-3.92,12.82-8.47,1.86-1.32,3.78-2.82,5.76-4.46,4.45-4.23,8.35-8.03,11.69-11.39,4.59-4.62,9.77-10.1,15.53-16.44,3-3.16,6.13-6.72,9.4-10.7,3.26-3.97,5.83-7.79,7.7-11.46,1.09-7.43,4.78-13.77,11.08-19.04,6.29-5.26,13.55-9.15,21.79-11.66,8.23-2.51,15.68-3.41,22.36-2.71,1.69,.06,3.21,1.4,4.57,4.01,1.35,2.62,2.45,5.28,3.3,8,.85,2.72,1.36,4.31,1.52,4.78l-.13,.69Z"/></g></g><g><path class="b" d="M941.51,236.39v8.12l-10.6,2.33,5.32-24.76h12.03l-.63,24.28c-8.47,4.69-19.61,8.04-33.18,8.04-30.44,0-54.9-17.94-54.9-54.86s26.32-54.86,55.99-54.86c11.95,0,21.58,2.68,30.96,7.81l.63,24.51h-12.03l-5.43-24.99,10.6,2.44v8.73c-7.53-6.78-13.87-9.58-21-9.58-16.89,0-31.72,13.74-31.72,46.04s14.23,45.7,30.95,45.7c7.87,0,15.59-3.26,23-8.97Z"/><path class="b" d="M965.72,218.28v-9.25c0-8.69-.16-11.88-.47-18.2l-9.68-1.42v-6.22l31.19-10.51,2.71,1.69,1.44,19.41v24.49c0,9.8,.16,26.08,.47,33.19h-26.13c.32-7.11,.47-23.39,.47-33.19Zm-8.89,25.83l15.1-3.16h16.62l15.1,3.16v7.36h-46.82v-7.36Zm22.39-46.71h11.86l-2.13,4.3c2.78-19.37,13.79-29.02,23.22-29.02,6.86,0,12.4,3.81,13.73,11.64-.34,8.23-4.9,12.9-11.22,12.9-4.77,0-8.46-2.33-12.22-7.33l-4.61-6.03,6.38,2.3c-5.69,4.15-11.38,12.5-13.42,21.94l-11.59-1.14v-9.56Z"/><path class="b" d="M1101.24,206.05c0,3.41-.25,5.88-.88,8.51h-61.85v-8.35h29.63c7.59,0,9.55-2.84,9.55-9.88,0-10.38-4.96-15.52-10.7-15.52-6.58,0-12.57,7.17-12.57,29.99,0,19.27,9.54,27.97,21.36,27.97,8.52,0,14.38-3.56,19.16-8.48l5.46,5.12c-6.49,12.36-17.86,18.45-33.15,18.45-23,0-39.37-15.04-39.37-40.54s20.31-40.64,40.71-40.64,32.66,14.25,32.66,33.38Z"/><path class="b" d="M1140.67,207.44c6.52-1.92,17.73-4.87,25.18-6.64v6.6c-7.45,1.88-15.98,4.2-20.61,6.32-7.15,3.02-11.81,8.34-11.81,15.78,0,7.92,4.16,11.58,9.49,11.58,3.02,0,5.5-1.26,10.55-4.95l6.35-4.77,1.64,2.29-6.64,7.21c-7.66,8.11-12.57,13-24.04,13-12.22,0-20.72-7.21-20.72-20.21,0-11.24,6.22-19.15,30.59-26.21Zm12.02,31.08v-39.57c0-14-2.71-18.14-12.8-18.14-3.86,0-7.92,.47-14.79,2.27l10.88-6.15-1.14,10.97c-.4,10.51-5.5,14.75-11.59,14.75-5.64,0-9.42-2.71-10.65-7.92,.84-13.15,13.56-22.06,36.32-22.06,20.27,0,28.28,8.57,28.28,29.73v35.44c0,3.12,1.3,4.62,3.57,4.62,1.66,0,2.94-.85,4.79-3.48l4.19,2.79c-3.79,8.63-9.43,11.94-19.02,11.94-10.74,0-16.66-5.64-18.03-15.21Z"/><path class="b" d="M1234.31,240.94c2.91,0,5.5-1.19,8.58-3.51l3.86,3.81c-4.18,8.02-11.57,12.62-23.12,12.62-14.33,0-22.72-6.37-22.72-21.96,0-5.5,.16-9.73,.16-15.9v-30.09h-10.2v-9.42l18.68-2.41-9.06,6.35,9.99-27.54h16.12l-.35,28.46v48.81c0,7.42,3.36,10.78,8.05,10.78Zm8.51-65.87v10.84h-29.04v-10.84h29.04Z"/><path class="b" d="M1258.67,251.46c.32-7.11,.47-23.39,.47-33.19v-7.54c0-8.69-.16-13.59-.47-19.91l-9.77-1.42v-6.22l33.1-10.51,2.71,1.69-.47,22.93v20.97c0,9.8,.16,26.08,.47,33.19h-26.05Zm33.69-7.36v7.36h-41.93v-7.36l14.65-3.16h11.94l15.35,3.16Zm-34.33-95.71c0-7.37,5.95-12.58,13.39-12.58s13.4,5.21,13.4,12.58-5.95,12.58-13.4,12.58-13.39-5.25-13.39-12.58Z"/><path class="b" d="M1307.56,184.91l-14.35-2.8v-7.03h44.88v7.03l-14.38,2.8h-16.16Zm17.26-9.83l20.66,56.22-10.58,17.11,24.87-73.34h11.04l-29.33,76.65h-12.07l-31.92-76.65h27.33Zm35.21,9.49l-13.18-2.46v-7.03h29.8v7.03l-13,2.46h-3.62Z"/><path class="b" d="M1451.27,206.05c0,3.41-.25,5.88-.88,8.51h-61.85v-8.35h29.63c7.59,0,9.55-2.84,9.55-9.88,0-10.38-4.96-15.52-10.7-15.52-6.58,0-12.57,7.17-12.57,29.99,0,19.27,9.54,27.97,21.36,27.97,8.52,0,14.38-3.56,19.16-8.48l5.46,5.12c-6.49,12.36-17.86,18.45-33.15,18.45-23,0-39.37-15.04-39.37-40.54s20.31-40.64,40.71-40.64,32.66,14.25,32.66,33.38Z"/><path class="b" d="M1546.44,229.96c0-8.33-4.11-12.12-13.64-16.35l-6.69-3.05c-18.63-8.49-29.35-17.88-29.35-35.37,0-18.97,15.33-30.49,39.28-30.49,11.27,0,22.16,2.98,29.86,8.03l-1.29,22.14h-14.5l-3.86-23.86,12.74,4.53v7.9c-8.43-6.1-14.39-9.36-22.54-9.36-9.02,0-16.29,5.71-16.29,14.37s5,12.72,14.37,16.92l7.42,3.4c20.18,9.09,28.46,17.8,28.46,33.79,0,18.65-14.28,31.85-41.29,31.85-11.85,0-25.21-2.65-34.31-8.26l.95-23.49h14.73l4.11,25.59-12.21-3.85v-7.59c10.03,5.4,16.54,8.22,26.72,8.22,11.25,0,17.33-6.5,17.33-15.06Z"/><path class="b" d="M1587.11,209.14c0-8.69-.16-12-.47-18.32l-9.68-1.42v-6.22l30.96-10.51,2.6,1.47,1.04,12.29,.75,2.37v49.65l-.47,1.97v11.36c0,10.04,.16,21.53,.47,35.56h-25.66c.32-14.03,.47-25.43,.47-35.47v-42.73Zm35.16,70.73v7.47h-44.22v-7.47l15.12-3.16h15.36l13.74,3.16Zm.84-93.48c-8.36,0-15.46,8.77-20.61,14.06l-1.42-2.62c9.05-16.99,19.55-25.16,33.49-25.16,17.21,0,30.94,13.94,30.94,40.22s-15.96,40.96-33.77,40.96c-14.2,0-22.52-8.07-29.52-24.4l1.42-2.87c6.51,8.72,11.13,13.9,18.99,13.9,9.39,0,16.11-8.53,16.11-27.2s-6.32-26.91-15.62-26.91Z"/><path class="b" d="M1704.35,207.44c6.52-1.92,17.73-4.87,25.18-6.64v6.6c-7.45,1.88-15.98,4.2-20.61,6.32-7.15,3.02-11.81,8.34-11.81,15.78,0,7.92,4.16,11.58,9.49,11.58,3.02,0,5.5-1.26,10.55-4.95l6.35-4.77,1.64,2.29-6.64,7.21c-7.66,8.11-12.57,13-24.04,13-12.22,0-20.72-7.21-20.72-20.21,0-11.24,6.22-19.15,30.59-26.21Zm12.02,31.08v-39.57c0-14-2.71-18.14-12.8-18.14-3.86,0-7.92,.47-14.79,2.27l10.88-6.15-1.14,10.97c-.4,10.51-5.5,14.75-11.59,14.75-5.64,0-9.42-2.71-10.65-7.92,.84-13.15,13.56-22.06,36.32-22.06,20.27,0,28.28,8.57,28.28,29.73v35.44c0,3.12,1.3,4.62,3.57,4.62,1.66,0,2.94-.85,4.79-3.48l4.19,2.79c-3.79,8.63-9.43,11.94-19.02,11.94-10.74,0-16.66-5.64-18.03-15.21Z"/><path class="b" d="M1783.66,210.58c0,18.2,8.76,28.19,22.02,28.19,7.57,0,13.24-3.51,17.79-8.79l5.5,4.86c-6.09,12.89-17.46,19.02-32.43,19.02-21.54,0-39.35-13.8-39.35-40.38s19.09-40.81,42.69-40.81c16.69,0,28.38,10.4,29.52,23.01-1.7,5.66-4.99,8.24-10.65,8.24-6.24,0-11.38-3.84-12.14-14.98l-1.44-11.29,11.49,6.53c-4.92-2.28-9.04-3.38-14.03-3.38-9.07,0-18.99,8.4-18.99,29.76Z"/><path class="b" d="M1910.66,206.05c0,3.41-.25,5.88-.88,8.51h-61.85v-8.35h29.63c7.59,0,9.55-2.84,9.55-9.88,0-10.38-4.96-15.52-10.7-15.52-6.58,0-12.57,7.17-12.57,29.99,0,19.27,9.54,27.97,21.36,27.97,8.52,0,14.38-3.56,19.16-8.48l5.46,5.12c-6.49,12.36-17.86,18.45-33.15,18.45-23,0-39.37-15.04-39.37-40.54s20.31-40.64,40.71-40.64,32.66,14.25,32.66,33.38Z"/></g></svg>