<svg xmlns="http://www.w3.org/2000/svg" xmlns:xlink="http://www.w3.org/1999/xlink" viewBox="0 0 1413.98 1282.52"><defs><style>.cls-1{fill:#26191e;}.cls-2{fill:url(#linear-gradient);}.cls-3{fill:url(#linear-gradient-2);}.cls-4{fill:url(#linear-gradient-3);}.cls-18,.cls-5{fill:#e19cbb;}.cls-6{fill:url(#linear-gradient-4);}.cls-7{fill:url(#linear-gradient-5);}.cls-8{fill:url(#linear-gradient-6);}.cls-9{fill:url(#linear-gradient-7);}.cls-10{fill:url(#linear-gradient-8);}.cls-11{fill:#49323b;}.cls-12{fill:#7b646c;}.cls-13{fill:#937f86;}.cls-14{fill:#fed508;}.cls-15{fill:#020202;}.cls-16{fill:#efe8ea;}.cls-17{fill:none;stroke:#020202;stroke-miterlimit:10;stroke-width:3px;}.cls-18{opacity:0.2;}.cls-19{fill:url(#linear-gradient-9);}.cls-20{fill:url(#linear-gradient-10);}.cls-21{fill:url(#linear-gradient-11);}.cls-22{fill:url(#linear-gradient-12);}.cls-23{fill:url(#linear-gradient-13);}.cls-24{fill:url(#linear-gradient-14);}.cls-25{fill:url(#linear-gradient-15);}.cls-26{fill:url(#linear-gradient-16);}.cls-27{fill:url(#linear-gradient-17);}.cls-28{fill:url(#linear-gradient-18);}.cls-29{fill:url(#linear-gradient-19);}.cls-30{fill:url(#linear-gradient-20);}.cls-31{fill:url(#linear-gradient-21);}.cls-32{fill:url(#linear-gradient-22);}.cls-33{fill:url(#linear-gradient-23);}.cls-34{fill:url(#linear-gradient-24);}</style><linearGradient id="linear-gradient" x1="-774.84" y1="557.46" x2="-542.71" y2="392.79" gradientTransform="matrix(-0.87, 0.49, 0.49, 0.87, 409.63, 554.73)" gradientUnits="userSpaceOnUse"><stop offset="0" stop-color="#33242a"/><stop offset="1" stop-color="#49323b"/></linearGradient><linearGradient id="linear-gradient-2" x1="-1378.77" y1="1176.54" x2="-937.74" y2="1038.54" gradientTransform="matrix(-0.39, 0.59, 0.61, 0.4, 179.05, 684.94)" xlink:href="#linear-gradient"/><linearGradient id="linear-gradient-3" x1="-500.59" y1="158.67" x2="-244.1" y2="12.92" gradientTransform="matrix(-0.99, 0.11, 0.11, 0.99, 650.81, 720.38)" gradientUnits="userSpaceOnUse"><stop offset="0" stop-color="#33242a"/><stop offset="0.15" stop-color="#39282f"/><stop offset="0.57" stop-color="#452f38"/><stop offset="1" stop-color="#49323b"/></linearGradient><linearGradient id="linear-gradient-4" x1="708.11" y1="1278.83" x2="727.31" y2="1163.12" gradientTransform="translate(-141.2 184.88) rotate(-15.75)" gradientUnits="userSpaceOnUse"><stop offset="0" stop-color="#33242a"/><stop offset="0.93" stop-color="#49323b"/></linearGradient><linearGradient id="linear-gradient-5" x1="501.93" y1="1285.17" x2="514.94" y2="1168.6" gradientTransform="matrix(-0.96, 0.27, 0.27, 0.96, 1115.67, -169.61)" xlink:href="#linear-gradient"/><linearGradient id="linear-gradient-6" x1="218.05" y1="902.5" x2="450.18" y2="737.83" gradientTransform="matrix(1, -0.06, 0.06, 1, 17.84, 81.98)" xlink:href="#linear-gradient"/><linearGradient id="linear-gradient-7" x1="83.53" y1="974.47" x2="524.57" y2="836.47" gradientTransform="matrix(0.65, 0.29, -0.3, 0.67, 282.22, 66.97)" xlink:href="#linear-gradient"/><linearGradient id="linear-gradient-8" x1="277.48" y1="865.41" x2="533.98" y2="719.66" gradientTransform="translate(-95.6 351.68) rotate(-26.37)" xlink:href="#linear-gradient-3"/><linearGradient id="linear-gradient-9" x1="482.32" y1="447.91" x2="487.08" y2="419.17" gradientTransform="translate(-145.62 162.54) rotate(-15.72)" xlink:href="#linear-gradient-4"/><linearGradient id="linear-gradient-10" x1="799.77" y1="449.49" x2="803" y2="420.53" gradientTransform="matrix(-0.96, 0.27, 0.27, 0.96, 1111.45, -191.2)" xlink:href="#linear-gradient"/><linearGradient id="linear-gradient-11" x1="891.27" y1="417.62" x2="948.93" y2="376.71" gradientTransform="matrix(-0.93, -0.38, -0.38, 0.93, 1537.36, 369.92)" xlink:href="#linear-gradient"/><linearGradient id="linear-gradient-12" x1="942.23" y1="77.57" x2="1051.78" y2="43.29" gradientTransform="matrix(-0.71, 0.06, 0.07, 0.73, 1291.96, 270.43)" xlink:href="#linear-gradient"/><linearGradient id="linear-gradient-13" x1="929.57" y1="577.41" x2="993.28" y2="541.2" gradientTransform="matrix(-0.7, -0.71, -0.71, 0.7, 1557.74, 661.8)" xlink:href="#linear-gradient-3"/><linearGradient id="linear-gradient-14" x1="508.63" y1="493.71" x2="566.29" y2="452.81" gradientTransform="translate(-366.63 525.41) rotate(-48.46)" xlink:href="#linear-gradient"/><linearGradient id="linear-gradient-15" x1="513.09" y1="410.24" x2="622.64" y2="375.96" gradientTransform="matrix(0.66, -0.26, 0.26, 0.68, -190.9, 327.32)" xlink:href="#linear-gradient"/><linearGradient id="linear-gradient-16" x1="547.73" y1="497.37" x2="611.44" y2="461.17" gradientTransform="matrix(0.32, -0.95, 0.95, 0.32, -255.31, 796)" xlink:href="#linear-gradient-3"/><linearGradient id="linear-gradient-17" x1="776.35" y1="356.11" x2="784.02" y2="309.91" gradientTransform="translate(128.43 -168.63) rotate(15.35)" xlink:href="#linear-gradient-4"/><linearGradient id="linear-gradient-18" x1="485.58" y1="358.52" x2="490.79" y2="311.79" gradientTransform="matrix(-0.96, -0.26, -0.26, 0.96, 1387.72, 177.15)" xlink:href="#linear-gradient"/><linearGradient id="linear-gradient-19" x1="226.78" y1="216.21" x2="318.2" y2="151.36" gradientTransform="matrix(-1, -0.04, -0.04, 1, 1302.81, 78.92)" xlink:href="#linear-gradient"/><linearGradient id="linear-gradient-20" x1="-81.16" y1="226.29" x2="92.53" y2="171.94" gradientTransform="matrix(-0.64, 0.3, 0.31, 0.66, 1038.19, 69.27)" xlink:href="#linear-gradient"/><linearGradient id="linear-gradient-21" x1="427.72" y1="152.07" x2="528.73" y2="94.66" gradientTransform="matrix(-0.9, -0.43, -0.43, 0.9, 1421.7, 346.26)" xlink:href="#linear-gradient-3"/><linearGradient id="linear-gradient-22" x1="503.9" y1="238.75" x2="595.32" y2="173.9" gradientTransform="matrix(0.88, 0.47, -0.47, 0.88, 298.38, -269.08)" xlink:href="#linear-gradient"/><linearGradient id="linear-gradient-23" x1="279.56" y1="80" x2="453.25" y2="25.65" gradientTransform="matrix(0.41, 0.59, -0.6, 0.42, 531.98, -144.39)" xlink:href="#linear-gradient"/><linearGradient id="linear-gradient-24" x1="673.8" y1="281.47" x2="774.82" y2="224.07" gradientTransform="translate(61.2 -97.74) rotate(4.97)" xlink:href="#linear-gradient-3"/></defs><g id="Layer_2" data-name="Layer 2"><g id="Layer_1-2" data-name="Layer 1"><g id="Bat"><path class="cls-1" d="M963.12,811.22l59.09-284.69c3.85-18.59,12.62-33.75,25.28-43.71l351.66-276.7c6.37-5,17,6.27,14.12,15-21.36,64.58-55.31,200.17-1.44,289.66,3.39,5.63,2.71,12.17-1.57,13.93-35.73,14.72-170,81.77-150.7,251.69.79,7-2,12.52-7.22,13.88-35.17,9.23-204.9,10.44-246.26,126-73.13,204.22-46.73-92.16-43.25-103.88C962.94,812,963,811.61,963.12,811.22Z"/><path class="cls-2" d="M1234.07,787.87s-170.59-243.17-173.3-267.42,308.49-.81,308.49-.81c-13.59,3-88.77,20.93-125.8,103.79C1211.3,695.36,1229,769,1234.07,787.87Z"/><path class="cls-3" d="M1386,502.66S1117.33,500.8,1108.17,485s273.64-216.51,273.64-216.51c-7.07,6.9-45.69,46.19-41.63,116.86C1343.71,446.66,1377.1,491.37,1386,502.66Z"/><path class="cls-4" d="M972.5,951.89s64.33-369.79,70.44-391.78,159.2,220.55,159.2,220.55c-14.41-3.39-94.7-20.75-161,34.21C983.57,862.58,974.36,933.46,972.5,951.89Z"/><path class="cls-1" d="M757.86,707.86c-6.87,19.59-28.44,48.42-32.23,52.95-18.63,22.29-39.52,11-53.08,19.45-100.68-7.35-140-230.18-123.6-244.83C582.3,505.57,798,593.37,757.86,707.86Z"/><path class="cls-5" d="M732.17,715.19c-3.58,12-15.36,29.56-17.43,32.31-10.21,13.52-22.25,6.19-29.8,11.2-57.23-6.18-83.13-145-74.08-153.82C629.29,586.9,753.09,644.84,732.17,715.19Z"/><path class="cls-1" d="M820.4,690.23c16.09,13.11,49.55,26.41,55.15,28.29C903.07,727.8,915,707.26,931,707.37,1013,648.5,930,438,908.42,434,864.38,426,726.34,613.59,820.4,690.23Z"/><path class="cls-5" d="M846.14,683.05c9.34,8.39,28.54,17.18,31.74,18.44,15.77,6.19,22.2-6.35,31.26-6,45.57-35.18-4.9-167.07-17.21-169.87C866.81,519.91,791.54,634,846.14,683.05Z"/><path class="cls-1" d="M984.35,966.41l42.13,208.84c.78,3.9-.92,7.61-4,8.7-14.81,5.22-55.31,25.45-64.91,92.75-.87,6-7.28,7.86-11.19,3.16-42.88-51.65-86.56-48.69-101.57-45.72-3.21.64-6.55-1.62-7.91-5.33l-73.23-200.14"/><path class="cls-6" d="M949.57,1269.34s-86.48-199.11-96-199.38c-70.64-2-9.66,154.38-9.66,154.38,4.46-3.24,23-12.09,57.14,4.3C930.7,1242.88,945.36,1261.4,949.57,1269.34Z"/><path class="cls-7" d="M951.06,1268.92s-30.31-215-22.36-220.15c59.16-38.65,88.91,126.58,88.91,126.58-5.49-.43-25.94,1.72-46.47,33.53C953.31,1236.5,950.5,1260,951.06,1268.92Z"/><path class="cls-1" d="M701.71,884.49,498.16,676.86c-13.28-13.55-28.86-21.57-44.88-23.11L7.86,610.92c-8.07-.77-10.92,14.46-3.78,20.24C56.94,674,158.77,769.71,161.8,874.12c.19,6.58,4.29,11.71,8.84,10.88,38-6.92,187.28-23.08,262.81,130.36,3.09,6.28,8.47,9.44,13.57,7.78,34.58-11.24,178.05-101.93,275.29-27.06,171.87,132.33-10.49-102.8-19.74-110.78C702.27,885,702,884.78,701.71,884.49Z"/><path class="cls-8" d="M461.09,1011.25s12.16-296.8,1.34-318.66-260,166-260,166c13-4.86,86-30.36,161.94,19.35C430.27,921.1,455.15,992.61,461.09,1011.25Z"/><path class="cls-9" d="M179.17,853.33s225.05-146.72,224.2-165S56.12,654,56.12,654c9.68,2,63.41,14.17,98.17,75.84C184.47,783.37,180.54,839,179.17,853.33Z"/><path class="cls-10" d="M769.82,1007.93s-253.94-276.4-271-291.61-14.79,271.61-14.79,271.61c10.29-10.64,68.47-68.63,154-58.21C712.24,938.76,758.3,993.43,769.82,1007.93Z"/><ellipse class="cls-1" cx="862.67" cy="961.24" rx="140.53" ry="170.27" transform="translate(-228.54 270.27) rotate(-15.75)"/><ellipse class="cls-11" cx="855.17" cy="930.78" rx="140.53" ry="170.27" transform="translate(-220.56 267.09) rotate(-15.75)"/><path class="cls-12" d="M960.71,757.15c28.33,29.38,24.39,61.07,4.93,88.61-20.39,27.77-56.29,51.4-113.46,69.78-59.09,17.53-113.8,9.59-143.63-4.3-31.21-15.14-37.53-36.24-31.68-74,7.14-39.56,36.23-78.91,55-106.23,21-28,31.79-44,53.49-52.16,23.73-7.3,49.14,6.43,80,20.26C895.58,714.29,931.22,729.59,960.71,757.15Z"/><path class="cls-13" d="M955.29,737.92c27.49,26.38,22.85,55.62,2.89,81.4-20.89,26-57.1,48.55-114.32,66.75-59.1,17.46-113.28,11.39-142.61-.71-30.66-13.22-36.47-32.49-29.8-67.39,8-36.55,37.78-73.4,57.09-99,21.53-26.22,32.59-41.16,54.33-49.19,23.75-7.24,48.68,4.81,79,16.84C891.54,700,926.6,713.23,955.29,737.92Z"/><ellipse class="cls-1" cx="811.72" cy="771.41" rx="136.35" ry="97.84" transform="translate(-178.93 249.31) rotate(-15.75)"/><ellipse class="cls-11" cx="804.7" cy="753.96" rx="136.35" ry="97.84" transform="translate(-174.45 246.75) rotate(-15.75)"/><circle class="cls-14" cx="734.81" cy="768.07" r="25.13"/><path class="cls-15" d="M780.83,787.74c-3.57-12.65,7.85-27,25.51-31.93s34.86,1.24,38.43,13.9"/><circle class="cls-14" cx="872.33" cy="729.29" r="25.13"/><circle class="cls-15" cx="734.81" cy="768.07" r="20.61"/><circle class="cls-15" cx="872.33" cy="729.29" r="20.61"/><polygon class="cls-16" points="848.11 799.77 835.64 811.39 853.53 815.93 848.11 799.77"/><polygon class="cls-16" points="794.97 815.34 811.67 818.73 798.8 831.95 794.97 815.34"/><path class="cls-17" d="M787.79,810.84c4.48,2.56,18.63,9.9,35.09,5.47s24.75-17.6,27.32-22"/><ellipse class="cls-11" cx="730.08" cy="792.5" rx="32.63" ry="14.03" transform="translate(-187.72 227.95) rotate(-15.75)"/><ellipse class="cls-11" cx="889.25" cy="747.61" rx="32.63" ry="14.03" transform="translate(-169.55 269.47) rotate(-15.75)"/><ellipse class="cls-18" cx="733.59" cy="799.03" rx="32.63" ry="14.03" transform="translate(-189.36 229.14) rotate(-15.75)"/><ellipse class="cls-18" cx="892.76" cy="754.13" rx="32.63" ry="14.03" transform="translate(-171.19 270.66) rotate(-15.75)"/></g><g id="Bat-2" data-name="Bat"><path class="cls-1" d="M410.24,324.12c-.87,5.09-4.94,13.05-5.68,14.32-3.62,6.23-9.21,4.35-12.18,7-24.95,2.42-43.91-50.49-40.52-54.76C358.77,282,415.27,294.41,410.24,324.12Z"/><path class="cls-5" d="M404.25,327c-.37,3.1-2.52,7.89-2.91,8.65-1.93,3.73-5.19,2.44-6.83,4-14.27.88-26.43-32-24.58-34.56C373.69,299.9,406.43,308.89,404.25,327Z"/><path class="cls-1" d="M418.78,321.26c3.31,3.95,10.84,8.77,12.12,9.49,6.28,3.55,10.15-.9,14-.12,22.76-10.51,12.41-65.75,7.33-67.73C441.91,258.88,399.43,298.15,418.78,321.26Z"/><path class="cls-5" d="M425.39,320.71a35,35,0,0,0,6.88,6c3.55,2.25,5.71-.5,7.91,0,12.76-6.44,6.64-41,3.77-42.24C438.09,281.89,414.38,306.19,425.39,320.71Z"/><path class="cls-1" d="M464.09,399.22l10.43,51.88a1.82,1.82,0,0,1-1,2.16c-3.68,1.29-13.74,6.31-16.14,23a1.52,1.52,0,0,1-2.77.78C444,464.23,433.11,465,429.38,465.7a1.83,1.83,0,0,1-2-1.33l-18.16-49.72"/><path class="cls-19" d="M455.41,474.46S434,425,431.6,424.92c-17.55-.52-2.43,38.34-2.43,38.34,1.11-.8,5.72-3,14.2,1.08C450.72,467.88,454.36,472.48,455.41,474.46Z"/><path class="cls-20" d="M455.78,474.35s-7.5-53.39-5.52-54.68c14.7-9.59,22.06,31.45,22.06,31.45-1.36-.1-6.44.43-11.55,8.32C456.34,466.3,455.64,472.13,455.78,474.35Z"/><path class="cls-1" d="M463.9,368.07l64.49-32.51a18.17,18.17,0,0,1,12.41-1.83L649,359.35c2,.46,1.41,4.27-.73,5.06-15.86,5.83-47.47,20.18-56.55,44.48-.57,1.53-1.95,2.41-2.95,1.85-8.39-4.67-42.19-20.43-72.24,9.59-1.23,1.23-2.74,1.54-3.81.75-7.23-5.42-33.7-38.23-62.56-28.42-51,17.34,10.71-23.33,13.52-24.47A1.59,1.59,0,0,0,463.9,368.07Z"/><path class="cls-21" d="M510.31,417.15s20.92-70.75,25.22-75S583.36,402,583.36,402a45,45,0,0,0-39.62-8.43C524.78,398.43,513.2,413.25,510.31,417.15Z"/><path class="cls-22" d="M589.25,402.61s-41.16-52.52-39.49-56.75,84.39,19.75,84.39,19.75c-2.43-.31-16-1.75-29.16,10C593.61,385.74,590.07,399.14,589.25,402.61Z"/><path class="cls-23" d="M438,391.64s81.85-44.64,87.07-46.85-18.28,65-18.28,65c-1.57-3.33-10.6-21.62-31.53-26C457.07,380,441.86,389.15,438,391.64Z"/><path class="cls-1" d="M397.64,384.07l-72.22-.5a18.21,18.21,0,0,0-11.93,3.86L228,458.4c-1.55,1.29.63,4.46,2.9,4.21,16.8-1.82,51.5-3,70.42,14.76,1.19,1.12,2.81,1.29,3.47.34,5.43-7.9,28.72-37,69-23.47,1.65.56,3.14.16,3.75-1,4.07-8.06,13.22-49.21,43.43-53.23,53.41-7.11-19.94-16.16-23-15.92Z"/><path class="cls-24" d="M377.84,448.65s-50.16-54.11-55.91-56-16.28,74.87-16.28,74.87a45.05,45.05,0,0,1,31.76-25.14C356.56,438.3,373.51,446.44,377.84,448.65Z"/><path class="cls-25" d="M300.65,470.67s13.56-65.34,10.19-68.39S244,457.44,244,457.44c2-1.36,13.6-8.69,30.55-4C289.25,457.48,298.37,467.92,300.65,470.67Z"/><path class="cls-26" d="M431.31,393.68s-93.16-3.66-98.82-3.32,45.26,50.16,45.26,50.16c-.07-3.67-.1-24.08,16.7-37.31C409,391.71,426.74,393.17,431.31,393.68Z"/><ellipse class="cls-1" cx="433.93" cy="391.46" rx="34.91" ry="42.29" transform="translate(-89.81 132.18) rotate(-15.72)"/><ellipse class="cls-11" cx="432.07" cy="383.89" rx="34.91" ry="42.29" transform="translate(-87.83 131.39) rotate(-15.72)"/><path class="cls-12" d="M457.93,342.28c7,7.24,6,15.05,1.17,21.85-5.08,6.85-14,12.69-28.21,17.24-14.68,4.35-28.26,2.41-35.66-1-7.73-3.72-9.29-8.92-7.81-18.24,1.8-9.76,9.05-19.47,13.74-26.21,5.24-6.91,7.92-10.85,13.31-12.88,5.9-1.81,12.19,1.57,19.84,5C441.8,331.74,450.63,335.5,457.93,342.28Z"/><path class="cls-13" d="M456.6,337.54c6.81,6.5,5.64,13.71.66,20.07-5.2,6.42-14.2,12-28.42,16.5-14.68,4.33-28.13,2.85-35.4-.12-7.6-3.25-9-8-7.35-16.6,2-9,9.42-18.11,14.24-24.42,5.36-6.48,8.11-10.16,13.52-12.15,5.9-1.8,12.08,1.17,19.6,4.12C440.8,328.21,449.5,331.47,456.6,337.54Z"/><ellipse class="cls-1" cx="421.31" cy="344.3" rx="33.87" ry="24.3" transform="translate(-77.51 127) rotate(-15.72)"/><ellipse class="cls-11" cx="419.57" cy="339.96" rx="33.87" ry="24.3" transform="translate(-76.4 126.36) rotate(-15.72)"/><path class="cls-14" d="M403.71,337.4a6.24,6.24,0,1,1-3.2.05,6.11,6.11,0,0,1,3.2-.05"/><path class="cls-15" d="M415.64,347.51c-.88-3.14,1.26-6.49,4.78-7.48s7.1.75,8,3.89"/><circle class="cls-14" cx="436.37" cy="333.84" r="6.24"/><circle class="cls-15" cx="402.2" cy="343.46" r="5.12"/><circle class="cls-15" cx="436.37" cy="333.84" r="5.12"/><path class="cls-15" d="M414.3,354.26c1.38,1.14,5.7,4.46,10.32,3.25s6.62-6.11,7.23-7.78"/><polygon class="cls-16" points="429.53 350.5 425.41 351.46 428.69 354.65 429.53 350.5"/><polygon class="cls-16" points="417.1 353.52 421.22 352.56 419.68 356.87 417.1 353.52"/><ellipse class="cls-18" cx="404.08" cy="355.06" rx="4.71" ry="3.95" transform="translate(-81.07 122.73) rotate(-15.72)"/><ellipse class="cls-18" cx="440.64" cy="344.77" rx="4.68" ry="3.93" transform="translate(-76.92 132.25) rotate(-15.72)"/></g><g id="Bat-3" data-name="Bat"><path class="cls-1" d="M843.93,201.55c-6.95,4.31-20.7,7.79-23,8.24-11.22,2.22-14.83-6.4-21.07-7.18C770.85,175.44,814,97.46,822.61,97,840.22,96.13,884.57,176.42,843.93,201.55Z"/><path class="cls-5" d="M834.24,197.44c-4.07,2.8-12,5.25-13.33,5.58-6.48,1.62-8.35-3.61-11.9-3.94-16-16.06,10.43-65,15.38-65.46C834.49,132.68,858.07,181.07,834.24,197.44Z"/><path class="cls-1" d="M864.11,208.33c3.66,7.31,13.52,17.5,15.22,19.08,8.39,7.79,16,2.34,21.71,5,39-7.86,43.25-96.87,36.13-101.78C922.66,120.58,842.74,165.59,864.11,208.33Z"/><path class="cls-5" d="M874.51,209.91c2,4.53,7.47,10.79,8.42,11.76,4.66,4.78,9,1.32,12.2,2.9,22-5.26,25.27-60.78,21.3-63.78C908.34,154.68,862.85,183.47,874.51,209.91Z"/><path class="cls-1" d="M880.54,314.42l-31.39,80a3.28,3.28,0,0,1-3.63,2.08c-7.15-1.42-28.09-3.29-47.51,17.48a3,3,0,0,1-5.21-1.34c-5.27-26.78-23.49-35.2-30.2-37.43a3,3,0,0,1-2-3.51l16.9-83.74"/><path class="cls-27" d="M796.52,409.73s11.33-86.23,7.59-88.37c-27.89-15.94-39.59,50.31-39.59,50.31,2.54-.14,12,.86,21.94,13.79C795.07,396.68,796.66,406.13,796.52,409.73Z"/><path class="cls-28" d="M797.21,409.91s37.55-79.49,41.94-79.54c32.69-.36,6.42,62.14,6.42,62.14-2.11-1.33-10.81-5-26.41,1.36C805.62,399.4,799.06,406.75,797.21,409.91Z"/><path class="cls-1" d="M904.3,256l78.49-83.38c5.12-5.44,11.19-8.72,17.49-9.46l175-20.42c3.17-.37,4.41,5.61,1.65,7.94-20.48,17.28-59.81,55.79-60.17,96.93,0,2.59-1.59,4.64-3.39,4.35-15-2.42-73.93-7.59-102.44,53.43-1.17,2.5-3.26,3.78-5.28,3.17-13.71-4.15-70.92-38.71-108.61-8.46-66.62,53.48,3.31-40.56,6.89-43.77C904.08,256.24,904.19,256.14,904.3,256Z"/><path class="cls-29" d="M1000.05,304S992.9,187.25,997,178.55s103.71,63.29,103.71,63.29a71.4,71.4,0,0,0-63.61,8.91C1011.47,268.27,1002.25,296.62,1000.05,304Z"/><path class="cls-30" d="M1109.8,239.58s-89.79-56-89.6-63.18,136.46-16.29,136.46-16.29c-3.8.86-24.86,6.09-38.05,30.64C1107.15,212.07,1109.15,234,1109.8,239.58Z"/><path class="cls-31" d="M878.47,305.17s97.78-110.86,104.36-117,8,106.82,8,106.82c-4.14-4.1-27.51-26.47-61.09-21.69C900.58,277.47,882.88,299.37,878.47,305.17Z"/><path class="cls-1" d="M787.79,234.61,761.85,123.07c-1.69-7.28-5.28-13.17-10.36-17L610.44.45c-2.55-1.91-6.63,2.63-5.42,6,9,25.23,23.65,78.29,3.29,114-1.29,2.25-1,4.82.74,5.47,14.21,5.46,67.72,30.6,61.7,97.68-.25,2.75.91,4.91,3,5.4,13.93,3.3,80.77,2.19,98.14,47.29,30.7,79.72,17.53-36.73,16-41.31A3.17,3.17,0,0,1,787.79,234.61Z"/><path class="cls-32" d="M680.89,228S745.77,130.61,746.61,121s-121.46,2.57-121.46,2.57a71.42,71.42,0,0,1,50.5,39.69C689,191.32,682.7,220.47,680.89,228Z"/><path class="cls-33" d="M618.41,117.09s105.75-3.26,109.21-9.58S617.85,24.83,617.85,24.83c2.85,2.65,18.43,17.76,17.49,45.62C634.52,94.64,621.8,112.56,618.41,117.09Z"/><path class="cls-34" d="M785.41,290.08s-28.79-145-31.4-153.59-60.62,88.33-60.62,88.33c5.64-1.47,37.09-9.06,63.71,12C780.21,255,784.51,282.84,785.41,290.08Z"/><ellipse class="cls-1" cx="829.53" cy="295.58" rx="67.06" ry="55.35" transform="translate(324.85 1017.24) rotate(-74.65)"/><ellipse class="cls-11" cx="833.2" cy="283.79" rx="67.06" ry="55.35" transform="translate(338.92 1012.11) rotate(-74.65)"/><path class="cls-12" d="M899.65,259.17c2.87,17.37-5.16,28.72-17.31,35.16-12.5,6.33-29.12,7.76-51.49,2.61-22.81-5.87-38.77-20.62-45.43-32.34-6.84-12.49-4.38-22,5.56-35.26,10.74-13.7,28.52-22.63,40.42-29.13,12.75-6.27,19.63-10.12,28.38-8.64,9.22,2.26,14.49,13,21.49,24.89C887.77,228.76,896,242.26,899.65,259.17Z"/><path class="cls-13" d="M902,250.61c3.24,16-4.49,26.29-16.43,31.95-12.28,5.55-28.77,6.49-51.12,1.27-22.8-5.91-39-19.83-45.87-30.75-7.07-11.64-4.84-20.3,4.76-32.3,10.37-12.36,27.84-20.18,39.52-25.89,12.54-5.5,19.29-8.88,28-7.33,9.21,2.29,14.68,12.26,21.91,23.36C889.52,222.38,898,235,902,250.61Z"/><ellipse class="cls-1" cx="848.19" cy="230.51" rx="38.53" ry="53.7" transform="translate(401.32 987.39) rotate(-74.65)"/><ellipse class="cls-11" cx="849.38" cy="223.2" rx="38.53" ry="53.7" transform="translate(409.24 983.16) rotate(-74.65)"/><circle class="cls-14" cx="822.94" cy="213.74" r="9.9"/><path class="cls-15" d="M836.56,231.69c1.93-7,8.05-11.45,13.68-9.9s8.64,8.48,6.71,15.49"/><circle class="cls-14" cx="877.2" cy="228.64" r="9.9"/><circle class="cls-15" cx="822.94" cy="213.74" r="8.12"/><circle class="cls-15" cx="877.2" cy="228.64" r="8.12"/><polygon class="cls-16" points="854.7 247.48 848.13 248.86 853.24 254.03 854.7 247.48"/><polygon class="cls-16" points="833.61 241.92 838.55 246.46 831.52 248.3 833.61 241.92"/><path class="cls-17" d="M832.11,238.94c1,1.77,4.26,7.13,10.71,9s11.93-.9,13.7-1.87"/><polygon class="cls-11" points="817.28 201.63 842.55 209.37 834.08 222.04 817.28 201.63"/><polygon class="cls-11" points="891.46 221.67 866.19 213.93 866.12 229.18 891.46 221.67"/></g><ellipse class="cls-18" cx="814.98" cy="230.15" rx="2.4" ry="12.54" transform="translate(377.25 955.1) rotate(-74.65)"/><ellipse class="cls-18" cx="876.26" cy="246.97" rx="2.4" ry="12.54" transform="translate(406.08 1026.56) rotate(-74.65)"/></g></g></svg>