<svg xmlns="http://www.w3.org/2000/svg" xmlns:xlink="http://www.w3.org/1999/xlink" viewBox="0 0 3893.65 1786.86"><defs><style>.cls-1{fill:#fcd672;}.cls-2{font-size:150.44px;}.cls-19,.cls-2,.cls-3{fill:#26191e;}.cls-19,.cls-2{font-family:Flegrei-Regular, Flegrei;}.cls-4{fill:url(#linear-gradient);}.cls-5{fill:url(#linear-gradient-2);}.cls-6{fill:url(#linear-gradient-3);}.cls-7{fill:#f095cd;}.cls-8{fill:url(#linear-gradient-4);}.cls-9{fill:url(#linear-gradient-5);}.cls-10{fill:url(#linear-gradient-6);}.cls-11{fill:url(#linear-gradient-7);}.cls-12{fill:url(#linear-gradient-8);}.cls-13{fill:#49323b;}.cls-14{fill:#7b646c;}.cls-15{fill:#937f86;}.cls-16{fill:#020202;}.cls-17{fill:#e19cbb;opacity:0.2;}.cls-18{fill:#efe8ea;}.cls-19{font-size:138.25px;}.cls-20{fill:#26181d;}.cls-21{fill:#e896c1;}.cls-22{fill:#fed508;}</style><linearGradient id="linear-gradient" x1="332.37" y1="1192.16" x2="660.33" y2="959.5" gradientTransform="matrix(0.98, 0.21, -0.21, 0.98, 186.87, -413.06)" gradientUnits="userSpaceOnUse"><stop offset="0" stop-color="#33242a"/><stop offset="1" stop-color="#49323b"/></linearGradient><linearGradient id="linear-gradient-2" x1="-602.9" y1="2080.24" x2="20.22" y2="1885.26" gradientTransform="matrix(0.55, 0.45, -0.46, 0.56, 1316.02, -481.05)" xlink:href="#linear-gradient"/><linearGradient id="linear-gradient-3" x1="745.98" y1="642.03" x2="1108.37" y2="436.1" gradientTransform="translate(-265.38 472.79) rotate(-10.92)" gradientUnits="userSpaceOnUse"><stop offset="0" stop-color="#33242a"/><stop offset="0.15" stop-color="#39282f"/><stop offset="0.57" stop-color="#452f38"/><stop offset="1" stop-color="#49323b"/></linearGradient><linearGradient id="linear-gradient-4" x1="3611.5" y1="1427.26" x2="3638.63" y2="1263.77" gradientTransform="matrix(-1, -0.01, -0.01, 1, 4729.7, -15.32)" gradientUnits="userSpaceOnUse"><stop offset="0" stop-color="#33242a"/><stop offset="0.93" stop-color="#49323b"/></linearGradient><linearGradient id="linear-gradient-5" x1="852.23" y1="1436.21" x2="870.6" y2="1271.51" gradientTransform="translate(130.6 -39.77) rotate(0.3)" xlink:href="#linear-gradient"/><linearGradient id="linear-gradient-6" x1="2740.02" y1="673.19" x2="3067.99" y2="440.54" gradientTransform="matrix(-0.98, 0.21, 0.21, 0.98, 4369.59, -413.06)" xlink:href="#linear-gradient"/><linearGradient id="linear-gradient-7" x1="2071.59" y1="-61.92" x2="2694.71" y2="-256.89" gradientTransform="matrix(-0.55, 0.45, 0.46, 0.56, 3240.43, -481.05)" xlink:href="#linear-gradient"/><linearGradient id="linear-gradient-8" x1="3164.31" y1="1108.71" x2="3526.7" y2="902.78" gradientTransform="matrix(-0.98, -0.19, -0.19, 0.98, 4821.83, 472.79)" xlink:href="#linear-gradient-3"/></defs><g id="Layer_2" data-name="Layer 2"><g id="Layer_1-2" data-name="Layer 1"><circle class="cls-1" cx="1046.75" cy="853.68" r="700.84"/><text class="cls-2" transform="translate(254.69 1116.67) rotate(72.89) scale(0.81 1)"> </text><text class="cls-2" transform="translate(264.24 1150.36) rotate(68.79) scale(0.81 1)">t</text><text class="cls-2" transform="translate(296.44 1232.61) rotate(62.47) scale(0.81 1)">h</text><text class="cls-2" transform="matrix(0.45, 0.67, -0.83, 0.56, 340.03, 1314.95)">e</text><text class="cls-2" transform="matrix(0.5, 0.64, -0.79, 0.62, 386.9, 1383.26)"> </text><text class="cls-2" transform="matrix(0.52, 0.61, -0.76, 0.65, 408.81, 1411.23)"> </text><text class="cls-2" transform="translate(432.81 1440.76) rotate(44.93) scale(0.81 1)">N</text><text class="cls-2" transform="matrix(0.63, 0.5, -0.62, 0.79, 501.31, 1508.63)">o</text><text class="cls-2" transform="translate(581.38 1570.25) rotate(31.75) scale(0.81 1)">c</text><text class="cls-2" transform="translate(654.03 1614.81) rotate(25.68) scale(0.81 1)">t</text><text class="cls-2" transform="translate(733.68 1652.73) rotate(19.45) scale(0.81 1)">u</text><text class="cls-2" transform="translate(818.51 1682.18) rotate(13.31) scale(0.81 1)">r</text><text class="cls-2" transform="translate(902.18 1701.83) rotate(6.96) scale(0.81 1)">n</text><text class="cls-2" transform="translate(997.88 1713.13) rotate(0.18) scale(0.81 1)">a</text><text class="cls-2" transform="translate(1095.98 1712.54) rotate(-5.92) scale(0.81 1)">l</text><text class="cls-2" transform="translate(1168.69 1704.31) rotate(-9.64) scale(0.81 1)"> </text><text class="cls-2" transform="translate(1203.68 1698.3) rotate(-12.1) scale(0.81 1)"> </text><text class="cls-2" transform="translate(1240.44 1691.07) rotate(-16.23) scale(0.81 1)">p</text><text class="cls-2" transform="matrix(0.74, -0.31, 0.39, 0.92, 1323.04, 1667)">o</text><text class="cls-2" transform="translate(1415.73 1627.03) rotate(-29.01) scale(0.81 1)">l</text><text class="cls-2" transform="translate(1483.43 1589.15) rotate(-34.44) scale(0.81 1)">l</text><text class="cls-2" transform="translate(1546.04 1545.37) rotate(-38.86) scale(0.81 1)">i</text><text class="cls-2" transform="matrix(0.58, -0.56, 0.69, 0.72, 1585.95, 1514.12)">n</text><text class="cls-2" transform="matrix(0.51, -0.62, 0.77, 0.63, 1655.06, 1446.98)">a</text><text class="cls-2" transform="matrix(0.45, -0.67, 0.83, 0.56, 1708.94, 1381.19)">t</text><text class="cls-2" transform="matrix(0.37, -0.72, 0.89, 0.46, 1757.69, 1308.44)">o</text><text class="cls-2" transform="translate(1803.43 1218.08) rotate(-69.21) scale(0.81 1)">r</text><text class="cls-2" transform="translate(1832.09 1139.68) rotate(-73.45) scale(0.81 1)"> </text><g id="Bat"><path class="cls-3" d="M857.41,861.18,658.35,501.84c-13-23.46-31.18-40.24-52.43-48.37L15.46,227.54c-10.7-4.09-20.31,15.58-12.77,26.14C58.58,331.87,161.22,500.57,126.06,643.9c-2.22,9,1.44,17.55,7.95,18.14,54.37,4.88,263.72,39,308.84,276.42,1.85,9.72,8,16,15.55,15.7,51.32-2.29,280.83-71.8,385.08,66.73,184.27,244.9,24.4-143.93,14.8-158.28C858,862.15,857.69,861.68,857.41,861.18Z"/><path class="cls-4" d="M482,943.26S610.28,543.66,603.77,509.8,187.2,638,187.2,638c19.58-1.71,128.55-9,213.25,87.29C474,808.9,481,915.64,482,943.26Z"/><path class="cls-5" d="M157.53,622.13S519.22,507,524.94,481.78,65,304.36,65,304.36c12.43,6.35,81,43.17,105.15,140.22C191.08,528.84,164.78,603.17,157.53,622.13Z"/><path class="cls-6" d="M903.72,1054.92S661.91,583,644.46,555.84,522.1,920.15,522.1,920.15c18-10.61,119.08-67.69,231.58-21.34C851.34,939.06,893.49,1030.84,903.72,1054.92Z"/><path class="cls-3" d="M1093.15,630.51c16.73,27.94,57,64,63.82,69.54,33.75,27.07,58,.15,79.61,7.55,134.33-55.53,104-424.53,76.19-440.52C1256.11,234.48,995.39,467.25,1093.15,630.51Z"/><path class="cls-7" d="M1130.9,630.87c9.41,17.45,32,40,35.89,43.42,19,16.89,32.63.07,44.8,4.68,75.62-34.74,58.63-265.24,43-275.22C1222.72,383.41,1075.93,528.92,1130.9,630.87Z"/><path class="cls-3" d="M1129.35,639.27c8.28,14.56,28.18,33.38,31.57,36.25,16.7,14.11,28.69.07,39.4,3.92,66.47-29,51.49-221.39,37.74-229.72C1210,432.73,1081,554.15,1129.35,639.27Z"/><path class="cls-3" d="M1001.35,630c-17,27.73-57.54,63.33-64.45,68.74-34,26.65-58-.56-79.68,6.57C723.4,648.08,757.15,279.47,785.08,263.83,842,231.92,1100.6,467.9,1001.35,630Z"/><path class="cls-7" d="M963.6,629.84c-9.57,17.33-32.4,39.58-36.29,43-19.14,16.66-32.62-.33-44.84,4.13-75.29-35.66-56.2-266-40.47-275.73C874.05,381.26,1019.5,528.57,963.6,629.84Z"/><path class="cls-3" d="M966.88,641.6c-8.28,14.56-28.18,33.38-31.57,36.25-16.7,14.11-28.69.06-39.39,3.92-66.48-29-51.49-221.39-37.75-229.72C886.2,435.06,1015.23,556.48,966.88,641.6Z"/><path class="cls-3" d="M882,1079.11l21.21,300.24c.4,5.62,4.11,10,8.76,10.34,22.13,1.53,84.9,13.85,123.3,101.89,3.46,7.91,12.87,8,16.42.08,39-86.47,99.57-98.88,121.12-100.47,4.61-.34,8.31-4.68,8.76-10.24L1206,1080.83"/><path class="cls-8" d="M1043.37,1478.55s42.84-303.69,55.67-307.64c95.43-29.36,71.25,206.6,71.25,206.6-7.29-2.73-35.89-7.8-76.2,27.37C1059.09,1435.41,1046.11,1466.15,1043.37,1478.55Z"/><path class="cls-9" d="M1041.18,1478.54s-39.61-304.13-52.4-308.21c-95.11-30.38-73.45,205.83-73.45,205.83,7.33-2.65,36-7.42,75.91,28.17C1025.91,1435.24,1038.56,1466.11,1041.18,1478.54Z"/><path class="cls-3" d="M1236.09,861.18l199.06-359.34c13-23.46,31.19-40.24,52.43-48.37l590.47-225.93c10.69-4.09,20.31,15.58,12.76,26.14-55.88,78.19-158.53,246.89-123.36,390.22,2.21,9-1.44,17.55-8,18.14-54.38,4.88-263.73,39-308.85,276.42-1.84,9.72-8,16-15.55,15.7-51.32-2.29-280.83-71.8-385.07,66.73-184.28,244.9-24.41-143.93-14.81-158.28C1235.53,862.15,1235.81,861.68,1236.09,861.18Z"/><path class="cls-10" d="M1611.46,943.26s-128.24-399.6-121.73-433.46S1906.3,638,1906.3,638c-19.58-1.71-128.54-9-213.25,87.29C1619.51,808.9,1612.55,915.64,1611.46,943.26Z"/><path class="cls-11" d="M1936,622.13S1574.28,507,1568.56,481.78s460-177.42,460-177.42c-12.44,6.35-81,43.17-105.15,140.22C1902.42,528.84,1928.73,603.17,1936,622.13Z"/><path class="cls-12" d="M1189.78,1054.92s241.81-472,259.27-499.08S1571.4,920.15,1571.4,920.15c-18-10.61-119.08-67.69-231.57-21.34C1242.16,939.06,1200,1030.84,1189.78,1054.92Z"/><ellipse class="cls-3" cx="1045.77" cy="1026.27" rx="240.57" ry="198.55" transform="translate(13.96 2066.57) rotate(-89.7)"/><ellipse class="cls-13" cx="1044.52" cy="981.97" rx="240.57" ry="198.55" transform="translate(57.01 2021.26) rotate(-89.7)"/><path class="cls-14" d="M835.45,785.23c-27.53,50.67-10.23,92.34,26.64,122.53,38.22,30.14,96,48.81,180.77,52.33,87.06,1.63,158.58-29.76,194-59.9,36.8-32.36,37.48-63.47,15.29-112.74-24.62-51.19-79-93.83-114.94-124-39.17-30.2-59.84-47.9-92.47-50.9-35.07-1-64.5,27.26-101.29,57.69C908,702.35,865.25,736.6,835.45,785.23Z"/><path class="cls-15" d="M835.6,757c-27.5,46.28-10.18,84.35,26.69,112,38.24,27.55,96,44.63,180.8,47.89,87.06,1.53,158.56-27.12,194-54.63,36.78-29.55,37.44-58,15.23-103-24.64-46.77-79.07-85.74-115-113.28-39.19-27.61-59.87-43.79-92.5-46.55-35.07-.93-64.48,24.87-101.26,52.66C908.13,681.32,865.38,712.58,835.6,757Z"/><ellipse class="cls-3" cx="1043.72" cy="748.58" rx="138.24" ry="192.64" transform="translate(289.6 1788.31) rotate(-89.7)"/><ellipse class="cls-13" cx="1046.71" cy="722.18" rx="138.24" ry="192.64" transform="translate(318.97 1765.04) rotate(-89.7)"/><circle class="cls-1" cx="1147.2" cy="715.1" r="35.5"/><path class="cls-16" d="M1089.87,759.17c.1-18.57-19.56-33.73-43.92-33.86s-44.18,14.82-44.28,33.39"/><circle class="cls-1" cx="945.33" cy="714.03" r="35.5"/><circle class="cls-16" cx="1147.2" cy="715.1" r="29.11"/><circle class="cls-16" cx="945.33" cy="714.03" r="29.11"/><ellipse class="cls-17" cx="1173.1" cy="781.21" rx="19.82" ry="27.66" transform="translate(385.66 1950.13) rotate(-89.7)"/><ellipse class="cls-17" cx="920.67" cy="780.46" rx="19.82" ry="27.66" transform="translate(135.33 1696.97) rotate(-89.7)"/><polygon class="cls-18" points="995.59 803.92 1013.08 820.46 987.77 826.69 995.59 803.92"/><polygon class="cls-18" points="1092.01 805.64 1074.52 822.18 1099.83 828.41 1092.01 805.64"/><path class="cls-16" d="M1105.51,785.92a89.3,89.3,0,0,1-9.6,16.19,85.1,85.1,0,0,1-13,14,66.16,66.16,0,0,1-16.52,10.47,53,53,0,0,1-19.5,4.4,50.41,50.41,0,0,1-19.75-3.37,62.24,62.24,0,0,1-17-9.83,81.66,81.66,0,0,1-13.35-13.72A86.44,86.44,0,0,1,987,788c8.47,9.15,17.32,17.66,27.32,24s21.07,10.35,32.32,10a44.66,44.66,0,0,0,8.38-1,52.22,52.22,0,0,0,8.19-2.35,73.21,73.21,0,0,0,15.42-8.16C1088.46,803.84,1097.16,795.18,1105.51,785.92Z"/></g><circle class="cls-1" cx="3110.56" cy="874.67" r="700.84"/><text class="cls-19" transform="matrix(0.45, -0.67, 0.83, 0.56, 2472.75, 466.34)"> </text><text class="cls-19" transform="translate(2487.18 444.15) rotate(-53.24) scale(0.81 1)">t</text><text class="cls-19" transform="translate(2530.53 386.43) rotate(-46.99) scale(0.81 1)">h</text><text class="cls-19" transform="translate(2583 330.28) rotate(-41.45) scale(0.81 1)">e</text><text class="cls-19" transform="matrix(0.64, -0.49, 0.61, 0.79, 2636.02, 284.3)"> </text><text class="cls-19" transform="matrix(0.66, -0.47, 0.58, 0.81, 2659.09, 266.45)"> </text><text class="cls-19" transform="translate(2681.67 249.15) rotate(-31.35) scale(0.81 1)">N</text><text class="cls-19" transform="translate(2748.99 207.85) rotate(-25.16) scale(0.81 1)">o</text><text class="cls-19" transform="matrix(0.76, -0.27, 0.33, 0.94, 2825.02, 172.44)">c</text><text class="cls-19" transform="matrix(0.78, -0.19, 0.24, 0.97, 2890.78, 149.13)">t</text><text class="cls-19" transform="translate(2960.94 131.5) rotate(-8.5) scale(0.81 1)">u</text><text class="cls-19" transform="translate(3034.02 120.56) rotate(-3.09) scale(0.81 1)">r</text><text class="cls-19" transform="matrix(0.8, 0.04, -0.04, 1, 3103.93, 116.45)">n</text><text class="cls-19" transform="translate(3182.9 119.75) rotate(8.59) scale(0.81 1)">a</text><text class="cls-19" transform="translate(3263.45 132.24) rotate(14.09) scale(0.81 1)">l</text><text class="cls-19" transform="translate(3323.47 147.73) rotate(17.46) scale(0.81 1)"> </text><text class="cls-19" transform="matrix(0.76, 0.27, -0.34, 0.94, 3351.32, 156.47)"> </text><text class="cls-19" transform="translate(3378.43 165.19) rotate(23.72) scale(0.81 1)">H</text><text class="cls-19" transform="translate(3448.74 196.04) rotate(29.44) scale(0.81 1)">U</text><text class="cls-19" transform="translate(3513.1 232.08) rotate(35.19) scale(0.81 1)">N</text><text class="cls-19" transform="translate(3577.77 277.75) rotate(40.82) scale(0.81 1)">T</text><text class="cls-19" transform="matrix(0.56, 0.58, -0.72, 0.69, 3632.57, 325.01)">R</text><text class="cls-19" transform="translate(3681.21 375.56) rotate(51.49) scale(0.81 1)">E</text><text class="cls-19" transform="matrix(0.44, 0.67, -0.84, 0.55, 3724.64, 429.9)">S</text><text class="cls-19" transform="translate(3756.42 477.43) rotate(61.24) scale(0.81 1)">S</text><path class="cls-20" d="M2611.37,695.14s-44.94-79.77,48.51-208.87,76.79-67.64,140.14,220.84C2711.18,880.46,2611.37,695.14,2611.37,695.14Z"/><path class="cls-20" d="M2707.05,1530.53c24.63-48.63,71.4-113.26,91.1-219.15,34.24-184-49.7-220.3-14-245.17,37.89-26.44,90.17-21.65,122.9,3.4,76.46,58.51,44.14,226.32,18.53,308.1-23.06,73.63-64.54,145.72-107.23,191.91"/><path class="cls-13" d="M2818.31,1569.62c-29.18,31.57-58.93,51-83.75,50.58-15.1-.27-37.74-2.09-42.49-29.38-3.19-18.32,3.48-37.56,15-60.29"/><path class="cls-20" d="M3150.1,1515.31c33.43-61.19,89.27-140.58,68.32-187.56-5.85-13.1-13.71-14.81-30.77-27.2-52.82-38.35-135.62-134.41-114-229,24.62-107.43,127-179.19,202.46-156.29,86.38,26.23,114.64,126.53,101.32,210.64-7.39,46.68,1.32,89.4-6.29,129.68-19.34,102.32-65.86,212.06-118.37,279.31"/><path class="cls-13" d="M3252.82,1534.92c-31.5,40.36-65.15,65.42-96.38,64.42-8.86-.29-20.12-.65-26-9.74-9.45-14.73,2-42,19.62-74.29"/><path class="cls-13" d="M3065.29,1237.7c213.82-48.79,299,20.92,359.13-42.73,82.11-86.94,74.37-245.63-4.52-302.27-99.92-71.74-257.21,82-357.34-20-53.14-54.12-98.33-53.36-114.6-62.4-76.16-42.3-222,94.77-210.85,177.47,4.45,33.13,28.46,31.43,49,94.22,10.61,32.44,13.19,60.39,37.14,74.79,14.57,8.76,24.21,4.8,30.87,14.6,13.74,20.22-19.08,49.21-5.76,69.62,6.73,10.31,23.61,15.93,55.52,26.56C2903.87,1267.61,2906.84,1273.85,3065.29,1237.7Z"/><path class="cls-13" d="M2784.91,563.91s-50.41-24.06,43-153.15c72-99.42,79.2-66.38,149.07,251.78C2888.18,835.89,2784.91,563.91,2784.91,563.91Z"/><path class="cls-21" d="M2806.44,560.54s-28.06-15.9,25.94-105.31c32-53,30.57-78.53,68.92,154.65C2849.39,729.54,2806.44,560.54,2806.44,560.54Z"/><path class="cls-13" d="M2518,739.07s-19.66,21.27-22,54c-6.13,85.2,115.06,178.87,230.29,199.15C2878.91,1019.09,3063,936.43,3063.73,876c-26.29-34.25-31.28-37.32-51.06-88.13-5.3-21-6.77-34.52-10.52-76-4.53-50-25.38-105.93-44.22-135.13-41.58-64.43-145.83-49.77-186.82-46-47,4.39-131.14,12.25-165.65,69.35-23.9,39.54-16.74,90.72-57.65,116.15C2540.25,721,2529.08,726,2518,739.07Z"/><path class="cls-13" d="M3610.5,615.13c10.09,104.29,89.39,108.35,111.31,200.14,3.27,13.66,28.91,130-42.77,201.36-54.92,54.64-136.08,52.06-160.33,50-42.86-3.63-40.12-16.77-101.24-30.31-96.82-21.44-145.29,2.33-166.26-28.67-17.94-26.51,2.24-66.48,4.5-70.95,23.41-46.37,85.52-68.3,132.33-57,61.47,14.9,64.16,79.32,116.65,85.56,42,5,96-29.55,109.29-73.42,22.81-75.19-91.71-119.22-102.17-239.13-9.34-107.07,70.29-205.69,89.88-199.82,15.35,4.61-.56,65.33,8.81,162.19"/><circle class="cls-22" cx="2730.95" cy="707.48" r="51.5"/><circle class="cls-16" cx="2730.95" cy="707.48" r="42.23"/><polygon class="cls-18" points="2652.7 871.97 2624.87 907.56 2657.54 916.88 2652.7 871.97"/><path class="cls-16" d="M2658.82,825.19a88.33,88.33,0,0,1,.62,12.27,110.45,110.45,0,0,1-.82,12.3,105.37,105.37,0,0,1-5.94,24.34,77.4,77.4,0,0,1-13,22.75,61.94,61.94,0,0,1-10,9.58,54.12,54.12,0,0,1-12.37,7.05,55.49,55.49,0,0,1-27.83,3.65,73.41,73.41,0,0,1-25.21-8,99.2,99.2,0,0,1-20.57-14.49,107.15,107.15,0,0,1-8.64-8.81,88.55,88.55,0,0,1-7.47-9.77c3.72,1.77,7.31,3.6,10.88,5.35s7.12,3.46,10.67,5a171.77,171.77,0,0,0,21.16,8.16,82,82,0,0,0,20.68,3.65,45.56,45.56,0,0,0,18.76-3.24c11.64-4.62,21.19-15.09,28.89-27.69a190.91,190.91,0,0,0,10.63-20.16c1.66-3.53,3.23-7.14,4.82-10.8S2657.14,829,2658.82,825.19Z"/><path d="M2492.25,789.23c.89,18.54,5.14,41.65,10.11,39.34,3.73-1.74,27.86-27.55,23.56-35.92-11.2-21.81,16.94-14.9,20.64-20.48,4.45-6.7-9.52-22.86-26.93-22.37C2496.72,750.44,2491.56,774.89,2492.25,789.23Z"/><ellipse class="cls-17" cx="2799.15" cy="781.17" rx="41.48" ry="20.12" transform="translate(92.07 1838.12) rotate(-36.92)"/><path class="cls-13" d="M3375.79,1545c18.5-67,50.47-152.51,14.95-190-10.37-10.94-19.48-10.37-41.88-17.46-69.37-21.94-189.05-90.85-194.2-187.72-5.84-110,84.13-207.78,173.48-207,102.32.86,163.73,89.19,174.81,173.69,6.15,46.88,28.69,85.44,32.64,126.25,10.5,108.3-8.92,232.7-49.2,311.83"/><path class="cls-15" d="M3486.39,1554.6c-21.42,42.07-48.74,71.35-80.6,78.6-9.75,2.22-22.16,5-31.3-2-16.07-12.45-9.81-46,1.3-86.16"/><path class="cls-13" d="M2874.18,1564.43c15-48.4,39.94-113.19,33.5-203.41-5-69.68-50.41-101.54-55-156-.51-6.08-.51-6.08-2.86-27.58-.56-5.16-8.44-.42-14.7-4-8.59-5-15.75-15.68-13.93-25.25a21.68,21.68,0,0,1,6-10.25c33.39-32.35,90.46-38.93,132.09-22.73,97.25,37.86,107.57,199.38,102.08,280.18-5.77,84.71-35,150-56,187.73"/><path class="cls-15" d="M3005.38,1583.1c-24.2,41.58-53.61,70.71-83.09,76-16.18,2.93-40.84,6-53.2-18.14-10.32-20.17-4.75-44.84,5.09-76.56"/><path class="cls-15" d="M3185.36,1003.22c6.32,54.53-14.21,108.66-31,110.6-11.52,1.34-2.37-49.58-21.37-110-16.36-52-33.79-94.8-26.64-102.12.49-.51,6.63,2.5,19.8,4.95,9.47,1.76,13.89,1.5,18,2C3160.69,910.71,3180.06,957.56,3185.36,1003.22Z"/><path class="cls-15" d="M3288.17,985.92c15,52.8,3.14,108.09-11.91,112.38-10.36,3-7.69-51-35.38-107.74-23.83-48.88-53.1-84.61-44.16-86.24,3.74-.68,8.66-1.7,20.61-4.34,8.85-1.94,12.79-3.1,16.84-4.1C3249.79,892,3275.57,941.72,3288.17,985.92Z"/><ellipse class="cls-13" cx="2707.05" cy="674.67" rx="82.45" ry="20.12" transform="translate(217.56 1933.94) rotate(-40.83)"/><path class="cls-13" d="M3000.27,705.53s22.05,71.25,57.21,67.71c0,0-8.59,73.53-106.3,60.8,0,0,29.93,56,56.83,45.77"/><path class="cls-16" d="M3000.27,705.53q4.92,10.8,10.64,21a176.86,176.86,0,0,0,12.5,19.5,93.94,93.94,0,0,0,7.26,8.66,55.5,55.5,0,0,0,8.13,7.23,31.28,31.28,0,0,0,8.94,4.7,20.9,20.9,0,0,0,9.17.87l7.1-1-.81,7.38c-.07.58-.11.92-.17,1.35l-.19,1.19c-.13.79-.28,1.56-.44,2.32-.31,1.53-.7,3-1.12,4.52a83.09,83.09,0,0,1-3,8.72,78,78,0,0,1-9,16.16A75.49,75.49,0,0,1,3021,831.86a85,85,0,0,1-17.26,6.27c-2.95.76-5.93,1.32-8.91,1.83s-6,.82-8.95,1a126.56,126.56,0,0,1-17.84.14,159.41,159.41,0,0,1-17.52-2l5.2-7.53c.65,1.31,1.42,2.75,2.16,4.13s1.52,2.78,2.3,4.16c1.57,2.76,3.24,5.47,4.93,8.16a143.77,143.77,0,0,0,11.16,15.37A64.53,64.53,0,0,0,2990,876.14a26.94,26.94,0,0,0,8.5,3.73,19.46,19.46,0,0,0,9.47-.06,19.32,19.32,0,0,1-9.74,2,29.42,29.42,0,0,1-9.92-2.47c-6.31-2.73-11.76-6.94-16.73-11.46a126.8,126.8,0,0,1-13.54-14.86c-2.08-2.62-4-5.33-5.94-8.07s-3.72-5.49-5.5-8.52l-5-8.47,10.18.94c5.53.51,11.06.79,16.55.83a142.45,142.45,0,0,0,16.32-.88,104.59,104.59,0,0,0,15.79-3,76.33,76.33,0,0,0,7.54-2.46,71.17,71.17,0,0,0,7.22-3.13,70.46,70.46,0,0,0,13.05-8.46,67.28,67.28,0,0,0,10.72-11.2,71.48,71.48,0,0,0,10.83-20.78c.4-1.24.76-2.49,1.1-3.74.16-.62.32-1.25.45-1.86l.2-.91.15-.76,6.29,6.39a31.22,31.22,0,0,1-14-2.19,40.86,40.86,0,0,1-11.39-7.06c-6.57-5.69-11.43-12.48-15.55-19.48a140.66,140.66,0,0,1-10.18-21.83A157.54,157.54,0,0,1,3000.27,705.53Z"/><path class="cls-13" d="M2982.46,636.83s25.78,43.4,48.36,35.52c0,0,6,49.75-60.35,56.81"/><path class="cls-16" d="M2982.46,636.83q5.29,6.1,10.89,11.71a126.4,126.4,0,0,0,11.58,10.4,63.16,63.16,0,0,0,6.15,4.3,36.7,36.7,0,0,0,6.33,3.17,19.22,19.22,0,0,0,6.16,1.4,12.42,12.42,0,0,0,5.35-.9l6.61-2.78,1,7.53.14,1,.09.86c.06.56.1,1.12.12,1.67,0,1.1.07,2.19,0,3.27a48.24,48.24,0,0,1-.52,6.47,55.82,55.82,0,0,1-1.32,6.37,57,57,0,0,1-2.14,6.17,49.64,49.64,0,0,1-15.86,20.43,58.18,58.18,0,0,1-22.72,10.24,67.19,67.19,0,0,1-12,1.55,65.8,65.8,0,0,1-11.91-.54c3.73-1.36,7.39-2.68,11-4.07s7-2.89,10.33-4.52a71.68,71.68,0,0,0,17.7-11.81A48.16,48.16,0,0,0,3021,692.43a41,41,0,0,0,1.74-4.72,47.85,47.85,0,0,0,1.29-4.91c.32-1.66.62-3.34.8-5,.09-.84.16-1.68.2-2.51l0-1.22v-.58a3.48,3.48,0,0,1,0-.44l7.61,4.75a22.88,22.88,0,0,1-10.39.75,28.83,28.83,0,0,1-9.09-3.13,51.74,51.74,0,0,1-13.48-10.91,90.88,90.88,0,0,1-9.87-13.22A95.64,95.64,0,0,1,2982.46,636.83Z"/><path class="cls-13" d="M2938.5,864.37s8.78,33.29,32,29.47c0,0-11.38,36.23-74.06,35.89"/><path class="cls-16" d="M2938.5,864.37a98,98,0,0,0,6.33,10.06,52,52,0,0,0,7.42,8.42,27.12,27.12,0,0,0,4.17,3.1,18.71,18.71,0,0,0,4.34,2,16.33,16.33,0,0,0,8.77.22L2979,886l-3,9.59-.31,1-.29.82c-.19.53-.39,1-.6,1.53-.42,1-.87,1.94-1.35,2.86a45.8,45.8,0,0,1-3.25,5.3,52.28,52.28,0,0,1-8.19,9,58.45,58.45,0,0,1-9.8,7,62.43,62.43,0,0,1-10.78,4.89,76.67,76.67,0,0,1-22.63,4.15c-1.89.08-3.79,0-5.67,0s-3.76-.22-5.62-.41-3.72-.47-5.57-.79-3.67-.75-5.49-1.22c1.82-.52,3.62-1,5.42-1.37s3.56-.92,5.32-1.32l5.23-1.36,5.14-1.45a129,129,0,0,0,19.35-7.26,73.91,73.91,0,0,0,16.55-10.61,54.56,54.56,0,0,0,6.68-6.84,41.17,41.17,0,0,0,2.77-3.79c.44-.64.83-1.3,1.2-2l.91-1.67,6.43,7.41a26.38,26.38,0,0,1-7.47-.15,24.92,24.92,0,0,1-7.09-2.33,27.9,27.9,0,0,1-5.86-4.1,33.06,33.06,0,0,1-4.44-5.1,43.75,43.75,0,0,1-5.66-11.42A47.43,47.43,0,0,1,2938.5,864.37Z"/><path class="cls-13" d="M2774.42,1064.65s-2.52,67.73-29.94,69.93c0,0,21.22,65.09,92.9,38.6"/><path class="cls-13" d="M2743.41,991.1s-2.08,52.2-24,52.6c0,0,16.91,51.28,74.23,34.2"/><path class="cls-16" d="M2743.41,991.1a102.55,102.55,0,0,1,.54,15.78,96.33,96.33,0,0,1-1.91,15.91,51.19,51.19,0,0,1-5.89,15.83,25.44,25.44,0,0,1-6.43,7.2,18.65,18.65,0,0,1-10.2,3.64l5.36-7.56.47,1,.55,1.12c.37.76.77,1.51,1.19,2.26.83,1.5,1.74,3,2.66,4.42s1.94,2.84,3,4.2,2.1,2.69,3.23,3.95a55.76,55.76,0,0,0,15.64,12.46,57.48,57.48,0,0,0,19.65,6.08c.89.12,1.79.21,2.68.32s1.81.18,2.72.22c1.83.15,3.68.19,5.54.23,3.74,0,7.55-.07,11.46-.24a54,54,0,0,1-10.71,4.88,54.58,54.58,0,0,1-11.72,2.6,50.58,50.58,0,0,1-24.56-3.25,53.77,53.77,0,0,1-20.45-14.74q-2.05-2.39-3.87-4.94c-1.2-1.71-2.3-3.48-3.33-5.28a56.76,56.76,0,0,1-2.79-5.57c-.42-.95-.82-1.92-1.2-2.9-.19-.5-.36-1-.53-1.51l-.26-.78-.27-.91-2.43-8,7.79.43a7.83,7.83,0,0,0,4.37-1.07A15.73,15.73,0,0,0,2728,1033a35.15,35.15,0,0,0,3.71-5.76,65,65,0,0,0,3.07-6.64,139.52,139.52,0,0,0,4.81-14.39Q2741.68,998.78,2743.41,991.1Z"/><path class="cls-13" d="M2849.85,1177.47s2.1,71.94-19,73.93c0,0,15.1,16.67,68.71.24"/><path class="cls-16" d="M2849.85,1177.47a168.58,168.58,0,0,1,2.17,20.19,172,172,0,0,1-.11,20.43q-.33,5.15-1.12,10.33a76.72,76.72,0,0,1-2.3,10.44,38.33,38.33,0,0,1-4.8,10.59,20.38,20.38,0,0,1-4.75,5,15.89,15.89,0,0,1-7.48,3l3.94-10.14c-.23-.26-.06-.1,0-.1l.22.14.57.36c.44.24.89.52,1.39.76a27.53,27.53,0,0,0,3.25,1.32,47.28,47.28,0,0,0,7.37,1.85,103.42,103.42,0,0,0,16.27,1.22c5.61,0,11.35-.21,17.2-.5s11.78-.71,18-.73a80.66,80.66,0,0,1-16.41,8.2,84.7,84.7,0,0,1-18,4.56c-1.55.25-3.12.37-4.7.51s-3.16.23-4.76.2-3.21,0-4.83-.13l-2.43-.22-2.45-.33a47.2,47.2,0,0,1-9.8-2.59,39.87,39.87,0,0,1-4.83-2.37c-.79-.47-1.6-1-2.39-1.57-.39-.31-.79-.63-1.2-1l-.62-.57c-.26-.25-.37-.34-.85-.87l-8.48-9.27,12.42-.87a3.57,3.57,0,0,0,1.79-.57,10,10,0,0,0,2.25-2.09,31,31,0,0,0,4-7.35,112.58,112.58,0,0,0,5.25-18.37c1.34-6.41,2.45-13,3.44-19.54S2849,1184.18,2849.85,1177.47Z"/><path class="cls-13" d="M2772.27,1051.07s3.15,79.36-28.08,84.72c0,0,30.13,73.87,109.92,35.64"/><path class="cls-16" d="M2772.27,1051.07a158,158,0,0,1,2.23,23.91,154.13,154.13,0,0,1-1.27,24.22,102.45,102.45,0,0,1-2.37,12.17c-.53,2-1.12,4.05-1.82,6.07s-1.53,4-2.47,6a39.18,39.18,0,0,1-7.8,11.39,27.07,27.07,0,0,1-6.07,4.57,24.94,24.94,0,0,1-7.43,2.63l4.8-8.65c.16.37.47,1,.72,1.51s.56,1.1.86,1.65c.6,1.1,1.2,2.21,1.85,3.3,1.27,2.18,2.67,4.31,4.14,6.38a88.31,88.31,0,0,0,9.75,11.6,68.26,68.26,0,0,0,24.93,16.19,67.34,67.34,0,0,0,7.2,2.2l3.71.77c1.24.26,2.51.36,3.77.55l1.91.26,1.92.1c1.28.07,2.56.22,3.86.22,2.58,0,5.2,0,7.81-.23,10.5-.71,21.07-3.21,31.61-6.46a91.82,91.82,0,0,1-30.53,13.51,74.49,74.49,0,0,1-8.46,1.52c-1.43.19-2.88.24-4.33.36l-2.17.13-2.18,0a64.77,64.77,0,0,1-17.45-2.35,71.91,71.91,0,0,1-30.53-17.55A91.67,91.67,0,0,1,2747,1153.7q-2.51-3.59-4.69-7.4c-.72-1.27-1.44-2.55-2.09-3.88-.33-.66-.65-1.34-1-2s-.6-1.32-1-2.22l-3.06-7.51,7.86-1.14a14,14,0,0,0,7.26-3.56,30.7,30.7,0,0,0,6-7.77c3.46-6.15,5.88-13.4,7.86-20.78s3.44-15.08,4.73-22.83S2771.31,1059,2772.27,1051.07Z"/><path class="cls-13" d="M2837.74,1054.88s4.5,38.07-12.76,43.74c0,0,19.38,32.76,62.63,6.4,0,0-2.38,32.56-17.16,33.36"/><path class="cls-16" d="M2837.74,1054.88a70.11,70.11,0,0,1,3.24,24.81,39.22,39.22,0,0,1-2.93,13.21,22.87,22.87,0,0,1-4.19,6.46,18.43,18.43,0,0,1-7.08,4.73l3.16-8.4s.09.12.16.2l.25.32.57.68c.39.45.79.91,1.21,1.36a34.31,34.31,0,0,0,2.7,2.55,34.8,34.8,0,0,0,6.06,4.15,32.82,32.82,0,0,0,6.7,2.69,34.26,34.26,0,0,0,7.17,1.14,32.82,32.82,0,0,0,3.71,0,37.43,37.43,0,0,0,3.77-.34,55.25,55.25,0,0,0,7.6-1.64,78.07,78.07,0,0,0,7.59-2.68c2.51-1.06,5-2.22,7.5-3.49l9.12-4.67-1.31,9.44c-.26,1.92-.61,3.56-1,5.31s-.82,3.42-1.34,5.11a63.72,63.72,0,0,1-3.84,9.92,32,32,0,0,1-6.25,8.89,15,15,0,0,1-4.59,3.09,9.94,9.94,0,0,1-5.26.67,9.9,9.9,0,0,0,4.21-2.36,14.13,14.13,0,0,0,2.77-3.67,34.5,34.5,0,0,0,3.05-8.82,79.58,79.58,0,0,0,1.45-9.44c.14-1.59.3-3.18.38-4.78.05-.79.08-1.59.11-2.38s.06-1.62,0-2.29l7.82,4.78a79.8,79.8,0,0,1-7.93,4.93,63.75,63.75,0,0,1-8.67,4,52.53,52.53,0,0,1-9.43,2.62,44.08,44.08,0,0,1-10,.75,40.91,40.91,0,0,1-19.62-5.68,41.35,41.35,0,0,1-8.09-6.22,43.32,43.32,0,0,1-3.41-3.76c-.53-.67-1.06-1.34-1.55-2.06-.25-.36-.49-.72-.73-1.1l-.37-.59-.42-.73-4-6.8,7.16-1.59a8.09,8.09,0,0,0,3.17-1.56,12.87,12.87,0,0,0,2.91-3.3,25.73,25.73,0,0,0,2.39-4.59,46.68,46.68,0,0,0,1.84-5.27,100.55,100.55,0,0,0,2.55-11.48Q2837,1061,2837.74,1054.88Z"/><path class="cls-15" d="M3354.59,948.25c14.4,42.16,10.78,103.73-1.16,107.81-8.22,2.81-12-57.27-36.75-102.14-21.32-38.64-46.26-66.19-39.59-69.21,2.85-1.28,7-1.49,16.4-3.93a119.93,119.93,0,0,1,13.77-3C3320.07,875.77,3342.53,913,3354.59,948.25Z"/></g></g></svg>