<svg xmlns="http://www.w3.org/2000/svg" viewBox="0 0 2029.7 146.69"><defs><style>.cls-1,.cls-4{fill:#fff;}.cls-2,.cls-3{fill:#f15c5e;}.cls-10,.cls-12,.cls-2,.cls-4,.cls-5{stroke:#003b4d;}.cls-10,.cls-11,.cls-12,.cls-2,.cls-4,.cls-5,.cls-8,.cls-9{stroke-miterlimit:10;stroke-width:2.5px;}.cls-11,.cls-5,.cls-8,.cls-9{fill:none;}.cls-6{fill:#ff595a;}.cls-12,.cls-14,.cls-7{fill:#003b4d;}.cls-8{stroke:#221f1f;}.cls-9{stroke:#0b5a6e;}.cls-10{fill:#0b5a6e;}.cls-11{stroke:#2c4451;}.cls-13,.cls-23{fill:#013c4d;}.cls-14,.cls-23{font-size:97.53px;letter-spacing:0em;}.cls-14{font-family:AcierBATText-Solid, Acier BAT;}.cls-15{letter-spacing:-0.06em;}.cls-16{letter-spacing:-0.02em;}.cls-17{letter-spacing:-0.03em;}.cls-18{letter-spacing:0.01em;}.cls-19{letter-spacing:-0.05em;}.cls-20{letter-spacing:-0.06em;}.cls-21{letter-spacing:-0.04em;}.cls-22{letter-spacing:-0.01em;}.cls-23{font-family:AcierBATText-Gris, Acier BAT;}.cls-24{letter-spacing:-0.09em;}.cls-25{letter-spacing:-0.02em;}</style></defs><g id="Layer_2" data-name="Layer 2"><g id="Layer_1-2" data-name="Layer 1"><path class="cls-1" d="M277.32,81.33c-6.15-14.15-16.74-30.47-32.89-30.47h-38L195,106.26l26.9,38.92h23.58c16.48,0,26-8.79,32-22.9A51.71,51.71,0,0,0,277.32,81.33Zm-24.64,45.2-14.37-22.29,7.57-34.47C276.21,99.14,252.68,126.53,252.68,126.53Z"/><path class="cls-1" d="M135.53,81c-6.15-14.15-16.74-30.47-32.9-30.47h-38L53.21,105.94l26.9,38.91h23.58c16.48,0,25.94-8.79,32-22.9A51.75,51.75,0,0,0,135.53,81Zm-24.64,45.2L96.52,103.92l7.56-34.48C134.41,98.81,110.89,126.2,110.89,126.2Z"/><rect class="cls-1" x="144.19" y="118.36" width="15.79" height="25.61"/><polygon class="cls-2" points="41.91 50.53 64.79 50.53 53.21 105.94 80.11 144.85 57.39 144.85 30.49 105.94 41.91 50.53"/><path class="cls-3" d="M83.86,65.85S94,65.46,96.21,66a71,71,0,0,1,7.87,3.1L96.21,105l14.68,21.24s-8,7.57-16.63,6.23L75.27,105Z"/><polygon class="cls-3" points="183.01 50.52 205.51 50.5 186.27 144.88 163.14 144.88 183.01 50.52"/><path class="cls-3" d="M152.75,43.22l30.13,7.4s61.57-.1,63.22.14,14.62,1,25.34,20.29,9.35,28.85,9.35,28.85-1.33,20.87-7.5,28.78-11.61,15-21.43,15.63c0,0,12.87.81,14,.63s12.71-.8,18.35-5.6,10.52-10.47,12.6-14.91,6.53-17.09,6.47-22.86-1.75-22.78-4.63-25.49c0,0-6.1-12.59-9-16.4S281.45,49.3,276.49,47s-9.09-3.62-12.14-3.7S152.75,43.22,152.75,43.22Z"/><polyline class="cls-4" points="142 105.86 152.47 43.14 182.59 50.53 163.14 144.88"/><line class="cls-5" x1="133.01" y1="137.35" x2="163.14" y2="144.75"/><path class="cls-3" d="M176.73,1.33h14s14-.11,16.6,18.19c0,0,.19,12.9-14.27,18l-16.35.4S192.86,39,195,19.6C195,19.6,195,2.41,176.73,1.33Z"/><path class="cls-6" d="M11.79,43.14l30.12,7.39s61.57-.1,63.23.14,14.61,1,25.33,20.29,9.35,28.85,9.35,28.85-1.33,20.88-7.5,28.78-11.61,15-21.43,15.63c0,0,12.87.81,14,.63s12.72-.8,18.35-5.6,10.52-10.47,12.61-14.91,6.53-17.09,6.46-22.86S160.54,78.7,157.67,76c0,0-6.11-12.6-9-16.41s-8.14-10.38-13.09-12.67-9.1-3.63-12.15-3.7S11.79,43.14,11.79,43.14Z"/><path class="cls-7" d="M180.22,1.4l10.53-.07s14-.11,16.6,18.19c0,0,.19,12.9-14.27,18l-16.35.4s10.22.42,17.17-3.54c9.24-5.25,10-18.39,3.2-26.58C193.73,3.68,188.17,1.87,180.22,1.4Z"/><line class="cls-8" x1="234.61" y1="65.75" x2="224.99" y2="65.66"/><path class="cls-3" d="M224.83,65.94s10.09-.4,12.34.14a70.59,70.59,0,0,1,7.88,3.1l-7.88,35.87,14.69,21.24s-8,7.56-16.63,6.23l-19-27.47Z"/><polygon class="cls-8" points="11.79 43.14 41.91 50.53 30.49 105.94 57.39 144.85 28.22 144.85 1.32 105.86 11.79 43.14"/><polygon class="cls-4" points="11.79 43.14 41.91 50.53 30.49 105.94 57.39 144.85 28.22 144.85 1.32 105.86 11.79 43.14"/><line class="cls-5" x1="32.55" y1="42.56" x2="10.64" y2="42.56"/><line class="cls-5" x1="41.91" y1="50.53" x2="64.63" y2="50.53"/><path class="cls-8" d="M123.06,144.85H57.39"/><path class="cls-5" d="M124.56,144.75c-29.22,0-44.45.1-44.45.1H57.39"/><path class="cls-5" d="M135.67,122c-6,14.11-15.5,22.9-32,22.9"/><path class="cls-5" d="M135.53,81a51.75,51.75,0,0,1,.14,41"/><path class="cls-5" d="M102.63,50.53c16.16,0,26.75,16.32,32.9,30.47"/><line class="cls-5" x1="85.26" y1="64.62" x2="75.27" y2="104.96"/><line class="cls-5" x1="74.94" y1="103.92" x2="95.26" y2="132.81"/><path class="cls-5" d="M116.87,116.25c-4.27,10-11,16.18-22.61,16.18"/><path class="cls-5" d="M116.76,87.3a36.59,36.59,0,0,1,.11,29"/><path class="cls-5" d="M93.51,65.77c11.42,0,18.91,11.53,23.25,21.53"/><line class="cls-5" x1="83.86" y1="65.85" x2="93.51" y2="65.77"/><path class="cls-5" d="M123.38,144.75c17.75,0,27.94-9.47,34.44-24.66"/><path class="cls-9" d="M157.67,76a55.69,55.69,0,0,1,.15,44.09"/><path class="cls-9" d="M122.24,43.19c17.4,0,28.81,17.57,35.43,32.81"/><line class="cls-5" x1="64.63" y1="50.53" x2="102.63" y2="50.53"/><line class="cls-5" x1="104.08" y1="69.09" x2="96.21" y2="104.96"/><line class="cls-5" x1="96.06" y1="103.92" x2="110.89" y2="126.2"/><path class="cls-10" d="M31.74,42.56c57.41,0,49.22.63,91.68.63"/><line class="cls-5" x1="151.04" y1="42.96" x2="173.76" y2="42.96"/><line class="cls-5" x1="206.15" y1="50.58" x2="182.59" y2="50.53"/><line class="cls-11" x1="205.64" y1="50.57" x2="186.2" y2="144.88"/><path class="cls-5" d="M189.08,1.25a18.28,18.28,0,0,1,0,36.55"/><line class="cls-5" x1="176.79" y1="1.36" x2="189.14" y2="1.28"/><line class="cls-5" x1="176.89" y1="37.91" x2="189.24" y2="37.83"/><line class="cls-5" x1="162.81" y1="144.67" x2="186.27" y2="144.88"/><path class="cls-5" d="M264,144.87h-43"/><line class="cls-11" x1="205.58" y1="50.55" x2="194.15" y2="105.95"/><line class="cls-5" x1="194.15" y1="105.95" x2="222.29" y2="145.29"/><line class="cls-5" x1="226.17" y1="64.97" x2="216.22" y2="104.98"/><line class="cls-5" x1="215.96" y1="103.88" x2="236.38" y2="132.98"/><path class="cls-5" d="M257.81,116.26c-4.27,10-11,16.19-22.61,16.19"/><path class="cls-5" d="M257.71,87.32a36.57,36.57,0,0,1,.1,28.94"/><path class="cls-5" d="M234.46,65.78c11.41,0,18.9,11.54,23.25,21.54"/><line class="cls-5" x1="224.8" y1="65.87" x2="234.46" y2="65.78"/><path class="cls-9" d="M264.33,144.76c17.74,0,27.93-9.46,34.44-24.65"/><path class="cls-9" d="M298.61,76a55.72,55.72,0,0,1,.16,44.1"/><path class="cls-9" d="M263.19,43.2c17.4,0,28.8,17.58,35.42,32.81"/><path class="cls-5" d="M205.58,50.55h38c16.16,0,26.75,16.32,32.9,30.47a51.75,51.75,0,0,1,.15,41c-6,14.11-15.51,22.9-32,22.9"/><line class="cls-5" x1="244.92" y1="70.51" x2="237.15" y2="104.98"/><line class="cls-5" x1="236.96" y1="103.76" x2="251.83" y2="126.22"/><path class="cls-5" d="M173.14,43s62.74.16,91.26.16"/><polygon class="cls-7" points="65.09 51.26 56.06 51.26 44.26 105.72 68.86 144.94 81.03 144.85 54.14 105.94 65.09 51.26"/><polygon class="cls-12" points="206.2 51.17 197.16 51.17 177.36 144.65 187.57 145.05 206.2 51.17"/><path class="cls-7" d="M18,42.58l3.84,1.2c30.17,1,86,1.35,93.73,2.25,1.69.19,16.06,3.5,26.78,22.83A89.58,89.58,0,0,1,150,87.16a59.45,59.45,0,0,1,1,27.41c-1.11,6.21-5.82,13.31-9.48,18-6.2,7.88-11.55,11.43-21.37,12.06,0,0,13,0,14.1-.23s4.47-.32,10.11-5.12,10.52-10.47,12.6-14.91,6.53-17.09,6.47-22.86S161.71,78.7,158.84,76c0,0-6.42-12.45-9.36-16.25s-7.83-10.54-12.78-12.83-10.13-4.16-13.17-4.4S18,42.58,18,42.58Z"/><path class="cls-7" d="M158.91,42.58l10.62,1.69c30.5,1,85.79,1.62,86.94,1.76,1.69.19,16.07,3.5,26.79,22.83a89.48,89.48,0,0,1,7.7,18.3c2.62,9,2.65,18.2,1,27.41-1.12,6.21-5.83,13.31-9.49,18-6.19,7.88-11.54,11.43-21.37,12.06,0,0,13.57.26,14.67.08s3.9-.63,9.54-5.43,10.52-10.47,12.6-14.91,6.53-17.09,6.47-22.86S302.64,78.7,299.76,76c0,0-6.42-12.45-9.36-16.25s-7.82-10.54-12.78-12.83-10.13-4.16-13.17-4.4S158.91,42.58,158.91,42.58Z"/><path class="cls-5" d="M124.56,144.75c17.74,0,27.93-9.47,34.44-24.66"/><path class="cls-5" d="M263.58,144.89c17.74,0,29.81-9.61,36.31-24.8"/><path class="cls-5" d="M158.84,76a55.74,55.74,0,0,1,.16,44.09"/><path class="cls-5" d="M123.42,43.19c17.39,0,28.8,17.57,35.42,32.81"/><path class="cls-5" d="M299.76,76a55.65,55.65,0,0,1,.16,44.09"/><path class="cls-5" d="M264.34,43.19c17.4,0,28.8,17.57,35.42,32.81"/><polygon class="cls-7" points="63.52 51.26 25.2 42.58 33.98 42.84 72.56 51.26 63.52 51.26"/><polygon class="cls-7" points="203.31 51.27 165 42.6 172.55 42.86 211.13 51.27 203.31 51.27"/><circle class="cls-4" cx="176.73" cy="19.6" r="18.27"/><rect class="cls-13" y="137.42" width="305.25" height="9.27"/><text class="cls-14" transform="translate(354.76 125.62) scale(1.02 1)">L<tspan class="cls-15" x="47.21" y="0">A</tspan><tspan class="cls-16" x="104.56" y="0">U</tspan><tspan x="158.1" y="0">REN </tspan><tspan class="cls-17" x="345.36" y="0">D</tspan><tspan class="cls-18" x="403" y="0">RI</tspan><tspan class="cls-19" x="479.96" y="0">S</tspan><tspan class="cls-20" x="524.04" y="0">C</tspan><tspan class="cls-21" x="582.17" y="0">O</tspan><tspan class="cls-18" x="651.71" y="0">L</tspan><tspan class="cls-22" x="698.92" y="0">L</tspan></text><text class="cls-23" transform="translate(1146.4 125.62) scale(1.02 1)">Inter<tspan class="cls-24" x="231.25" y="0">a</tspan><tspan class="cls-18" x="285.77" y="0">ctive </tspan><tspan class="cls-25" x="548.33" y="0">D</tspan><tspan x="606.65" y="0">Esign</tspan></text></g></g></svg>