<?xml version="1.0" encoding="utf-8"?>
<!-- Generator: Adobe Illustrator 24.3.0, SVG Export Plug-In . SVG Version: 6.00 Build 0)  -->
<svg version="1.1" id="Layer_1" xmlns="http://www.w3.org/2000/svg" xmlns:xlink="http://www.w3.org/1999/xlink" x="0px" y="0px"
	 viewBox="0 0 1893 200" style="enable-background:new 0 0 1893 200;" xml:space="preserve">
<style type="text/css">
	.st0{fill:#FFFFFF;}
	.st1{fill:none;stroke:#332E23;stroke-width:23;stroke-miterlimit:10;}
	.st2{fill:none;stroke:#C1C6C4;stroke-width:23;stroke-miterlimit:10;}
	.st3{fill:#C1C6C4;stroke:#332E23;stroke-width:8;stroke-miterlimit:10;}
	.st4{fill:#332E23;stroke:#332E23;stroke-width:15;stroke-miterlimit:10;}
	.st5{fill:#332E23;stroke:#C1C6C4;stroke-width:8;stroke-miterlimit:10;}
	.st6{fill:#332E23;stroke:#C1C6C4;stroke-width:38;stroke-miterlimit:10;}
	.st7{fill:#332E23;stroke:#302F28;stroke-width:40;stroke-miterlimit:10;}
	.st8{fill:#C1C6C4;stroke:#000000;stroke-width:40;stroke-miterlimit:10;}
	.st9{fill:#332E23;stroke:#050505;stroke-width:20;stroke-miterlimit:10;}
	.st10{fill:#FFF424;}
	.st11{fill:none;stroke:#FFFFFF;stroke-width:5;stroke-miterlimit:10;}
	.st12{fill:#005B41;}
	.st13{fill:none;stroke:#005B41;stroke-width:2;stroke-miterlimit:10;}
	.st14{fill:#00DB87;}
	.st15{fill:#332E23;stroke:#332E23;stroke-width:20;stroke-miterlimit:10;}
	.st16{fill:none;stroke:#000000;stroke-width:23;stroke-miterlimit:10;}
	.st17{fill:#E24000;stroke:#000000;stroke-width:15;stroke-miterlimit:10;}
	.st18{fill:#E2C100;stroke:#000000;stroke-width:14;stroke-miterlimit:10;}
	.st19{fill:#332E23;stroke:#000000;stroke-width:15;stroke-miterlimit:10;}
	.st20{fill:#F74000;stroke:#FFFFFF;stroke-width:5;stroke-miterlimit:10;}
	.st21{fill:none;stroke:#FFFFFF;stroke-width:6;stroke-miterlimit:10;}
	.st22{fill:#005B41;stroke:#FFFFFF;stroke-width:6;stroke-miterlimit:10;}
	.st23{fill:#E2C100;}
	.st24{fill:#F74000;}
	.st25{fill:#332E23;stroke:#C1C6C4;stroke-width:22;stroke-miterlimit:10;}
	.st26{fill:#332E23;}
	.st27{fill:none;stroke:#332E23;stroke-width:5;stroke-miterlimit:10;}
	.st28{fill:#332E23;stroke:#C1C6C4;stroke-width:27;stroke-miterlimit:10;}
	.st29{fill:#C1C6C4;}
	.st30{fill:#FFA894;}
	.st31{fill:#FFFFFF;stroke:#332E23;stroke-width:3;stroke-miterlimit:10;}
	.st32{fill:none;stroke:#332E23;stroke-width:3;stroke-miterlimit:10;}
	.st33{fill:none;stroke:#332E23;stroke-width:6;stroke-miterlimit:10;}
	.st34{fill:#C1C6C4;stroke:#FFFFFF;stroke-width:7;stroke-miterlimit:10;}
	.st35{fill:#F74000;stroke:#FFFFFF;stroke-width:7;stroke-miterlimit:10;}
	.st36{fill:#FFA894;stroke:#FFFFFF;stroke-width:7;stroke-miterlimit:10;}
	.st37{fill:none;stroke:#F74000;stroke-width:5;stroke-miterlimit:10;}
	.st38{fill:none;stroke:#FFFFFF;stroke-width:7;stroke-miterlimit:10;}
	.st39{fill:none;stroke:#000000;stroke-width:5;stroke-miterlimit:10;}
	.st40{fill:none;}
	.st41{fill:none;stroke:#FFFFFF;stroke-width:8;stroke-miterlimit:10;}
	.st42{fill:none;stroke:#FFFFFF;stroke-width:38;stroke-miterlimit:10;}
	.st43{fill:none;stroke:#FFFFFF;stroke-width:22;stroke-miterlimit:10;}
	.st44{fill:#C0C5C3;}
	.st45{fill:#EE4423;}
	.st46{fill:none;stroke:#332E23;stroke-width:10;stroke-miterlimit:10;}
	.st47{fill:#332E23;stroke:#332E23;stroke-width:23;stroke-miterlimit:10;}
	.st48{fill:#005B41;stroke:#050505;stroke-width:20;}
	.st49{fill:#050505;}
	.st50{fill:none;stroke:#FFFFFF;stroke-width:8.5;stroke-miterlimit:10;}
</style>
<rect x="-118.1" y="-55.6" transform="matrix(-1 -1.224647e-16 1.224647e-16 -1 1824.8983 21.8665)" class="st0" width="2061" height="133"/>
<rect x="-84.6" y="49.9" transform="matrix(-1 -1.224647e-16 1.224647e-16 -1 1857.8983 259.8665)" class="st4" width="2027" height="160"/>
<line class="st27" x1="1893.4" y1="43.9" x2="-54.6" y2="43.9"/>
<line class="st46" x1="1893.9" y1="26.9" x2="-58.1" y2="26.9"/>
<g>
	<g>
		<g>
			<polygon class="st26" points="1830.8,29.9 1887.9,29.9 1835.9,43.4 1778.7,43.4 			"/>
			<polygon class="st26" points="1720,29.9 1777.2,29.9 1725.2,43.4 1668,43.4 			"/>
			<polygon class="st26" points="1605,30.3 1662.2,30.3 1610.2,43.8 1553,43.8 			"/>
		</g>
		<g>
			<g>
				<polygon class="st26" points="1496.1,29.5 1553.3,29.5 1501.3,43 1444.1,43 				"/>
				<polygon class="st26" points="1385.4,29.5 1442.6,29.5 1390.5,43 1333.4,43 				"/>
				<polygon class="st26" points="1270.4,30 1327.6,30 1275.5,43.5 1218.3,43.5 				"/>
			</g>
		</g>
		<g>
			<g>
				<polygon class="st26" points="1161,29.8 1218.2,29.8 1166.2,43.3 1109,43.3 				"/>
				<polygon class="st26" points="1050.3,29.8 1107.5,29.8 1055.4,43.3 998.3,43.3 				"/>
				<polygon class="st26" points="935.3,29.7 992.5,29.7 940.4,43.2 883.3,43.2 				"/>
			</g>
		</g>
		<g>
			<g>
				<polygon class="st26" points="826.5,29.9 883.7,29.9 831.6,43.4 774.4,43.4 				"/>
				<polygon class="st26" points="715.8,29.9 772.9,29.9 720.9,43.4 663.7,43.4 				"/>
				<polygon class="st26" points="600.8,29.8 657.9,29.8 605.9,43.3 548.7,43.3 				"/>
			</g>
		</g>
		<g>
			<g>
				<polygon class="st26" points="491.7,29.8 548.9,29.8 496.9,43.3 439.7,43.3 				"/>
				<polygon class="st26" points="381,29.8 438.2,29.8 386.1,43.3 329,43.3 				"/>
				<polygon class="st26" points="266,30.2 323.2,30.2 271.1,43.7 213.9,43.7 				"/>
			</g>
		</g>
	</g>
	<g>
		<g>
			<polygon class="st26" points="162.5,29.5 219.7,29.5 167.6,43 110.4,43 			"/>
			<polygon class="st26" points="51.7,29.5 108.9,29.5 56.9,43 -0.3,43 			"/>
		</g>
	</g>
</g>
</svg>
