<?xml version="1.0" encoding="utf-8"?>
<!-- Generator: Adobe Illustrator 24.3.0, SVG Export Plug-In . SVG Version: 6.00 Build 0)  -->
<svg version="1.1" id="Layer_1" xmlns="http://www.w3.org/2000/svg" xmlns:xlink="http://www.w3.org/1999/xlink" x="0px" y="0px"
	 viewBox="0 0 36.8 45.1" style="enable-background:new 0 0 36.8 45.1;" xml:space="preserve">
<style type="text/css">
	.st0{fill:#151917;}
	.st1{fill:none;stroke:#332E23;stroke-width:23;stroke-miterlimit:10;}
	.st2{fill:none;stroke:#C1C6C4;stroke-width:23;stroke-miterlimit:10;}
	.st3{fill:#C1C6C4;stroke:#332E23;stroke-width:8;stroke-miterlimit:10;}
	.st4{fill:#332E23;stroke:#332E23;stroke-width:15;stroke-miterlimit:10;}
	.st5{fill:#332E23;stroke:#C1C6C4;stroke-width:8;stroke-miterlimit:10;}
	.st6{fill:#332E23;stroke:#C1C6C4;stroke-width:38;stroke-miterlimit:10;}
	.st7{fill:#332E23;stroke:#302F28;stroke-width:40;stroke-miterlimit:10;}
	.st8{fill:#C1C6C4;stroke:#000000;stroke-width:40;stroke-miterlimit:10;}
	.st9{fill:#332E23;stroke:#050505;stroke-width:20;stroke-miterlimit:10;}
	.st10{fill:#FFF424;}
	.st11{fill:#FFFFFF;}
	.st12{fill:none;stroke:#FFFFFF;stroke-width:5;stroke-miterlimit:10;}
	.st13{fill:#005B41;}
	.st14{fill:none;stroke:#005B41;stroke-width:2;stroke-miterlimit:10;}
	.st15{fill:#00DB87;}
	.st16{fill:#332E23;stroke:#332E23;stroke-width:20;stroke-miterlimit:10;}
	.st17{fill:none;stroke:#000000;stroke-width:23;stroke-miterlimit:10;}
	.st18{fill:#E24000;stroke:#000000;stroke-width:15;stroke-miterlimit:10;}
	.st19{fill:#E2C100;stroke:#000000;stroke-width:14;stroke-miterlimit:10;}
	.st20{fill:#332E23;stroke:#000000;stroke-width:15;stroke-miterlimit:10;}
	.st21{fill:#F74000;stroke:#FFFFFF;stroke-width:5;stroke-miterlimit:10;}
	.st22{fill:none;stroke:#FFFFFF;stroke-width:6;stroke-miterlimit:10;}
	.st23{fill:#005B41;stroke:#FFFFFF;stroke-width:6;stroke-miterlimit:10;}
	.st24{fill:#E2C100;}
	.st25{fill:#F74000;}
	.st26{fill:#332E23;stroke:#C1C6C4;stroke-width:22;stroke-miterlimit:10;}
	.st27{fill:#332E23;}
	.st28{fill:none;stroke:#332E23;stroke-width:5;stroke-miterlimit:10;}
	.st29{fill:#332E23;stroke:#C1C6C4;stroke-width:27;stroke-miterlimit:10;}
	.st30{fill:#C1C6C4;}
	.st31{fill:#FFA894;}
	.st32{fill:#FFFFFF;stroke:#332E23;stroke-width:3;stroke-miterlimit:10;}
	.st33{fill:none;stroke:#332E23;stroke-width:3;stroke-miterlimit:10;}
	.st34{fill:none;stroke:#332E23;stroke-width:6;stroke-miterlimit:10;}
	.st35{fill:#C1C6C4;stroke:#FFFFFF;stroke-width:7;stroke-miterlimit:10;}
	.st36{fill:#F74000;stroke:#FFFFFF;stroke-width:7;stroke-miterlimit:10;}
	.st37{fill:#FFA894;stroke:#FFFFFF;stroke-width:7;stroke-miterlimit:10;}
	.st38{fill:none;stroke:#F74000;stroke-width:5;stroke-miterlimit:10;}
	.st39{fill:none;stroke:#FFFFFF;stroke-width:7;stroke-miterlimit:10;}
	.st40{fill:none;stroke:#000000;stroke-width:5;stroke-miterlimit:10;}
	.st41{fill:none;}
	.st42{fill:none;stroke:#FFFFFF;stroke-width:8;stroke-miterlimit:10;}
	.st43{fill:none;stroke:#FFFFFF;stroke-width:38;stroke-miterlimit:10;}
	.st44{fill:none;stroke:#FFFFFF;stroke-width:22;stroke-miterlimit:10;}
	.st45{fill:#C0C5C3;}
	.st46{fill:#EE4423;}
	.st47{fill:#332E23;stroke:#332E23;stroke-width:23;stroke-miterlimit:10;}
	.st48{fill:#005B41;stroke:#050505;stroke-width:20;}
	.st49{fill:#050505;}
	.st50{fill:none;stroke:#FFFFFF;stroke-width:8.5;stroke-miterlimit:10;}
	.st51{fill:none;stroke:#332E23;stroke-width:10;stroke-miterlimit:10;}
	.st52{fill:#FFFFFF;stroke:#FFFFFF;stroke-width:0.25;stroke-miterlimit:10;}
	.st53{fill:#FFFFFF;stroke:#FFFFFF;stroke-miterlimit:10;}
</style>
<ellipse class="st52" cx="6.4" cy="44" rx="6.5" ry="1"/>
<path class="st53" d="M34.9,1c-0.6-0.4-1.9-0.1-4,2.2c-7.5,8.3-13.5,23.3-12.7,27.5c0,0,0,0,0,0.1c-0.4-0.1-0.9-0.1-1.3,0
	c-1.8,0.5-2.7,2.7-3,3.3c-0.9,2-1,3.3-2,4.4c-1.6,1.8-2.1,2.5-2,3.3c0.1,0.8,2.2,1.3,4,1.1c4.3-0.5,8.9-5.4,8-8.8
	c-0.2-0.8-0.7-1.5-1.3-2.1c0.1,0,0.2-0.1,0.3-0.1c7.5-5.4,12-17.7,12-17.7C33.6,12.1,36.9,2.3,34.9,1z M20.9,33.9
	c1,2.1-0.9,4.9-2.9,5.7c-1.2,0.5-2.7,0.5-2.9,0c-0.2-0.5,1.2-1.5,1-1.9c-0.2-0.3-1.4,0.4-1.9,0c-0.6-0.5,0.2-2.6,1-3.8
	c0.6-0.9,1.1-1.6,1.9-1.9C18.5,31.6,20.3,32.6,20.9,33.9z"/>
</svg>
