<?xml version="1.0" encoding="utf-8"?>
<!-- Generator: Adobe Illustrator 26.1.0, SVG Export Plug-In . SVG Version: 6.00 Build 0)  -->
<svg version="1.1" id="Layer_1" xmlns="http://www.w3.org/2000/svg" xmlns:xlink="http://www.w3.org/1999/xlink" x="0px" y="0px"
	 viewBox="0 0 100 100" style="enable-background:new 0 0 100 100;" xml:space="preserve">
<style type="text/css">
	.st0{fill:#EF3C5A;}
</style>
<g>
	<path class="st0" d="M58.7,88.2H41.5V69.6c0-4.7,3.8-8.6,8.6-8.6h0c4.7,0,8.6,3.8,8.6,8.6V88.2z M48.5,81.2h3.2V69.6
		c0-0.9-0.7-1.6-1.6-1.6h0c-0.9,0-1.6,0.7-1.6,1.6V81.2z"/>
</g>
<g>
	<path class="st0" d="M50.1,45.6c-3.6,0-6.6-2.9-6.6-6.6c0-3.6,2.9-6.6,6.6-6.6c3.6,0,6.6,2.9,6.6,6.6
		C56.7,42.7,53.7,45.6,50.1,45.6z M50.1,35.5c-2,0-3.6,1.6-3.6,3.6c0,2,1.6,3.6,3.6,3.6c2,0,3.6-1.6,3.6-3.6
		C53.7,37.1,52.1,35.5,50.1,35.5z"/>
</g>
<g>
	<rect x="49" y="10" class="st0" width="3" height="12"/>
</g>
<path class="st0" d="M50.5,10h5.6c3,0,5.5,2.5,5.5,5.5l0,0l0,0H50.5l0,0V10L50.5,10z"/>
<g>
	<path class="st0" d="M49.8,57c-2.5,0-4.5-2-4.5-4.5c0-2.5,2-4.5,4.5-4.5c2.5,0,4.5,2,4.5,4.5C54.3,55,52.3,57,49.8,57z M49.8,51
		c-0.8,0-1.5,0.7-1.5,1.5c0,0.8,0.7,1.5,1.5,1.5s1.5-0.7,1.5-1.5C51.3,51.7,50.7,51,49.8,51z"/>
</g>
<g>
	<path class="st0" d="M78.5,80.2c-3.6,0-6.6-2.9-6.6-6.6s2.9-6.6,6.6-6.6s6.6,2.9,6.6,6.6S82.1,80.2,78.5,80.2z M78.5,70
		c-2,0-3.6,1.6-3.6,3.6s1.6,3.6,3.6,3.6s3.6-1.6,3.6-3.6S80.5,70,78.5,70z"/>
</g>
<g>
	<path class="st0" d="M21.5,80.2c-3.6,0-6.6-2.9-6.6-6.6s2.9-6.6,6.6-6.6s6.6,2.9,6.6,6.6S25.1,80.2,21.5,80.2z M21.5,70
		c-2,0-3.6,1.6-3.6,3.6s1.6,3.6,3.6,3.6s3.6-1.6,3.6-3.6S23.5,70,21.5,70z"/>
</g>
<path class="st0" d="M91.9,50.8h-3.2V35.6c0-2-1.6-3.6-3.6-3.6H67.9v-3.3l-17.7-9.8L50,19.3l-0.2-0.4l-17.7,9.8V32H14.9
	c-2,0-3.6,1.6-3.6,3.6v15.2H8.1c-2,0-3.6,1.6-3.6,3.6v33c0,2,1.6,3.6,3.6,3.6h83.8c2,0,3.6-1.6,3.6-3.6v-33
	C95.5,52.4,93.9,50.8,91.9,50.8z M32.1,84H11.5V64h20.6V84z M32.1,61H11.5v-3.2h20.6V61z M32.1,48.5H18.3V45h13.8V48.5z M32.1,42
	H18.3v-3h13.8V42z M67.9,39h13.8v3H67.9V39z M67.9,45h13.8v3.5H67.9V45z M60.9,39v3v3v3.5v9.3V61v3v19.5H39.1V64v-3v-3.2v-9.3V45v-3
	v-3v-6.5L50,26.8l10.9,5.7V39z M88.5,84H67.9V64h20.6V84z M88.5,61H67.9v-3.2h20.6V61z"/>
</svg>
