<?xml version="1.0" encoding="UTF-8"?><svg id="a" xmlns="http://www.w3.org/2000/svg" xmlns:xlink="http://www.w3.org/1999/xlink" viewBox="0 0 340 340"><defs><style>.j{fill:none;}.k{fill:#fff;}.l{fill:#f1485b;}.m{fill:#932e38;}.n{fill:#7fa7b8;}.o{fill:#15394f;}.p{fill:#f7efed;stroke:#932e38;stroke-miterlimit:10;stroke-width:4px;}.q{clip-path:url(#c);}.r{clip-path:url(#b);}.s{clip-path:url(#f);}.t{clip-path:url(#e);}.u{clip-path:url(#d);}.v{clip-path:url(#i);}.w{clip-path:url(#h);}.x{clip-path:url(#g);}</style><clipPath id="b"><circle class="n" cx="170" cy="170" r="149.21"/></clipPath><clipPath id="c"><path class="j" d="M157.64,213.73s2.19,33.68-12.23,33.18c-14.42-.5-32.67,2.16-44.59,8.85-19.83,11.13-24.35,34.98-21.63,47.58,3.01,13.91,184.09,29.91,190.16,8.97,6.06-20.94,.28-50.32-38.05-58.39-20.04-4.22-43.99-2.87-43.99-2.87l8.94-54.25-38.6,16.92Z"/></clipPath><clipPath id="d"><path class="o" d="M86.4,237.51c20.93-3.15,26.87,24.11,60.1,30.58,38.21,7.44,51.66-24.47,99.71-24.18,29.79,.18,70.46,12.73,77.44,37.89,8.14,29.35-33.2,62.76-40.08,68.14-74.4,58.22-215.3,43.63-239.99-13.38-15.77-36.42,13.89-94.7,42.83-99.05Z"/></clipPath><clipPath id="e"><rect class="o" x="20.82" y="242.7" width="316.91" height="206.36" transform="translate(-172.64 513.01) rotate(-88.01)"/></clipPath><clipPath id="f"><path class="j" d="M180.76,156.21s-5.44-13.06-15.74-11.95c-10.3,1.11-17.95,17.65-17.95,17.65,0,0,18.43,14.91,33.69-5.7Z"/></clipPath><clipPath id="g"><path class="j" d="M110.74,147.57s4.75-7.68,11.08-2.94c6.33,4.74,9.35,15.51,8.98,17.63-.37,2.12-13.55,6.48-20.06-14.69Z"/></clipPath><clipPath id="h"><path class="k" d="M180.69,151.89c-3.99-6.74-11.73-9.95-18.42-8.07-8.18,2.29-13.56,11.84-10.72,21.29,3.69,1.62,12.19,4.7,21.03,1.79,2.5-.83,5.72-1.94,7.6-5.15,2.43-4.16,.88-8.84,.52-9.85Z"/></clipPath><clipPath id="i"><path class="k" d="M111.37,153.27s0-14.81,9.86-9.46c7.07,3.84,9.51,15.78,9.14,17.94s-12.37,13.06-19-8.48Z"/></clipPath></defs><circle class="n" cx="170" cy="170" r="149.21"/><g class="r"><g><g><path class="l" d="M140.01,95.58c-5.33-3.52-23.24,6-33.38,19.37-2.56,3.37-4.08,6.26-4.98,8.08-10.79,21.85-8.16,40.93-13.01,64.54-2.4,11.68-4.97,27.07-16.06,40.59-18.63,22.69-40.86,16.19-52.77,37.61-6.06,10.9-8.16,26.7-1.1,37.23,10.96,16.36-12.9-27.1,22.35-34.98,11.4-2.55,54.27,29.35,57.73,25.9,13.34-13.31,11.54-20.14,19.82-23.9,15.69-7.13,31.02,12.76,43.48,6.3,10.24-5.31,12.72-22.54,5.41-33.48-6.47-9.69-16.86-8.81-28.57-17.45-16.31-12.03-19.07-30.62-20.89-42.98-7.05-47.74,30.58-81.15,21.98-86.84Z"/><path class="k" d="M139.94,95.69c-3.08-1.67-6.96-.08-10,1.04-6.43,2.74-12.18,6.95-17.2,11.78-7.76,7.23-12.38,16.85-15.37,26.89-3.98,13.48-4.1,27.58-5.9,41.47-.43,3.5-1,6.98-1.65,10.45-2.01,10.39-4.13,20.9-9.08,30.42-6.58,13.11-17.42,22.69-30.98,28.14-6.47,2.8-13.16,4.97-18.91,8.79-5.79,3.8-10.11,9.49-12.73,15.87-4.55,11-5.23,24.83,2.52,34.56,.31,.41,.61,.83,.99,1.14,.05,.06,.11,0-.1,.05-.15,.13-.06,.08-.07,0,.05-.91-.15-1.87-.27-2.82-2.99-17.36,1.15-31.99,20.07-36.09,11.3-1.35,41.23,19.7,53.52,24.8,1.05,.43,2.29,.96,3.32,.91,.02,0-.04,.01-.07,.06,.07-.06,.32-.33,.42-.43,3.59-3.68,6.9-7.78,9.52-12.2,1.9-3.05,3.37-6.35,6.07-8.93,5.77-5.28,14.2-5.18,21.09-2.65,7.64,2.32,17.48,9.49,25.23,6.66,10.46-4.57,12.02-19.73,7.57-29.1-4.7-10.51-15.7-11.47-24.74-16.77-12.98-7.09-20.82-20.08-23.9-34.25-3.13-13.77-4.14-28.2-1.07-42.06,2.85-13.83,8.94-26.69,15.73-38.97,1.68-3.08,3.39-6.14,4.92-9.28,1.21-2.78,3.84-7.43,1.07-9.49h0Zm.15-.22c3.04,2.19,.18,7.22-.93,9.85-1.52,3.17-3.23,6.23-4.86,9.33-11.88,21.45-19.75,45.47-14.9,70.11,2.22,14.59,6.77,28.9,18.79,38.34,4.66,3.88,10.09,6.34,15.73,8.61,7.11,2.75,13.25,6.23,16.58,13.61,5.1,10.89,3.03,27.69-9.16,32.84-5.86,2.19-12.2-.45-17.44-2.75-6.19-2.71-12.56-6.1-19.38-5.64-5.09,.4-9.36,2.97-11.84,7.49-2.62,4.41-5.6,9.29-9.05,13.1-.86,.99-2.7,2.97-3.64,3.9l-.23,.24-.12,.12c-.06,.05-.04,.05-.16,.15-.36,.33-.8,.45-1.21,.5-1.62,.09-2.92-.59-4.3-1.12-12.7-6.08-24.19-14.28-36.78-20.51-3.12-1.55-6.29-3.03-9.56-4.1-2.03-.62-4.09-1.21-6.16-.94-18.45,3.68-22.24,18.03-19.46,34.8,.08,1.07,.45,2.19,.19,3.3-.04,.09-.1,.23-.29,.33-.31,.14-.51,.02-.71-.1-.49-.36-.83-.87-1.18-1.31-1.08-1.42-2.02-2.91-2.91-4.45-4.95-9.6-3.82-21.23,.03-31,2.58-6.63,6.99-12.64,12.91-16.67,5.85-4.04,12.6-6.38,18.99-9.27,12.95-5.46,23.35-14.91,29.63-27.51,4.76-9.25,6.92-19.62,8.97-29.8,.69-3.41,1.31-6.83,1.79-10.29,1.99-13.84,2.57-28.09,6.86-41.53,2.24-6.68,4.98-13.28,9.14-19.01,6.33-8.45,14.76-15.38,24.43-19.6,3.17-1.19,7.03-2.71,10.26-.98h0Z"/></g><g><path class="l" d="M224.76,135.89s21.77,71.66,39.86,96.44c18.09,24.78,44.02,41.7,46.99,57.27,2.97,15.57-3.28,20.34-3.28,20.34,0,0-16.05,7.87-38.68,7.75-22.63-.12-47.83-42.54-52.13-44.93s-1.64-137.92-2.19-142.19c-.54-4.28,9.42,5.33,9.42,5.33Z"/><path class="k" d="M224.87,135.82c6.69,19.69,13.83,39.6,21.81,58.77,5.74,13.31,11.43,26.91,20.05,38.61,8.71,11.74,19.17,21.93,29.26,32.51,2.87,3.05,5.7,6.15,8.33,9.44,3.23,4.1,6.38,8.61,7.58,13.81,.43,2.03,.7,4.2,.84,6.27,.22,5.26-.17,11.14-4.15,15.09-5.09,2.35-10.43,3.98-15.85,5.33-8.11,1.92-16.53,3.03-24.88,2.76-17.84-2.06-33.81-23.34-44.33-36.55-2.24-2.7-4.17-5.8-6.77-8.02-.18-.13-.35-.29-.46-.46-.08-.1-.12-.17-.15-.24l-.11-.21c-.74-1.83-.81-3.7-1.05-5.52-1.4-16.61-1.2-33.22-1.28-49.84,.05-27.44,.68-55.43,1.26-82.9,.06-1.59-.02-3.18,.02-4.73,.03-.22,.16-.49,.4-.68,1.96-1.12,7.96,5.14,9.49,6.56h0Zm-.22,.14c-2-1.79-4.15-3.63-6.42-5.12-.57-.36-1.16-.71-1.76-.92-.29-.1-.61-.12-.68-.05,.09,7.08,.28,14.27,.26,21.38,.33,34.81-.11,72.91,1.11,107.69,.24,4.17,.3,9.08,1.25,12.83,1.89,1.31,5.09,5.93,7.14,8.52,9.6,12.33,20.65,27.13,34.83,34.18,3.04,1.44,6.27,2.36,9.62,2.4,1.17-.03,2.94,.02,4.11-.03,6.16-.22,12.34-.93,18.36-2.28,5.24-1.1,11.02-2.97,15.58-4.98,3.65-3.66,4.11-9.37,3.88-14.3-.15-2.02-.43-4.16-.86-6.14-1.18-5.05-4.31-9.35-7.56-13.34-2.65-3.2-5.56-6.19-8.49-9.16-8.86-8.86-18.17-17.42-26.22-27.1-13.69-16.13-21.04-36.43-28.6-55.87-5.75-15.67-11.04-31.64-15.56-47.7h0Z"/></g><g><path class="l" d="M131.68,107.48c-5.01-2.63-19.92,7.35-27.66,20.04-1.95,3.19-3.03,5.88-3.66,7.56-7.54,20.2-3.53,36.76-5.7,57.98-1.07,10.49-1.96,24.28-10.52,37.17-14.37,21.64-34.52,17.9-43.09,37.82-4.36,10.14-8.82,31.85,2.35,32.88,31.8,2.93,55.95,4.91,70.65-3.27,9.03-5.03,25.86-5.49,28.6-8.83,10.55-12.91-21.19-21.8-14.24-25.85,13.17-7.68,28.44,8.47,38.84,1.67,8.54-5.59,9.18-20.98,1.78-29.96-6.56-7.95-15.63-6.25-26.71-12.81-15.43-9.14-19.52-25.26-22.23-35.97-10.47-41.4,19.67-74.17,11.6-78.41Z"/><path class="k" d="M131.62,107.59c-4.74-1.96-12.91,4.25-16.45,7.22-4.73,4.07-8.9,8.88-11.95,14.34-1.75,3.06-2.91,6.4-4,9.74-4.65,14.73-3.14,30.26-3.6,45.47-.22,6.28-.85,12.53-1.6,18.77-1.48,12.49-5.95,25.03-14.77,34.28-4.36,4.66-9.74,8.22-15.25,11.22-5.49,3.04-11.18,5.77-15.61,10.04-2.21,2.1-4.06,4.59-5.47,7.29-3.82,7.49-8.06,23.28-4.14,30.97,1.01,1.94,2.9,3.02,5.02,3.12l2.34,.21,4.68,.41c12.83,1.08,25.73,2.16,38.6,1.64,3.41-.21,7.03-.5,10.39-1.1,2.58-.41,5.34-1.13,7.82-1.92,1.07-.4,2.13-.82,3.2-1.24l4.18-2.1c7.93-3.74,16.78-4.08,24.95-6.83,.73-.32,1.37-.6,1.76-1.04,.8-.98,1.49-2.15,1.76-3.38,.86-4.41-3.19-7.78-6.3-10.33-2.41-1.9-5.02-3.57-7.6-5.51-1.01-.79-2.05-1.6-2.84-2.71-1.31-1.85-.45-3.71,1.55-4.59,9.93-5.45,20.55,1.56,30.36,3.22,10.03,1.9,14.85-8.29,14.08-16.94-.44-5.81-3.04-11.77-7.82-15.23-5.07-3.65-11.41-4.28-17.12-6.74-16.21-6.48-23.91-20.52-27.7-36.74-4.34-15.25-3.39-31.61,1.29-46.66,1.79-6.03,4.09-11.89,6.52-17.66,1.21-2.89,2.47-5.76,3.56-8.69,.81-2.56,2.8-6.9,.16-8.52h0Zm.12-.23c2.91,1.67,.81,6.43,.06,8.88-1.07,2.96-2.3,5.84-3.48,8.75-2.38,5.8-4.6,11.66-6.31,17.67-4.38,14.97-4.95,31.08-.37,46.06,3.96,15.42,11.52,28.94,27.04,34.92,5.79,2.37,12.55,3.09,17.78,6.85,5.48,3.95,8.42,10.57,8.95,17.16,.95,10.38-5.26,22.03-17.16,19.83-9.54-1.43-19.31-8.49-28.74-3.62-.23,.12-.69,.34-.83,.53,.02,0,0-.04,.01-.05,.38,.96,1.58,1.8,2.44,2.51,2.42,1.85,5.09,3.58,7.59,5.58,5.76,4.43,10.52,10.89,4.51,17.48-2.71,2.14-6.23,2.43-9.42,3.23-3.09,.63-6.15,1.21-9.17,1.94-3.01,.73-5.99,1.57-8.72,2.84l-4.24,2.1c-1.12,.44-2.25,.88-3.38,1.29-1.79,.56-3.95,1.16-5.8,1.52-1.36,.35-3.32,.55-4.71,.81-15.68,1.84-31.5,.19-47.14-1.14-1.28-.15-5.72-.51-7.03-.65-4.87-.25-7.32-4.41-7.85-8.81-1.05-8.74,1.82-19.97,5.76-27.79,1.5-2.84,3.47-5.45,5.81-7.65,4.63-4.41,10.46-7.16,15.97-10.18,11.26-5.74,20.26-14.61,25.07-26.37,3.7-8.61,4.88-18.06,5.79-27.34,1.05-9.35,.87-18.74,1.02-28.15,.16-12.49,1.81-25.38,7.8-36.51,4.67-8.16,11.53-15.16,19.71-19.82,2.71-1.36,6-3.08,9.04-1.84h0Z"/></g><g><path class="m" d="M156.94,209.62s2.28,35.08-12.74,34.56c-15.02-.52-34.02,2.25-46.44,9.22-20.66,11.59-25.36,36.43-22.53,49.56,3.13,14.49,191.74,31.15,198.05,9.34,6.31-21.81,.29-52.41-39.63-60.81-20.88-4.39-45.82-2.99-45.82-2.99l9.31-56.5-40.21,17.62Z"/><path class="k" d="M158.07,210.3c.17-.15,.22-.65,.2-.64v.12l.02,.24,.02,.48c.26,9.51-.05,32.19-11.82,34.7-.66,.16-1.45,.19-2.12,.2-6.48-.19-12.97,.1-19.4,.99-20.68,2.8-38.16,10.2-46.05,30.94-2.6,6.83-3.86,14.25-3.28,21.55,.15,1.38,.26,2.91,.7,4.19,.4,.64,1.02,1.11,1.7,1.54,1.97,1.23,4.31,2.09,6.63,2.87,2.34,.77,4.72,1.43,7.12,2.04,24.21,5.74,49.09,8.28,73.85,10.4,16.92,1.38,100.71,7.03,107.14-7.72,4.38-14.7,2.34-31.88-8.02-43.64-8.16-9.48-20.21-14.58-32.28-16.97-14.66-2.87-29.72-3.4-44.62-2.87h-.29l.05-.27c.08,.17,9.28-57.08,9.57-56.37l-40.24,17.53,1.13,.69h0Zm-2.42-.12l1.29-.57c.19,.01,40.16-17.78,40.33-17.79,.02,0-9.21,56.64-9.21,56.7l-.24-.27c14.95-.59,30.04-.13,44.77,2.68,12.23,2.36,24.46,7.5,32.78,17.07,10.61,11.95,12.79,29.47,8.39,44.49-3.37,9.99-38.7,10.46-48.41,10.84-29.96,.55-59.91-1.37-89.67-4.7-17.34-2.16-34.85-4.26-51.64-9.34-3.04-1.12-9.17-2.86-9.84-6.45-.78-3.76-.86-7.64-.58-11.45,1.17-15.18,9-30.23,22.25-38.2,8.76-5.24,18.78-7.71,28.76-9.17,6.54-.94,13.16-1.26,19.76-1.11,.79-.01,1.62-.09,2.35-.36,9.1-3.33,9.23-24.09,8.9-32.4h0Z"/></g><path class="p" d="M109.92,115.42s-5.09,11.87-4.05,19.67c1.05,7.8,4.8,24.6,3.73,27.81-1.96,5.87-2.89,13.79-.33,24.41,3.57,14.85,18.4,42.45,28.19,43.94,17.02,2.59,40.12-8.94,51.63-26.24,14.15-21.26,4.88,2.49,15.69-17.68,3.18-5.93,12.53-23.99,9.02-47.57-.87-5.86-6.31-42.39-35.78-52.42-22.81-7.77-51.57,3.21-68.1,28.07Z"/><path class="m" d="M123.72,202.86c8.42,6.1,19.5,6.23,28.35,1.04,1.27-.73,2.46-1.58,3.69-2.49-.78,1.3-1.8,2.46-2.92,3.53-8.03,7.5-22.62,7.23-29.12-2.08h0Z"/><path class="m" d="M154.07,200.22c2.32-.41,4.53,.16,6.35,1.66-2.14,1.19-5.06,.42-6.35-1.66h0Z"/><ellipse class="m" cx="173.74" cy="175.61" rx="1.88" ry="2.88" transform="translate(-7.81 343.14) rotate(-88.01)"/><ellipse class="m" cx="180.38" cy="182.32" rx="1.88" ry="2.88" transform="translate(-8.11 356.24) rotate(-88.01)"/><ellipse class="m" cx="183.6" cy="172.36" rx="1.88" ry="2.88" transform="translate(4.96 349.85) rotate(-88.01)"/><ellipse class="m" cx="122.44" cy="174.27" rx="1.88" ry="2.88" transform="translate(-55.99 290.57) rotate(-88.01)"/><ellipse class="m" cx="115.35" cy="180.5" rx="1.88" ry="2.88" transform="translate(-69.05 289.5) rotate(-88.01)"/><ellipse class="m" cx="112.83" cy="170.34" rx="1.88" ry="2.88" transform="translate(-61.33 277.17) rotate(-88.01)"/><g class="q"><g><path class="o" d="M86.4,237.51c20.93-3.15,26.87,24.11,60.1,30.58,38.21,7.44,51.66-24.47,99.71-24.18,29.79,.18,70.46,12.73,77.44,37.89,8.14,29.35-33.2,62.76-40.08,68.14-74.4,58.22-215.3,43.63-239.99-13.38-15.77-36.42,13.89-94.7,42.83-99.05Z"/><g class="u"><g><rect class="o" x="20.82" y="242.7" width="316.91" height="206.36" transform="translate(-172.64 513.01) rotate(-88.01)"/><g class="t"><g><line class="o" x1="89.89" y1="37.5" x2="84.53" y2="191.41"/><line class="o" x1="99.82" y1="37.85" x2="94.46" y2="191.76"/><line class="o" x1="109.74" y1="38.2" x2="104.38" y2="192.1"/><line class="o" x1="119.67" y1="38.54" x2="114.31" y2="192.45"/><line class="o" x1="129.59" y1="38.89" x2="124.23" y2="192.8"/><line class="o" x1="139.52" y1="39.23" x2="134.16" y2="193.14"/><line class="o" x1="149.45" y1="39.58" x2="144.09" y2="193.49"/><line class="o" x1="159.37" y1="39.92" x2="154.01" y2="193.83"/><line class="o" x1="169.3" y1="40.27" x2="163.94" y2="194.18"/><line class="o" x1="179.22" y1="40.62" x2="173.86" y2="194.52"/><line class="o" x1="189.15" y1="40.96" x2="183.79" y2="194.87"/><line class="o" x1="199.08" y1="41.31" x2="193.72" y2="195.22"/><line class="o" x1="209" y1="41.65" x2="203.64" y2="195.56"/><line class="o" x1="218.93" y1="42" x2="213.57" y2="195.91"/><line class="o" x1="228.85" y1="42.34" x2="223.49" y2="196.25"/><line class="o" x1="238.78" y1="42.69" x2="233.42" y2="196.6"/><line class="o" x1="248.7" y1="43.03" x2="243.34" y2="196.94"/><line class="o" x1="258.63" y1="43.38" x2="253.27" y2="197.29"/><line class="o" x1="268.56" y1="43.73" x2="263.2" y2="197.64"/><line class="o" x1="278.48" y1="44.07" x2="273.12" y2="197.98"/><line class="o" x1="288.41" y1="44.42" x2="283.05" y2="198.33"/><line class="o" x1="84.79" y1="184.04" x2="79.43" y2="337.95"/><line class="o" x1="94.71" y1="184.39" x2="89.35" y2="338.3"/><line class="o" x1="104.64" y1="184.73" x2="99.28" y2="338.64"/><line class="o" x1="114.57" y1="185.08" x2="109.21" y2="338.99"/><line class="o" x1="124.49" y1="185.43" x2="119.13" y2="339.34"/><line class="o" x1="134.42" y1="185.77" x2="129.06" y2="339.68"/><line class="o" x1="144.34" y1="186.12" x2="138.98" y2="340.03"/><line class="o" x1="154.27" y1="186.46" x2="148.91" y2="340.37"/><line class="o" x1="164.19" y1="186.81" x2="158.83" y2="340.72"/><line class="o" x1="174.12" y1="187.15" x2="168.76" y2="341.06"/><line class="o" x1="184.05" y1="187.5" x2="178.69" y2="341.41"/><line class="o" x1="193.97" y1="187.85" x2="188.61" y2="341.76"/><line class="o" x1="203.9" y1="188.19" x2="198.54" y2="342.1"/><line class="o" x1="213.82" y1="188.54" x2="208.46" y2="342.45"/><line class="o" x1="223.75" y1="188.88" x2="218.39" y2="342.79"/><line class="o" x1="233.68" y1="189.23" x2="228.32" y2="343.14"/><line class="o" x1="243.6" y1="189.57" x2="238.24" y2="343.48"/><line class="o" x1="253.53" y1="189.92" x2="248.17" y2="343.83"/><line class="o" x1="263.45" y1="190.27" x2="258.09" y2="344.18"/><line class="o" x1="273.38" y1="190.61" x2="268.02" y2="344.52"/><line class="o" x1="283.3" y1="190.96" x2="277.94" y2="344.87"/><line class="o" x1="79.68" y1="330.58" x2="74.32" y2="484.49"/><line class="o" x1="89.61" y1="330.93" x2="84.25" y2="484.84"/><line class="o" x1="99.54" y1="331.27" x2="94.18" y2="485.18"/><line class="o" x1="109.46" y1="331.62" x2="104.1" y2="485.53"/><line class="o" x1="119.39" y1="331.97" x2="114.03" y2="485.87"/><line class="o" x1="129.31" y1="332.31" x2="123.95" y2="486.22"/><line class="o" x1="139.24" y1="332.66" x2="133.88" y2="486.57"/><line class="o" x1="149.17" y1="333" x2="143.81" y2="486.91"/><line class="o" x1="159.09" y1="333.35" x2="153.73" y2="487.26"/><line class="o" x1="169.02" y1="333.69" x2="163.66" y2="487.6"/><line class="o" x1="178.94" y1="334.04" x2="173.58" y2="487.95"/><line class="o" x1="188.87" y1="334.39" x2="183.51" y2="488.29"/><line class="o" x1="198.79" y1="334.73" x2="193.43" y2="488.64"/><line class="o" x1="208.72" y1="335.08" x2="203.36" y2="488.99"/><line class="o" x1="218.65" y1="335.42" x2="213.29" y2="489.33"/><line class="o" x1="228.57" y1="335.77" x2="223.21" y2="489.68"/><line class="o" x1="238.5" y1="336.11" x2="233.14" y2="490.02"/><line class="o" x1="248.42" y1="336.46" x2="243.06" y2="490.37"/><line class="o" x1="258.35" y1="336.8" x2="252.99" y2="490.71"/><line class="o" x1="268.28" y1="337.15" x2="262.92" y2="491.06"/><line class="o" x1="278.2" y1="337.5" x2="272.84" y2="491.41"/></g></g></g></g></g></g><g class="s"><ellipse class="m" cx="172.08" cy="153.73" rx="15.14" ry="12.1" transform="translate(-35.2 255.12) rotate(-67.84)"/></g><g><path class="l" d="M151.73,289.18c21.02-3.24,48.23-15.34,65.09-40.83,12.82-19.39,14.15-38.21,15.59-58.51,.79-11.08-1.84-29.46-7.08-66.21-4.34-30.43-6.23-37.65-11.05-38.87-10.16-2.56-25.55,23.52-27.14,27.45-1.58,3.92-2.3,7.11-2.69,9.11-2.16,11.03,4.35,65.69,4.35,65.69,2.27,19.19,3.41,28.79,.2,38.37-8.32,24.81-25.05,46.24-46.13,55.14-12.33,5.2-23.46,5.49-23.3,7.21,.19,2.07,16.65,3.85,32.16,1.46Z"/><path class="k" d="M151.71,289.05c33.57-5.18,64.86-28.85,74.65-61.98,3.85-12.69,4.67-26.06,5.46-39.23,.13-13.25-2.12-26.39-3.82-39.51-2.04-13.14-4.38-32.1-6.79-45-1-4.54-2.39-15.36-6.47-17.36-6.61-2.39-14.99,8.85-18.53,13.55-2.96,4.16-5.83,8.49-8.01,13.11-1.49,3.84-2.71,7.9-2.89,12.03-.17,3.68-.02,7.6,.14,11.26,.91,16.88,2.83,34.3,4.74,51.13,.72,5.94,1.74,14.23,2.06,21.04,.25,5.38,.04,10.99-1.53,16.22-7.47,22.75-22.25,44.4-44.14,55.19-7.15,3.52-15.16,5.4-22.95,6.93-1.21,.33-2.6,.44-3.61,1.13-.12,.12-.1,.11-.08,.19,.69,.68,1.81,.88,2.78,1.14,2.57,.58,5.22,.83,7.85,1.01,7.05,.43,14.16,.16,21.16-.85h0Zm.04,.26c-8.76,1.32-17.73,1.7-26.54,.63-1.43-.24-6.17-.72-5.94-2.44,.25-.69,1.06-.87,1.58-1.08,.87-.28,1.73-.48,2.6-.69,7.68-1.7,15.55-3.72,22.54-7.37,21.09-11.08,35.13-32.5,42.19-54.78,1.45-4.99,1.62-10.16,1.37-15.37-.37-7.22-1.36-14.49-2.19-21.75-2.02-18.63-4.1-37.4-4.52-56.16v-2.88l.1-2.9,.03-.73,.09-.75,.19-1.49c.55-3.37,1.58-6.62,2.85-9.78,2.29-4.82,5.27-9.22,8.38-13.53,4.22-5.47,10.57-13.81,17.83-14.65,4.96-.38,7.1,4.2,8.25,8.17,1.12,3.72,1.83,7.47,2.51,11.22,2.35,12.88,4.6,31.95,6.54,45.12,1.63,13.2,3.81,26.43,3.6,39.78-.59,9.51-1.36,19-3.12,28.37-6.96,39.13-39.97,66.77-78.32,73.05h0Z"/></g><g class="x"><ellipse class="m" cx="128.86" cy="150.43" rx="13.23" ry="12.63" transform="translate(-30.17 268.52) rotate(-86.01)"/></g><path class="m" d="M155.51,126.29c-2.59-.29-5.12,.26-5.28,5.78-.1,3.56,2.95,5.68,8.4,5.88,2.1,.08,8.54-.88,15.08,.04,5.13,.72,11.8,3.01,13.06,4.63,1.25,1.62-2.61-7.64-15.14-12.32-11.57-4.32-16.12-4.01-16.12-4.01Z"/><path class="m" d="M127.44,126.42c2.2,.22,3.29,7.92,.1,8.81s-6.43,.23-9.9,.14c-2.72-.07-9.45,2.2-10.11,4.66-.66,2.46-.64-3.49,3.29-7.26,3.93-3.77,9.55-7.05,16.61-6.36Z"/><ellipse class="m" cx="131.13" cy="189.69" rx="1.37" ry="8.46" transform="translate(-97.73 218.05) rotate(-62.41)"/><g><path class="o" d="M254.39,100.38c-49.42-56.72-99.86-46.55-122.56-36.52-17.78,7.86-28.12,37.03-31.77,49.3-3.87,2.8-6.41,5.82-6.48,8.76-.09,4.2,2.29,7.17,2.29,7.17,2.04,2.55,4.81,3.49,6,3.81,2.22-1.54,5.44-3.55,9.58-5.42,2.19-.99,8.59-3.33,18.56-5.08,21.07-3.69,38.33,.08,47.41,2.76,19.2,4.01,30.75,11.4,37.92,17.85,5.85,5.26,12.52,13.26,20.12,11.95,2.89-.5,6.56-2.45,7.74-5.42,1.29-3.24-.43-7.68-4.16-12.56,1.76,.34,3.02,.43,3.59,.21,4.61-1.77,5.69-6.06,5.64-9.17-.03-1.64-2.14-4.45-4.14-6.76,2.02,1.46,4.96,2.76,9,2.62,8.92-.31,15.28-7.42,1.27-23.5Z"/><path class="k" d="M254.29,100.47c-30.53-35.5-75.28-54.26-120.67-36.47-17.99,6.95-27.97,32.17-33.16,49.44-3.66,2.69-7.6,6.29-6.02,11.26,.37,1.42,.99,2.79,1.87,3.98h0s.03,.04-.04-.03c-.09-.1-.27-.16-.4-.15l.46,.22c.72,.87,1.59,1.62,2.57,2.21,.97,.59,2.04,1.04,3.14,1.33l-.56,.1c2.69-1.9,5.53-3.6,8.49-5.05,5.99-2.86,12.42-4.42,18.88-5.71,16.19-3.14,33.08-2.28,48.92,2.32,10.61,2.13,22.28,6.23,31.6,12.68,3.18,2.14,6.17,4.64,8.89,7.28,4.94,4.49,10.59,11.29,17.85,9.64,10.95-3.35,5.25-11.8,.58-18.02l2.51,.52c1.05,.2,2.13,.45,3.07,.32,3.22-1.06,5.14-4.33,5.24-7.67,.1-.87-.15-1.62-.57-2.41-.86-1.62-2.05-3.14-3.27-4.61l-3.13-3.78,3.91,2.93c3.97,2.97,9.76,3.56,14.22,1.38,8.61-5.11,.07-16.5-4.39-21.71h0Zm.2-.17c3.8,4.53,7.99,9.67,8.31,15.83,.19,4.97-4.39,7.8-8.87,8.12-3.53,.36-7.23-.43-10.15-2.51l.78-.85c1.3,1.46,2.56,2.95,3.59,4.72,.54,.9,.93,2.02,.84,3.11,.01,3.97-2.19,7.92-6.04,9.37-1.41,.43-2.81,.07-4.11-.1l.99-1.6c1.19,1.51,2.31,3.1,3.21,4.86,2.04,3.67,2.78,8.63-.83,11.75-2.16,1.96-4.88,3.17-7.76,3.38-9.2,.39-15.69-9.11-22.24-14.16-10.07-8.26-22.48-13.02-35.13-15.77-15.44-4.63-31.96-5.63-47.85-2.86-6.3,1.16-12.73,2.51-18.57,5.14-2.92,1.34-5.74,2.93-8.4,4.73l-.27,.18-.3-.08c-2.44-.7-4.71-2.08-6.29-4.09l.46,.22c-.14,0-.34-.09-.45-.21-.52-.67-.91-1.42-1.26-2.19-.96-2.26-1.52-4.9-.72-7.29,1.16-3.14,3.78-5.29,6.35-7.21,2.93-10.44,8.35-23.65,14.9-33.66,4.55-6.9,10.45-13.51,18.29-16.65,15.28-6.65,32.42-9.11,48.93-6.72,29.17,3.95,53.74,22.87,72.58,44.53h0Z"/></g><path class="m" d="M127.63,152.48c3.37,7.39,5.89,16.76,3.37,24.75-1.4,3.63-3.76,7.15-7.25,9.03l-.16-.21c2.56-3.69,4.14-7.62,5.53-11.75,1.23-4.17,.95-8.69,.33-13-.44-2.94-1.15-5.86-2.06-8.72l.24-.1h0Z"/><path class="m" d="M167.07,144.59c-3.08,.05-5.99,1.11-8.16,3.28-1.54,1.66-2.68,3.65-4.31,5.26-.54,.57-1.12,1.15-1.82,1.62l-.16-.12c1.21-4.72,4.85-8.9,9.66-10.12,1.61-.38,3.24-.33,4.79-.11v.2h0Z"/><path class="m" d="M119.42,143.52c-2.37-.06-4.88,.89-5.58,3.29-.47,1.68-.43,3.58-.96,5.32-.17,.61-.37,1.24-.76,1.78l-.12-.05c-.17-3.58-.24-8.51,3.66-10.21,1.25-.49,2.55-.42,3.77-.27v.13h0Z"/><ellipse class="k" cx="180.39" cy="113.01" rx="5.39" ry="15.95" transform="translate(33.5 267.07) rotate(-78.43)"/><path class="k" d="M178.05,125.18c4.19,.15,8.41,1.02,12.4,2.27,4.07,1.17,7.68,3.52,11.34,5.54,2.6,1.47,8.64,4.52,11.01,6.19,3.47,2.33,6.63,5.32,9.62,8.12,3.9,3.61,8,7.64,13.62,7.67l.04,.26c-4.26,1.4-8.81-.68-12.23-3.18-3.45-2.4-6.32-5.62-9.3-8.45-4.04-3.7-8.14-7.5-13.15-9.85-2.5-1.18-5.2-1.91-7.81-2.75-2.63-.81-5.17-1.82-7.78-2.69-2.61-.95-5.24-1.78-7.82-2.87l.05-.26h0Z"/><g><path class="k" d="M180.69,151.89c-3.99-6.74-11.73-9.95-18.42-8.07-8.18,2.29-13.56,11.84-10.72,21.29,3.69,1.62,12.19,4.7,21.03,1.79,2.5-.83,5.72-1.94,7.6-5.15,2.43-4.16,.88-8.84,.52-9.85Z"/><g class="w"><ellipse class="o" cx="172.09" cy="151.81" rx="15.41" ry="12.31" transform="translate(-3.77 299.22) rotate(-81.39)"/></g></g><g><path class="k" d="M111.37,153.27s0-14.81,9.86-9.46c7.07,3.84,9.51,15.78,9.14,17.94s-12.37,13.06-19-8.48Z"/><g class="v"><ellipse class="o" cx="128.39" cy="149.73" rx="13.46" ry="12.85" transform="translate(-29.9 267.39) rotate(-86.01)"/></g></g><path class="m" d="M162.14,144.1c-3.6,2.01-6.48,4.76-7.97,8.04-.98,2.44-1.34,4.92-2.66,7.37-.42,.85-.88,1.73-1.57,2.59h-.3c-1.26-5,1.46-11.14,6.68-15.21,1.78-1.33,3.76-2.29,5.73-3.01l.1,.22h0Z"/><path class="m" d="M118.78,142.71c-2.4-.02-4.89,.95-5.56,3.38-.43,1.69-.38,3.64-.98,5.38-.19,.61-.42,1.27-.87,1.8l-.15-.06c-.44-3.68-.29-8.75,3.7-10.45,1.3-.49,2.63-.4,3.87-.22v.16h0Z"/></g></g></svg>