<?xml version="1.0" encoding="utf-8"?>
<!-- Generator: Adobe Illustrator 26.1.0, SVG Export Plug-In . SVG Version: 6.00 Build 0)  -->
<svg version="1.1" id="Layer_1" xmlns="http://www.w3.org/2000/svg" xmlns:xlink="http://www.w3.org/1999/xlink" x="0px" y="0px"
	 viewBox="0 0 100 100" style="enable-background:new 0 0 100 100;" xml:space="preserve">
<style type="text/css">
	.st0{fill:none;}
	.st1{fill:#EF3C5A;}
</style>
<path class="st0" d="M54.5,61.1c0,12.2-6.5,22.2-15.5,22.2s-15.5-9.9-15.5-22.2s15.5-44.3,15.5-44.3S54.5,48.8,54.5,61.1z"/>
<path class="st1" d="M38.9,86.7c-10.8,0-19-11-19-25.7c0-12.7,14.2-42.5,15.9-45.8l1.3-2.6c0.5-1,1.7-1.5,2.8-1c0.4,0.2,0.8,0.5,1,1
	l1.3,2.6C43.7,18.6,58,48.4,58,61.1C58,75.7,49.8,86.7,38.9,86.7z M40.3,28.1c-0.3-0.7-1.2-1.1-1.9-0.8c-0.3,0.1-0.6,0.4-0.8,0.8
	c-4.8,11-10.7,26.1-10.7,33c0,10.5,5.3,18.7,12,18.7s12-8.2,12-18.7C51,54.2,45.1,39.1,40.3,28.1z"/>
<path class="st0" d="M78.6,40.7c0,6.2-3.3,11.2-7.8,11.2s-7.8-5-7.8-11.2s7.8-22.4,7.8-22.4S78.6,34.5,78.6,40.7z"/>
<path class="st1" d="M70.8,55.4c-6.5,0-11.3-6.3-11.3-14.7c0-6.8,7.3-22.2,8.2-23.9l1.9-4c0.3-0.7,1.2-1,1.8-0.6
	c0.3,0.1,0.5,0.4,0.6,0.6l1.9,4c0.8,1.7,8.2,17.1,8.2,23.9C82.1,49.1,77.2,55.4,70.8,55.4z M71.8,29.4c-0.2-0.6-0.9-0.9-1.5-0.6
	c-0.3,0.1-0.5,0.3-0.6,0.6c-1.8,4.6-3.3,9-3.3,11.3c0,4.2,2,7.7,4.3,7.7s4.3-3.5,4.3-7.7C75.1,38.5,73.6,34,71.8,29.4L71.8,29.4z"/>
</svg>
