<svg id="Layer_1" data-name="Layer 1" xmlns="http://www.w3.org/2000/svg" viewBox="0 0 100 100"><defs><style>.cls-1{fill:none;}.cls-2{fill:#ffa879;}</style></defs><rect class="cls-1" x="10" y="19.5" width="80" height="61" rx="3.98"/><path class="cls-2" d="M86,84H14A7.49,7.49,0,0,1,6.5,76.52v-53A7.49,7.49,0,0,1,14,16H86a7.49,7.49,0,0,1,7.48,7.48v53A7.49,7.49,0,0,1,86,84ZM14,23a.49.49,0,0,0-.48.48v53A.49.49,0,0,0,14,77H86a.49.49,0,0,0,.48-.48v-53A.49.49,0,0,0,86,23Z"/><rect class="cls-1" x="19" y="28.7" width="62" height="42.53" rx="3.98"/><path class="cls-2" d="M77,73.23H23a6,6,0,0,1-6-6V32.68a6,6,0,0,1,6-6H77a6,6,0,0,1,6,6V67.25A6,6,0,0,1,77,73.23ZM23,30.7a2,2,0,0,0-2,2V67.25a2,2,0,0,0,2,2H77a2,2,0,0,0,2-2V32.68a2,2,0,0,0-2-2Z"/><rect class="cls-2" x="14.14" y="49" width="70.71" height="2" transform="translate(-17.94 29.93) rotate(-28.72)"/><rect class="cls-2" x="20.46" y="54.23" width="65.6" height="2" transform="translate(-19.99 32.39) rotate(-28.72)"/></svg>